<svg xmlns="http://www.w3.org/2000/svg" xmlns:xlink="http://www.w3.org/1999/xlink" width="1920" zoomAndPan="magnify" viewBox="0 0 1440 1439.999935" height="1920" preserveAspectRatio="xMidYMid meet" version="1.0"><path fill="#ff9800" d="M 266.085938 0 C 179.777344 0 109.5625 70.214844 109.5625 156.523438 L 109.5625 576.378906 C 109.5625 635.949219 130.5625 693.980469 169.847656 741.03125 L 453.910156 1045.394531 L 453.910156 1408.695312 C 453.910156 1426.007812 467.902344 1440 485.214844 1440 L 1079.996094 1440 L 1079.996094 1158.261719 C 1079.996094 1140.949219 1093.992188 1126.957031 1111.300781 1126.957031 C 1128.613281 1126.957031 1142.605469 1140.949219 1142.605469 1158.261719 L 1142.605469 1440 L 1299.128906 1440 C 1316.4375 1440 1330.433594 1426.007812 1330.433594 1408.695312 L 1330.433594 1112.28125 C 1330.433594 936.601562 1220.609375 813.914062 1063.367188 813.914062 L 686.003906 813.914062 L 422.605469 550.515625 L 422.605469 156.523438 C 422.605469 70.214844 352.390625 0 266.085938 0 Z M 861.417969 125.21875 C 856.292969 125.21875 851.175781 125.34375 846.058594 125.59375 C 840.941406 125.847656 835.832031 126.222656 830.734375 126.726562 C 825.636719 127.226562 820.550781 127.855469 815.484375 128.605469 C 810.417969 129.355469 805.371094 130.234375 800.34375 131.230469 C 795.320312 132.230469 790.324219 133.355469 785.355469 134.597656 C 780.382812 135.84375 775.449219 137.210938 770.546875 138.695312 C 765.644531 140.183594 760.78125 141.789062 755.957031 143.515625 C 751.132812 145.242188 746.355469 147.085938 741.621094 149.046875 C 736.886719 151.007812 732.207031 153.082031 727.574219 155.273438 C 722.941406 157.464844 718.367188 159.765625 713.851562 162.179688 C 709.332031 164.597656 704.875 167.121094 700.480469 169.753906 C 696.085938 172.386719 691.757812 175.128906 687.5 177.976562 C 683.238281 180.820312 679.054688 183.769531 674.9375 186.820312 C 670.824219 189.875 666.785156 193.023438 662.824219 196.273438 C 658.863281 199.523438 654.988281 202.871094 651.191406 206.3125 C 647.394531 209.75 643.683594 213.28125 640.0625 216.90625 C 636.441406 220.527344 632.90625 224.238281 629.46875 228.035156 C 626.027344 231.828125 622.683594 235.707031 619.429688 239.667969 C 616.179688 243.628906 613.03125 247.664062 609.980469 251.78125 C 606.925781 255.894531 603.976562 260.082031 601.132812 264.34375 C 598.285156 268.601562 595.542969 272.929688 592.910156 277.324219 C 590.277344 281.71875 587.753906 286.175781 585.335938 290.691406 C 582.921875 295.210938 580.621094 299.785156 578.429688 304.417969 C 576.238281 309.046875 574.164062 313.730469 572.203125 318.464844 C 570.242188 323.199219 568.398438 327.976562 566.671875 332.800781 C 564.945312 337.625 563.339844 342.488281 561.855469 347.390625 C 560.367188 352.292969 559 357.226562 557.753906 362.199219 C 556.511719 367.167969 555.386719 372.164062 554.390625 377.1875 C 553.390625 382.214844 552.515625 387.261719 551.761719 392.328125 C 551.011719 397.394531 550.382812 402.480469 549.882812 407.578125 C 549.378906 412.675781 549.003906 417.785156 548.75 422.902344 C 548.5 428.015625 548.375 433.136719 548.375 438.261719 C 548.375 443.382812 548.5 448.503906 548.75 453.621094 C 549.003906 458.738281 549.378906 463.847656 549.882812 468.945312 C 550.382812 474.042969 551.011719 479.125 551.761719 484.195312 C 552.515625 489.261719 553.390625 494.308594 554.390625 499.332031 C 555.386719 504.355469 556.511719 509.355469 557.753906 514.324219 C 559 519.292969 560.367188 524.230469 561.855469 529.132812 C 563.339844 534.035156 564.949219 538.898438 566.671875 543.722656 C 568.398438 548.546875 570.242188 553.324219 572.203125 558.058594 C 574.164062 562.789062 576.238281 567.472656 578.429688 572.105469 C 580.621094 576.734375 582.921875 581.308594 585.335938 585.828125 C 587.753906 590.347656 590.277344 594.804688 592.910156 599.195312 C 595.542969 603.589844 598.285156 607.917969 601.132812 612.179688 C 603.976562 616.4375 606.925781 620.625 609.980469 624.742188 C 613.03125 628.855469 616.179688 632.894531 619.429688 636.851562 C 622.683594 640.8125 626.027344 644.691406 629.46875 648.488281 C 632.90625 652.285156 636.441406 655.992188 640.0625 659.617188 C 643.683594 663.238281 647.394531 666.769531 651.191406 670.210938 C 654.988281 673.652344 658.863281 676.996094 662.824219 680.246094 C 666.785156 683.496094 670.824219 686.648438 674.9375 689.699219 C 679.054688 692.75 683.238281 695.699219 687.5 698.546875 C 691.757812 701.394531 696.085938 704.132812 700.480469 706.765625 C 704.875 709.402344 709.332031 711.925781 713.851562 714.339844 C 718.367188 716.753906 722.941406 719.058594 727.574219 721.25 C 732.207031 723.4375 736.886719 725.515625 741.621094 727.476562 C 746.355469 729.4375 751.132812 731.277344 755.957031 733.003906 C 760.78125 734.730469 765.644531 736.335938 770.546875 737.824219 C 775.449219 739.3125 780.382812 740.679688 785.355469 741.921875 C 790.324219 743.167969 795.320312 744.289062 800.34375 745.289062 C 805.371094 746.289062 810.417969 747.164062 815.484375 747.914062 C 820.550781 748.667969 825.636719 749.292969 830.734375 749.796875 C 835.832031 750.300781 840.941406 750.675781 846.058594 750.925781 C 851.175781 751.179688 856.292969 751.304688 861.417969 751.304688 C 866.539062 751.304688 871.660156 751.179688 876.777344 750.925781 C 881.894531 750.675781 887.003906 750.300781 892.101562 749.796875 C 897.199219 749.292969 902.28125 748.667969 907.351562 747.917969 C 912.417969 747.164062 917.464844 746.289062 922.488281 745.289062 C 927.515625 744.289062 932.511719 743.167969 937.480469 741.921875 C 942.449219 740.679688 947.386719 739.3125 952.289062 737.824219 C 957.191406 736.335938 962.054688 734.730469 966.878906 733.003906 C 971.703125 731.277344 976.480469 729.4375 981.214844 727.476562 C 985.945312 725.515625 990.628906 723.4375 995.261719 721.25 C 999.890625 719.058594 1004.464844 716.753906 1008.984375 714.339844 C 1013.503906 711.925781 1017.960938 709.402344 1022.355469 706.765625 C 1026.75 704.132812 1031.074219 701.394531 1035.335938 698.546875 C 1039.59375 695.699219 1043.78125 692.75 1047.898438 689.699219 C 1052.011719 686.648438 1056.050781 683.496094 1060.011719 680.246094 C 1063.96875 676.996094 1067.847656 673.652344 1071.644531 670.210938 C 1075.441406 666.769531 1079.148438 663.238281 1082.773438 659.617188 C 1086.394531 655.992188 1089.925781 652.285156 1093.367188 648.488281 C 1096.808594 644.691406 1100.152344 640.8125 1103.402344 636.851562 C 1106.652344 632.894531 1109.804688 628.855469 1112.855469 624.742188 C 1115.90625 620.625 1118.855469 616.4375 1121.703125 612.179688 C 1124.550781 607.917969 1127.289062 603.589844 1129.921875 599.195312 C 1132.558594 594.804688 1135.082031 590.347656 1137.496094 585.828125 C 1139.914062 581.308594 1142.214844 576.734375 1144.40625 572.105469 C 1146.59375 567.472656 1148.671875 562.789062 1150.632812 558.058594 C 1152.59375 553.324219 1154.4375 548.546875 1156.160156 543.722656 C 1157.886719 538.898438 1159.496094 534.035156 1160.980469 529.132812 C 1162.46875 524.230469 1163.835938 519.292969 1165.078125 514.324219 C 1166.324219 509.355469 1167.445312 504.355469 1168.445312 499.332031 C 1169.445312 494.308594 1170.320312 489.261719 1171.074219 484.195312 C 1171.824219 479.125 1172.453125 474.042969 1172.953125 468.945312 C 1173.457031 463.847656 1173.832031 458.738281 1174.082031 453.621094 C 1174.335938 448.503906 1174.460938 443.382812 1174.460938 438.261719 C 1174.460938 433.136719 1174.335938 428.015625 1174.082031 422.902344 C 1173.832031 417.785156 1173.457031 412.675781 1172.953125 407.578125 C 1172.453125 402.480469 1171.824219 397.394531 1171.074219 392.328125 C 1170.320312 387.261719 1169.445312 382.214844 1168.445312 377.1875 C 1167.445312 372.164062 1166.324219 367.167969 1165.078125 362.199219 C 1163.835938 357.226562 1162.46875 352.292969 1160.980469 347.390625 C 1159.496094 342.488281 1157.886719 337.625 1156.160156 332.800781 C 1154.4375 327.976562 1152.59375 323.199219 1150.632812 318.464844 C 1148.671875 313.730469 1146.59375 309.046875 1144.40625 304.417969 C 1142.214844 299.785156 1139.910156 295.210938 1137.496094 290.691406 C 1135.082031 286.175781 1132.558594 281.71875 1129.921875 277.324219 C 1127.289062 272.929688 1124.550781 268.601562 1121.703125 264.34375 C 1118.855469 260.082031 1115.90625 255.894531 1112.855469 251.78125 C 1109.804688 247.664062 1106.652344 243.628906 1103.402344 239.667969 C 1100.152344 235.707031 1096.808594 231.828125 1093.367188 228.035156 C 1089.925781 224.238281 1086.394531 220.527344 1082.773438 216.90625 C 1079.148438 213.28125 1075.441406 209.75 1071.644531 206.3125 C 1067.847656 202.871094 1063.96875 199.523438 1060.011719 196.273438 C 1056.050781 193.023438 1052.011719 189.875 1047.898438 186.820312 C 1043.78125 183.769531 1039.59375 180.820312 1035.335938 177.976562 C 1031.074219 175.128906 1026.75 172.386719 1022.355469 169.753906 C 1017.960938 167.121094 1013.503906 164.597656 1008.984375 162.179688 C 1004.464844 159.765625 999.890625 157.464844 995.261719 155.273438 C 990.628906 153.082031 985.945312 151.007812 981.214844 149.046875 C 976.480469 147.085938 971.703125 145.242188 966.878906 143.515625 C 962.054688 141.789062 957.191406 140.183594 952.289062 138.695312 C 947.386719 137.210938 942.449219 135.84375 937.480469 134.597656 C 932.511719 133.355469 927.515625 132.230469 922.488281 131.230469 C 917.464844 130.234375 912.417969 129.355469 907.351562 128.605469 C 902.28125 127.855469 897.199219 127.226562 892.101562 126.726562 C 887.003906 126.222656 881.894531 125.847656 876.777344 125.59375 C 871.660156 125.34375 866.539062 125.21875 861.417969 125.21875 Z M 861.417969 125.21875 " fill-opacity="1" fill-rule="nonzero"/></svg>