<svg xmlns="http://www.w3.org/2000/svg" xmlns:xlink="http://www.w3.org/1999/xlink" width="1920" zoomAndPan="magnify" viewBox="0 0 1440 1439.999935" height="1920" preserveAspectRatio="xMidYMid meet" version="1.0"><defs><clipPath id="bcb42e885d"><path d="M 799.617188 765.691406 L 827.367188 765.691406 L 827.367188 793.441406 L 799.617188 793.441406 Z M 799.617188 765.691406 " clip-rule="nonzero"/></clipPath></defs><g clip-path="url(#bcb42e885d)"><path fill="#ff9800" d="M 827.308594 779.539062 C 827.308594 780.449219 827.21875 781.347656 827.042969 782.242188 C 826.863281 783.132812 826.601562 784 826.253906 784.839844 C 825.90625 785.679688 825.480469 786.476562 824.976562 787.234375 C 824.46875 787.988281 823.894531 788.6875 823.253906 789.332031 C 822.609375 789.972656 821.910156 790.546875 821.152344 791.054688 C 820.398438 791.558594 819.601562 791.984375 818.761719 792.332031 C 817.921875 792.679688 817.054688 792.945312 816.164062 793.121094 C 815.269531 793.296875 814.371094 793.386719 813.460938 793.386719 C 812.550781 793.386719 811.652344 793.296875 810.757812 793.121094 C 809.867188 792.945312 809 792.679688 808.160156 792.332031 C 807.320312 791.984375 806.523438 791.558594 805.769531 791.054688 C 805.011719 790.546875 804.3125 789.972656 803.667969 789.332031 C 803.027344 788.6875 802.453125 787.988281 801.949219 787.234375 C 801.441406 786.476562 801.015625 785.679688 800.667969 784.839844 C 800.320312 784 800.058594 783.132812 799.878906 782.242188 C 799.703125 781.347656 799.613281 780.449219 799.613281 779.539062 C 799.613281 778.628906 799.703125 777.730469 799.878906 776.839844 C 800.058594 775.945312 800.320312 775.082031 800.667969 774.242188 C 801.015625 773.402344 801.441406 772.601562 801.949219 771.847656 C 802.453125 771.089844 803.027344 770.390625 803.667969 769.75 C 804.3125 769.105469 805.011719 768.53125 805.769531 768.027344 C 806.523438 767.519531 807.320312 767.09375 808.160156 766.746094 C 809 766.398438 809.867188 766.136719 810.757812 765.957031 C 811.652344 765.78125 812.550781 765.691406 813.460938 765.691406 C 814.371094 765.691406 815.269531 765.78125 816.164062 765.957031 C 817.054688 766.136719 817.921875 766.398438 818.761719 766.746094 C 819.601562 767.09375 820.398438 767.519531 821.152344 768.027344 C 821.910156 768.53125 822.609375 769.105469 823.253906 769.75 C 823.894531 770.390625 824.46875 771.089844 824.976562 771.847656 C 825.480469 772.601562 825.90625 773.402344 826.253906 774.242188 C 826.601562 775.082031 826.863281 775.945312 827.042969 776.839844 C 827.21875 777.730469 827.308594 778.628906 827.308594 779.539062 Z M 827.308594 779.539062 " fill-opacity="1" fill-rule="nonzero"/></g><path fill="#ff9800" d="M 927.078125 652.296875 C 927.078125 538.085938 834.210938 445.21875 720 445.21875 C 605.789062 445.21875 512.921875 538.085938 512.921875 652.296875 C 512.921875 726.050781 551.789062 790.882812 610.089844 827.519531 C 551.789062 864.15625 512.921875 928.988281 512.921875 1002.738281 L 512.921875 1353.183594 C 512.921875 1370.703125 527.257812 1385.039062 544.777344 1385.039062 L 895.222656 1385.039062 C 912.742188 1385.039062 927.078125 1370.703125 927.078125 1353.183594 L 927.078125 1002.738281 C 927.078125 928.988281 888.210938 864.15625 829.910156 827.519531 C 888.210938 790.882812 927.078125 726.050781 927.078125 652.296875 Z M 863.363281 1002.738281 L 863.363281 1321.324219 L 576.636719 1321.324219 L 576.636719 1002.738281 C 576.636719 923.730469 640.992188 859.375 720 859.375 C 799.007812 859.375 863.363281 923.730469 863.363281 1002.738281 Z M 720 795.660156 C 640.992188 795.660156 576.636719 731.304688 576.636719 652.296875 C 576.636719 573.289062 640.992188 508.933594 720 508.933594 C 799.007812 508.933594 863.363281 573.289062 863.363281 652.296875 C 863.363281 731.304688 799.007812 795.660156 720 795.660156 Z M 1436.8125 652.296875 C 1436.8125 538.085938 1343.945312 445.21875 1229.734375 445.21875 C 1115.523438 445.21875 1022.65625 538.085938 1022.65625 652.296875 C 1022.65625 726.050781 1061.523438 790.882812 1119.824219 827.519531 C 1061.523438 864.15625 1022.65625 928.988281 1022.65625 1002.738281 L 1022.65625 1353.183594 C 1022.65625 1370.703125 1036.992188 1385.039062 1054.511719 1385.039062 L 1404.957031 1385.039062 C 1422.476562 1385.039062 1436.8125 1370.703125 1436.8125 1353.183594 L 1436.8125 1002.738281 C 1436.8125 928.988281 1397.945312 864.15625 1339.644531 827.519531 C 1397.945312 790.882812 1436.8125 726.050781 1436.8125 652.296875 Z M 1373.097656 1002.738281 L 1373.097656 1321.324219 L 1086.371094 1321.324219 L 1086.371094 1002.738281 C 1086.371094 923.730469 1150.726562 859.375 1229.734375 859.375 C 1308.742188 859.375 1373.097656 923.730469 1373.097656 1002.738281 Z M 1229.734375 795.660156 C 1150.726562 795.660156 1086.371094 731.304688 1086.371094 652.296875 C 1086.371094 573.289062 1150.726562 508.933594 1229.734375 508.933594 C 1308.742188 508.933594 1373.097656 573.289062 1373.097656 652.296875 C 1373.097656 731.304688 1308.742188 795.660156 1229.734375 795.660156 Z M 417.34375 652.296875 C 417.34375 538.085938 324.476562 445.21875 210.265625 445.21875 C 96.054688 445.21875 3.1875 538.085938 3.1875 652.296875 C 3.1875 726.050781 42.054688 790.882812 100.355469 827.519531 C 42.054688 864.15625 3.1875 928.988281 3.1875 1002.738281 L 3.1875 1353.183594 C 3.1875 1370.703125 17.523438 1385.039062 35.042969 1385.039062 L 385.488281 1385.039062 C 403.007812 1385.039062 417.34375 1370.703125 417.34375 1353.183594 L 417.34375 1002.738281 C 417.34375 928.988281 378.476562 864.15625 320.175781 827.519531 C 378.476562 790.882812 417.34375 726.050781 417.34375 652.296875 Z M 353.628906 1002.738281 L 353.628906 1321.324219 L 66.902344 1321.324219 L 66.902344 1002.738281 C 66.902344 923.730469 131.257812 859.375 210.265625 859.375 C 289.273438 859.375 353.628906 923.730469 353.628906 1002.738281 Z M 210.265625 795.660156 C 131.257812 795.660156 66.902344 731.304688 66.902344 652.296875 C 66.902344 573.289062 131.257812 508.933594 210.265625 508.933594 C 289.273438 508.933594 353.628906 573.289062 353.628906 652.296875 C 353.628906 731.304688 289.273438 795.660156 210.265625 795.660156 Z M 407.945312 66.898438 C 420.371094 79.324219 420.371094 99.554688 407.945312 111.980469 L 174.425781 345.660156 C 168.371094 351.714844 160.40625 355.058594 151.964844 355.058594 C 143.523438 355.058594 135.398438 351.714844 129.503906 345.660156 L 12.742188 228.898438 C 0.320312 216.472656 0.320312 196.246094 12.742188 183.820312 C 25.167969 171.394531 45.398438 171.394531 57.824219 183.820312 L 152.125 278.121094 L 363.027344 66.898438 C 375.453125 54.472656 395.523438 54.472656 407.945312 66.898438 Z M 917.679688 66.898438 C 930.105469 79.324219 930.105469 99.554688 917.679688 111.980469 L 684.160156 345.660156 C 678.105469 351.714844 670.140625 355.058594 661.699219 355.058594 C 653.257812 355.058594 645.132812 351.714844 639.238281 345.660156 L 522.476562 228.898438 C 510.054688 216.472656 510.054688 196.246094 522.476562 183.820312 C 534.902344 171.394531 555.132812 171.394531 567.558594 183.820312 L 661.859375 278.121094 L 872.761719 66.898438 C 885.1875 54.472656 905.257812 54.472656 917.679688 66.898438 Z M 1032.054688 228.738281 C 1019.628906 216.316406 1019.628906 196.085938 1032.054688 183.660156 C 1044.476562 171.234375 1064.707031 171.234375 1077.132812 183.660156 L 1171.433594 277.960938 L 1382.496094 66.898438 C 1394.921875 54.472656 1415.148438 54.472656 1427.574219 66.898438 C 1440 79.324219 1440 99.554688 1427.574219 111.980469 L 1193.894531 345.660156 C 1187.839844 351.714844 1179.875 355.058594 1171.433594 355.058594 C 1162.992188 355.058594 1154.867188 351.714844 1148.972656 345.660156 Z M 1032.054688 228.738281 " fill-opacity="1" fill-rule="nonzero"/></svg>