<svg xmlns="http://www.w3.org/2000/svg" xmlns:xlink="http://www.w3.org/1999/xlink" width="1920" zoomAndPan="magnify" viewBox="0 0 1440 1439.999935" height="1920" preserveAspectRatio="xMidYMid meet" version="1.0"><defs><clipPath id="85763c7d70"><path d="M 32.398438 0 L 1407.898438 0 L 1407.898438 1440 L 32.398438 1440 Z M 32.398438 0 " clip-rule="nonzero"/></clipPath></defs><g clip-path="url(#85763c7d70)"><path fill="#ff9800" d="M 1159.1875 144.058594 L 1092.339844 144.058594 L 1092.339844 44.230469 C 1092.339844 20.214844 1072.800781 0.859375 1048.964844 0.859375 C 1024.949219 0.859375 1005.59375 20.394531 1005.59375 44.230469 L 1005.59375 144.238281 L 409.488281 144.238281 L 409.488281 44.230469 C 409.488281 20.214844 389.953125 0.859375 366.117188 0.859375 C 342.101562 0.859375 322.746094 20.394531 322.746094 44.230469 L 322.746094 144.238281 L 280.625 144.238281 C 143.519531 144.238281 32.398438 255.359375 32.398438 392.464844 L 32.398438 1190.914062 C 32.398438 1328.019531 143.519531 1439.140625 280.625 1439.140625 L 1159.1875 1439.140625 C 1296.296875 1439.140625 1407.414062 1328.019531 1407.414062 1190.914062 L 1407.414062 392.464844 C 1407.59375 255.359375 1296.296875 144.058594 1159.1875 144.058594 Z M 1005.414062 189.941406 L 1005.414062 280.089844 C 1005.414062 304.109375 1024.949219 323.464844 1048.785156 323.464844 C 1072.800781 323.464844 1092.160156 303.929688 1092.160156 280.089844 L 1092.160156 193.347656 C 1119.9375 209.476562 1138.757812 239.585938 1138.757812 273.996094 C 1138.757812 325.4375 1096.996094 367.195312 1045.558594 367.195312 C 994.121094 367.195312 952.363281 325.4375 952.363281 273.996094 C 952.722656 236.898438 974.230469 204.996094 1005.414062 189.941406 Z M 322.566406 191.554688 L 322.566406 280.089844 C 322.566406 304.109375 342.101562 323.464844 365.9375 323.464844 C 389.953125 323.464844 409.3125 303.929688 409.3125 280.089844 L 409.3125 191.554688 C 438.882812 207.148438 458.957031 238.152344 458.957031 273.820312 C 458.957031 325.257812 417.195312 367.015625 365.757812 367.015625 C 314.320312 367.015625 272.5625 325.257812 272.5625 273.820312 C 272.921875 238.152344 293.171875 207.148438 322.566406 191.554688 Z M 1320.671875 1190.734375 C 1320.671875 1279.808594 1248.265625 1352.039062 1159.367188 1352.039062 L 280.625 1352.039062 C 191.550781 1352.039062 119.324219 1279.628906 119.324219 1190.734375 L 119.324219 529.394531 L 1320.671875 529.394531 Z M 1320.671875 1190.734375 " fill-opacity="1" fill-rule="nonzero"/></g><path fill="#ff9800" d="M 410.746094 779.773438 L 290.484375 779.773438 C 280.804688 779.773438 272.921875 771.886719 272.921875 762.207031 L 272.921875 641.949219 C 272.921875 632.269531 280.804688 624.382812 290.484375 624.382812 L 410.746094 624.382812 C 420.421875 624.382812 428.308594 632.269531 428.308594 641.949219 L 428.308594 762.207031 C 428.128906 771.886719 420.421875 779.773438 410.746094 779.773438 Z M 410.746094 779.773438 " fill-opacity="1" fill-rule="nonzero"/><path fill="#ff9800" d="M 410.746094 1026.386719 L 290.484375 1026.386719 C 280.804688 1026.386719 272.921875 1018.5 272.921875 1008.820312 L 272.921875 888.5625 C 272.921875 878.882812 280.804688 870.996094 290.484375 870.996094 L 410.746094 870.996094 C 420.421875 870.996094 428.308594 878.882812 428.308594 888.5625 L 428.308594 1008.820312 C 428.128906 1018.679688 420.421875 1026.386719 410.746094 1026.386719 Z M 410.746094 1026.386719 " fill-opacity="1" fill-rule="nonzero"/><path fill="#ff9800" d="M 410.746094 1273.179688 L 290.484375 1273.179688 C 280.804688 1273.179688 272.921875 1265.292969 272.921875 1255.613281 L 272.921875 1135.355469 C 272.921875 1125.675781 280.804688 1117.789062 290.484375 1117.789062 L 410.746094 1117.789062 C 420.421875 1117.789062 428.308594 1125.675781 428.308594 1135.355469 L 428.308594 1255.792969 C 428.128906 1265.292969 420.421875 1273.179688 410.746094 1273.179688 Z M 410.746094 1273.179688 " fill-opacity="1" fill-rule="nonzero"/><path fill="#ff9800" d="M 657.359375 779.773438 L 537.097656 779.773438 C 527.421875 779.773438 519.535156 771.886719 519.535156 762.207031 L 519.535156 641.949219 C 519.535156 632.269531 527.421875 624.382812 537.097656 624.382812 L 657.359375 624.382812 C 667.035156 624.382812 674.921875 632.269531 674.921875 641.949219 L 674.921875 762.207031 C 674.921875 771.886719 667.035156 779.773438 657.359375 779.773438 Z M 657.359375 779.773438 " fill-opacity="1" fill-rule="nonzero"/><path fill="#ff9800" d="M 657.359375 1026.386719 L 537.097656 1026.386719 C 527.421875 1026.386719 519.535156 1018.5 519.535156 1008.820312 L 519.535156 888.5625 C 519.535156 878.882812 527.421875 870.996094 537.097656 870.996094 L 657.359375 870.996094 C 667.035156 870.996094 674.921875 878.882812 674.921875 888.5625 L 674.921875 1008.820312 C 674.921875 1018.679688 667.035156 1026.386719 657.359375 1026.386719 Z M 657.359375 1026.386719 " fill-opacity="1" fill-rule="nonzero"/><path fill="#ff9800" d="M 657.359375 1273.179688 L 537.097656 1273.179688 C 527.421875 1273.179688 519.535156 1265.292969 519.535156 1255.613281 L 519.535156 1135.355469 C 519.535156 1125.675781 527.421875 1117.789062 537.097656 1117.789062 L 657.359375 1117.789062 C 667.035156 1117.789062 674.921875 1125.675781 674.921875 1135.355469 L 674.921875 1255.792969 C 674.921875 1265.292969 667.035156 1273.179688 657.359375 1273.179688 Z M 657.359375 1273.179688 " fill-opacity="1" fill-rule="nonzero"/><path fill="#ff9800" d="M 904.152344 779.773438 L 783.890625 779.773438 C 774.214844 779.773438 766.328125 771.886719 766.328125 762.207031 L 766.328125 641.949219 C 766.328125 632.269531 774.214844 624.382812 783.890625 624.382812 L 904.152344 624.382812 C 913.828125 624.382812 921.714844 632.269531 921.714844 641.949219 L 921.714844 762.207031 C 921.535156 771.886719 913.828125 779.773438 904.152344 779.773438 Z M 904.152344 779.773438 " fill-opacity="1" fill-rule="nonzero"/><path fill="#ff9800" d="M 904.152344 1026.386719 L 783.890625 1026.386719 C 774.214844 1026.386719 766.328125 1018.5 766.328125 1008.820312 L 766.328125 888.5625 C 766.328125 878.882812 774.214844 870.996094 783.890625 870.996094 L 904.152344 870.996094 C 913.828125 870.996094 921.714844 878.882812 921.714844 888.5625 L 921.714844 1008.820312 C 921.535156 1018.679688 913.828125 1026.386719 904.152344 1026.386719 Z M 904.152344 1026.386719 " fill-opacity="1" fill-rule="nonzero"/><path fill="#ff9800" d="M 904.152344 1273.179688 L 783.890625 1273.179688 C 774.214844 1273.179688 766.328125 1265.292969 766.328125 1255.613281 L 766.328125 1135.355469 C 766.328125 1125.675781 774.214844 1117.789062 783.890625 1117.789062 L 904.152344 1117.789062 C 913.828125 1117.789062 921.714844 1125.675781 921.714844 1135.355469 L 921.714844 1255.792969 C 921.535156 1265.292969 913.828125 1273.179688 904.152344 1273.179688 Z M 904.152344 1273.179688 " fill-opacity="1" fill-rule="nonzero"/><path fill="#ff9800" d="M 1150.945312 779.773438 L 1030.683594 779.773438 C 1021.007812 779.773438 1013.121094 771.886719 1013.121094 762.207031 L 1013.121094 641.949219 C 1013.121094 632.269531 1021.007812 624.382812 1030.683594 624.382812 L 1150.945312 624.382812 C 1160.621094 624.382812 1168.507812 632.269531 1168.507812 641.949219 L 1168.507812 762.207031 C 1168.328125 771.886719 1160.445312 779.773438 1150.945312 779.773438 Z M 1150.945312 779.773438 " fill-opacity="1" fill-rule="nonzero"/><path fill="#ff9800" d="M 1150.945312 1026.386719 L 1030.683594 1026.386719 C 1021.007812 1026.386719 1013.121094 1018.5 1013.121094 1008.820312 L 1013.121094 888.5625 C 1013.121094 878.882812 1021.007812 870.996094 1030.683594 870.996094 L 1150.945312 870.996094 C 1160.621094 870.996094 1168.507812 878.882812 1168.507812 888.5625 L 1168.507812 1008.820312 C 1168.328125 1018.679688 1160.445312 1026.386719 1150.945312 1026.386719 Z M 1150.945312 1026.386719 " fill-opacity="1" fill-rule="nonzero"/></svg>