<svg xmlns="http://www.w3.org/2000/svg" xmlns:xlink="http://www.w3.org/1999/xlink" width="1920" zoomAndPan="magnify" viewBox="0 0 1440 1439.999935" height="1920" preserveAspectRatio="xMidYMid meet" version="1.0"><path fill="#ff9800" d="M 1305 176.625 L 990 176.625 L 990 45 C 990 20.25 969.75 0 945 0 L 495 0 C 470.25 0 450 20.25 450 45 L 450 176.625 L 135 176.625 C 110.25 176.625 90 196.875 90 221.625 L 90 311.625 C 90 336.375 110.25 356.625 135 356.625 L 1305 356.625 C 1329.75 356.625 1350 336.375 1350 311.625 L 1350 221.625 C 1350 196.875 1329.75 176.625 1305 176.625 Z M 1305 176.625 " fill-opacity="1" fill-rule="nonzero"/><path fill="#ff9800" d="M 288 1400.625 C 290.25 1423.125 309.375 1440 333 1440 L 1108.125 1440 C 1130.625 1440 1149.75 1423.125 1153.125 1400.625 L 1261.125 451.125 L 180 451.125 Z M 900 1254.375 L 978.75 625.5 C 982.125 600.75 1004.625 583.875 1029.375 586.125 C 1054.125 589.5 1071 612 1068.75 636.75 L 990 1265.625 C 986.625 1288.125 967.5 1305 945 1305 C 942.75 1305 941.625 1305 939.375 1305 C 914.625 1301.625 897.75 1279.125 900 1254.375 Z M 675 631.125 C 675 606.375 695.25 586.125 720 586.125 C 744.75 586.125 765 606.375 765 631.125 L 765 1260 C 765 1284.75 744.75 1305 720 1305 C 695.25 1305 675 1284.75 675 1260 Z M 410.625 586.125 C 435.375 582.75 457.875 600.75 461.25 625.5 L 540 1254.375 C 543.375 1279.125 525.375 1301.625 500.625 1305 C 498.375 1305 497.25 1305 495 1305 C 472.5 1305 453.375 1288.125 450 1265.625 L 371.25 636.75 C 369 612 385.875 589.5 410.625 586.125 Z M 410.625 586.125 " fill-opacity="1" fill-rule="nonzero"/></svg>