<svg xmlns="http://www.w3.org/2000/svg" xmlns:xlink="http://www.w3.org/1999/xlink" width="1920" zoomAndPan="magnify" viewBox="0 0 1440 1439.999935" height="1920" preserveAspectRatio="xMidYMid meet" version="1.0"><path fill="#ff9800" d="M 1379.65625 360.757812 L 1347.835938 379.328125 L 1313.039062 318.210938 C 1306.640625 307.121094 1292.578125 303.246094 1281.492188 309.644531 C 1270.402344 315.957031 1266.617188 330.019531 1272.925781 341.105469 L 1307.992188 402.585938 L 854.207031 667.878906 C 850.242188 618.390625 824.550781 573.496094 784.074219 545.28125 L 1310.15625 237.800781 C 1312.230469 236.539062 1314.933594 236.179688 1317.367188 236.898438 C 1319.890625 237.53125 1321.964844 239.152344 1323.316406 241.496094 L 1383.261719 346.695312 C 1386.058594 351.652344 1384.433594 357.960938 1379.65625 360.757812 Z M 695.011719 653.09375 C 700.78125 657.332031 705.738281 662.742188 708.984375 669.230469 C 712.769531 676.441406 714.210938 684.464844 713.851562 692.488281 L 667.429688 695.371094 Z M 750.089844 648.136719 C 743.058594 634.433594 732.511719 623.257812 720.070312 614.695312 L 745.402344 575.839844 C 785.96875 597.386719 810.398438 640.382812 808.324219 686.808594 L 759.914062 689.695312 C 759.734375 675.449219 756.761719 661.117188 750.089844 648.136719 Z M 1423.289062 323.886719 L 1363.429688 218.691406 C 1355.949219 205.617188 1343.871094 196.242188 1329.445312 192.367188 C 1315.203125 188.402344 1299.699219 190.476562 1286.898438 197.957031 L 725.839844 525.902344 C 725.300781 526.171875 725.03125 526.804688 724.578125 527.074219 C 722.777344 528.335938 721.335938 529.777344 719.980469 531.492188 C 719.441406 532.121094 718.628906 532.480469 718.089844 533.203125 L 603.785156 708.535156 C 599.007812 715.835938 598.738281 725.210938 603.15625 732.78125 C 607.300781 739.902344 614.875 744.230469 623.078125 744.230469 C 623.527344 744.230469 623.976562 744.230469 624.429688 744.140625 L 831.671875 731.609375 C 832.570312 731.519531 833.292969 730.980469 834.195312 730.800781 C 836.359375 730.4375 838.429688 729.898438 840.414062 728.90625 C 840.867188 728.726562 841.40625 728.726562 841.855469 728.457031 L 1350.722656 431.070312 C 1350.722656 431.070312 1350.722656 431.070312 1350.8125 431.070312 C 1350.8125 431.070312 1350.8125 431.070312 1350.8125 430.980469 L 1402.914062 400.601562 C 1429.507812 385.097656 1438.613281 350.660156 1423.289062 323.886719 Z M 946.152344 305.769531 L 623.078125 305.769531 C 610.367188 305.769531 600 295.402344 600 282.691406 C 600 269.980469 610.367188 259.617188 623.078125 259.617188 L 946.152344 259.617188 C 958.863281 259.617188 969.230469 269.980469 969.230469 282.691406 C 969.230469 295.402344 958.863281 305.769531 946.152344 305.769531 Z M 507.691406 698.078125 C 520.402344 698.078125 530.769531 708.445312 530.769531 721.152344 C 530.769531 733.863281 520.402344 744.230469 507.691406 744.230469 L 392.308594 744.230469 C 379.597656 744.230469 369.230469 733.863281 369.230469 721.152344 C 369.230469 708.445312 379.597656 698.078125 392.308594 698.078125 Z M 576.921875 605.769531 L 392.308594 605.769531 C 379.597656 605.769531 369.230469 595.402344 369.230469 582.691406 C 369.230469 569.980469 379.597656 559.617188 392.308594 559.617188 L 576.921875 559.617188 C 589.632812 559.617188 600 569.980469 600 582.691406 C 600 595.402344 589.632812 605.769531 576.921875 605.769531 Z M 715.382812 467.308594 L 392.308594 467.308594 C 379.597656 467.308594 369.230469 456.941406 369.230469 444.230469 C 369.230469 431.519531 379.597656 421.152344 392.308594 421.152344 L 715.382812 421.152344 C 728.09375 421.152344 738.460938 431.519531 738.460938 444.230469 C 738.460938 456.941406 728.09375 467.308594 715.382812 467.308594 Z M 369.230469 282.691406 C 369.230469 269.980469 379.597656 259.617188 392.308594 259.617188 L 484.617188 259.617188 C 497.324219 259.617188 507.691406 269.980469 507.691406 282.691406 C 507.691406 295.402344 497.324219 305.769531 484.617188 305.769531 L 392.308594 305.769531 C 379.597656 305.769531 369.230469 295.402344 369.230469 282.691406 Z M 181.550781 663.730469 C 187.859375 674.730469 184.164062 688.792969 173.078125 695.191406 C 169.472656 697.355469 165.503906 698.347656 161.539062 698.347656 C 153.605469 698.347656 145.851562 694.199219 141.527344 686.808594 L 3.066406 447.023438 C 0 441.707031 -0.8125 435.398438 0.8125 429.445312 C 2.34375 423.585938 6.21875 418.539062 11.539062 415.476562 L 150 335.605469 C 160.996094 329.296875 175.148438 332.992188 181.550781 344.082031 C 187.859375 355.167969 184.074219 369.230469 173.078125 375.632812 L 54.628906 443.871094 Z M 1312.320312 995.28125 C 1318.71875 1006.28125 1314.84375 1020.433594 1303.847656 1026.832031 L 1188.460938 1093.539062 C 1184.855469 1095.613281 1180.890625 1096.605469 1176.921875 1096.605469 C 1168.992188 1096.605469 1161.238281 1092.457031 1157 1085.066406 C 1150.511719 1074.070312 1154.386719 1059.914062 1165.382812 1053.605469 L 1260.847656 998.4375 L 1156.910156 818.507812 C 1150.511719 807.511719 1154.386719 793.449219 1165.382812 786.960938 C 1176.382812 780.648438 1190.535156 784.433594 1196.933594 795.433594 Z M 596.484375 1382 L 561.328125 1321.152344 L 701.683594 1321.152344 Z M 718.898438 60.398438 L 754.054688 121.152344 L 613.703125 121.152344 Z M 1084.617188 651.921875 C 1071.90625 651.921875 1061.539062 662.289062 1061.539062 675 L 1061.539062 1275 L 276.921875 1275 L 276.921875 167.308594 L 1061.539062 167.308594 L 1061.539062 236.539062 C 1061.539062 249.25 1071.90625 259.617188 1084.617188 259.617188 C 1097.324219 259.617188 1107.691406 249.25 1107.691406 236.539062 L 1107.691406 144.230469 C 1107.691406 131.519531 1097.324219 121.152344 1084.617188 121.152344 L 807.421875 121.152344 L 747.386719 17.308594 C 740.984375 6.308594 726.832031 2.523438 715.835938 8.835938 L 521.394531 121.152344 L 253.847656 121.152344 C 241.136719 121.152344 230.769531 131.519531 230.769531 144.230469 L 230.769531 1298.078125 C 230.769531 1310.789062 241.136719 1321.152344 253.847656 1321.152344 L 507.960938 1321.152344 L 568 1425 C 572.324219 1432.390625 580.078125 1436.539062 588.011719 1436.539062 C 591.976562 1436.539062 595.945312 1435.546875 599.550781 1433.472656 L 793.992188 1321.152344 L 1084.617188 1321.152344 C 1097.324219 1321.152344 1107.691406 1310.789062 1107.691406 1298.078125 L 1107.691406 675 C 1107.691406 662.289062 1097.324219 651.921875 1084.617188 651.921875 " fill-opacity="1" fill-rule="nonzero"/></svg>