<svg xmlns="http://www.w3.org/2000/svg" xmlns:xlink="http://www.w3.org/1999/xlink" width="1920" zoomAndPan="magnify" viewBox="0 0 1440 1439.999935" height="1920" preserveAspectRatio="xMidYMid meet" version="1.0"><defs><filter x="0%" y="0%" width="100%" height="100%" id="bef214c78d"><feColorMatrix values="0 0 0 0 1 0 0 0 0 1 0 0 0 0 1 0 0 0 1 0" color-interpolation-filters="sRGB"/></filter><mask id="ee573be12e"><g filter="url(#bef214c78d)"><rect x="-144" width="1728" fill="#000000" y="-143.999994" height="1727.999922" fill-opacity="0.35"/></g></mask><clipPath id="8a8fde330e"><rect x="0" width="405" y="0" height="405"/></clipPath><clipPath id="11aa6eae49"><path d="M 327 4 L 1366.050781 4 L 1366.050781 1436 L 327 1436 Z M 327 4 " clip-rule="nonzero"/></clipPath><clipPath id="736d7f0527"><path d="M 991 3 L 1366.050781 3 L 1366.050781 372 L 991 372 Z M 991 3 " clip-rule="nonzero"/></clipPath><mask id="e858cb313e"><g filter="url(#bef214c78d)"><rect x="-144" width="1728" fill="#000000" y="-143.999994" height="1727.999922" fill-opacity="0.35"/></g></mask><clipPath id="52d8ccac57"><path d="M 19 1 L 375.050781 1 L 375.050781 361 L 19 361 Z M 19 1 " clip-rule="nonzero"/></clipPath><clipPath id="171c0007c7"><rect x="0" width="376" y="0" height="369"/></clipPath><clipPath id="e82cf52253"><path d="M 73.800781 209 L 695 209 L 695 563 L 73.800781 563 Z M 73.800781 209 " clip-rule="nonzero"/></clipPath></defs><g mask="url(#ee573be12e)"><g transform="matrix(1, 0, 0, 1, 477, 3)"><g clip-path="url(#8a8fde330e)"><path fill="#107c42" d="M 30.042969 34.089844 L 30.042969 397.574219 L 389.859375 397.574219 " fill-opacity="1" fill-rule="nonzero"/></g></g></g><g clip-path="url(#11aa6eae49)"><path fill="#107c42" d="M 1010.046875 4.046875 L 422.597656 4.046875 C 371.195312 4.046875 327.136719 48.105469 327.136719 99.503906 L 327.136719 1340.496094 C 327.136719 1391.894531 371.195312 1435.953125 422.597656 1435.953125 L 1270.730469 1435.953125 C 1322.132812 1435.953125 1366.191406 1391.894531 1366.191406 1340.496094 L 1366.191406 363.859375 Z M 1010.046875 4.046875 " fill-opacity="1" fill-rule="nonzero"/></g><g clip-path="url(#736d7f0527)"><g mask="url(#e858cb313e)"><g transform="matrix(1, 0, 0, 1, 991, 3)"><g clip-path="url(#171c0007c7)"><g clip-path="url(#52d8ccac57)"><path fill="#107c42" d="M 19.046875 1.046875 L 19.046875 360.859375 L 375.191406 360.859375 " fill-opacity="1" fill-rule="nonzero"/></g></g></g></g></g><path fill="#f1f2f2" d="M 639.222656 554.78125 L 132.546875 554.78125 C 103.171875 554.78125 77.472656 529.078125 77.472656 499.707031 L 77.472656 268.398438 C 77.472656 239.023438 103.171875 213.324219 132.546875 213.324219 L 635.550781 213.324219 C 664.921875 213.324219 690.621094 239.023438 690.621094 268.398438 L 690.621094 503.378906 C 694.292969 532.75 668.59375 554.78125 639.222656 554.78125 Z M 639.222656 554.78125 " fill-opacity="1" fill-rule="nonzero"/><g clip-path="url(#e82cf52253)"><path fill="#107c42" d="M 639.222656 562.121094 L 132.546875 562.121094 C 99.5 562.121094 73.800781 536.421875 73.800781 503.378906 L 73.800781 268.398438 C 73.800781 235.351562 99.5 209.652344 132.546875 209.652344 L 635.550781 209.652344 C 668.59375 209.652344 694.292969 235.351562 694.292969 268.398438 L 694.292969 503.378906 C 697.964844 532.75 668.59375 562.121094 639.222656 562.121094 Z M 132.546875 216.996094 C 103.171875 216.996094 81.144531 239.023438 81.144531 268.398438 L 81.144531 503.378906 C 81.144531 532.75 103.171875 554.78125 132.546875 554.78125 L 635.550781 554.78125 C 664.921875 554.78125 686.953125 532.75 686.953125 503.378906 L 686.953125 268.398438 C 686.953125 239.023438 664.921875 216.996094 635.550781 216.996094 Z M 132.546875 216.996094 " fill-opacity="1" fill-rule="nonzero"/></g><path fill="#107c42" d="M 301.4375 459.320312 L 272.066406 415.261719 L 246.363281 459.320312 L 202.304688 459.320312 L 250.035156 382.214844 L 202.304688 308.785156 L 242.691406 308.785156 L 272.066406 352.84375 L 297.765625 308.785156 L 338.152344 308.785156 L 290.421875 382.214844 L 338.152344 455.648438 L 301.4375 455.648438 Z M 301.4375 459.320312 " fill-opacity="1" fill-rule="nonzero"/><path fill="#107c42" d="M 396.898438 429.945312 L 444.628906 429.945312 L 444.628906 459.320312 L 360.183594 459.320312 L 360.183594 312.457031 L 396.898438 312.457031 Z M 396.898438 429.945312 " fill-opacity="1" fill-rule="nonzero"/><path fill="#107c42" d="M 485.015625 455.648438 C 477.671875 451.976562 470.328125 448.304688 462.984375 440.960938 C 459.3125 433.617188 455.644531 426.273438 455.644531 415.261719 L 492.359375 415.261719 C 492.359375 418.933594 496.03125 426.273438 499.703125 426.273438 C 503.371094 429.945312 507.042969 429.945312 510.714844 429.945312 C 514.386719 429.945312 521.730469 429.945312 521.730469 426.273438 C 525.402344 422.601562 525.402344 418.933594 525.402344 415.261719 C 525.402344 411.589844 525.402344 407.917969 521.730469 407.917969 C 518.058594 404.246094 518.058594 404.246094 514.386719 400.574219 C 510.714844 400.574219 507.042969 396.902344 499.703125 396.902344 C 488.6875 393.230469 481.34375 389.558594 477.671875 389.558594 C 470.328125 385.886719 466.65625 382.214844 462.984375 374.871094 C 459.3125 367.53125 455.644531 360.1875 455.644531 352.84375 C 455.644531 338.15625 459.3125 327.144531 470.328125 319.800781 C 481.34375 312.457031 492.359375 308.785156 510.714844 308.785156 C 525.402344 308.785156 540.089844 312.457031 551.101562 319.800781 C 562.117188 327.144531 565.789062 338.15625 565.789062 352.84375 L 525.402344 352.84375 C 525.402344 349.171875 521.730469 345.5 521.730469 341.828125 C 518.058594 338.15625 514.386719 338.15625 510.714844 338.15625 C 507.042969 338.15625 503.371094 338.15625 499.703125 341.828125 C 496.03125 345.5 496.03125 349.171875 496.03125 352.84375 C 496.03125 356.515625 499.703125 360.1875 503.371094 363.859375 C 507.042969 367.53125 514.386719 371.203125 525.402344 371.203125 C 536.417969 374.871094 543.761719 378.542969 547.433594 382.214844 C 554.773438 385.886719 558.445312 389.558594 562.117188 396.902344 C 565.789062 404.246094 569.460938 411.589844 569.460938 418.933594 C 569.460938 426.273438 565.789062 433.617188 562.117188 440.960938 C 558.445312 448.304688 551.101562 451.976562 543.761719 455.648438 C 536.417969 459.320312 525.402344 462.992188 514.386719 462.992188 C 503.371094 459.320312 496.03125 459.320312 485.015625 455.648438 Z M 485.015625 455.648438 " fill-opacity="1" fill-rule="nonzero"/><path fill="#ffffff" d="M 499.703125 753.042969 L 815.457031 753.042969 L 815.457031 841.160156 L 499.703125 841.160156 Z M 499.703125 753.042969 " fill-opacity="1" fill-rule="nonzero"/><path fill="#ffffff" d="M 499.703125 936.621094 L 815.457031 936.621094 L 815.457031 1024.738281 L 499.703125 1024.738281 Z M 499.703125 936.621094 " fill-opacity="1" fill-rule="nonzero"/><path fill="#ffffff" d="M 499.703125 1123.871094 L 815.457031 1123.871094 L 815.457031 1211.988281 L 499.703125 1211.988281 Z M 499.703125 1123.871094 " fill-opacity="1" fill-rule="nonzero"/><path fill="#ffffff" d="M 877.871094 753.042969 L 1193.628906 753.042969 L 1193.628906 841.160156 L 877.871094 841.160156 Z M 877.871094 753.042969 " fill-opacity="1" fill-rule="nonzero"/><path fill="#ffffff" d="M 877.871094 936.621094 L 1193.628906 936.621094 L 1193.628906 1024.738281 L 877.871094 1024.738281 Z M 877.871094 936.621094 " fill-opacity="1" fill-rule="nonzero"/><path fill="#ffffff" d="M 877.871094 1123.871094 L 1193.628906 1123.871094 L 1193.628906 1211.988281 L 877.871094 1211.988281 Z M 877.871094 1123.871094 " fill-opacity="1" fill-rule="nonzero"/></svg>