<svg xmlns="http://www.w3.org/2000/svg" xmlns:xlink="http://www.w3.org/1999/xlink" width="1920" zoomAndPan="magnify" viewBox="0 0 1440 1439.999935" height="1920" preserveAspectRatio="xMidYMid meet" version="1.0"><defs><clipPath id="5abf1987fe"><path d="M 692.308594 31.847656 L 720 31.847656 L 720 59.597656 L 692.308594 59.597656 Z M 692.308594 31.847656 " clip-rule="nonzero"/></clipPath></defs><g clip-path="url(#5abf1987fe)"><path fill="#ff9800" d="M 720 45.695312 C 720 46.601562 719.910156 47.503906 719.734375 48.394531 C 719.558594 49.285156 719.292969 50.152344 718.945312 50.992188 C 718.597656 51.832031 718.171875 52.628906 717.667969 53.386719 C 717.160156 54.144531 716.585938 54.84375 715.945312 55.484375 C 715.300781 56.128906 714.601562 56.703125 713.847656 57.207031 C 713.089844 57.710938 712.292969 58.140625 711.453125 58.488281 C 710.613281 58.835938 709.746094 59.097656 708.855469 59.273438 C 707.964844 59.453125 707.0625 59.542969 706.152344 59.542969 C 705.242188 59.542969 704.34375 59.453125 703.453125 59.273438 C 702.558594 59.097656 701.695312 58.835938 700.855469 58.488281 C 700.015625 58.140625 699.214844 57.710938 698.460938 57.207031 C 697.703125 56.703125 697.003906 56.128906 696.363281 55.484375 C 695.71875 54.84375 695.144531 54.144531 694.640625 53.386719 C 694.132812 52.628906 693.707031 51.832031 693.359375 50.992188 C 693.011719 50.152344 692.75 49.285156 692.570312 48.394531 C 692.394531 47.503906 692.304688 46.601562 692.304688 45.695312 C 692.304688 44.785156 692.394531 43.882812 692.570312 42.992188 C 692.75 42.101562 693.011719 41.234375 693.359375 40.394531 C 693.707031 39.554688 694.132812 38.757812 694.640625 38 C 695.144531 37.246094 695.71875 36.542969 696.363281 35.902344 C 697.003906 35.257812 697.703125 34.683594 698.460938 34.179688 C 699.214844 33.675781 700.015625 33.25 700.855469 32.898438 C 701.695312 32.550781 702.558594 32.289062 703.453125 32.113281 C 704.34375 31.933594 705.242188 31.847656 706.152344 31.847656 C 707.0625 31.847656 707.964844 31.933594 708.855469 32.113281 C 709.746094 32.289062 710.613281 32.550781 711.453125 32.898438 C 712.292969 33.25 713.089844 33.675781 713.847656 34.179688 C 714.601562 34.683594 715.300781 35.257812 715.945312 35.902344 C 716.585938 36.542969 717.160156 37.246094 717.667969 38 C 718.171875 38.757812 718.597656 39.554688 718.945312 40.394531 C 719.292969 41.234375 719.558594 42.101562 719.734375 42.992188 C 719.910156 43.882812 720 44.785156 720 45.695312 Z M 720 45.695312 " fill-opacity="1" fill-rule="nonzero"/></g><path fill="#ff9800" d="M -2.113281 58.027344 C -6.648438 67.03125 -9.113281 77.117188 -9.113281 87.5 L -9.113281 1210.34375 C -9.113281 1252.800781 18.027344 1290.457031 58.28125 1303.894531 C 145.917969 1333.074219 339.820312 1397.710938 441.359375 1431.585938 C 466.429688 1439.933594 493.964844 1435.726562 515.390625 1420.285156 C 536.816406 1404.839844 549.496094 1380.03125 549.496094 1353.644531 L 549.496094 1290.585938 L 1091.679688 1290.585938 C 1137.058594 1290.585938 1173.828125 1253.816406 1173.828125 1208.4375 L 1173.828125 973.953125 L 1194.726562 973.953125 C 1203.4375 973.953125 1211.816406 970.503906 1217.960938 964.324219 L 1427.078125 755.207031 C 1439.925781 742.390625 1439.925781 721.558594 1427.078125 708.742188 L 1217.960938 499.625 C 1211.816406 493.449219 1203.4375 490 1194.726562 490 L 1173.828125 490 L 1173.828125 91.214844 C 1173.828125 45.835938 1137.058594 9.066406 1091.679688 9.066406 C 923.40625 9.066406 241.308594 9.066406 73.035156 9.066406 C 39.484375 9.066406 10.636719 29.175781 -2.113281 58.027344 Z M 226.226562 74.785156 L 493.339844 163.800781 C 526.859375 175.007812 549.496094 206.386719 549.496094 241.742188 L 549.496094 1224.867188 L 1091.679688 1224.867188 C 1100.75 1224.867188 1108.109375 1217.507812 1108.109375 1208.4375 L 1108.109375 973.953125 L 1008.839844 973.953125 C 995.566406 973.953125 983.570312 965.9375 978.480469 953.679688 C 973.417969 941.390625 976.210938 927.257812 985.609375 917.863281 C 985.609375 917.863281 1072.917969 830.554688 1072.917969 830.554688 C 1072.917969 830.554688 680.9375 830.554688 680.9375 830.554688 C 644.625 830.554688 615.21875 801.144531 615.21875 764.835938 L 615.21875 699.117188 C 615.21875 662.804688 644.625 633.398438 680.9375 633.398438 L 1072.917969 633.398438 L 985.609375 546.089844 C 976.210938 536.691406 973.417969 522.5625 978.480469 510.273438 C 983.570312 498.015625 995.566406 490 1008.839844 490 L 1108.109375 490 L 1108.109375 91.214844 C 1108.109375 82.144531 1100.75 74.785156 1091.679688 74.785156 Z M 226.226562 74.785156 " fill-opacity="1" fill-rule="evenodd"/></svg>