<svg xmlns="http://www.w3.org/2000/svg" xmlns:xlink="http://www.w3.org/1999/xlink" width="1920" zoomAndPan="magnify" viewBox="0 0 1440 1439.999935" height="1920" preserveAspectRatio="xMidYMid meet" version="1.0"><path fill="#ff9000" d="M 1392 288 L 521.183594 288 C 520.535156 285.449219 519.832031 282.914062 519.082031 280.394531 C 518.328125 277.875 517.519531 275.371094 516.664062 272.882812 C 515.808594 270.394531 514.898438 267.925781 513.941406 265.476562 C 512.980469 263.027344 511.972656 260.597656 510.910156 258.1875 C 509.851562 255.78125 508.742188 253.394531 507.585938 251.03125 C 506.429688 248.671875 505.222656 246.332031 503.96875 244.019531 C 502.714844 241.707031 501.410156 239.421875 500.0625 237.164062 C 498.714844 234.902344 497.320312 232.675781 495.878906 230.472656 C 494.4375 228.273438 492.949219 226.101562 491.421875 223.960938 C 489.890625 221.820312 488.316406 219.714844 486.699219 217.640625 C 485.078125 215.5625 483.421875 213.523438 481.71875 211.515625 C 480.015625 209.511719 478.273438 207.539062 476.492188 205.605469 C 474.707031 203.671875 472.882812 201.777344 471.023438 199.917969 C 469.160156 198.058594 467.261719 196.238281 465.324219 194.457031 C 463.386719 192.675781 461.414062 190.9375 459.40625 189.238281 C 457.398438 187.539062 455.355469 185.882812 453.277344 184.265625 C 451.199219 182.652344 449.089844 181.082031 446.949219 179.554688 C 444.808594 178.027344 442.632812 176.542969 440.429688 175.105469 C 438.226562 173.667969 435.996094 172.277344 433.734375 170.929688 C 431.472656 169.585938 429.1875 168.285156 426.871094 167.035156 C 424.558594 165.785156 422.21875 164.582031 419.855469 163.425781 C 417.488281 162.273438 415.101562 161.167969 412.691406 160.109375 C 410.285156 159.054688 407.851562 158.050781 405.402344 157.09375 C 402.949219 156.136719 400.480469 155.234375 397.992188 154.378906 C 395.503906 153.527344 392.996094 152.722656 390.476562 151.972656 C 387.953125 151.222656 385.417969 150.527344 382.867188 149.882812 C 380.316406 149.234375 377.753906 148.644531 375.179688 148.105469 C 372.605469 147.566406 370.019531 147.078125 367.421875 146.644531 C 364.828125 146.214844 362.226562 145.835938 359.613281 145.507812 C 357.003906 145.183594 354.386719 144.914062 351.765625 144.695312 C 349.144531 144.480469 346.519531 144.316406 343.890625 144.207031 C 341.261719 144.097656 338.632812 144.042969 336 144.042969 C 333.367188 144.042969 330.738281 144.097656 328.109375 144.207031 C 325.480469 144.316406 322.855469 144.480469 320.234375 144.695312 C 317.613281 144.914062 314.996094 145.183594 312.386719 145.507812 C 309.773438 145.835938 307.171875 146.214844 304.578125 146.644531 C 301.980469 147.078125 299.394531 147.566406 296.820312 148.105469 C 294.246094 148.644531 291.683594 149.234375 289.132812 149.882812 C 286.582031 150.527344 284.046875 151.222656 281.523438 151.972656 C 279.003906 152.722656 276.496094 153.527344 274.007812 154.378906 C 271.519531 155.234375 269.050781 156.136719 266.597656 157.09375 C 264.148438 158.050781 261.714844 159.054688 259.308594 160.109375 C 256.898438 161.167969 254.511719 162.273438 252.144531 163.425781 C 249.78125 164.582031 247.441406 165.785156 245.128906 167.035156 C 242.8125 168.285156 240.527344 169.585938 238.265625 170.929688 C 236.003906 172.277344 233.773438 173.667969 231.570312 175.105469 C 229.367188 176.542969 227.191406 178.027344 225.050781 179.554688 C 222.910156 181.082031 220.800781 182.652344 218.722656 184.265625 C 216.644531 185.882812 214.601562 187.539062 212.59375 189.238281 C 210.585938 190.9375 208.613281 192.675781 206.675781 194.457031 C 204.738281 196.238281 202.839844 198.058594 200.976562 199.917969 C 199.117188 201.777344 197.292969 203.671875 195.507812 205.605469 C 193.726562 207.539062 191.984375 209.511719 190.28125 211.515625 C 188.578125 213.523438 186.917969 215.5625 185.300781 217.640625 C 183.683594 219.714844 182.109375 221.820312 180.578125 223.960938 C 179.050781 226.101562 177.5625 228.273438 176.121094 230.472656 C 174.679688 232.675781 173.285156 234.902344 171.9375 237.164062 C 170.589844 239.421875 169.285156 241.707031 168.03125 244.019531 C 166.777344 246.332031 165.570312 248.671875 164.414062 251.03125 C 163.257812 253.394531 162.148438 255.78125 161.089844 258.1875 C 160.027344 260.597656 159.019531 263.027344 158.058594 265.476562 C 157.101562 267.925781 156.191406 270.394531 155.335938 272.882812 C 154.480469 275.371094 153.671875 277.875 152.921875 280.394531 C 152.167969 282.914062 151.464844 285.449219 150.816406 288 L 48 288 C 46.429688 288 44.859375 288.078125 43.296875 288.230469 C 41.730469 288.386719 40.175781 288.617188 38.636719 288.921875 C 37.09375 289.230469 35.570312 289.609375 34.066406 290.066406 C 32.5625 290.523438 31.082031 291.050781 29.632812 291.652344 C 28.179688 292.253906 26.757812 292.925781 25.371094 293.667969 C 23.988281 294.410156 22.640625 295.214844 21.332031 296.089844 C 20.027344 296.960938 18.765625 297.898438 17.550781 298.894531 C 16.332031 299.894531 15.171875 300.945312 14.058594 302.058594 C 12.949219 303.171875 11.894531 304.332031 10.894531 305.550781 C 9.898438 306.765625 8.960938 308.027344 8.089844 309.332031 C 7.214844 310.640625 6.410156 311.988281 5.667969 313.371094 C 4.925781 314.757812 4.253906 316.179688 3.652344 317.632812 C 3.050781 319.082031 2.523438 320.5625 2.066406 322.066406 C 1.609375 323.570312 1.230469 325.09375 0.921875 326.636719 C 0.617188 328.175781 0.386719 329.730469 0.230469 331.296875 C 0.078125 332.859375 0 334.429688 0 336 C 0 337.570312 0.078125 339.140625 0.230469 340.703125 C 0.386719 342.269531 0.617188 343.824219 0.921875 345.363281 C 1.230469 346.90625 1.609375 348.429688 2.066406 349.933594 C 2.523438 351.4375 3.050781 352.917969 3.652344 354.367188 C 4.253906 355.820312 4.925781 357.242188 5.667969 358.625 C 6.410156 360.011719 7.214844 361.359375 8.089844 362.667969 C 8.960938 363.972656 9.898438 365.234375 10.894531 366.449219 C 11.894531 367.667969 12.949219 368.828125 14.058594 369.941406 C 15.171875 371.050781 16.332031 372.105469 17.550781 373.105469 C 18.765625 374.101562 20.027344 375.035156 21.332031 375.910156 C 22.640625 376.785156 23.988281 377.589844 25.371094 378.332031 C 26.757812 379.074219 28.179688 379.746094 29.632812 380.347656 C 31.082031 380.949219 32.5625 381.476562 34.066406 381.933594 C 35.570312 382.390625 37.09375 382.769531 38.636719 383.078125 C 40.175781 383.382812 41.730469 383.613281 43.296875 383.769531 C 44.859375 383.921875 46.429688 384 48 384 L 150.816406 384 C 151.464844 386.550781 152.167969 389.085938 152.921875 391.605469 C 153.671875 394.125 154.480469 396.628906 155.335938 399.117188 C 156.191406 401.605469 157.101562 404.074219 158.058594 406.523438 C 159.019531 408.972656 160.027344 411.402344 161.089844 413.8125 C 162.148438 416.21875 163.257812 418.605469 164.414062 420.96875 C 165.570312 423.328125 166.777344 425.667969 168.03125 427.980469 C 169.285156 430.292969 170.589844 432.578125 171.9375 434.835938 C 173.285156 437.09375 174.679688 439.324219 176.121094 441.527344 C 177.5625 443.726562 179.050781 445.898438 180.578125 448.039062 C 182.109375 450.179688 183.683594 452.285156 185.300781 454.359375 C 186.917969 456.4375 188.578125 458.476562 190.28125 460.484375 C 191.984375 462.488281 193.726562 464.460938 195.507812 466.394531 C 197.292969 468.328125 199.117188 470.222656 200.976562 472.082031 C 202.839844 473.941406 204.738281 475.761719 206.675781 477.542969 C 208.613281 479.324219 210.585938 481.0625 212.59375 482.761719 C 214.601562 484.460938 216.644531 486.117188 218.722656 487.734375 C 220.800781 489.347656 222.910156 490.917969 225.050781 492.445312 C 227.191406 493.972656 229.367188 495.457031 231.570312 496.894531 C 233.773438 498.332031 236.003906 499.722656 238.265625 501.070312 C 240.527344 502.414062 242.8125 503.714844 245.128906 504.964844 C 247.441406 506.214844 249.78125 507.417969 252.144531 508.574219 C 254.511719 509.726562 256.898438 510.832031 259.308594 511.890625 C 261.714844 512.945312 264.148438 513.949219 266.597656 514.90625 C 269.050781 515.863281 271.519531 516.765625 274.007812 517.621094 C 276.496094 518.472656 279.003906 519.273438 281.523438 520.023438 C 284.046875 520.773438 286.582031 521.472656 289.132812 522.117188 C 291.683594 522.761719 294.246094 523.355469 296.820312 523.894531 C 299.394531 524.433594 301.980469 524.921875 304.578125 525.351562 C 307.171875 525.785156 309.773438 526.164062 312.386719 526.488281 C 314.996094 526.816406 317.613281 527.085938 320.234375 527.304688 C 322.855469 527.519531 325.480469 527.683594 328.109375 527.792969 C 330.738281 527.902344 333.367188 527.953125 336 527.953125 C 338.632812 527.953125 341.261719 527.902344 343.890625 527.792969 C 346.519531 527.683594 349.144531 527.519531 351.765625 527.304688 C 354.386719 527.085938 357.003906 526.816406 359.613281 526.488281 C 362.226562 526.164062 364.828125 525.785156 367.421875 525.351562 C 370.019531 524.921875 372.605469 524.433594 375.179688 523.894531 C 377.753906 523.355469 380.316406 522.761719 382.867188 522.117188 C 385.417969 521.472656 387.953125 520.773438 390.476562 520.023438 C 392.996094 519.273438 395.503906 518.472656 397.992188 517.621094 C 400.480469 516.765625 402.949219 515.863281 405.402344 514.90625 C 407.851562 513.949219 410.285156 512.945312 412.691406 511.890625 C 415.101562 510.832031 417.488281 509.726562 419.855469 508.574219 C 422.21875 507.417969 424.558594 506.214844 426.871094 504.964844 C 429.1875 503.714844 431.472656 502.414062 433.734375 501.070312 C 435.996094 499.722656 438.226562 498.332031 440.429688 496.894531 C 442.632812 495.457031 444.808594 493.972656 446.949219 492.445312 C 449.089844 490.917969 451.199219 489.347656 453.277344 487.734375 C 455.355469 486.117188 457.398438 484.460938 459.40625 482.761719 C 461.414062 481.0625 463.386719 479.324219 465.324219 477.542969 C 467.261719 475.761719 469.160156 473.941406 471.023438 472.082031 C 472.882812 470.222656 474.707031 468.328125 476.492188 466.394531 C 478.273438 464.460938 480.015625 462.488281 481.71875 460.484375 C 483.421875 458.476562 485.078125 456.4375 486.699219 454.359375 C 488.316406 452.285156 489.890625 450.179688 491.421875 448.039062 C 492.949219 445.898438 494.4375 443.726562 495.878906 441.527344 C 497.320312 439.324219 498.714844 437.09375 500.0625 434.835938 C 501.410156 432.578125 502.714844 430.292969 503.96875 427.980469 C 505.222656 425.667969 506.429688 423.328125 507.585938 420.96875 C 508.746094 418.605469 509.851562 416.21875 510.914062 413.8125 C 511.972656 411.402344 512.980469 408.972656 513.941406 406.523438 C 514.898438 404.074219 515.808594 401.605469 516.664062 399.117188 C 517.519531 396.628906 518.328125 394.125 519.082031 391.605469 C 519.832031 389.085938 520.535156 386.550781 521.183594 384 L 1392 384 C 1393.570312 384 1395.140625 383.921875 1396.703125 383.769531 C 1398.269531 383.613281 1399.824219 383.382812 1401.363281 383.078125 C 1402.90625 382.769531 1404.429688 382.390625 1405.933594 381.933594 C 1407.4375 381.476562 1408.917969 380.949219 1410.367188 380.347656 C 1411.820312 379.746094 1413.242188 379.074219 1414.625 378.332031 C 1416.011719 377.589844 1417.359375 376.785156 1418.667969 375.910156 C 1419.972656 375.035156 1421.234375 374.101562 1422.449219 373.105469 C 1423.664062 372.105469 1424.828125 371.050781 1425.941406 369.941406 C 1427.050781 368.828125 1428.105469 367.667969 1429.105469 366.449219 C 1430.101562 365.234375 1431.035156 363.972656 1431.910156 362.667969 C 1432.785156 361.359375 1433.589844 360.011719 1434.332031 358.625 C 1435.074219 357.242188 1435.746094 355.820312 1436.347656 354.367188 C 1436.949219 352.917969 1437.476562 351.4375 1437.933594 349.933594 C 1438.390625 348.429688 1438.769531 346.90625 1439.078125 345.363281 C 1439.382812 343.824219 1439.613281 342.269531 1439.769531 340.703125 C 1439.921875 339.140625 1440 337.570312 1440 336 C 1440 334.429688 1439.921875 332.859375 1439.769531 331.296875 C 1439.613281 329.730469 1439.382812 328.175781 1439.078125 326.636719 C 1438.769531 325.09375 1438.390625 323.570312 1437.933594 322.066406 C 1437.476562 320.5625 1436.949219 319.082031 1436.347656 317.632812 C 1435.746094 316.179688 1435.074219 314.757812 1434.332031 313.371094 C 1433.589844 311.988281 1432.785156 310.640625 1431.910156 309.332031 C 1431.035156 308.027344 1430.101562 306.765625 1429.105469 305.550781 C 1428.105469 304.332031 1427.050781 303.171875 1425.941406 302.058594 C 1424.828125 300.945312 1423.664062 299.894531 1422.449219 298.894531 C 1421.234375 297.898438 1419.972656 296.960938 1418.667969 296.089844 C 1417.359375 295.214844 1416.011719 294.410156 1414.628906 293.667969 C 1413.242188 292.925781 1411.820312 292.253906 1410.367188 291.652344 C 1408.917969 291.050781 1407.4375 290.523438 1405.933594 290.066406 C 1404.429688 289.609375 1402.90625 289.230469 1401.363281 288.921875 C 1399.824219 288.617188 1398.269531 288.386719 1396.703125 288.230469 C 1395.140625 288.078125 1393.570312 288 1392 288 Z M 336 432 C 334.429688 432 332.859375 431.960938 331.289062 431.882812 C 329.71875 431.808594 328.152344 431.691406 326.589844 431.539062 C 325.027344 431.382812 323.46875 431.191406 321.914062 430.960938 C 320.359375 430.730469 318.8125 430.460938 317.269531 430.15625 C 315.730469 429.847656 314.199219 429.503906 312.675781 429.121094 C 311.148438 428.742188 309.636719 428.324219 308.132812 427.867188 C 306.628906 427.410156 305.136719 426.917969 303.660156 426.386719 C 302.179688 425.859375 300.714844 425.292969 299.261719 424.691406 C 297.8125 424.089844 296.375 423.453125 294.953125 422.78125 C 293.535156 422.109375 292.132812 421.40625 290.746094 420.664062 C 289.359375 419.921875 287.992188 419.148438 286.644531 418.339844 C 285.296875 417.535156 283.972656 416.695312 282.664062 415.820312 C 281.359375 414.949219 280.074219 414.042969 278.8125 413.109375 C 277.550781 412.171875 276.3125 411.207031 275.097656 410.207031 C 273.882812 409.210938 272.695312 408.1875 271.53125 407.132812 C 270.367188 406.074219 269.230469 404.992188 268.117188 403.882812 C 267.007812 402.769531 265.921875 401.632812 264.867188 400.46875 C 263.8125 399.304688 262.789062 398.117188 261.789062 396.902344 C 260.792969 395.6875 259.828125 394.449219 258.890625 393.1875 C 257.957031 391.925781 257.050781 390.640625 256.179688 389.335938 C 255.304688 388.027344 254.464844 386.703125 253.65625 385.355469 C 252.851562 384.007812 252.074219 382.640625 251.335938 381.253906 C 250.59375 379.867188 249.890625 378.464844 249.21875 377.046875 C 248.546875 375.625 247.910156 374.1875 247.308594 372.738281 C 246.707031 371.285156 246.140625 369.820312 245.613281 368.339844 C 245.082031 366.863281 244.589844 365.371094 244.132812 363.867188 C 243.675781 362.363281 243.257812 360.851562 242.878906 359.324219 C 242.496094 357.800781 242.152344 356.269531 241.84375 354.730469 C 241.539062 353.1875 241.269531 351.640625 241.039062 350.085938 C 240.808594 348.53125 240.617188 346.972656 240.460938 345.410156 C 240.308594 343.847656 240.191406 342.28125 240.117188 340.710938 C 240.039062 339.140625 240 337.570312 240 336 C 240 334.429688 240.039062 332.859375 240.117188 331.289062 C 240.191406 329.71875 240.308594 328.152344 240.460938 326.589844 C 240.617188 325.027344 240.808594 323.46875 241.039062 321.914062 C 241.269531 320.359375 241.539062 318.8125 241.84375 317.269531 C 242.152344 315.730469 242.496094 314.199219 242.878906 312.671875 C 243.257812 311.148438 243.675781 309.636719 244.132812 308.132812 C 244.589844 306.628906 245.082031 305.136719 245.613281 303.660156 C 246.140625 302.179688 246.707031 300.714844 247.308594 299.261719 C 247.910156 297.8125 248.546875 296.375 249.21875 294.953125 C 249.890625 293.535156 250.59375 292.132812 251.335938 290.746094 C 252.074219 289.359375 252.851562 287.992188 253.65625 286.644531 C 254.464844 285.296875 255.304688 283.972656 256.179688 282.664062 C 257.050781 281.359375 257.957031 280.074219 258.890625 278.8125 C 259.828125 277.550781 260.792969 276.3125 261.789062 275.097656 C 262.789062 273.882812 263.8125 272.695312 264.867188 271.53125 C 265.921875 270.367188 267.007812 269.230469 268.117188 268.117188 C 269.230469 267.007812 270.367188 265.921875 271.53125 264.867188 C 272.695312 263.8125 273.882812 262.789062 275.097656 261.789062 C 276.3125 260.792969 277.550781 259.828125 278.8125 258.890625 C 280.074219 257.957031 281.359375 257.050781 282.664062 256.179688 C 283.972656 255.304688 285.296875 254.464844 286.644531 253.65625 C 287.992188 252.851562 289.359375 252.074219 290.746094 251.335938 C 292.132812 250.59375 293.535156 249.890625 294.953125 249.21875 C 296.375 248.546875 297.8125 247.910156 299.261719 247.308594 C 300.714844 246.707031 302.179688 246.140625 303.660156 245.613281 C 305.136719 245.082031 306.628906 244.589844 308.132812 244.132812 C 309.636719 243.675781 311.148438 243.257812 312.675781 242.878906 C 314.199219 242.496094 315.730469 242.152344 317.269531 241.84375 C 318.8125 241.539062 320.359375 241.269531 321.914062 241.039062 C 323.46875 240.808594 325.027344 240.617188 326.589844 240.460938 C 328.152344 240.308594 329.71875 240.191406 331.289062 240.117188 C 332.859375 240.039062 334.429688 240 336 240 C 337.570312 240 339.140625 240.039062 340.710938 240.117188 C 342.28125 240.191406 343.847656 240.308594 345.410156 240.460938 C 346.972656 240.617188 348.53125 240.808594 350.085938 241.039062 C 351.640625 241.269531 353.1875 241.539062 354.730469 241.84375 C 356.269531 242.152344 357.800781 242.496094 359.324219 242.878906 C 360.851562 243.257812 362.363281 243.675781 363.867188 244.132812 C 365.371094 244.589844 366.863281 245.082031 368.339844 245.613281 C 369.820312 246.140625 371.285156 246.707031 372.738281 247.308594 C 374.1875 247.910156 375.625 248.546875 377.046875 249.21875 C 378.464844 249.890625 379.867188 250.59375 381.253906 251.335938 C 382.640625 252.074219 384.007812 252.851562 385.355469 253.65625 C 386.703125 254.464844 388.027344 255.304688 389.335938 256.179688 C 390.640625 257.050781 391.925781 257.957031 393.1875 258.890625 C 394.449219 259.828125 395.6875 260.792969 396.902344 261.789062 C 398.117188 262.789062 399.304688 263.8125 400.46875 264.867188 C 401.632812 265.921875 402.769531 267.007812 403.882812 268.117188 C 404.992188 269.230469 406.078125 270.367188 407.132812 271.53125 C 408.1875 272.695312 409.210938 273.882812 410.207031 275.097656 C 411.207031 276.3125 412.171875 277.550781 413.109375 278.8125 C 414.042969 280.074219 414.949219 281.359375 415.820312 282.664062 C 416.695312 283.972656 417.535156 285.296875 418.34375 286.644531 C 419.148438 287.992188 419.921875 289.359375 420.664062 290.746094 C 421.40625 292.132812 422.109375 293.535156 422.78125 294.953125 C 423.453125 296.375 424.089844 297.8125 424.691406 299.261719 C 425.292969 300.714844 425.859375 302.179688 426.386719 303.660156 C 426.917969 305.136719 427.410156 306.628906 427.867188 308.132812 C 428.324219 309.636719 428.742188 311.148438 429.121094 312.671875 C 429.503906 314.199219 429.847656 315.730469 430.15625 317.269531 C 430.460938 318.8125 430.730469 320.359375 430.960938 321.914062 C 431.191406 323.46875 431.382812 325.027344 431.539062 326.589844 C 431.691406 328.152344 431.808594 329.71875 431.882812 331.289062 C 431.960938 332.859375 432 334.429688 432 336 C 432 337.570312 431.960938 339.140625 431.882812 340.710938 C 431.808594 342.28125 431.691406 343.847656 431.539062 345.410156 C 431.382812 346.972656 431.191406 348.53125 430.960938 350.085938 C 430.730469 351.640625 430.460938 353.1875 430.15625 354.730469 C 429.847656 356.269531 429.503906 357.800781 429.121094 359.324219 C 428.742188 360.851562 428.324219 362.363281 427.867188 363.867188 C 427.410156 365.371094 426.917969 366.863281 426.386719 368.339844 C 425.859375 369.820312 425.292969 371.285156 424.691406 372.738281 C 424.089844 374.1875 423.453125 375.625 422.78125 377.046875 C 422.109375 378.464844 421.40625 379.867188 420.664062 381.253906 C 419.921875 382.640625 419.148438 384.007812 418.34375 385.355469 C 417.535156 386.703125 416.695312 388.027344 415.820312 389.335938 C 414.949219 390.640625 414.042969 391.925781 413.109375 393.1875 C 412.171875 394.449219 411.207031 395.6875 410.207031 396.902344 C 409.210938 398.117188 408.1875 399.304688 407.132812 400.46875 C 406.078125 401.632812 404.992188 402.769531 403.882812 403.882812 C 402.769531 404.992188 401.632812 406.074219 400.46875 407.132812 C 399.304688 408.1875 398.117188 409.210938 396.902344 410.207031 C 395.6875 411.207031 394.449219 412.171875 393.1875 413.109375 C 391.925781 414.042969 390.640625 414.949219 389.335938 415.820312 C 388.027344 416.695312 386.703125 417.535156 385.355469 418.339844 C 384.007812 419.148438 382.640625 419.921875 381.253906 420.664062 C 379.867188 421.40625 378.464844 422.109375 377.046875 422.78125 C 375.625 423.453125 374.1875 424.089844 372.738281 424.691406 C 371.285156 425.292969 369.820312 425.859375 368.339844 426.386719 C 366.863281 426.917969 365.371094 427.410156 363.867188 427.867188 C 362.363281 428.320312 360.851562 428.742188 359.324219 429.121094 C 357.800781 429.503906 356.269531 429.847656 354.730469 430.15625 C 353.1875 430.460938 351.640625 430.730469 350.085938 430.960938 C 348.53125 431.191406 346.972656 431.382812 345.410156 431.539062 C 343.847656 431.691406 342.28125 431.808594 340.710938 431.882812 C 339.140625 431.960938 337.570312 432 336 432 Z M 336 432 " fill-opacity="1" fill-rule="nonzero"/><path fill="#ff9000" d="M 1392 1056 L 761.183594 1056 C 760.535156 1053.449219 759.832031 1050.914062 759.078125 1048.394531 C 758.328125 1045.875 757.519531 1043.371094 756.664062 1040.882812 C 755.808594 1038.394531 754.898438 1035.925781 753.941406 1033.476562 C 752.980469 1031.027344 751.972656 1028.597656 750.910156 1026.1875 C 749.851562 1023.78125 748.742188 1021.394531 747.585938 1019.03125 C 746.429688 1016.671875 745.222656 1014.332031 743.96875 1012.019531 C 742.714844 1009.707031 741.410156 1007.421875 740.0625 1005.164062 C 738.714844 1002.902344 737.320312 1000.675781 735.878906 998.472656 C 734.4375 996.273438 732.949219 994.101562 731.421875 991.960938 C 729.890625 989.820312 728.316406 987.714844 726.699219 985.640625 C 725.078125 983.5625 723.421875 981.523438 721.71875 979.515625 C 720.015625 977.511719 718.273438 975.539062 716.488281 973.605469 C 714.707031 971.671875 712.882812 969.777344 711.023438 967.917969 C 709.160156 966.058594 707.261719 964.238281 705.324219 962.457031 C 703.386719 960.675781 701.414062 958.9375 699.40625 957.238281 C 697.398438 955.539062 695.355469 953.882812 693.277344 952.265625 C 691.199219 950.652344 689.089844 949.082031 686.949219 947.554688 C 684.804688 946.027344 682.632812 944.542969 680.429688 943.105469 C 678.226562 941.667969 675.996094 940.277344 673.734375 938.929688 C 671.472656 937.585938 669.1875 936.285156 666.871094 935.035156 C 664.558594 933.785156 662.21875 932.582031 659.855469 931.425781 C 657.488281 930.273438 655.101562 929.167969 652.691406 928.109375 C 650.28125 927.054688 647.851562 926.046875 645.402344 925.09375 C 642.949219 924.136719 640.480469 923.234375 637.992188 922.378906 C 635.503906 921.527344 632.996094 920.722656 630.476562 919.972656 C 627.953125 919.222656 625.417969 918.527344 622.867188 917.882812 C 620.316406 917.234375 617.753906 916.644531 615.179688 916.105469 C 612.605469 915.566406 610.019531 915.078125 607.421875 914.644531 C 604.828125 914.214844 602.226562 913.835938 599.613281 913.507812 C 597.003906 913.183594 594.386719 912.914062 591.765625 912.695312 C 589.144531 912.480469 586.519531 912.316406 583.890625 912.207031 C 581.261719 912.097656 578.632812 912.042969 576 912.042969 C 573.367188 912.042969 570.738281 912.097656 568.109375 912.207031 C 565.480469 912.316406 562.855469 912.480469 560.234375 912.695312 C 557.613281 912.914062 554.996094 913.183594 552.386719 913.507812 C 549.773438 913.835938 547.171875 914.214844 544.578125 914.644531 C 541.980469 915.078125 539.394531 915.566406 536.820312 916.105469 C 534.246094 916.644531 531.683594 917.234375 529.132812 917.882812 C 526.582031 918.527344 524.046875 919.222656 521.523438 919.972656 C 519.003906 920.722656 516.496094 921.527344 514.007812 922.378906 C 511.519531 923.234375 509.050781 924.136719 506.597656 925.09375 C 504.148438 926.046875 501.714844 927.054688 499.308594 928.109375 C 496.898438 929.167969 494.511719 930.273438 492.144531 931.425781 C 489.78125 932.582031 487.441406 933.785156 485.128906 935.035156 C 482.8125 936.285156 480.527344 937.585938 478.265625 938.929688 C 476.003906 940.277344 473.773438 941.667969 471.570312 943.105469 C 469.367188 944.542969 467.191406 946.027344 465.050781 947.554688 C 462.910156 949.082031 460.800781 950.652344 458.722656 952.265625 C 456.644531 953.882812 454.601562 955.539062 452.59375 957.238281 C 450.585938 958.9375 448.613281 960.675781 446.675781 962.457031 C 444.738281 964.238281 442.839844 966.058594 440.976562 967.917969 C 439.117188 969.773438 437.292969 971.671875 435.507812 973.605469 C 433.726562 975.539062 431.984375 977.511719 430.28125 979.515625 C 428.578125 981.523438 426.917969 983.5625 425.300781 985.640625 C 423.683594 987.714844 422.109375 989.820312 420.578125 991.960938 C 419.050781 994.101562 417.5625 996.273438 416.121094 998.472656 C 414.679688 1000.675781 413.285156 1002.902344 411.9375 1005.164062 C 410.589844 1007.421875 409.285156 1009.707031 408.03125 1012.019531 C 406.777344 1014.332031 405.570312 1016.671875 404.414062 1019.03125 C 403.257812 1021.394531 402.148438 1023.78125 401.085938 1026.1875 C 400.027344 1028.597656 399.019531 1031.027344 398.058594 1033.476562 C 397.101562 1035.925781 396.191406 1038.394531 395.335938 1040.882812 C 394.480469 1043.371094 393.671875 1045.875 392.921875 1048.394531 C 392.167969 1050.914062 391.464844 1053.449219 390.816406 1056 L 48 1056 C 46.429688 1056 44.859375 1056.078125 43.296875 1056.230469 C 41.730469 1056.386719 40.175781 1056.617188 38.636719 1056.921875 C 37.09375 1057.230469 35.570312 1057.609375 34.066406 1058.066406 C 32.5625 1058.523438 31.082031 1059.050781 29.632812 1059.652344 C 28.179688 1060.253906 26.757812 1060.925781 25.371094 1061.667969 C 23.988281 1062.410156 22.640625 1063.214844 21.332031 1064.089844 C 20.027344 1064.960938 18.765625 1065.898438 17.550781 1066.894531 C 16.332031 1067.894531 15.171875 1068.945312 14.058594 1070.058594 C 12.949219 1071.171875 11.894531 1072.332031 10.894531 1073.550781 C 9.898438 1074.765625 8.960938 1076.023438 8.089844 1077.332031 C 7.214844 1078.640625 6.410156 1079.988281 5.667969 1081.371094 C 4.925781 1082.757812 4.253906 1084.179688 3.652344 1085.632812 C 3.050781 1087.082031 2.523438 1088.5625 2.066406 1090.066406 C 1.609375 1091.570312 1.230469 1093.09375 0.921875 1094.636719 C 0.617188 1096.175781 0.386719 1097.730469 0.230469 1099.296875 C 0.078125 1100.859375 0 1102.429688 0 1104 C 0 1105.570312 0.078125 1107.140625 0.230469 1108.703125 C 0.386719 1110.269531 0.617188 1111.820312 0.921875 1113.363281 C 1.230469 1114.90625 1.609375 1116.429688 2.066406 1117.933594 C 2.523438 1119.4375 3.050781 1120.917969 3.652344 1122.367188 C 4.253906 1123.820312 4.925781 1125.242188 5.667969 1126.625 C 6.410156 1128.011719 7.214844 1129.359375 8.089844 1130.667969 C 8.960938 1131.972656 9.898438 1133.234375 10.894531 1134.449219 C 11.894531 1135.664062 12.949219 1136.828125 14.058594 1137.941406 C 15.171875 1139.050781 16.332031 1140.105469 17.550781 1141.105469 C 18.765625 1142.101562 20.027344 1143.035156 21.332031 1143.910156 C 22.640625 1144.785156 23.988281 1145.589844 25.371094 1146.332031 C 26.757812 1147.074219 28.179688 1147.746094 29.632812 1148.347656 C 31.082031 1148.949219 32.5625 1149.476562 34.066406 1149.933594 C 35.570312 1150.390625 37.09375 1150.769531 38.636719 1151.078125 C 40.175781 1151.382812 41.730469 1151.613281 43.296875 1151.769531 C 44.859375 1151.921875 46.429688 1152 48 1152 L 390.816406 1152 C 391.464844 1154.550781 392.167969 1157.085938 392.921875 1159.605469 C 393.671875 1162.125 394.480469 1164.628906 395.335938 1167.117188 C 396.191406 1169.605469 397.101562 1172.074219 398.058594 1174.523438 C 399.019531 1176.972656 400.027344 1179.402344 401.085938 1181.8125 C 402.148438 1184.21875 403.257812 1186.605469 404.414062 1188.96875 C 405.570312 1191.328125 406.777344 1193.667969 408.03125 1195.980469 C 409.285156 1198.292969 410.589844 1200.578125 411.9375 1202.835938 C 413.285156 1205.09375 414.679688 1207.324219 416.121094 1209.527344 C 417.5625 1211.726562 419.050781 1213.898438 420.578125 1216.039062 C 422.109375 1218.179688 423.683594 1220.285156 425.300781 1222.359375 C 426.917969 1224.433594 428.578125 1226.476562 430.28125 1228.480469 C 431.984375 1230.488281 433.726562 1232.457031 435.507812 1234.394531 C 437.292969 1236.328125 439.117188 1238.222656 440.976562 1240.082031 C 442.839844 1241.941406 444.738281 1243.761719 446.675781 1245.542969 C 448.613281 1247.324219 450.585938 1249.0625 452.59375 1250.761719 C 454.601562 1252.460938 456.644531 1254.117188 458.722656 1255.734375 C 460.800781 1257.347656 462.910156 1258.917969 465.050781 1260.445312 C 467.191406 1261.972656 469.367188 1263.457031 471.570312 1264.894531 C 473.773438 1266.332031 476.003906 1267.722656 478.265625 1269.070312 C 480.527344 1270.414062 482.8125 1271.714844 485.128906 1272.964844 C 487.441406 1274.214844 489.78125 1275.417969 492.144531 1276.574219 C 494.511719 1277.726562 496.898438 1278.832031 499.308594 1279.890625 C 501.714844 1280.945312 504.148438 1281.949219 506.597656 1282.90625 C 509.050781 1283.863281 511.519531 1284.765625 514.007812 1285.621094 C 516.496094 1286.472656 519.003906 1287.273438 521.523438 1288.023438 C 524.046875 1288.773438 526.582031 1289.472656 529.132812 1290.117188 C 531.683594 1290.761719 534.246094 1291.355469 536.820312 1291.894531 C 539.394531 1292.433594 541.980469 1292.921875 544.578125 1293.351562 C 547.171875 1293.785156 549.773438 1294.164062 552.386719 1294.488281 C 554.996094 1294.816406 557.613281 1295.085938 560.234375 1295.304688 C 562.855469 1295.519531 565.480469 1295.683594 568.109375 1295.792969 C 570.738281 1295.902344 573.367188 1295.953125 576 1295.953125 C 578.632812 1295.953125 581.261719 1295.902344 583.890625 1295.792969 C 586.519531 1295.683594 589.144531 1295.519531 591.765625 1295.304688 C 594.386719 1295.085938 597.003906 1294.816406 599.613281 1294.488281 C 602.226562 1294.164062 604.828125 1293.785156 607.421875 1293.351562 C 610.019531 1292.921875 612.605469 1292.433594 615.179688 1291.894531 C 617.753906 1291.355469 620.316406 1290.761719 622.867188 1290.117188 C 625.417969 1289.472656 627.953125 1288.773438 630.476562 1288.023438 C 632.996094 1287.273438 635.503906 1286.472656 637.992188 1285.621094 C 640.480469 1284.765625 642.949219 1283.863281 645.402344 1282.90625 C 647.851562 1281.949219 650.285156 1280.945312 652.691406 1279.890625 C 655.101562 1278.832031 657.488281 1277.726562 659.855469 1276.574219 C 662.21875 1275.417969 664.558594 1274.214844 666.871094 1272.964844 C 669.1875 1271.714844 671.472656 1270.414062 673.734375 1269.070312 C 675.996094 1267.722656 678.226562 1266.332031 680.429688 1264.894531 C 682.632812 1263.457031 684.804688 1261.972656 686.949219 1260.445312 C 689.089844 1258.917969 691.199219 1257.347656 693.277344 1255.734375 C 695.355469 1254.117188 697.398438 1252.460938 699.40625 1250.761719 C 701.414062 1249.0625 703.386719 1247.324219 705.324219 1245.542969 C 707.261719 1243.761719 709.160156 1241.941406 711.023438 1240.082031 C 712.882812 1238.222656 714.707031 1236.328125 716.492188 1234.394531 C 718.273438 1232.457031 720.015625 1230.488281 721.71875 1228.480469 C 723.421875 1226.476562 725.082031 1224.433594 726.699219 1222.359375 C 728.316406 1220.285156 729.890625 1218.179688 731.421875 1216.039062 C 732.949219 1213.898438 734.4375 1211.726562 735.878906 1209.527344 C 737.320312 1207.324219 738.714844 1205.09375 740.0625 1202.835938 C 741.410156 1200.578125 742.714844 1198.292969 743.96875 1195.980469 C 745.222656 1193.667969 746.429688 1191.328125 747.585938 1188.96875 C 748.742188 1186.605469 749.851562 1184.21875 750.910156 1181.8125 C 751.972656 1179.402344 752.980469 1176.972656 753.941406 1174.523438 C 754.898438 1172.074219 755.808594 1169.605469 756.664062 1167.117188 C 757.519531 1164.628906 758.328125 1162.125 759.078125 1159.605469 C 759.832031 1157.085938 760.535156 1154.550781 761.183594 1152 L 1392 1152 C 1393.570312 1152 1395.140625 1151.921875 1396.703125 1151.769531 C 1398.269531 1151.613281 1399.824219 1151.382812 1401.363281 1151.078125 C 1402.90625 1150.769531 1404.429688 1150.390625 1405.933594 1149.933594 C 1407.4375 1149.476562 1408.917969 1148.949219 1410.367188 1148.347656 C 1411.820312 1147.746094 1413.242188 1147.074219 1414.625 1146.332031 C 1416.011719 1145.589844 1417.359375 1144.785156 1418.667969 1143.910156 C 1419.972656 1143.035156 1421.234375 1142.101562 1422.449219 1141.105469 C 1423.664062 1140.105469 1424.828125 1139.050781 1425.941406 1137.941406 C 1427.050781 1136.828125 1428.105469 1135.664062 1429.105469 1134.449219 C 1430.101562 1133.234375 1431.035156 1131.972656 1431.910156 1130.667969 C 1432.785156 1129.359375 1433.589844 1128.011719 1434.332031 1126.625 C 1435.074219 1125.242188 1435.746094 1123.820312 1436.347656 1122.367188 C 1436.949219 1120.917969 1437.476562 1119.4375 1437.933594 1117.933594 C 1438.390625 1116.429688 1438.769531 1114.90625 1439.078125 1113.363281 C 1439.382812 1111.820312 1439.613281 1110.269531 1439.769531 1108.703125 C 1439.921875 1107.140625 1440 1105.570312 1440 1104 C 1440 1102.429688 1439.921875 1100.859375 1439.769531 1099.296875 C 1439.613281 1097.730469 1439.382812 1096.175781 1439.078125 1094.636719 C 1438.769531 1093.09375 1438.390625 1091.570312 1437.933594 1090.066406 C 1437.476562 1088.5625 1436.949219 1087.082031 1436.347656 1085.632812 C 1435.746094 1084.179688 1435.074219 1082.757812 1434.332031 1081.371094 C 1433.589844 1079.988281 1432.785156 1078.640625 1431.910156 1077.332031 C 1431.035156 1076.023438 1430.101562 1074.765625 1429.105469 1073.550781 C 1428.105469 1072.332031 1427.050781 1071.171875 1425.941406 1070.058594 C 1424.828125 1068.945312 1423.664062 1067.894531 1422.449219 1066.894531 C 1421.234375 1065.898438 1419.972656 1064.960938 1418.667969 1064.089844 C 1417.359375 1063.214844 1416.011719 1062.410156 1414.628906 1061.667969 C 1413.242188 1060.925781 1411.820312 1060.253906 1410.367188 1059.652344 C 1408.917969 1059.050781 1407.4375 1058.523438 1405.933594 1058.066406 C 1404.429688 1057.609375 1402.90625 1057.230469 1401.363281 1056.921875 C 1399.824219 1056.617188 1398.269531 1056.386719 1396.703125 1056.230469 C 1395.140625 1056.078125 1393.570312 1056 1392 1056 Z M 576 1200 C 574.429688 1200 572.859375 1199.960938 571.289062 1199.882812 C 569.71875 1199.808594 568.152344 1199.691406 566.589844 1199.539062 C 565.027344 1199.382812 563.46875 1199.191406 561.914062 1198.960938 C 560.359375 1198.730469 558.8125 1198.460938 557.269531 1198.15625 C 555.730469 1197.847656 554.199219 1197.503906 552.675781 1197.121094 C 551.148438 1196.742188 549.636719 1196.320312 548.132812 1195.867188 C 546.628906 1195.410156 545.136719 1194.917969 543.660156 1194.386719 C 542.179688 1193.859375 540.714844 1193.292969 539.261719 1192.691406 C 537.8125 1192.089844 536.375 1191.453125 534.953125 1190.78125 C 533.535156 1190.109375 532.132812 1189.40625 530.746094 1188.664062 C 529.359375 1187.921875 527.992188 1187.148438 526.644531 1186.339844 C 525.296875 1185.535156 523.972656 1184.695312 522.664062 1183.820312 C 521.359375 1182.949219 520.074219 1182.042969 518.8125 1181.109375 C 517.550781 1180.171875 516.3125 1179.207031 515.097656 1178.207031 C 513.882812 1177.210938 512.695312 1176.1875 511.53125 1175.132812 C 510.367188 1174.074219 509.230469 1172.992188 508.117188 1171.882812 C 507.007812 1170.769531 505.921875 1169.632812 504.867188 1168.46875 C 503.8125 1167.304688 502.789062 1166.117188 501.789062 1164.902344 C 500.792969 1163.6875 499.828125 1162.449219 498.890625 1161.1875 C 497.957031 1159.925781 497.050781 1158.640625 496.179688 1157.335938 C 495.304688 1156.027344 494.464844 1154.699219 493.65625 1153.351562 C 492.851562 1152.007812 492.074219 1150.640625 491.335938 1149.253906 C 490.59375 1147.867188 489.890625 1146.464844 489.21875 1145.046875 C 488.546875 1143.625 487.910156 1142.1875 487.308594 1140.738281 C 486.707031 1139.285156 486.140625 1137.820312 485.613281 1136.339844 C 485.082031 1134.863281 484.589844 1133.371094 484.132812 1131.867188 C 483.675781 1130.363281 483.257812 1128.851562 482.875 1127.324219 C 482.496094 1125.800781 482.152344 1124.269531 481.84375 1122.730469 C 481.539062 1121.1875 481.269531 1119.640625 481.039062 1118.085938 C 480.808594 1116.53125 480.617188 1114.972656 480.460938 1113.410156 C 480.308594 1111.847656 480.191406 1110.28125 480.117188 1108.710938 C 480.039062 1107.140625 480 1105.570312 480 1104 C 480 1102.429688 480.039062 1100.859375 480.117188 1099.289062 C 480.191406 1097.71875 480.308594 1096.152344 480.460938 1094.589844 C 480.617188 1093.027344 480.808594 1091.46875 481.039062 1089.914062 C 481.269531 1088.359375 481.539062 1086.8125 481.84375 1085.269531 C 482.152344 1083.730469 482.496094 1082.199219 482.875 1080.671875 C 483.257812 1079.148438 483.675781 1077.636719 484.132812 1076.132812 C 484.589844 1074.628906 485.082031 1073.136719 485.613281 1071.660156 C 486.140625 1070.179688 486.707031 1068.714844 487.308594 1067.261719 C 487.910156 1065.8125 488.546875 1064.375 489.21875 1062.953125 C 489.890625 1061.535156 490.59375 1060.132812 491.335938 1058.746094 C 492.074219 1057.359375 492.851562 1055.992188 493.65625 1054.644531 C 494.464844 1053.296875 495.304688 1051.972656 496.179688 1050.664062 C 497.050781 1049.359375 497.957031 1048.074219 498.890625 1046.8125 C 499.828125 1045.550781 500.792969 1044.3125 501.789062 1043.097656 C 502.789062 1041.882812 503.8125 1040.695312 504.867188 1039.53125 C 505.921875 1038.367188 507.007812 1037.230469 508.117188 1036.117188 C 509.230469 1035.007812 510.367188 1033.921875 511.53125 1032.867188 C 512.695312 1031.8125 513.882812 1030.789062 515.097656 1029.789062 C 516.3125 1028.792969 517.550781 1027.828125 518.8125 1026.890625 C 520.074219 1025.957031 521.359375 1025.050781 522.664062 1024.179688 C 523.972656 1023.304688 525.296875 1022.464844 526.644531 1021.65625 C 527.992188 1020.851562 529.359375 1020.074219 530.746094 1019.335938 C 532.132812 1018.59375 533.535156 1017.886719 534.953125 1017.21875 C 536.375 1016.546875 537.8125 1015.910156 539.261719 1015.308594 C 540.714844 1014.707031 542.179688 1014.140625 543.660156 1013.613281 C 545.136719 1013.082031 546.628906 1012.589844 548.132812 1012.132812 C 549.636719 1011.675781 551.148438 1011.257812 552.675781 1010.875 C 554.199219 1010.496094 555.730469 1010.152344 557.269531 1009.84375 C 558.8125 1009.539062 560.359375 1009.269531 561.914062 1009.039062 C 563.46875 1008.808594 565.027344 1008.617188 566.589844 1008.460938 C 568.152344 1008.308594 569.71875 1008.191406 571.289062 1008.117188 C 572.859375 1008.039062 574.429688 1008 576 1008 C 577.570312 1008 579.140625 1008.039062 580.710938 1008.117188 C 582.28125 1008.191406 583.847656 1008.308594 585.410156 1008.460938 C 586.972656 1008.617188 588.53125 1008.808594 590.085938 1009.039062 C 591.640625 1009.269531 593.1875 1009.539062 594.730469 1009.84375 C 596.269531 1010.152344 597.800781 1010.496094 599.324219 1010.875 C 600.851562 1011.257812 602.363281 1011.675781 603.867188 1012.132812 C 605.371094 1012.589844 606.863281 1013.082031 608.339844 1013.613281 C 609.820312 1014.140625 611.285156 1014.707031 612.738281 1015.308594 C 614.1875 1015.910156 615.625 1016.546875 617.046875 1017.21875 C 618.464844 1017.886719 619.867188 1018.59375 621.253906 1019.335938 C 622.640625 1020.074219 624.007812 1020.851562 625.355469 1021.65625 C 626.703125 1022.464844 628.027344 1023.304688 629.335938 1024.179688 C 630.640625 1025.050781 631.925781 1025.957031 633.1875 1026.890625 C 634.449219 1027.828125 635.6875 1028.792969 636.902344 1029.789062 C 638.117188 1030.789062 639.304688 1031.8125 640.46875 1032.867188 C 641.632812 1033.921875 642.769531 1035.007812 643.882812 1036.117188 C 644.992188 1037.230469 646.074219 1038.367188 647.132812 1039.53125 C 648.1875 1040.695312 649.210938 1041.882812 650.207031 1043.097656 C 651.207031 1044.3125 652.171875 1045.550781 653.109375 1046.8125 C 654.042969 1048.074219 654.949219 1049.359375 655.820312 1050.664062 C 656.695312 1051.972656 657.535156 1053.296875 658.34375 1054.644531 C 659.148438 1055.992188 659.921875 1057.359375 660.664062 1058.746094 C 661.40625 1060.132812 662.109375 1061.535156 662.78125 1062.953125 C 663.453125 1064.375 664.089844 1065.8125 664.691406 1067.261719 C 665.292969 1068.714844 665.859375 1070.179688 666.386719 1071.660156 C 666.917969 1073.136719 667.410156 1074.628906 667.867188 1076.132812 C 668.320312 1077.636719 668.742188 1079.148438 669.121094 1080.671875 C 669.503906 1082.199219 669.847656 1083.730469 670.15625 1085.269531 C 670.460938 1086.8125 670.730469 1088.359375 670.960938 1089.914062 C 671.191406 1091.46875 671.382812 1093.027344 671.539062 1094.589844 C 671.691406 1096.152344 671.808594 1097.71875 671.882812 1099.289062 C 671.960938 1100.859375 672 1102.429688 672 1104 C 672 1105.570312 671.960938 1107.140625 671.882812 1108.710938 C 671.808594 1110.28125 671.691406 1111.847656 671.539062 1113.410156 C 671.382812 1114.972656 671.191406 1116.53125 670.960938 1118.085938 C 670.730469 1119.640625 670.460938 1121.1875 670.15625 1122.730469 C 669.847656 1124.269531 669.503906 1125.800781 669.121094 1127.324219 C 668.742188 1128.851562 668.320312 1130.363281 667.867188 1131.867188 C 667.410156 1133.371094 666.917969 1134.863281 666.386719 1136.339844 C 665.859375 1137.820312 665.292969 1139.285156 664.691406 1140.738281 C 664.089844 1142.1875 663.453125 1143.625 662.78125 1145.046875 C 662.109375 1146.464844 661.40625 1147.867188 660.664062 1149.253906 C 659.921875 1150.640625 659.148438 1152.007812 658.34375 1153.355469 C 657.535156 1154.699219 656.695312 1156.027344 655.820312 1157.335938 C 654.949219 1158.640625 654.042969 1159.925781 653.109375 1161.1875 C 652.171875 1162.449219 651.207031 1163.6875 650.207031 1164.902344 C 649.210938 1166.117188 648.1875 1167.304688 647.132812 1168.46875 C 646.074219 1169.632812 644.992188 1170.769531 643.882812 1171.882812 C 642.769531 1172.992188 641.632812 1174.074219 640.46875 1175.132812 C 639.304688 1176.1875 638.117188 1177.210938 636.902344 1178.207031 C 635.6875 1179.207031 634.449219 1180.171875 633.1875 1181.109375 C 631.925781 1182.042969 630.640625 1182.949219 629.335938 1183.820312 C 628.027344 1184.695312 626.703125 1185.535156 625.355469 1186.339844 C 624.007812 1187.148438 622.640625 1187.921875 621.253906 1188.664062 C 619.867188 1189.40625 618.464844 1190.109375 617.046875 1190.78125 C 615.625 1191.453125 614.1875 1192.089844 612.738281 1192.691406 C 611.285156 1193.292969 609.820312 1193.859375 608.339844 1194.386719 C 606.863281 1194.917969 605.371094 1195.410156 603.867188 1195.867188 C 602.363281 1196.320312 600.851562 1196.742188 599.324219 1197.121094 C 597.800781 1197.503906 596.269531 1197.847656 594.730469 1198.15625 C 593.1875 1198.460938 591.640625 1198.730469 590.085938 1198.960938 C 588.53125 1199.191406 586.972656 1199.382812 585.410156 1199.539062 C 583.847656 1199.691406 582.28125 1199.808594 580.710938 1199.882812 C 579.140625 1199.960938 577.570312 1200 576 1200 Z M 576 1200 " fill-opacity="1" fill-rule="nonzero"/><path fill="#ff9000" d="M 1392 672 L 1337.183594 672 C 1336.535156 669.449219 1335.832031 666.914062 1335.078125 664.394531 C 1334.328125 661.875 1333.519531 659.371094 1332.664062 656.882812 C 1331.808594 654.394531 1330.898438 651.925781 1329.941406 649.476562 C 1328.980469 647.027344 1327.972656 644.597656 1326.910156 642.1875 C 1325.851562 639.78125 1324.742188 637.394531 1323.585938 635.03125 C 1322.429688 632.671875 1321.222656 630.332031 1319.96875 628.019531 C 1318.714844 625.707031 1317.410156 623.421875 1316.0625 621.164062 C 1314.714844 618.902344 1313.320312 616.675781 1311.878906 614.472656 C 1310.4375 612.273438 1308.949219 610.101562 1307.421875 607.960938 C 1305.890625 605.820312 1304.316406 603.714844 1302.699219 601.640625 C 1301.078125 599.5625 1299.421875 597.523438 1297.71875 595.515625 C 1296.015625 593.511719 1294.273438 591.539062 1292.488281 589.605469 C 1290.707031 587.671875 1288.882812 585.777344 1287.023438 583.917969 C 1285.160156 582.058594 1283.261719 580.238281 1281.324219 578.457031 C 1279.386719 576.675781 1277.414062 574.9375 1275.40625 573.238281 C 1273.398438 571.539062 1271.355469 569.882812 1269.277344 568.265625 C 1267.199219 566.652344 1265.089844 565.082031 1262.949219 563.554688 C 1260.804688 562.027344 1258.632812 560.542969 1256.429688 559.105469 C 1254.226562 557.667969 1251.996094 556.277344 1249.734375 554.929688 C 1247.472656 553.585938 1245.1875 552.285156 1242.871094 551.035156 C 1240.558594 549.785156 1238.21875 548.582031 1235.855469 547.425781 C 1233.488281 546.273438 1231.101562 545.167969 1228.691406 544.109375 C 1226.28125 543.054688 1223.851562 542.050781 1221.402344 541.09375 C 1218.949219 540.136719 1216.480469 539.234375 1213.992188 538.378906 C 1211.503906 537.527344 1208.996094 536.722656 1206.476562 535.972656 C 1203.953125 535.222656 1201.417969 534.527344 1198.867188 533.882812 C 1196.316406 533.234375 1193.753906 532.644531 1191.179688 532.105469 C 1188.605469 531.566406 1186.019531 531.078125 1183.421875 530.644531 C 1180.828125 530.214844 1178.226562 529.835938 1175.613281 529.507812 C 1173.003906 529.183594 1170.386719 528.914062 1167.765625 528.695312 C 1165.144531 528.480469 1162.519531 528.316406 1159.890625 528.207031 C 1157.261719 528.097656 1154.628906 528.046875 1152 528.046875 C 1149.367188 528.046875 1146.738281 528.097656 1144.109375 528.207031 C 1141.480469 528.316406 1138.855469 528.480469 1136.234375 528.695312 C 1133.613281 528.914062 1130.996094 529.183594 1128.386719 529.507812 C 1125.773438 529.835938 1123.171875 530.214844 1120.574219 530.644531 C 1117.980469 531.078125 1115.394531 531.566406 1112.820312 532.105469 C 1110.246094 532.644531 1107.683594 533.234375 1105.132812 533.882812 C 1102.582031 534.527344 1100.046875 535.222656 1097.523438 535.972656 C 1095.003906 536.722656 1092.496094 537.527344 1090.007812 538.378906 C 1087.519531 539.234375 1085.050781 540.136719 1082.597656 541.09375 C 1080.148438 542.050781 1077.714844 543.054688 1075.304688 544.109375 C 1072.898438 545.167969 1070.511719 546.273438 1068.144531 547.425781 C 1065.78125 548.582031 1063.441406 549.785156 1061.128906 551.035156 C 1058.8125 552.285156 1056.527344 553.585938 1054.265625 554.929688 C 1052.003906 556.277344 1049.773438 557.667969 1047.570312 559.105469 C 1045.367188 560.542969 1043.191406 562.027344 1041.050781 563.554688 C 1038.910156 565.082031 1036.800781 566.652344 1034.722656 568.265625 C 1032.644531 569.882812 1030.601562 571.539062 1028.59375 573.238281 C 1026.585938 574.9375 1024.613281 576.675781 1022.675781 578.457031 C 1020.738281 580.238281 1018.839844 582.058594 1016.976562 583.917969 C 1015.113281 585.777344 1013.292969 587.671875 1011.507812 589.605469 C 1009.726562 591.539062 1007.984375 593.511719 1006.28125 595.515625 C 1004.578125 597.523438 1002.917969 599.5625 1001.300781 601.640625 C 999.683594 603.714844 998.109375 605.820312 996.578125 607.960938 C 995.050781 610.101562 993.5625 612.273438 992.121094 614.472656 C 990.679688 616.675781 989.285156 618.902344 987.9375 621.164062 C 986.589844 623.421875 985.285156 625.707031 984.03125 628.019531 C 982.777344 630.332031 981.570312 632.671875 980.414062 635.03125 C 979.257812 637.394531 978.148438 639.78125 977.085938 642.1875 C 976.027344 644.597656 975.019531 647.027344 974.058594 649.476562 C 973.101562 651.925781 972.191406 654.394531 971.335938 656.882812 C 970.480469 659.371094 969.671875 661.875 968.917969 664.394531 C 968.167969 666.914062 967.464844 669.449219 966.816406 672 L 48 672 C 46.429688 672 44.859375 672.078125 43.296875 672.230469 C 41.730469 672.386719 40.175781 672.617188 38.636719 672.921875 C 37.09375 673.230469 35.570312 673.609375 34.066406 674.066406 C 32.5625 674.523438 31.082031 675.050781 29.632812 675.652344 C 28.179688 676.253906 26.757812 676.925781 25.371094 677.667969 C 23.988281 678.410156 22.640625 679.214844 21.332031 680.089844 C 20.027344 680.960938 18.765625 681.898438 17.550781 682.894531 C 16.332031 683.894531 15.171875 684.945312 14.058594 686.058594 C 12.949219 687.171875 11.894531 688.332031 10.894531 689.550781 C 9.898438 690.765625 8.960938 692.027344 8.089844 693.332031 C 7.214844 694.640625 6.410156 695.988281 5.667969 697.371094 C 4.925781 698.757812 4.253906 700.179688 3.652344 701.632812 C 3.050781 703.082031 2.523438 704.5625 2.066406 706.066406 C 1.609375 707.570312 1.230469 709.09375 0.921875 710.636719 C 0.617188 712.175781 0.386719 713.730469 0.230469 715.296875 C 0.078125 716.859375 0 718.429688 0 720 C 0 721.570312 0.078125 723.140625 0.230469 724.703125 C 0.386719 726.269531 0.617188 727.824219 0.921875 729.363281 C 1.230469 730.90625 1.609375 732.429688 2.066406 733.933594 C 2.523438 735.4375 3.050781 736.917969 3.652344 738.367188 C 4.253906 739.820312 4.925781 741.242188 5.667969 742.625 C 6.410156 744.011719 7.214844 745.359375 8.089844 746.667969 C 8.960938 747.972656 9.898438 749.234375 10.894531 750.449219 C 11.894531 751.664062 12.949219 752.828125 14.058594 753.941406 C 15.171875 755.050781 16.332031 756.105469 17.550781 757.105469 C 18.765625 758.101562 20.027344 759.035156 21.332031 759.910156 C 22.640625 760.785156 23.988281 761.589844 25.371094 762.332031 C 26.757812 763.074219 28.179688 763.746094 29.632812 764.347656 C 31.082031 764.949219 32.5625 765.476562 34.066406 765.933594 C 35.570312 766.390625 37.09375 766.769531 38.636719 767.078125 C 40.175781 767.382812 41.730469 767.613281 43.296875 767.769531 C 44.859375 767.921875 46.429688 768 48 768 L 966.816406 768 C 967.464844 770.550781 968.167969 773.085938 968.917969 775.605469 C 969.671875 778.125 970.480469 780.628906 971.335938 783.117188 C 972.191406 785.605469 973.101562 788.074219 974.058594 790.523438 C 975.019531 792.972656 976.027344 795.402344 977.085938 797.8125 C 978.148438 800.21875 979.257812 802.605469 980.414062 804.96875 C 981.570312 807.328125 982.777344 809.667969 984.03125 811.980469 C 985.285156 814.292969 986.589844 816.578125 987.9375 818.835938 C 989.285156 821.09375 990.679688 823.324219 992.121094 825.527344 C 993.5625 827.726562 995.050781 829.898438 996.578125 832.039062 C 998.109375 834.179688 999.683594 836.285156 1001.300781 838.359375 C 1002.917969 840.433594 1004.578125 842.476562 1006.28125 844.480469 C 1007.984375 846.488281 1009.726562 848.457031 1011.507812 850.394531 C 1013.292969 852.328125 1015.117188 854.222656 1016.976562 856.082031 C 1018.839844 857.941406 1020.738281 859.761719 1022.675781 861.542969 C 1024.613281 863.324219 1026.585938 865.0625 1028.59375 866.761719 C 1030.601562 868.460938 1032.644531 870.117188 1034.722656 871.734375 C 1036.800781 873.347656 1038.910156 874.917969 1041.050781 876.445312 C 1043.191406 877.972656 1045.367188 879.457031 1047.570312 880.894531 C 1049.773438 882.332031 1052.003906 883.722656 1054.265625 885.070312 C 1056.527344 886.414062 1058.8125 887.714844 1061.128906 888.964844 C 1063.441406 890.214844 1065.78125 891.417969 1068.144531 892.574219 C 1070.511719 893.726562 1072.898438 894.832031 1075.308594 895.890625 C 1077.714844 896.945312 1080.148438 897.949219 1082.597656 898.90625 C 1085.050781 899.863281 1087.519531 900.765625 1090.007812 901.621094 C 1092.496094 902.472656 1095.003906 903.273438 1097.523438 904.023438 C 1100.046875 904.773438 1102.582031 905.472656 1105.132812 906.117188 C 1107.683594 906.761719 1110.246094 907.355469 1112.820312 907.894531 C 1115.394531 908.433594 1117.980469 908.921875 1120.578125 909.351562 C 1123.171875 909.785156 1125.773438 910.164062 1128.386719 910.488281 C 1130.996094 910.816406 1133.613281 911.085938 1136.234375 911.304688 C 1138.855469 911.519531 1141.480469 911.683594 1144.109375 911.792969 C 1146.738281 911.902344 1149.367188 911.953125 1152 911.953125 C 1154.628906 911.953125 1157.261719 911.902344 1159.890625 911.792969 C 1162.519531 911.683594 1165.144531 911.519531 1167.765625 911.304688 C 1170.386719 911.085938 1173.003906 910.816406 1175.613281 910.488281 C 1178.226562 910.164062 1180.828125 909.785156 1183.421875 909.351562 C 1186.019531 908.921875 1188.605469 908.433594 1191.179688 907.894531 C 1193.753906 907.355469 1196.316406 906.761719 1198.867188 906.117188 C 1201.417969 905.472656 1203.953125 904.773438 1206.476562 904.023438 C 1208.996094 903.273438 1211.503906 902.472656 1213.992188 901.621094 C 1216.480469 900.765625 1218.949219 899.863281 1221.402344 898.90625 C 1223.851562 897.949219 1226.28125 896.945312 1228.691406 895.890625 C 1231.101562 894.832031 1233.488281 893.726562 1235.855469 892.574219 C 1238.21875 891.417969 1240.558594 890.214844 1242.871094 888.964844 C 1245.1875 887.714844 1247.472656 886.414062 1249.734375 885.070312 C 1251.996094 883.722656 1254.226562 882.332031 1256.429688 880.894531 C 1258.632812 879.457031 1260.804688 877.972656 1262.949219 876.445312 C 1265.089844 874.917969 1267.199219 873.347656 1269.277344 871.734375 C 1271.355469 870.117188 1273.398438 868.460938 1275.40625 866.761719 C 1277.414062 865.0625 1279.386719 863.324219 1281.324219 861.542969 C 1283.261719 859.761719 1285.160156 857.941406 1287.023438 856.082031 C 1288.882812 854.222656 1290.707031 852.328125 1292.488281 850.394531 C 1294.273438 848.457031 1296.015625 846.488281 1297.71875 844.480469 C 1299.421875 842.476562 1301.078125 840.433594 1302.699219 838.359375 C 1304.316406 836.285156 1305.890625 834.179688 1307.421875 832.039062 C 1308.949219 829.898438 1310.4375 827.726562 1311.878906 825.527344 C 1313.320312 823.324219 1314.714844 821.09375 1316.0625 818.835938 C 1317.410156 816.578125 1318.714844 814.292969 1319.96875 811.980469 C 1321.222656 809.667969 1322.429688 807.328125 1323.585938 804.96875 C 1324.742188 802.605469 1325.851562 800.21875 1326.910156 797.8125 C 1327.972656 795.402344 1328.980469 792.972656 1329.941406 790.523438 C 1330.898438 788.074219 1331.808594 785.605469 1332.664062 783.117188 C 1333.519531 780.628906 1334.328125 778.125 1335.078125 775.605469 C 1335.832031 773.085938 1336.535156 770.550781 1337.183594 768 L 1392 768 C 1393.570312 768 1395.140625 767.921875 1396.703125 767.769531 C 1398.269531 767.613281 1399.824219 767.382812 1401.363281 767.078125 C 1402.90625 766.769531 1404.429688 766.390625 1405.933594 765.933594 C 1407.4375 765.476562 1408.917969 764.949219 1410.367188 764.347656 C 1411.820312 763.746094 1413.242188 763.074219 1414.625 762.332031 C 1416.011719 761.589844 1417.359375 760.785156 1418.667969 759.910156 C 1419.972656 759.035156 1421.234375 758.101562 1422.449219 757.105469 C 1423.664062 756.105469 1424.828125 755.050781 1425.941406 753.941406 C 1427.050781 752.828125 1428.105469 751.664062 1429.105469 750.449219 C 1430.101562 749.234375 1431.035156 747.972656 1431.910156 746.667969 C 1432.785156 745.359375 1433.589844 744.011719 1434.332031 742.625 C 1435.074219 741.242188 1435.746094 739.820312 1436.347656 738.367188 C 1436.949219 736.917969 1437.476562 735.4375 1437.933594 733.933594 C 1438.390625 732.429688 1438.769531 730.90625 1439.078125 729.363281 C 1439.382812 727.824219 1439.613281 726.269531 1439.769531 724.703125 C 1439.921875 723.140625 1440 721.570312 1440 720 C 1440 718.429688 1439.921875 716.859375 1439.769531 715.296875 C 1439.613281 713.730469 1439.382812 712.175781 1439.078125 710.636719 C 1438.769531 709.09375 1438.390625 707.570312 1437.933594 706.066406 C 1437.476562 704.5625 1436.949219 703.082031 1436.347656 701.632812 C 1435.746094 700.179688 1435.074219 698.757812 1434.332031 697.371094 C 1433.589844 695.988281 1432.785156 694.640625 1431.910156 693.332031 C 1431.035156 692.027344 1430.101562 690.765625 1429.105469 689.550781 C 1428.105469 688.332031 1427.050781 687.171875 1425.941406 686.058594 C 1424.828125 684.945312 1423.664062 683.894531 1422.449219 682.894531 C 1421.234375 681.898438 1419.972656 680.960938 1418.667969 680.089844 C 1417.359375 679.214844 1416.011719 678.410156 1414.628906 677.667969 C 1413.242188 676.925781 1411.820312 676.253906 1410.367188 675.652344 C 1408.917969 675.050781 1407.4375 674.523438 1405.933594 674.066406 C 1404.429688 673.609375 1402.90625 673.230469 1401.363281 672.921875 C 1399.824219 672.617188 1398.269531 672.386719 1396.703125 672.230469 C 1395.140625 672.078125 1393.570312 672 1392 672 Z M 1152 816 C 1150.429688 816 1148.859375 815.960938 1147.289062 815.882812 C 1145.71875 815.808594 1144.152344 815.691406 1142.589844 815.539062 C 1141.027344 815.382812 1139.46875 815.191406 1137.914062 814.960938 C 1136.359375 814.730469 1134.8125 814.460938 1133.269531 814.15625 C 1131.730469 813.847656 1130.199219 813.503906 1128.671875 813.121094 C 1127.148438 812.742188 1125.636719 812.320312 1124.132812 811.867188 C 1122.628906 811.410156 1121.136719 810.917969 1119.660156 810.386719 C 1118.179688 809.859375 1116.714844 809.292969 1115.261719 808.691406 C 1113.8125 808.089844 1112.375 807.453125 1110.953125 806.78125 C 1109.535156 806.109375 1108.132812 805.40625 1106.746094 804.664062 C 1105.359375 803.925781 1103.992188 803.148438 1102.644531 802.34375 C 1101.296875 801.535156 1099.972656 800.695312 1098.664062 799.820312 C 1097.359375 798.949219 1096.074219 798.042969 1094.8125 797.109375 C 1093.550781 796.171875 1092.3125 795.207031 1091.097656 794.207031 C 1089.882812 793.210938 1088.695312 792.1875 1087.53125 791.132812 C 1086.367188 790.074219 1085.230469 788.992188 1084.117188 787.882812 C 1083.007812 786.769531 1081.921875 785.632812 1080.867188 784.46875 C 1079.8125 783.304688 1078.789062 782.117188 1077.789062 780.902344 C 1076.792969 779.6875 1075.828125 778.449219 1074.890625 777.1875 C 1073.957031 775.925781 1073.050781 774.640625 1072.179688 773.335938 C 1071.304688 772.027344 1070.464844 770.703125 1069.65625 769.355469 C 1068.851562 768.007812 1068.074219 766.640625 1067.335938 765.253906 C 1066.59375 763.867188 1065.886719 762.464844 1065.21875 761.046875 C 1064.546875 759.625 1063.910156 758.1875 1063.308594 756.738281 C 1062.707031 755.285156 1062.140625 753.820312 1061.613281 752.339844 C 1061.082031 750.863281 1060.589844 749.371094 1060.132812 747.867188 C 1059.675781 746.363281 1059.257812 744.851562 1058.875 743.324219 C 1058.496094 741.800781 1058.152344 740.269531 1057.84375 738.730469 C 1057.539062 737.1875 1057.269531 735.640625 1057.039062 734.085938 C 1056.808594 732.53125 1056.617188 730.972656 1056.460938 729.410156 C 1056.308594 727.847656 1056.191406 726.28125 1056.117188 724.710938 C 1056.039062 723.140625 1056 721.570312 1056 720 C 1056 718.429688 1056.039062 716.859375 1056.117188 715.289062 C 1056.191406 713.71875 1056.308594 712.152344 1056.460938 710.589844 C 1056.617188 709.027344 1056.808594 707.46875 1057.039062 705.914062 C 1057.269531 704.359375 1057.539062 702.8125 1057.84375 701.269531 C 1058.152344 699.730469 1058.496094 698.199219 1058.875 696.671875 C 1059.257812 695.148438 1059.675781 693.636719 1060.132812 692.132812 C 1060.589844 690.628906 1061.082031 689.136719 1061.613281 687.660156 C 1062.140625 686.179688 1062.707031 684.714844 1063.308594 683.261719 C 1063.910156 681.8125 1064.546875 680.375 1065.21875 678.953125 C 1065.886719 677.535156 1066.59375 676.132812 1067.335938 674.746094 C 1068.074219 673.359375 1068.851562 671.992188 1069.65625 670.644531 C 1070.464844 669.296875 1071.304688 667.972656 1072.179688 666.664062 C 1073.050781 665.359375 1073.957031 664.074219 1074.890625 662.8125 C 1075.828125 661.550781 1076.792969 660.3125 1077.789062 659.097656 C 1078.789062 657.882812 1079.8125 656.695312 1080.867188 655.53125 C 1081.921875 654.367188 1083.007812 653.230469 1084.117188 652.117188 C 1085.230469 651.007812 1086.367188 649.921875 1087.53125 648.867188 C 1088.695312 647.8125 1089.882812 646.789062 1091.097656 645.789062 C 1092.3125 644.792969 1093.550781 643.828125 1094.8125 642.890625 C 1096.074219 641.957031 1097.359375 641.050781 1098.664062 640.179688 C 1099.972656 639.304688 1101.296875 638.464844 1102.644531 637.65625 C 1103.992188 636.851562 1105.359375 636.074219 1106.746094 635.335938 C 1108.132812 634.59375 1109.535156 633.886719 1110.953125 633.21875 C 1112.375 632.546875 1113.8125 631.910156 1115.261719 631.308594 C 1116.714844 630.707031 1118.179688 630.140625 1119.660156 629.613281 C 1121.136719 629.082031 1122.628906 628.589844 1124.132812 628.132812 C 1125.636719 627.675781 1127.148438 627.257812 1128.671875 626.875 C 1130.199219 626.496094 1131.730469 626.152344 1133.269531 625.84375 C 1134.8125 625.539062 1136.359375 625.269531 1137.914062 625.039062 C 1139.46875 624.808594 1141.027344 624.617188 1142.589844 624.460938 C 1144.152344 624.308594 1145.71875 624.191406 1147.289062 624.117188 C 1148.859375 624.039062 1150.429688 624 1152 624 C 1153.570312 624 1155.140625 624.039062 1156.710938 624.117188 C 1158.28125 624.191406 1159.847656 624.308594 1161.410156 624.460938 C 1162.972656 624.617188 1164.53125 624.808594 1166.085938 625.039062 C 1167.640625 625.269531 1169.1875 625.539062 1170.730469 625.84375 C 1172.269531 626.152344 1173.800781 626.496094 1175.324219 626.878906 C 1176.851562 627.257812 1178.363281 627.675781 1179.867188 628.132812 C 1181.371094 628.589844 1182.863281 629.082031 1184.339844 629.613281 C 1185.820312 630.140625 1187.285156 630.707031 1188.738281 631.308594 C 1190.1875 631.910156 1191.625 632.546875 1193.042969 633.21875 C 1194.464844 633.886719 1195.867188 634.59375 1197.253906 635.335938 C 1198.640625 636.074219 1200.007812 636.851562 1201.355469 637.65625 C 1202.703125 638.464844 1204.027344 639.304688 1205.335938 640.179688 C 1206.640625 641.050781 1207.925781 641.957031 1209.1875 642.890625 C 1210.449219 643.828125 1211.6875 644.792969 1212.902344 645.789062 C 1214.117188 646.789062 1215.304688 647.8125 1216.46875 648.867188 C 1217.632812 649.921875 1218.769531 651.007812 1219.882812 652.117188 C 1220.992188 653.230469 1222.074219 654.367188 1223.132812 655.53125 C 1224.1875 656.695312 1225.210938 657.882812 1226.207031 659.097656 C 1227.207031 660.3125 1228.171875 661.550781 1229.109375 662.8125 C 1230.042969 664.074219 1230.949219 665.359375 1231.820312 666.664062 C 1232.695312 667.972656 1233.535156 669.296875 1234.339844 670.644531 C 1235.148438 671.992188 1235.921875 673.359375 1236.664062 674.746094 C 1237.40625 676.132812 1238.109375 677.535156 1238.78125 678.953125 C 1239.453125 680.375 1240.089844 681.8125 1240.691406 683.261719 C 1241.292969 684.714844 1241.859375 686.179688 1242.386719 687.660156 C 1242.917969 689.136719 1243.410156 690.628906 1243.867188 692.132812 C 1244.320312 693.636719 1244.742188 695.148438 1245.121094 696.671875 C 1245.503906 698.199219 1245.847656 699.730469 1246.15625 701.269531 C 1246.460938 702.8125 1246.730469 704.359375 1246.960938 705.914062 C 1247.191406 707.46875 1247.382812 709.027344 1247.539062 710.589844 C 1247.691406 712.152344 1247.808594 713.71875 1247.882812 715.289062 C 1247.960938 716.859375 1248 718.429688 1248 720 C 1248 721.570312 1247.960938 723.140625 1247.882812 724.710938 C 1247.808594 726.28125 1247.691406 727.847656 1247.539062 729.410156 C 1247.382812 730.972656 1247.191406 732.53125 1246.960938 734.085938 C 1246.730469 735.640625 1246.460938 737.1875 1246.15625 738.730469 C 1245.847656 740.269531 1245.503906 741.800781 1245.121094 743.324219 C 1244.742188 744.851562 1244.320312 746.363281 1243.867188 747.867188 C 1243.410156 749.371094 1242.917969 750.863281 1242.386719 752.339844 C 1241.859375 753.820312 1241.292969 755.285156 1240.691406 756.738281 C 1240.089844 758.1875 1239.453125 759.625 1238.78125 761.046875 C 1238.109375 762.464844 1237.40625 763.867188 1236.664062 765.253906 C 1235.921875 766.640625 1235.148438 768.007812 1234.339844 769.355469 C 1233.535156 770.699219 1232.695312 772.027344 1231.820312 773.335938 C 1230.949219 774.640625 1230.042969 775.925781 1229.109375 777.1875 C 1228.171875 778.449219 1227.207031 779.6875 1226.207031 780.902344 C 1225.210938 782.117188 1224.1875 783.304688 1223.132812 784.46875 C 1222.074219 785.632812 1220.992188 786.769531 1219.882812 787.882812 C 1218.769531 788.992188 1217.632812 790.074219 1216.46875 791.132812 C 1215.304688 792.1875 1214.117188 793.210938 1212.902344 794.207031 C 1211.6875 795.207031 1210.449219 796.171875 1209.1875 797.109375 C 1207.925781 798.042969 1206.640625 798.949219 1205.335938 799.820312 C 1204.027344 800.695312 1202.703125 801.535156 1201.355469 802.34375 C 1200.007812 803.148438 1198.640625 803.925781 1197.253906 804.664062 C 1195.867188 805.40625 1194.464844 806.109375 1193.046875 806.78125 C 1191.625 807.453125 1190.1875 808.089844 1188.738281 808.691406 C 1187.285156 809.292969 1185.820312 809.859375 1184.339844 810.386719 C 1182.863281 810.917969 1181.371094 811.410156 1179.867188 811.867188 C 1178.363281 812.320312 1176.851562 812.742188 1175.324219 813.121094 C 1173.800781 813.503906 1172.269531 813.847656 1170.730469 814.15625 C 1169.1875 814.460938 1167.640625 814.730469 1166.085938 814.960938 C 1164.53125 815.191406 1162.972656 815.382812 1161.410156 815.539062 C 1159.847656 815.691406 1158.28125 815.808594 1156.710938 815.882812 C 1155.140625 815.960938 1153.570312 816 1152 816 Z M 1152 816 " fill-opacity="1" fill-rule="nonzero"/></svg>