<svg xmlns="http://www.w3.org/2000/svg" xmlns:xlink="http://www.w3.org/1999/xlink" width="1920" zoomAndPan="magnify" viewBox="0 0 1440 1439.999935" height="1920" preserveAspectRatio="xMidYMid meet" version="1.0"><defs><clipPath id="9e190005b4"><path d="M 0 122.398438 L 1440 122.398438 L 1440 463 L 0 463 Z M 0 122.398438 " clip-rule="nonzero"/></clipPath><clipPath id="de387ce99e"><path d="M 0.00390625 322.199219 L 1439.996094 322.199219 L 1439.996094 1317.574219 L 0.00390625 1317.574219 Z M 0.00390625 322.199219 " clip-rule="nonzero"/></clipPath></defs><g clip-path="url(#9e190005b4)"><path fill="#ff9800" d="M 0.00390625 462.007812 L 0.00390625 251.984375 C 0.00390625 180.421875 58.015625 122.40625 129.582031 122.40625 L 407.953125 122.40625 C 435.390625 122.40625 462.109375 131.113281 484.277344 147.269531 L 605.484375 235.609375 L 1310.417969 235.609375 C 1381.984375 235.609375 1439.996094 293.625 1439.996094 365.1875 L 1439.996094 462.007812 L 0.00390625 462.007812 " fill-opacity="1" fill-rule="nonzero"/></g><g clip-path="url(#de387ce99e)"><path fill="#ffb64a" d="M 1310.417969 322.480469 L 129.582031 322.480469 C 58.015625 322.480469 0.00390625 380.496094 0.00390625 452.058594 L 0.00390625 1188.003906 C 0.00390625 1259.566406 58.015625 1317.574219 129.582031 1317.574219 L 1310.417969 1317.574219 C 1381.984375 1317.574219 1439.996094 1259.566406 1439.996094 1188.003906 L 1439.996094 452.058594 C 1439.996094 380.496094 1381.984375 322.480469 1310.417969 322.480469 " fill-opacity="1" fill-rule="nonzero"/></g></svg>