<svg xmlns="http://www.w3.org/2000/svg" xmlns:xlink="http://www.w3.org/1999/xlink" width="1920" zoomAndPan="magnify" viewBox="0 0 1440 1439.999935" height="1920" preserveAspectRatio="xMidYMid meet" version="1.0"><defs><clipPath id="4ee2e19b51"><path d="M 0 1017 L 762 1017 L 762 1372.5 L 0 1372.5 Z M 0 1017 " clip-rule="nonzero"/></clipPath></defs><path fill="#ff9800" d="M 850.914062 493.449219 C 852.882812 487.523438 853.351562 481.015625 851.886719 474.476562 C 847.570312 455.3125 828.550781 443.269531 809.398438 447.589844 C 808.074219 447.882812 806.792969 448.082031 805.476562 448.359375 C 818.507812 465.410156 833.675781 480.460938 850.914062 493.449219 Z M 850.914062 493.449219 " fill-opacity="1" fill-rule="nonzero"/><path fill="#ff9800" d="M 725.738281 468.867188 C 726.539062 463.023438 728.445312 457.496094 731.324219 452.542969 C 678.292969 447.171875 634.078125 424.433594 601.449219 400.878906 C 582.839844 387.457031 568.273438 373.917969 558.558594 363.933594 C 553.707031 358.945312 550.050781 354.847656 547.710938 352.109375 C 546.539062 350.746094 545.699219 349.71875 545.191406 349.082031 C 544.933594 348.777344 544.761719 348.554688 544.679688 348.453125 C 542.457031 345.558594 539.875 343.105469 537.046875 341.101562 C 497.789062 301.734375 458.539062 262.339844 419.277344 222.964844 C 417.707031 221.367188 415.640625 219.863281 413.21875 218.476562 C 407.421875 213.539062 397.320312 205.597656 383.550781 197.480469 C 362.410156 185.136719 332.179688 171.882812 295.332031 171.769531 C 259.492188 171.433594 218.53125 186.039062 183.4375 221.308594 C 148.089844 256.5 117.050781 310.46875 90.746094 391.847656 C 84.722656 410.542969 94.996094 430.578125 113.683594 436.597656 C 117.308594 437.769531 120.992188 438.328125 124.605469 438.328125 C 139.625 438.328125 153.582031 428.730469 158.4375 413.664062 C 182.398438 339.105469 209.605469 295.359375 233.503906 271.820312 C 257.667969 248.355469 276.941406 243.226562 295.332031 242.886719 C 303.707031 242.835938 312.113281 244.355469 320.148438 246.75 C 248.914062 332.171875 208.824219 437.273438 172.046875 543.726562 C 170.820312 547.265625 170.0625 550.820312 169.65625 554.324219 C 165.171875 569.03125 166.730469 585.5 175.390625 599.601562 C 175.390625 599.601562 175.46875 599.746094 175.679688 600.078125 L 175.6875 600.078125 C 178.371094 604.703125 198.214844 642.242188 198.003906 694.414062 C 197.957031 722.109375 192.835938 754.148438 176.660156 790.238281 C 160.421875 826.292969 132.902344 866.71875 86.167969 909.847656 C 63.601562 930.644531 62.175781 965.789062 82.972656 988.359375 C 93.925781 1000.242188 108.859375 1006.261719 123.84375 1006.261719 C 137.304688 1006.261719 150.804688 1001.398438 161.484375 991.550781 C 217.792969 939.671875 255.144531 886.738281 278.015625 835.789062 C 300.9375 784.875 309.164062 736.261719 309.117188 694.410156 C 309.082031 682.679688 308.429688 671.519531 307.347656 660.933594 C 318.207031 666.667969 340.78125 680.050781 361.800781 701.167969 C 376.273438 715.59375 390.042969 733.378906 400.105469 754.691406 C 410.152344 776.085938 416.839844 800.945312 416.894531 831.992188 C 416.875 859.128906 411.640625 891.246094 397.367188 929.570312 C 386.632812 958.3125 401.253906 990.3125 429.996094 1001.046875 C 436.394531 1003.429688 442.953125 1004.5625 449.402344 1004.5625 C 471.941406 1004.5625 493.140625 990.761719 501.480469 968.402344 C 519.808594 919.308594 528.027344 873.671875 528.003906 831.992188 C 528.074219 782.808594 516.441406 739.492188 498.949219 703.847656 C 472.632812 650.195312 434.390625 613.832031 403.199219 590.535156 C 394.882812 584.347656 387.046875 579.089844 379.933594 574.632812 C 406.230469 482.125 448.566406 449.105469 511.601562 417.59375 C 523.40625 429.351562 539.539062 443.878906 559.8125 458.542969 C 604.714844 490.980469 670.941406 524.421875 753.710938 524.835938 C 746.960938 517.472656 740.496094 509.804688 734.390625 501.773438 C 727.203125 492.316406 724.132812 480.632812 725.738281 468.867188 Z M 725.738281 468.867188 " fill-opacity="1" fill-rule="nonzero"/><path fill="#ff9800" d="M 612.761719 117.066406 C 614.183594 117.875 615.585938 118.71875 616.964844 119.597656 C 618.34375 120.476562 619.703125 121.386719 621.039062 122.332031 C 622.375 123.277344 623.6875 124.253906 624.976562 125.265625 C 626.261719 126.273438 627.527344 127.316406 628.761719 128.386719 C 630 129.457031 631.207031 130.558594 632.390625 131.691406 C 633.574219 132.820312 634.726562 133.980469 635.855469 135.167969 C 636.980469 136.355469 638.074219 137.570312 639.140625 138.8125 C 640.207031 140.054688 641.242188 141.320312 642.246094 142.613281 C 643.25 143.90625 644.222656 145.222656 645.164062 146.5625 C 646.101562 147.902344 647.007812 149.261719 647.878906 150.648438 C 648.753906 152.03125 649.589844 153.4375 650.394531 154.863281 C 651.199219 156.289062 651.964844 157.730469 652.699219 159.195312 C 653.429688 160.660156 654.125 162.140625 654.785156 163.636719 C 655.445312 165.132812 656.070312 166.648438 656.65625 168.175781 C 657.242188 169.703125 657.789062 171.246094 658.296875 172.800781 C 658.808594 174.355469 659.28125 175.921875 659.710938 177.5 C 660.144531 179.078125 660.539062 180.664062 660.894531 182.261719 C 661.25 183.859375 661.566406 185.464844 661.839844 187.078125 C 662.117188 188.691406 662.355469 190.308594 662.550781 191.933594 C 662.746094 193.558594 662.90625 195.1875 663.023438 196.820312 C 663.136719 198.449219 663.214844 200.085938 663.25 201.722656 C 663.289062 203.355469 663.285156 204.992188 663.242188 206.628906 C 663.199219 208.265625 663.113281 209.898438 662.988281 211.53125 C 662.867188 213.160156 662.703125 214.789062 662.496094 216.414062 C 662.292969 218.035156 662.050781 219.652344 661.765625 221.265625 C 661.484375 222.878906 661.160156 224.480469 660.800781 226.078125 C 660.4375 227.671875 660.035156 229.257812 659.597656 230.835938 C 659.15625 232.410156 658.679688 233.976562 658.160156 235.527344 C 657.644531 237.082031 657.089844 238.621094 656.5 240.144531 C 655.90625 241.671875 655.277344 243.179688 654.609375 244.675781 C 653.945312 246.167969 653.242188 247.644531 652.503906 249.105469 C 651.761719 250.566406 650.988281 252.007812 650.179688 253.429688 C 649.371094 254.851562 648.527344 256.253906 647.648438 257.632812 C 646.769531 259.011719 645.855469 260.371094 644.910156 261.707031 C 643.964844 263.042969 642.988281 264.355469 641.980469 265.644531 C 640.96875 266.929688 639.929688 268.191406 638.859375 269.429688 C 637.785156 270.667969 636.683594 271.875 635.554688 273.058594 C 634.421875 274.242188 633.265625 275.394531 632.078125 276.519531 C 630.890625 277.648438 629.675781 278.742188 628.433594 279.808594 C 627.191406 280.875 625.925781 281.910156 624.632812 282.914062 C 623.339844 283.917969 622.023438 284.890625 620.683594 285.828125 C 619.34375 286.769531 617.980469 287.671875 616.597656 288.546875 C 615.214844 289.417969 613.808594 290.257812 612.382812 291.058594 C 610.957031 291.863281 609.511719 292.632812 608.050781 293.363281 C 606.585938 294.097656 605.105469 294.792969 603.609375 295.453125 C 602.109375 296.113281 600.597656 296.734375 599.070312 297.320312 C 597.542969 297.90625 596 298.453125 594.445312 298.964844 C 592.890625 299.472656 591.324219 299.945312 589.746094 300.378906 C 588.167969 300.808594 586.582031 301.203125 584.984375 301.558594 C 583.386719 301.914062 581.78125 302.230469 580.167969 302.507812 C 578.554688 302.78125 576.9375 303.019531 575.3125 303.214844 C 573.6875 303.414062 572.058594 303.570312 570.425781 303.6875 C 568.792969 303.800781 567.160156 303.878906 565.523438 303.914062 C 563.886719 303.953125 562.25 303.949219 560.617188 303.90625 C 558.980469 303.859375 557.347656 303.777344 555.714844 303.652344 C 554.082031 303.527344 552.457031 303.367188 550.832031 303.160156 C 549.207031 302.957031 547.589844 302.714844 545.976562 302.429688 C 544.367188 302.148438 542.761719 301.824219 541.167969 301.460938 C 539.570312 301.101562 537.984375 300.699219 536.410156 300.257812 C 534.832031 299.820312 533.269531 299.339844 531.714844 298.824219 C 530.164062 298.308594 528.625 297.753906 527.097656 297.160156 C 525.574219 296.570312 524.0625 295.9375 522.570312 295.273438 C 521.074219 294.605469 519.597656 293.902344 518.136719 293.164062 C 516.675781 292.425781 515.234375 291.652344 513.8125 290.839844 C 512.390625 290.03125 510.988281 289.1875 509.609375 288.308594 C 508.230469 287.429688 506.871094 286.519531 505.535156 285.574219 C 504.199219 284.628906 502.886719 283.652344 501.597656 282.640625 C 500.3125 281.632812 499.050781 280.589844 497.8125 279.519531 C 496.574219 278.449219 495.367188 277.347656 494.183594 276.214844 C 493 275.085938 491.847656 273.925781 490.71875 272.738281 C 489.59375 271.550781 488.5 270.335938 487.433594 269.09375 C 486.367188 267.851562 485.332031 266.585938 484.328125 265.292969 C 483.324219 264 482.351562 262.6875 481.414062 261.34375 C 480.472656 260.003906 479.566406 258.644531 478.695312 257.257812 C 477.820312 255.875 476.984375 254.46875 476.179688 253.042969 C 475.378906 251.617188 474.609375 250.175781 473.875 248.710938 C 473.144531 247.246094 472.449219 245.765625 471.789062 244.269531 C 471.128906 242.773438 470.503906 241.257812 469.917969 239.730469 C 469.332031 238.203125 468.785156 236.660156 468.277344 235.105469 C 467.765625 233.550781 467.292969 231.984375 466.863281 230.40625 C 466.429688 228.828125 466.035156 227.242188 465.679688 225.644531 C 465.324219 224.046875 465.007812 222.441406 464.734375 220.828125 C 464.457031 219.214844 464.21875 217.597656 464.023438 215.972656 C 463.828125 214.347656 463.667969 212.71875 463.550781 211.089844 C 463.4375 209.457031 463.359375 207.820312 463.324219 206.1875 C 463.285156 204.550781 463.289062 202.914062 463.332031 201.277344 C 463.378906 199.640625 463.460938 198.007812 463.585938 196.378906 C 463.707031 194.746094 463.871094 193.117188 464.078125 191.492188 C 464.28125 189.871094 464.523438 188.253906 464.808594 186.640625 C 465.089844 185.03125 465.414062 183.425781 465.773438 181.828125 C 466.136719 180.234375 466.539062 178.648438 466.976562 177.070312 C 467.417969 175.496094 467.894531 173.929688 468.414062 172.378906 C 468.929688 170.828125 469.484375 169.289062 470.074219 167.761719 C 470.667969 166.238281 471.296875 164.726562 471.964844 163.230469 C 472.628906 161.738281 473.332031 160.261719 474.070312 158.800781 C 474.8125 157.339844 475.585938 155.898438 476.394531 154.476562 C 477.203125 153.054688 478.046875 151.652344 478.925781 150.273438 C 479.804688 148.894531 480.71875 147.535156 481.664062 146.199219 C 482.609375 144.863281 483.585938 143.550781 484.59375 142.261719 C 485.605469 140.976562 486.644531 139.714844 487.714844 138.476562 C 488.789062 137.238281 489.890625 136.03125 491.019531 134.847656 C 492.152344 133.664062 493.308594 132.511719 494.496094 131.386719 C 495.6875 130.257812 496.898438 129.164062 498.140625 128.097656 C 499.382812 127.03125 500.648438 125.996094 501.941406 124.992188 C 503.234375 123.988281 504.550781 123.015625 505.890625 122.078125 C 507.230469 121.136719 508.59375 120.234375 509.976562 119.359375 C 511.359375 118.488281 512.765625 117.648438 514.191406 116.847656 C 515.617188 116.042969 517.0625 115.273438 518.523438 114.542969 C 519.988281 113.808594 521.46875 113.113281 522.964844 112.453125 C 524.464844 111.792969 525.976562 111.171875 527.503906 110.585938 C 529.03125 110 530.574219 109.453125 532.128906 108.941406 C 533.683594 108.433594 535.25 107.960938 536.828125 107.527344 C 538.40625 107.097656 539.996094 106.703125 541.589844 106.347656 C 543.1875 105.992188 544.792969 105.675781 546.40625 105.398438 C 548.019531 105.125 549.640625 104.886719 551.261719 104.691406 C 552.886719 104.496094 554.515625 104.335938 556.148438 104.222656 C 557.78125 104.105469 559.414062 104.027344 561.050781 103.992188 C 562.6875 103.953125 564.324219 103.957031 565.957031 104 C 567.59375 104.046875 569.226562 104.128906 570.859375 104.253906 C 572.492188 104.378906 574.121094 104.542969 575.742188 104.746094 C 577.367188 104.949219 578.984375 105.191406 580.597656 105.476562 C 582.207031 105.757812 583.8125 106.082031 585.40625 106.445312 C 587.003906 106.804688 588.589844 107.207031 590.164062 107.648438 C 591.742188 108.085938 593.304688 108.566406 594.859375 109.082031 C 596.410156 109.597656 597.949219 110.152344 599.476562 110.746094 C 601 111.339844 602.511719 111.96875 604.007812 112.632812 C 605.5 113.300781 606.976562 114.003906 608.4375 114.742188 C 609.898438 115.480469 611.339844 116.253906 612.761719 117.066406 Z M 612.761719 117.066406 " fill-opacity="1" fill-rule="nonzero"/><path fill="#ff9800" d="M 1126.332031 330.085938 C 1127.96875 330.152344 1129.601562 330.257812 1131.230469 330.402344 C 1132.859375 330.546875 1134.488281 330.730469 1136.105469 330.957031 C 1137.726562 331.183594 1139.34375 331.445312 1140.949219 331.75 C 1142.558594 332.054688 1144.15625 332.398438 1145.75 332.78125 C 1147.339844 333.164062 1148.917969 333.585938 1150.488281 334.046875 C 1152.058594 334.507812 1153.617188 335.003906 1155.164062 335.542969 C 1156.710938 336.078125 1158.242188 336.652344 1159.757812 337.265625 C 1161.277344 337.878906 1162.777344 338.527344 1164.261719 339.214844 C 1165.75 339.898438 1167.21875 340.621094 1168.667969 341.378906 C 1170.117188 342.136719 1171.546875 342.929688 1172.960938 343.757812 C 1174.371094 344.585938 1175.761719 345.449219 1177.128906 346.34375 C 1178.5 347.242188 1179.84375 348.171875 1181.167969 349.132812 C 1182.492188 350.097656 1183.789062 351.089844 1185.066406 352.117188 C 1186.339844 353.144531 1187.589844 354.199219 1188.8125 355.285156 C 1190.035156 356.375 1191.230469 357.492188 1192.394531 358.636719 C 1193.5625 359.785156 1194.703125 360.957031 1195.8125 362.160156 C 1196.921875 363.363281 1198.003906 364.589844 1199.054688 365.847656 C 1200.101562 367.101562 1201.121094 368.382812 1202.109375 369.6875 C 1203.09375 370.992188 1204.050781 372.320312 1204.972656 373.671875 C 1205.894531 375.023438 1206.78125 376.398438 1207.636719 377.792969 C 1208.488281 379.191406 1209.308594 380.605469 1210.09375 382.042969 C 1210.878906 383.476562 1211.628906 384.929688 1212.339844 386.402344 C 1213.054688 387.875 1213.730469 389.367188 1214.371094 390.871094 C 1215.011719 392.378906 1215.613281 393.898438 1216.179688 395.433594 C 1216.746094 396.96875 1217.273438 398.519531 1217.761719 400.078125 C 1218.25 401.640625 1218.703125 403.210938 1219.113281 404.796875 C 1219.527344 406.378906 1219.898438 407.972656 1220.234375 409.574219 C 1220.566406 411.175781 1220.863281 412.785156 1221.117188 414.402344 C 1221.375 416.015625 1221.589844 417.640625 1221.765625 419.265625 C 1221.941406 420.894531 1222.074219 422.523438 1222.171875 424.15625 C 1222.265625 425.789062 1222.320312 427.425781 1222.335938 429.0625 C 1222.351562 430.695312 1222.328125 432.332031 1222.261719 433.96875 C 1222.195312 435.601562 1222.089844 437.234375 1221.945312 438.863281 C 1221.800781 440.496094 1221.617188 442.121094 1221.390625 443.742188 C 1221.164062 445.363281 1220.902344 446.976562 1220.597656 448.582031 C 1220.292969 450.191406 1219.949219 451.789062 1219.566406 453.382812 C 1219.183594 454.972656 1218.761719 456.554688 1218.300781 458.125 C 1217.839844 459.691406 1217.339844 461.25 1216.804688 462.796875 C 1216.265625 464.34375 1215.691406 465.875 1215.082031 467.390625 C 1214.46875 468.910156 1213.820312 470.410156 1213.132812 471.894531 C 1212.449219 473.382812 1211.726562 474.847656 1210.96875 476.300781 C 1210.210938 477.75 1209.417969 479.179688 1208.589844 480.589844 C 1207.761719 482.003906 1206.898438 483.394531 1206 484.761719 C 1205.105469 486.128906 1204.175781 487.476562 1203.214844 488.800781 C 1202.25 490.125 1201.257812 491.421875 1200.230469 492.695312 C 1199.203125 493.972656 1198.148438 495.21875 1197.058594 496.441406 C 1195.972656 497.664062 1194.855469 498.859375 1193.707031 500.027344 C 1192.5625 501.195312 1191.386719 502.332031 1190.183594 503.445312 C 1188.984375 504.554688 1187.753906 505.632812 1186.5 506.683594 C 1185.246094 507.734375 1183.964844 508.75 1182.660156 509.738281 C 1181.351562 510.726562 1180.023438 511.679688 1178.671875 512.601562 C 1177.320312 513.523438 1175.945312 514.410156 1174.550781 515.265625 C 1173.15625 516.121094 1171.738281 516.9375 1170.304688 517.722656 C 1168.867188 518.507812 1167.414062 519.257812 1165.941406 519.96875 C 1164.46875 520.683594 1162.980469 521.359375 1161.472656 522 C 1159.96875 522.640625 1158.445312 523.242188 1156.910156 523.808594 C 1155.375 524.375 1153.828125 524.902344 1152.265625 525.390625 C 1150.703125 525.882812 1149.132812 526.332031 1147.546875 526.746094 C 1145.964844 527.15625 1144.371094 527.53125 1142.769531 527.863281 C 1141.167969 528.199219 1139.558594 528.492188 1137.941406 528.746094 C 1136.324219 529.003906 1134.703125 529.21875 1133.078125 529.394531 C 1131.449219 529.570312 1129.820312 529.703125 1128.1875 529.800781 C 1126.554688 529.894531 1124.917969 529.949219 1123.28125 529.964844 C 1121.644531 529.980469 1120.011719 529.957031 1118.375 529.890625 C 1116.738281 529.824219 1115.109375 529.71875 1113.476562 529.574219 C 1111.847656 529.429688 1110.222656 529.246094 1108.601562 529.019531 C 1106.980469 528.792969 1105.367188 528.53125 1103.757812 528.226562 C 1102.152344 527.921875 1100.550781 527.578125 1098.960938 527.195312 C 1097.371094 526.8125 1095.789062 526.390625 1094.21875 525.929688 C 1092.648438 525.46875 1091.089844 524.972656 1089.542969 524.433594 C 1088 523.898438 1086.46875 523.324219 1084.949219 522.710938 C 1083.433594 522.097656 1081.929688 521.449219 1080.445312 520.761719 C 1078.960938 520.078125 1077.492188 519.355469 1076.042969 518.597656 C 1074.589844 517.839844 1073.160156 517.046875 1071.75 516.21875 C 1070.335938 515.390625 1068.949219 514.527344 1067.578125 513.632812 C 1066.210938 512.734375 1064.863281 511.804688 1063.539062 510.84375 C 1062.21875 509.878906 1060.917969 508.886719 1059.644531 507.859375 C 1058.367188 506.832031 1057.121094 505.777344 1055.898438 504.6875 C 1054.675781 503.601562 1053.480469 502.484375 1052.3125 501.339844 C 1051.144531 500.191406 1050.003906 499.019531 1048.894531 497.816406 C 1047.785156 496.613281 1046.707031 495.386719 1045.65625 494.128906 C 1044.605469 492.875 1043.585938 491.59375 1042.601562 490.289062 C 1041.613281 488.984375 1040.660156 487.65625 1039.738281 486.304688 C 1038.816406 484.953125 1037.929688 483.578125 1037.074219 482.183594 C 1036.21875 480.785156 1035.398438 479.371094 1034.617188 477.933594 C 1033.832031 476.5 1033.082031 475.046875 1032.367188 473.574219 C 1031.65625 472.101562 1030.976562 470.609375 1030.339844 469.105469 C 1029.699219 467.597656 1029.09375 466.078125 1028.53125 464.542969 C 1027.964844 463.007812 1027.4375 461.460938 1026.945312 459.898438 C 1026.457031 458.335938 1026.007812 456.765625 1025.59375 455.179688 C 1025.183594 453.597656 1024.808594 452.003906 1024.472656 450.402344 C 1024.140625 448.800781 1023.847656 447.191406 1023.589844 445.574219 C 1023.335938 443.960938 1023.121094 442.335938 1022.945312 440.710938 C 1022.769531 439.082031 1022.632812 437.453125 1022.539062 435.820312 C 1022.441406 434.1875 1022.386719 432.550781 1022.371094 430.914062 C 1022.355469 429.28125 1022.382812 427.644531 1022.449219 426.007812 C 1022.511719 424.375 1022.617188 422.742188 1022.761719 421.113281 C 1022.910156 419.480469 1023.09375 417.855469 1023.320312 416.234375 C 1023.542969 414.613281 1023.808594 413 1024.113281 411.394531 C 1024.417969 409.785156 1024.761719 408.1875 1025.144531 406.59375 C 1025.527344 405.003906 1025.949219 403.425781 1026.410156 401.855469 C 1026.867188 400.285156 1027.367188 398.726562 1027.90625 397.179688 C 1028.441406 395.632812 1029.015625 394.101562 1029.628906 392.585938 C 1030.238281 391.066406 1030.890625 389.566406 1031.574219 388.082031 C 1032.261719 386.59375 1032.984375 385.128906 1033.742188 383.675781 C 1034.5 382.226562 1035.292969 380.796875 1036.121094 379.386719 C 1036.949219 377.972656 1037.8125 376.582031 1038.707031 375.214844 C 1039.601562 373.847656 1040.53125 372.5 1041.496094 371.175781 C 1042.457031 369.851562 1043.453125 368.554688 1044.480469 367.28125 C 1045.503906 366.003906 1046.5625 364.757812 1047.648438 363.535156 C 1048.738281 362.3125 1049.855469 361.117188 1051 359.949219 C 1052.148438 358.78125 1053.320312 357.640625 1054.523438 356.53125 C 1055.726562 355.421875 1056.953125 354.34375 1058.210938 353.292969 C 1059.464844 352.242188 1060.746094 351.226562 1062.050781 350.238281 C 1063.355469 349.25 1064.683594 348.296875 1066.035156 347.375 C 1067.386719 346.453125 1068.761719 345.566406 1070.15625 344.710938 C 1071.554688 343.855469 1072.96875 343.039062 1074.40625 342.253906 C 1075.839844 341.46875 1077.296875 340.71875 1078.769531 340.007812 C 1080.242188 339.292969 1081.730469 338.617188 1083.234375 337.976562 C 1084.742188 337.335938 1086.261719 336.734375 1087.796875 336.167969 C 1089.332031 335.601562 1090.882812 335.074219 1092.445312 334.585938 C 1094.003906 334.09375 1095.578125 333.644531 1097.160156 333.230469 C 1098.746094 332.820312 1100.335938 332.445312 1101.9375 332.113281 C 1103.539062 331.777344 1105.148438 331.484375 1106.765625 331.230469 C 1108.382812 330.972656 1110.003906 330.757812 1111.632812 330.582031 C 1113.257812 330.40625 1114.886719 330.273438 1116.523438 330.175781 C 1118.15625 330.082031 1119.789062 330.027344 1121.425781 330.011719 C 1123.0625 329.996094 1124.699219 330.019531 1126.332031 330.085938 Z M 1126.332031 330.085938 " fill-opacity="1" fill-rule="nonzero"/><path fill="#ff9800" d="M 1318.964844 535.222656 C 1286.609375 523.425781 1258.722656 522.1875 1246.566406 522.109375 C 1241.976562 521.484375 1237.832031 521.507812 1234.519531 522.3125 C 1180.921875 534.824219 1127.335938 547.363281 1073.75 559.875 C 1067.273438 560.335938 1058.296875 560.769531 1047.414062 560.765625 C 1016.714844 560.804688 971.105469 557.210938 925.234375 541.816406 C 925.226562 541.816406 925.222656 541.8125 925.21875 541.8125 C 898.378906 532.789062 871.640625 519.953125 846.992188 501.648438 C 829.375 488.566406 812.816406 472.703125 798.09375 453.355469 C 797.277344 452.28125 796.398438 451.273438 795.484375 450.316406 C 783.15625 437.378906 762.824219 435.496094 748.265625 446.558594 C 745.65625 448.542969 743.429688 450.835938 741.53125 453.320312 C 732.0625 465.71875 731.570312 483.359375 741.472656 496.378906 C 749.195312 506.546875 757.339844 515.914062 765.78125 524.644531 C 807.199219 567.511719 856.210938 593.765625 902.632812 609.25 C 902.632812 609.25 902.636719 609.25 902.640625 609.253906 C 958.664062 627.941406 1011.402344 631.847656 1047.410156 631.882812 C 1047.960938 631.882812 1048.488281 631.871094 1049.035156 631.871094 C 1084.003906 687.675781 1104.355469 733.753906 1089.566406 809.859375 C 1078.230469 802.816406 1065.957031 796.085938 1052.699219 790.164062 C 1027.445312 778.957031 998.34375 770.484375 966.113281 770.425781 C 927.125 770.027344 884.09375 784.585938 849.027344 816.003906 C 813.675781 847.296875 785.285156 892.648438 762.144531 954.824219 C 751.464844 983.589844 766.128906 1015.5625 794.894531 1026.25 C 801.269531 1028.609375 807.804688 1029.734375 814.222656 1029.734375 C 836.789062 1029.734375 858.003906 1015.890625 866.320312 993.5 C 885.121094 942.65625 905.816406 913.921875 922.484375 899.378906 C 939.445312 884.972656 951.382812 881.945312 966.113281 881.550781 C 978.171875 881.492188 992.507812 884.972656 1007.496094 891.667969 C 1029.972656 901.570312 1052.898438 918.523438 1069.171875 932.988281 C 1077.347656 940.191406 1083.941406 946.726562 1088.316406 951.277344 C 1090.507812 953.546875 1092.148438 955.328125 1093.160156 956.457031 C 1093.667969 957.011719 1094.023438 957.40625 1094.203125 957.625 C 1094.242188 957.667969 1094.273438 957.699219 1094.296875 957.722656 C 1094.3125 957.746094 1094.324219 957.757812 1094.332031 957.765625 C 1108.269531 973.980469 1129.527344 980.164062 1149.027344 975.660156 C 1147.769531 988.058594 1146.957031 1001.757812 1146.957031 1016.863281 C 1146.847656 1091.507812 1166.511719 1197.878906 1240.007812 1324.074219 C 1250.320312 1341.816406 1268.949219 1351.726562 1288.09375 1351.726562 C 1297.570312 1351.726562 1307.175781 1349.296875 1315.960938 1344.195312 C 1342.492188 1328.765625 1351.496094 1294.769531 1336.070312 1268.238281 C 1271.929688 1157.664062 1258.183594 1072.460938 1258.078125 1016.863281 C 1258.078125 990.613281 1261.25 970.910156 1264.117188 958.421875 C 1265.546875 952.175781 1266.910156 947.734375 1267.757812 945.191406 C 1268.183594 943.929688 1268.480469 943.140625 1268.597656 942.851562 L 1268.628906 942.769531 L 1268.625 942.769531 C 1269.621094 940.414062 1270.371094 938.019531 1271.019531 935.613281 C 1272.542969 932.398438 1273.796875 928.964844 1274.632812 925.285156 C 1298.765625 819.753906 1319.730469 713.65625 1307.765625 607.746094 C 1310.378906 609.074219 1312.972656 610.484375 1315.503906 612.0625 C 1329.179688 620.488281 1341.542969 631.945312 1351.234375 649.59375 C 1360.84375 667.277344 1368.011719 691.875 1368.058594 727.738281 C 1368.058594 753.359375 1364.285156 784.605469 1354.957031 822.203125 C 1350.222656 841.269531 1361.835938 860.550781 1380.898438 865.285156 C 1383.773438 865.996094 1386.652344 866.335938 1389.488281 866.335938 C 1405.449219 866.335938 1419.960938 855.519531 1423.980469 839.332031 C 1434.433594 797.179688 1439.171875 760.308594 1439.171875 727.738281 C 1439.222656 682.304688 1429.761719 645.003906 1413.675781 615.542969 C 1389.542969 571.097656 1351.484375 546.984375 1318.964844 535.222656 Z M 1318.964844 535.222656 " fill-opacity="1" fill-rule="nonzero"/><g clip-path="url(#4ee2e19b51)"><path fill="#ff9800" d="M 0.828125 1017.140625 L 761.65625 1017.140625 L 761.65625 1372.726562 L 0.828125 1372.726562 Z M 0.828125 1017.140625 " fill-opacity="1" fill-rule="nonzero"/></g></svg>