<svg xmlns="http://www.w3.org/2000/svg" xmlns:xlink="http://www.w3.org/1999/xlink" width="1920" zoomAndPan="magnify" viewBox="0 0 1440 1439.999935" height="1920" preserveAspectRatio="xMidYMid meet" version="1.0"><defs><clipPath id="b6c0827592"><path d="M 799.617188 765.691406 L 827.367188 765.691406 L 827.367188 793.441406 L 799.617188 793.441406 Z M 799.617188 765.691406 " clip-rule="nonzero"/></clipPath></defs><g clip-path="url(#b6c0827592)"><path fill="#ff9800" d="M 827.308594 779.539062 C 827.308594 780.449219 827.21875 781.347656 827.042969 782.242188 C 826.863281 783.132812 826.601562 784 826.253906 784.839844 C 825.90625 785.679688 825.480469 786.476562 824.976562 787.234375 C 824.46875 787.988281 823.894531 788.6875 823.253906 789.332031 C 822.609375 789.972656 821.910156 790.546875 821.152344 791.054688 C 820.398438 791.558594 819.601562 791.984375 818.761719 792.332031 C 817.921875 792.679688 817.054688 792.945312 816.164062 793.121094 C 815.269531 793.296875 814.371094 793.386719 813.460938 793.386719 C 812.550781 793.386719 811.652344 793.296875 810.757812 793.121094 C 809.867188 792.945312 809 792.679688 808.160156 792.332031 C 807.320312 791.984375 806.523438 791.558594 805.769531 791.054688 C 805.011719 790.546875 804.3125 789.972656 803.667969 789.332031 C 803.027344 788.6875 802.453125 787.988281 801.949219 787.234375 C 801.441406 786.476562 801.015625 785.679688 800.667969 784.839844 C 800.320312 784 800.058594 783.132812 799.878906 782.242188 C 799.703125 781.347656 799.613281 780.449219 799.613281 779.539062 C 799.613281 778.628906 799.703125 777.730469 799.878906 776.839844 C 800.058594 775.945312 800.320312 775.082031 800.667969 774.242188 C 801.015625 773.402344 801.441406 772.601562 801.949219 771.847656 C 802.453125 771.089844 803.027344 770.390625 803.667969 769.75 C 804.3125 769.105469 805.011719 768.53125 805.769531 768.027344 C 806.523438 767.519531 807.320312 767.09375 808.160156 766.746094 C 809 766.398438 809.867188 766.136719 810.757812 765.957031 C 811.652344 765.78125 812.550781 765.691406 813.460938 765.691406 C 814.371094 765.691406 815.269531 765.78125 816.164062 765.957031 C 817.054688 766.136719 817.921875 766.398438 818.761719 766.746094 C 819.601562 767.09375 820.398438 767.519531 821.152344 768.027344 C 821.910156 768.53125 822.609375 769.105469 823.253906 769.75 C 823.894531 770.390625 824.46875 771.089844 824.976562 771.847656 C 825.480469 772.601562 825.90625 773.402344 826.253906 774.242188 C 826.601562 775.082031 826.863281 775.945312 827.042969 776.839844 C 827.21875 777.730469 827.308594 778.628906 827.308594 779.539062 Z M 827.308594 779.539062 " fill-opacity="1" fill-rule="nonzero"/></g><path fill="#ff9800" d="M 1164.207031 120.929688 C 1175.453125 120.929688 1186.378906 122.296875 1196.835938 124.859375 L 1171.902344 149.792969 C 1169.363281 149.613281 1166.796875 149.515625 1164.207031 149.515625 C 1104.527344 149.515625 1056.148438 197.894531 1056.148438 257.574219 C 1056.148438 317.25 1104.527344 365.628906 1164.207031 365.628906 C 1223.882812 365.628906 1272.261719 317.25 1272.261719 257.574219 C 1272.261719 255.292969 1272.183594 253.03125 1272.042969 250.789062 L 1297.109375 225.722656 C 1299.550781 235.941406 1300.847656 246.605469 1300.847656 257.574219 C 1300.847656 333.039062 1239.671875 394.214844 1164.207031 394.214844 C 1088.742188 394.214844 1027.566406 333.039062 1027.566406 257.574219 C 1027.566406 182.105469 1088.738281 120.929688 1164.207031 120.929688 Z M 843.902344 406.914062 C 865.597656 393.984375 893.671875 401.085938 906.601562 422.78125 C 919.53125 444.476562 912.425781 472.550781 890.730469 485.480469 L 796.933594 541.539062 C 785.660156 548.257812 772.671875 549.5625 760.976562 546.234375 L 697.867188 529.511719 L 706.894531 626.109375 L 821.1875 664.65625 C 838.101562 670.34375 849.492188 684.949219 851.894531 701.476562 L 876.058594 870.382812 C 879.675781 895.394531 862.328125 918.609375 837.308594 922.222656 C 812.292969 925.835938 789.085938 908.488281 785.46875 883.46875 L 765.289062 742.363281 L 716.679688 725.964844 C 718.121094 740.648438 719.898438 751.164062 711.851562 764.992188 L 608.265625 959.296875 C 596.371094 981.558594 568.679688 989.964844 546.414062 978.074219 C 524.148438 966.179688 515.742188 938.484375 527.636719 916.222656 L 625.441406 732.773438 C 617.378906 650.492188 608.480469 555.25 600.421875 472.972656 C 597.328125 441.601562 626.664062 416.011719 657.695312 424.273438 L 766.589844 453.121094 Z M 975.511719 953.726562 L 741.699219 953.726562 C 728.609375 953.726562 717.996094 964.339844 717.996094 977.433594 L 717.996094 1099.925781 L 507.890625 1099.925781 C 494.800781 1099.925781 484.183594 1110.539062 484.183594 1123.628906 L 484.183594 1246.121094 L 274.082031 1246.121094 C 260.992188 1246.121094 250.378906 1256.734375 250.378906 1269.828125 L 250.378906 1392.320312 L 40.273438 1392.320312 C 27.183594 1392.320312 16.570312 1402.933594 16.570312 1416.023438 C 16.570312 1429.113281 27.183594 1439.730469 40.273438 1439.730469 L 274.085938 1439.730469 C 287.175781 1439.730469 297.789062 1429.113281 297.789062 1416.023438 L 297.789062 1293.53125 L 507.894531 1293.53125 C 520.984375 1293.53125 531.597656 1282.917969 531.597656 1269.828125 L 531.597656 1147.335938 L 741.703125 1147.335938 C 754.792969 1147.335938 765.410156 1136.722656 765.410156 1123.628906 L 765.410156 1001.136719 L 975.515625 1001.136719 C 988.605469 1001.136719 999.21875 990.523438 999.21875 977.433594 C 999.214844 964.339844 988.601562 953.726562 975.511719 953.726562 Z M 478.484375 325.175781 C 478.984375 334.054688 484.496094 342.28125 493.296875 345.804688 C 505.414062 350.664062 519.179688 344.777344 524.039062 332.660156 L 544.910156 281.039062 C 550.65625 266.703125 541.285156 250.941406 526.207031 248.8125 L 471.066406 241.078125 C 458.128906 239.289062 446.1875 248.324219 444.398438 261.261719 C 443.105469 270.613281 447.472656 279.445312 454.878906 284.296875 L 297.628906 375.085938 C 286.328125 381.578125 282.433594 396.007812 288.925781 407.308594 C 295.417969 418.609375 309.847656 422.507812 321.148438 416.015625 Z M 383.816406 277.21875 C 378.957031 289.335938 365.191406 295.226562 353.074219 290.367188 C 344.273438 286.835938 338.761719 278.613281 338.261719 269.734375 L 180.925781 360.574219 C 169.625 367.070312 155.195312 363.167969 148.699219 351.867188 C 142.207031 340.566406 146.105469 326.140625 157.40625 319.644531 L 314.652344 228.855469 C 307.246094 224.003906 302.882812 215.175781 304.175781 205.824219 C 305.964844 192.886719 317.902344 183.851562 330.84375 185.640625 L 385.980469 193.378906 C 401.0625 195.503906 410.433594 211.265625 404.683594 225.601562 Z M 639.929688 229.046875 C 679.417969 213.625 723.929688 233.132812 739.351562 272.617188 C 754.773438 312.101562 735.265625 356.617188 695.78125 372.039062 C 656.292969 387.460938 611.78125 367.953125 596.359375 328.46875 C 580.933594 288.980469 600.441406 244.46875 639.929688 229.046875 Z M 446.484375 636.511719 C 460.628906 657.359375 489.261719 662.839844 510.109375 648.695312 L 566.054688 610.730469 C 562.75 576.082031 559.441406 541.429688 556.082031 506.78125 L 458.667969 572.882812 C 437.820312 587.03125 432.332031 615.664062 446.484375 636.511719 Z M 448.421875 696.699219 L 364.550781 746.828125 C 353.28125 753.546875 340.289062 754.851562 328.59375 751.523438 L 265.484375 734.800781 L 274.511719 831.394531 L 388.804688 869.945312 C 405.714844 875.632812 417.109375 890.238281 419.507812 906.765625 L 443.675781 1075.667969 C 447.292969 1100.683594 429.941406 1123.898438 404.925781 1127.507812 C 379.910156 1131.125 356.699219 1113.773438 353.085938 1088.757812 L 332.90625 947.648438 L 284.296875 931.253906 C 285.738281 945.9375 287.515625 956.449219 279.46875 970.28125 L 175.878906 1164.585938 C 163.984375 1186.847656 136.292969 1195.253906 114.03125 1183.363281 C 91.765625 1171.472656 83.359375 1143.777344 95.253906 1121.515625 L 193.054688 938.066406 C 184.992188 855.785156 176.097656 760.542969 168.039062 678.257812 C 164.945312 646.890625 194.28125 621.296875 225.3125 629.558594 L 334.207031 658.410156 L 392.140625 623.785156 C 394.03125 637.484375 399 650.960938 407.257812 663.132812 C 417.777344 678.644531 432.238281 689.972656 448.421875 696.699219 Z M 207.539062 434.335938 C 247.027344 418.910156 291.542969 438.421875 306.964844 477.90625 C 322.386719 517.394531 302.878906 561.90625 263.390625 577.328125 C 223.90625 592.75 179.394531 573.242188 163.96875 533.757812 C 148.546875 494.269531 168.054688 449.757812 207.539062 434.335938 Z M 14.09375 841.796875 C 28.242188 862.648438 56.875 868.132812 77.722656 853.984375 L 133.667969 816.019531 C 130.363281 781.367188 127.054688 746.714844 123.695312 712.070312 L 26.277344 778.171875 C 5.429688 792.320312 -0.0507812 820.949219 14.09375 841.796875 Z M 1416.996094 84.917969 C 1421.988281 79.925781 1419.484375 71.429688 1412.582031 69.941406 L 1368.609375 60.464844 C 1365.117188 59.714844 1362.546875 57.140625 1361.792969 53.648438 L 1352.316406 9.675781 C 1350.828125 2.773438 1342.332031 0.269531 1337.339844 5.261719 L 1267.746094 74.859375 C 1265.546875 77.058594 1264.6875 79.976562 1265.34375 83.015625 L 1272.5 116.238281 L 1187.273438 201.464844 C 1180.164062 198.539062 1172.375 196.921875 1164.207031 196.921875 C 1130.710938 196.921875 1103.558594 224.074219 1103.558594 257.566406 C 1103.558594 291.0625 1130.710938 318.214844 1164.207031 318.214844 C 1197.699219 318.214844 1224.851562 291.0625 1224.851562 257.566406 C 1224.851562 249.664062 1223.335938 242.113281 1220.589844 235.191406 L 1306.019531 149.757812 L 1339.242188 156.914062 C 1342.28125 157.570312 1345.203125 156.710938 1347.402344 154.511719 Z M 1164.207031 44.933594 C 1046.773438 44.933594 951.570312 140.132812 951.570312 257.570312 C 951.570312 375.007812 1046.773438 470.207031 1164.207031 470.207031 C 1281.644531 470.207031 1376.84375 375.003906 1376.84375 257.570312 C 1376.84375 236.734375 1373.832031 216.605469 1368.246094 197.578125 C 1359.773438 202.25 1350.222656 204.65625 1340.488281 204.53125 C 1345.535156 221.328125 1348.257812 239.128906 1348.257812 257.570312 C 1348.257812 359.214844 1265.855469 441.621094 1164.207031 441.621094 C 1062.554688 441.621094 980.15625 359.21875 980.15625 257.570312 C 980.15625 155.921875 1062.554688 73.519531 1164.207031 73.519531 C 1182.820312 73.519531 1200.785156 76.292969 1217.722656 81.433594 C 1217.65625 71.703125 1220.121094 62.171875 1224.847656 53.722656 C 1205.628906 48.011719 1185.277344 44.933594 1164.207031 44.933594 Z M 1164.207031 44.933594 " fill-opacity="1" fill-rule="evenodd"/></svg>