<svg xmlns="http://www.w3.org/2000/svg" xmlns:xlink="http://www.w3.org/1999/xlink" width="1920" zoomAndPan="magnify" viewBox="0 0 1440 1439.999935" height="1920" preserveAspectRatio="xMidYMid meet" version="1.0"><defs><clipPath id="1256764428"><path d="M 0 159.835938 L 1430 159.835938 L 1430 1275.835938 L 0 1275.835938 Z M 0 159.835938 " clip-rule="nonzero"/></clipPath></defs><g clip-path="url(#1256764428)"><path fill="#ff9800" d="M 1327.726562 497 C 1321.875 453.574219 1321.085938 378.648438 1361.476562 353.5625 C 1362.148438 353.113281 1362.710938 352.4375 1363.386719 351.875 C 1396.351562 341.300781 1419.1875 326.449219 1401.300781 306.539062 L 914.398438 159.835938 L 126.113281 269.414062 C 126.113281 269.414062 35.886719 282.351562 43.875 422.636719 C 48.261719 498.914062 72.226562 536.375 93.148438 554.824219 L 28.460938 574.398438 C 10.574219 594.3125 33.414062 609.050781 66.375 619.625 C 67.050781 620.1875 67.5 620.863281 68.289062 621.3125 C 108.5625 646.511719 107.773438 721.324219 102.039062 764.863281 C -42.863281 805.925781 9.113281 819.425781 9.113281 819.425781 L 40.949219 827.074219 C 18.5625 847.324219 -3.710938 885.574219 0.5625 958.25 C 8.550781 1098.539062 82.6875 1108.210938 82.6875 1108.210938 L 598.613281 1275.835938 L 1377.226562 1087.289062 C 1377.226562 1087.289062 1429.199219 1073.789062 1284.300781 1032.613281 C 1278.449219 989.300781 1277.664062 914.375 1318.050781 889.175781 C 1318.835938 888.726562 1319.289062 888.050781 1319.960938 887.488281 C 1352.925781 876.914062 1375.761719 862.175781 1357.875 842.261719 L 1324.011719 832.023438 C 1346.625 818.414062 1380.488281 782.863281 1385.773438 690.386719 C 1389.488281 626.9375 1372.835938 589.699219 1353.710938 567.761719 L 1420.539062 551.5625 C 1420.539062 551.5625 1472.625 538.175781 1327.726562 497 Z M 676.460938 495.199219 L 807.300781 468.3125 L 1249.875 377.300781 L 1315.800781 363.800781 C 1294.648438 402.386719 1295.550781 455.148438 1299.039062 489.011719 C 1299.824219 496.664062 1300.726562 503.636719 1301.511719 509.039062 L 1229.398438 526.925781 L 670.949219 665.863281 Z M 113.960938 631.664062 L 179.886719 645.164062 L 604.800781 732.574219 L 641.925781 740.226562 L 753.300781 763.0625 L 758.699219 933.726562 L 184.726562 790.960938 L 128.136719 776.898438 C 129.039062 771.5 129.824219 764.523438 130.726562 756.875 C 134.101562 723.011719 135 670.25 113.960938 631.664062 Z M 88.3125 415.886719 C 87.523438 378.539062 94.164062 351.539062 107.664062 337.8125 C 116.210938 329.039062 126.335938 327.238281 133.199219 327.238281 C 136.914062 327.238281 139.5 327.800781 139.726562 327.800781 L 479.363281 438.5 L 648.789062 493.738281 L 643.273438 665.636719 L 167.851562 532.324219 L 142.761719 525.351562 C 141.863281 525.125 140.511719 524.898438 139.613281 524.898438 C 137.585938 524.675781 90.675781 520.398438 88.3125 415.886719 Z M 599.851562 1201.363281 L 99.335938 1061.074219 C 98.4375 1060.738281 97.199219 1060.625 96.1875 1060.511719 C 94.164062 1060.398438 47.136719 1056.125 44.886719 951.613281 C 44.101562 914.261719 50.738281 887.261719 64.238281 873.539062 C 72.789062 864.761719 82.800781 862.960938 89.773438 862.960938 C 93.375 862.960938 96.074219 863.523438 96.1875 863.523438 C 96.1875 863.523438 96.300781 863.523438 96.1875 863.523438 L 605.363281 1029.460938 Z M 1255.613281 1024.738281 C 1256.398438 1032.386719 1257.300781 1039.363281 1258.085938 1044.761719 L 627.523438 1201.585938 L 632.925781 1030.925781 L 767.8125 1003.136719 L 787.726562 1007.976562 L 862.3125 983.789062 L 1206.335938 913.023438 L 1272.261719 899.523438 C 1251.226562 938 1252.125 990.761719 1255.613281 1024.738281 Z M 1290.375 792.648438 C 1289.25 792.761719 1288.011719 792.875 1287 793.210938 L 1239.414062 806.601562 L 786.488281 933.5 L 780.976562 761.601562 L 929.585938 713.113281 L 1289.363281 595.773438 C 1289.363281 595.773438 1308.261719 591.613281 1322.101562 605.675781 C 1335.488281 619.398438 1342.238281 646.398438 1341.449219 683.75 C 1339.085938 788.261719 1292.0625 792.539062 1290.375 792.648438 Z M 1290.375 792.648438 " fill-opacity="1" fill-rule="nonzero"/></g></svg>