<svg xmlns="http://www.w3.org/2000/svg" xmlns:xlink="http://www.w3.org/1999/xlink" width="1920" zoomAndPan="magnify" viewBox="0 0 1440 1439.999935" height="1920" preserveAspectRatio="xMidYMid meet" version="1.0"><defs><clipPath id="7eb3fe5482"><path d="M 168 338 L 1271 338 L 1271 1380.761719 L 168 1380.761719 Z M 168 338 " clip-rule="nonzero"/></clipPath></defs><g clip-path="url(#7eb3fe5482)"><path fill="#ff9800" d="M 1264.832031 807.878906 L 743.515625 347.378906 C 729.996094 335.4375 709.71875 335.4375 696.199219 347.378906 L 174.882812 807.878906 C 171.046875 811.269531 168.84375 816.152344 168.84375 821.277344 L 168.84375 1362.894531 C 168.84375 1372.769531 176.847656 1380.761719 186.710938 1380.761719 L 553.167969 1380.761719 C 563.027344 1380.761719 571.035156 1372.769531 571.035156 1362.894531 L 571.035156 1016.960938 C 571.035156 977.503906 603.019531 945.507812 642.488281 945.507812 L 797.226562 945.507812 C 836.695312 945.507812 868.679688 977.503906 868.679688 1016.960938 L 868.679688 1362.894531 C 868.679688 1372.769531 876.6875 1380.761719 886.546875 1380.761719 L 1253.003906 1380.761719 C 1262.867188 1380.761719 1270.871094 1372.769531 1270.871094 1362.894531 L 1270.871094 821.277344 C 1270.871094 816.152344 1268.667969 811.269531 1264.832031 807.878906 " fill-opacity="1" fill-rule="nonzero"/></g><path fill="#ff9800" d="M 1408.453125 629.195312 L 814.203125 106.929688 C 760.238281 59.511719 679.464844 59.511719 625.511719 106.929688 L 31.261719 629.195312 C 1.964844 654.953125 0.519531 700.082031 28.09375 727.664062 C 53.296875 752.859375 93.730469 754.136719 120.460938 730.589844 L 672.628906 244.257812 C 699.625 220.476562 740.09375 220.476562 767.085938 244.246094 L 1319.253906 730.589844 C 1345.996094 754.136719 1386.429688 752.859375 1411.625 727.664062 C 1439.207031 700.082031 1437.75 654.941406 1408.453125 629.195312 " fill-opacity="1" fill-rule="nonzero"/></svg>