<svg xmlns="http://www.w3.org/2000/svg" xmlns:xlink="http://www.w3.org/1999/xlink" width="1920" zoomAndPan="magnify" viewBox="0 0 1440 1439.999935" height="1920" preserveAspectRatio="xMidYMid meet" version="1.0"><defs><clipPath id="623a4ae338"><path d="M 799.617188 765.691406 L 827.367188 765.691406 L 827.367188 793.441406 L 799.617188 793.441406 Z M 799.617188 765.691406 " clip-rule="nonzero"/></clipPath><clipPath id="d80fac2ef2"><path d="M 1 59 L 1439 59 L 1439 1383.449219 L 1 1383.449219 Z M 1 59 " clip-rule="nonzero"/></clipPath></defs><g clip-path="url(#623a4ae338)"><path fill="#ff9800" d="M 827.308594 779.539062 C 827.308594 780.449219 827.21875 781.347656 827.042969 782.242188 C 826.863281 783.132812 826.601562 784 826.253906 784.839844 C 825.90625 785.679688 825.480469 786.476562 824.976562 787.234375 C 824.46875 787.988281 823.894531 788.6875 823.253906 789.332031 C 822.609375 789.972656 821.910156 790.546875 821.152344 791.054688 C 820.398438 791.558594 819.601562 791.984375 818.761719 792.332031 C 817.921875 792.679688 817.054688 792.945312 816.164062 793.121094 C 815.269531 793.296875 814.371094 793.386719 813.460938 793.386719 C 812.550781 793.386719 811.652344 793.296875 810.757812 793.121094 C 809.867188 792.945312 809 792.679688 808.160156 792.332031 C 807.320312 791.984375 806.523438 791.558594 805.769531 791.054688 C 805.011719 790.546875 804.3125 789.972656 803.667969 789.332031 C 803.027344 788.6875 802.453125 787.988281 801.949219 787.234375 C 801.441406 786.476562 801.015625 785.679688 800.667969 784.839844 C 800.320312 784 800.058594 783.132812 799.878906 782.242188 C 799.703125 781.347656 799.613281 780.449219 799.613281 779.539062 C 799.613281 778.628906 799.703125 777.730469 799.878906 776.839844 C 800.058594 775.945312 800.320312 775.082031 800.667969 774.242188 C 801.015625 773.402344 801.441406 772.601562 801.949219 771.847656 C 802.453125 771.089844 803.027344 770.390625 803.667969 769.75 C 804.3125 769.105469 805.011719 768.53125 805.769531 768.027344 C 806.523438 767.519531 807.320312 767.09375 808.160156 766.746094 C 809 766.398438 809.867188 766.136719 810.757812 765.957031 C 811.652344 765.78125 812.550781 765.691406 813.460938 765.691406 C 814.371094 765.691406 815.269531 765.78125 816.164062 765.957031 C 817.054688 766.136719 817.921875 766.398438 818.761719 766.746094 C 819.601562 767.09375 820.398438 767.519531 821.152344 768.027344 C 821.910156 768.53125 822.609375 769.105469 823.253906 769.75 C 823.894531 770.390625 824.46875 771.089844 824.976562 771.847656 C 825.480469 772.601562 825.90625 773.402344 826.253906 774.242188 C 826.601562 775.082031 826.863281 775.945312 827.042969 776.839844 C 827.21875 777.730469 827.308594 778.628906 827.308594 779.539062 Z M 827.308594 779.539062 " fill-opacity="1" fill-rule="nonzero"/></g><g clip-path="url(#d80fac2ef2)"><path fill="#ff9800" d="M 1409.640625 414.289062 L 1310.664062 414.289062 L 1310.664062 401.519531 C 1310.664062 393.539062 1307.46875 385.554688 1301.085938 380.765625 C 1275.542969 358.417969 1240.421875 342.453125 1197.320312 331.277344 L 1253.191406 187.605469 C 1262.773438 163.65625 1261.175781 138.117188 1251.597656 115.765625 C 1242.019531 93.417969 1222.863281 75.855469 1198.917969 66.277344 C 1174.96875 56.699219 1149.429688 58.296875 1127.078125 67.875 C 1103.132812 77.453125 1085.574219 96.609375 1077.589844 120.554688 L 997.769531 324.894531 C 895.601562 334.472656 780.664062 367.996094 720 422.273438 C 656.144531 366.398438 534.820312 334.472656 442.230469 324.894531 C 378.375 318.507812 221.925781 308.929688 140.511719 382.363281 C 134.125 385.554688 129.335938 393.539062 129.335938 401.519531 L 129.335938 412.695312 L 30.359375 412.695312 C 14.398438 412.695312 1.625 425.464844 1.625 441.429688 L 1.625 1305.074219 C 1.625 1314.652344 6.414062 1322.636719 14.398438 1329.019531 C 22.378906 1333.808594 31.957031 1335.40625 39.9375 1332.214844 C 145.300781 1289.109375 332.078125 1255.585938 456.597656 1258.78125 C 520.453125 1260.375 576.324219 1287.515625 633.796875 1346.582031 C 657.742188 1370.527344 686.476562 1383.296875 720 1383.296875 C 753.523438 1383.296875 782.257812 1370.527344 806.203125 1346.582031 C 863.675781 1289.109375 919.546875 1260.375 983.402344 1258.78125 C 1107.921875 1255.585938 1294.699219 1289.109375 1400.0625 1332.214844 C 1408.042969 1335.40625 1419.21875 1335.40625 1425.601562 1329.019531 C 1433.585938 1324.230469 1438.375 1314.652344 1438.375 1305.074219 L 1438.375 441.429688 C 1438.375 425.464844 1425.601562 414.289062 1409.640625 414.289062 Z M 943.496094 615.433594 L 1015.332031 642.574219 L 1007.351562 664.921875 L 940.300781 731.972656 L 935.511719 637.785156 Z M 1036.085938 591.488281 L 964.246094 564.351562 L 1083.976562 257.84375 L 1155.8125 284.984375 Z M 1128.675781 139.710938 C 1131.867188 130.132812 1139.851562 122.152344 1149.429688 118.960938 C 1159.007812 114.167969 1168.585938 114.167969 1178.164062 118.960938 C 1187.742188 122.152344 1195.722656 130.132812 1198.917969 139.710938 C 1203.707031 149.289062 1203.707031 158.867188 1198.917969 168.445312 L 1173.375 232.300781 L 1101.535156 205.164062 Z M 973.824219 383.960938 L 901.988281 569.140625 L 881.234375 621.820312 C 879.640625 625.015625 879.640625 629.804688 879.640625 632.996094 L 887.621094 797.421875 C 887.621094 808.597656 895.601562 818.175781 905.179688 822.964844 C 908.375 824.5625 911.566406 824.5625 914.757812 824.5625 C 922.742188 824.5625 929.125 821.371094 933.914062 816.582031 L 1050.453125 701.640625 C 1053.644531 698.449219 1055.242188 695.253906 1056.835938 692.0625 L 1077.589844 639.382812 L 1176.566406 387.152344 C 1208.496094 393.539062 1235.632812 404.710938 1254.789062 417.484375 L 1254.789062 1103.929688 C 1168.585938 1064.019531 1052.046875 1070.40625 999.367188 1076.792969 C 917.953125 1084.773438 815.78125 1108.71875 748.734375 1151.820312 L 748.734375 473.355469 C 782.257812 433.449219 873.253906 398.328125 973.824219 383.960938 Z M 185.210938 415.886719 C 234.699219 382.363281 327.289062 367.996094 434.246094 379.171875 C 547.589844 391.941406 651.355469 430.253906 689.667969 471.761719 L 689.667969 1151.820312 C 622.621094 1108.71875 520.453125 1083.175781 439.035156 1075.195312 C 386.355469 1068.808594 268.222656 1062.421875 183.613281 1102.332031 L 183.613281 415.886719 Z M 1382.5 1265.164062 C 1267.5625 1225.253906 1101.535156 1198.117188 981.808594 1201.308594 C 905.179688 1202.90625 833.34375 1236.429688 766.296875 1305.074219 C 753.523438 1317.847656 737.558594 1324.230469 720 1324.230469 C 702.441406 1324.230469 686.476562 1317.84375 673.703125 1305.074219 C 606.65625 1238.027344 536.414062 1202.90625 458.191406 1201.308594 C 338.464844 1198.117188 172.4375 1225.253906 57.5 1265.164062 L 57.5 470.164062 L 129.335938 470.164062 L 129.335938 1153.417969 C 129.335938 1164.59375 135.722656 1174.171875 145.300781 1178.960938 C 154.878906 1183.75 167.648438 1182.152344 175.632812 1174.171875 C 221.925781 1134.261719 317.710938 1118.296875 434.246094 1131.066406 C 552.378906 1143.839844 662.53125 1185.34375 696.054688 1230.042969 C 696.054688 1230.042969 697.652344 1231.640625 697.652344 1231.640625 C 697.652344 1231.640625 699.246094 1233.238281 699.246094 1233.238281 C 699.246094 1233.238281 700.84375 1234.832031 702.441406 1234.832031 C 702.441406 1234.832031 704.035156 1236.429688 704.035156 1236.429688 C 704.035156 1236.429688 705.632812 1236.429688 705.632812 1238.027344 C 705.632812 1238.027344 705.632812 1238.027344 707.230469 1238.027344 C 707.230469 1238.027344 708.824219 1238.027344 708.824219 1238.027344 C 708.824219 1238.027344 708.824219 1238.027344 710.421875 1238.027344 C 710.421875 1238.027344 712.019531 1238.027344 712.019531 1238.027344 C 712.019531 1238.027344 712.019531 1238.027344 713.613281 1238.027344 C 715.210938 1238.027344 715.210938 1238.027344 716.808594 1238.027344 C 718.402344 1238.027344 718.402344 1238.027344 720 1238.027344 C 720 1238.027344 720 1238.027344 721.597656 1238.027344 C 721.597656 1238.027344 723.191406 1238.027344 723.191406 1238.027344 C 723.191406 1238.027344 723.191406 1238.027344 724.789062 1238.027344 C 724.789062 1238.027344 726.386719 1238.027344 726.386719 1238.027344 C 726.386719 1238.027344 726.386719 1238.027344 727.980469 1238.027344 C 727.980469 1238.027344 729.578125 1238.027344 729.578125 1236.429688 C 729.578125 1236.429688 731.175781 1234.832031 731.175781 1234.832031 C 732.769531 1234.832031 732.769531 1233.238281 734.367188 1233.238281 C 734.367188 1233.238281 735.964844 1231.640625 735.964844 1231.640625 C 735.964844 1231.640625 737.558594 1230.042969 737.558594 1230.042969 C 771.082031 1185.34375 881.234375 1143.839844 999.367188 1131.066406 C 1114.308594 1118.296875 1213.28125 1135.859375 1257.980469 1174.171875 C 1265.964844 1182.152344 1278.734375 1183.75 1288.3125 1178.960938 C 1297.890625 1174.171875 1304.277344 1164.59375 1304.277344 1153.417969 L 1304.277344 470.164062 L 1376.113281 470.164062 L 1376.113281 1265.164062 Z M 1382.5 1265.164062 " fill-opacity="1" fill-rule="nonzero"/></g><path fill="#ff9800" d="M 464.578125 518.054688 C 515.664062 526.039062 558.765625 538.808594 584.308594 554.773438 C 589.097656 557.964844 593.886719 559.5625 598.675781 559.5625 C 608.253906 559.5625 617.832031 554.773438 622.621094 546.789062 C 630.601562 534.019531 625.8125 516.460938 613.042969 508.476562 C 579.519531 487.722656 530.03125 473.355469 470.964844 463.777344 C 455 462.183594 440.632812 471.761719 439.035156 487.722656 C 439.035156 502.09375 448.613281 516.460938 464.578125 518.054688 Z M 464.578125 518.054688 " fill-opacity="1" fill-rule="nonzero"/><path fill="#ff9800" d="M 276.203125 522.84375 C 277.800781 522.84375 280.992188 522.84375 282.589844 521.25 C 304.9375 516.460938 330.480469 511.671875 357.621094 511.671875 C 373.582031 511.671875 384.757812 497.304688 384.757812 482.933594 C 384.757812 468.566406 370.390625 455.796875 356.023438 455.796875 C 324.097656 457.394531 295.359375 460.585938 269.820312 466.972656 C 255.453125 470.164062 245.875 486.128906 249.066406 500.496094 C 252.257812 514.863281 263.433594 522.84375 276.203125 522.84375 Z M 276.203125 522.84375 " fill-opacity="1" fill-rule="nonzero"/><path fill="#ff9800" d="M 269.820312 588.296875 C 255.453125 591.488281 245.871094 607.453125 249.066406 621.820312 C 252.257812 634.59375 263.433594 642.574219 276.203125 642.574219 C 277.800781 642.574219 280.992188 642.574219 282.589844 640.976562 C 322.5 631.398438 375.179688 628.207031 429.457031 632.996094 C 445.421875 634.59375 458.191406 623.417969 459.789062 607.453125 C 461.386719 591.488281 450.210938 578.71875 434.246094 577.121094 C 373.582031 573.929688 316.113281 577.121094 269.820312 588.296875 Z M 269.820312 588.296875 " fill-opacity="1" fill-rule="nonzero"/><path fill="#ff9800" d="M 584.308594 676.097656 C 589.097656 679.289062 593.886719 680.886719 598.675781 680.886719 C 608.253906 680.886719 617.832031 676.097656 622.621094 668.117188 C 630.601562 655.34375 625.8125 637.785156 613.042969 629.804688 C 595.480469 620.222656 574.730469 610.644531 549.1875 602.664062 C 534.820312 597.875 518.855469 605.855469 514.066406 621.820312 C 509.277344 636.1875 517.257812 652.152344 533.222656 656.941406 C 555.570312 660.132812 571.535156 668.117188 584.308594 676.097656 Z M 584.308594 676.097656 " fill-opacity="1" fill-rule="nonzero"/><path fill="#ff9800" d="M 614.636719 747.933594 C 536.414062 700.042969 375.179688 682.484375 269.820312 709.621094 C 255.453125 712.816406 245.875 728.777344 249.066406 743.144531 C 252.257812 757.515625 268.222656 767.09375 282.589844 763.898438 C 373.585938 741.550781 518.855469 757.515625 584.308594 795.828125 C 589.097656 799.019531 593.886719 800.617188 598.675781 800.617188 C 608.253906 800.617188 617.832031 795.828125 622.621094 787.84375 C 632.199219 773.476562 627.410156 755.917969 614.636719 747.933594 Z M 614.636719 747.933594 " fill-opacity="1" fill-rule="nonzero"/><path fill="#ff9800" d="M 276.203125 885.226562 C 277.800781 885.226562 280.992188 885.226562 282.589844 883.628906 C 293.765625 880.4375 306.535156 878.839844 319.308594 877.242188 C 335.269531 875.648438 344.847656 861.277344 343.253906 845.316406 C 341.65625 829.351562 327.289062 819.773438 311.324219 821.371094 C 295.359375 822.964844 280.992188 826.160156 268.222656 829.351562 C 253.855469 832.542969 244.277344 848.507812 247.46875 862.875 C 252.257812 875.648438 263.433594 885.226562 276.203125 885.226562 Z M 276.203125 885.226562 " fill-opacity="1" fill-rule="nonzero"/><path fill="#ff9800" d="M 614.636719 867.664062 C 574.730469 843.71875 509.277344 826.160156 437.441406 819.773438 C 421.476562 818.175781 408.703125 829.351562 407.109375 845.316406 C 405.511719 861.277344 416.6875 874.050781 432.648438 875.648438 C 496.503906 882.03125 553.976562 896.398438 585.902344 915.554688 C 590.691406 918.75 595.480469 920.34375 600.269531 920.34375 C 609.847656 920.34375 619.425781 915.554688 624.21875 907.574219 C 632.199219 893.207031 627.410156 875.648438 614.636719 867.664062 Z M 614.636719 867.664062 " fill-opacity="1" fill-rule="nonzero"/><path fill="#ff9800" d="M 614.636719 988.988281 C 536.414062 941.097656 375.179688 923.539062 269.820312 950.675781 C 255.453125 953.871094 245.875 969.832031 249.066406 984.199219 C 252.257812 998.566406 268.222656 1008.148438 282.589844 1004.953125 C 373.585938 982.605469 518.855469 998.566406 584.308594 1036.882812 C 589.097656 1040.074219 593.886719 1041.671875 598.675781 1041.671875 C 608.253906 1041.671875 617.832031 1036.882812 622.621094 1028.898438 C 632.199219 1014.53125 627.410156 996.972656 614.636719 988.988281 Z M 614.636719 988.988281 " fill-opacity="1" fill-rule="nonzero"/></svg>