<svg xmlns="http://www.w3.org/2000/svg" xmlns:xlink="http://www.w3.org/1999/xlink" width="1920" zoomAndPan="magnify" viewBox="0 0 1440 1439.999935" height="1920" preserveAspectRatio="xMidYMid meet" version="1.0"><defs><clipPath id="fff214e124"><path d="M 0 250.199219 L 1440 250.199219 L 1440 1189.949219 L 0 1189.949219 Z M 0 250.199219 " clip-rule="nonzero"/></clipPath></defs><g clip-path="url(#fff214e124)"><path fill="#ff9800" d="M 1246.507812 250.199219 L 193.492188 250.199219 C 87.152344 250.199219 0.535156 336.722656 0.535156 443.15625 L 0.535156 996.839844 C 0.535156 1103.179688 87.058594 1189.796875 193.492188 1189.796875 L 1246.507812 1189.796875 C 1352.847656 1189.796875 1439.464844 1103.273438 1439.464844 996.839844 L 1439.464844 443.15625 C 1439.464844 336.820312 1352.941406 250.199219 1246.507812 250.199219 Z M 1383.605469 996.839844 C 1383.605469 1072.417969 1322.085938 1133.9375 1246.507812 1133.9375 L 193.492188 1133.9375 C 117.914062 1133.9375 56.394531 1072.417969 56.394531 996.839844 L 56.394531 443.15625 C 56.394531 367.578125 117.914062 306.058594 193.492188 306.058594 L 1246.507812 306.058594 C 1322.085938 306.058594 1383.605469 367.578125 1383.605469 443.15625 Z M 1383.605469 996.839844 " fill-opacity="1" fill-rule="nonzero"/></g><path fill="#ff9800" d="M 476.5625 732.738281 C 455.332031 743.777344 431.175781 750.097656 405.605469 750.097656 C 380.035156 750.097656 355.878906 743.871094 334.648438 732.738281 C 257.277344 761.515625 202.078125 836.058594 202.078125 923.523438 L 202.078125 953.71875 C 202.078125 977.402344 221.328125 996.652344 245.011719 996.652344 L 566.199219 996.652344 C 589.882812 996.652344 609.132812 977.402344 609.132812 953.71875 L 609.132812 923.523438 C 609.132812 836.058594 553.933594 761.515625 476.5625 732.738281 Z M 476.5625 732.738281 " fill-opacity="1" fill-rule="nonzero"/><path fill="#ff9800" d="M 529.589844 596.015625 C 529.589844 598.042969 529.539062 600.070312 529.441406 602.097656 C 529.339844 604.125 529.191406 606.148438 528.992188 608.167969 C 528.792969 610.1875 528.546875 612.199219 528.246094 614.207031 C 527.949219 616.214844 527.601562 618.210938 527.207031 620.203125 C 526.8125 622.191406 526.367188 624.171875 525.875 626.140625 C 525.378906 628.109375 524.839844 630.0625 524.25 632.003906 C 523.660156 633.945312 523.027344 635.875 522.34375 637.785156 C 521.65625 639.695312 520.929688 641.585938 520.152344 643.460938 C 519.375 645.335938 518.554688 647.191406 517.683594 649.023438 C 516.816406 650.859375 515.90625 652.671875 514.949219 654.460938 C 513.992188 656.25 512.992188 658.015625 511.949219 659.753906 C 510.90625 661.496094 509.820312 663.210938 508.695312 664.898438 C 507.566406 666.582031 506.398438 668.242188 505.191406 669.871094 C 503.980469 671.5 502.734375 673.101562 501.445312 674.667969 C 500.160156 676.238281 498.835938 677.773438 497.472656 679.277344 C 496.109375 680.78125 494.710938 682.25 493.277344 683.683594 C 491.839844 685.121094 490.371094 686.519531 488.867188 687.878906 C 487.363281 689.242188 485.828125 690.570312 484.261719 691.855469 C 482.691406 693.144531 481.09375 694.390625 479.460938 695.597656 C 477.832031 696.808594 476.175781 697.976562 474.488281 699.101562 C 472.800781 700.230469 471.085938 701.316406 469.347656 702.359375 C 467.605469 703.402344 465.839844 704.402344 464.050781 705.359375 C 462.261719 706.316406 460.449219 707.226562 458.617188 708.09375 C 456.78125 708.960938 454.925781 709.785156 453.050781 710.5625 C 451.175781 711.335938 449.285156 712.066406 447.375 712.75 C 445.464844 713.433594 443.539062 714.070312 441.597656 714.660156 C 439.65625 715.25 437.699219 715.789062 435.730469 716.28125 C 433.761719 716.777344 431.785156 717.21875 429.792969 717.617188 C 427.804688 718.011719 425.804688 718.359375 423.796875 718.65625 C 421.789062 718.953125 419.777344 719.203125 417.757812 719.402344 C 415.738281 719.601562 413.714844 719.75 411.6875 719.847656 C 409.664062 719.949219 407.632812 720 405.605469 720 C 403.578125 720 401.546875 719.949219 399.523438 719.847656 C 397.496094 719.75 395.472656 719.601562 393.453125 719.402344 C 391.433594 719.203125 389.421875 718.953125 387.414062 718.65625 C 385.40625 718.359375 383.40625 718.011719 381.417969 717.617188 C 379.425781 717.21875 377.449219 716.777344 375.480469 716.28125 C 373.511719 715.789062 371.558594 715.25 369.613281 714.660156 C 367.671875 714.070312 365.746094 713.433594 363.835938 712.75 C 361.925781 712.066406 360.035156 711.335938 358.160156 710.5625 C 356.285156 709.785156 354.429688 708.960938 352.59375 708.09375 C 350.761719 707.226562 348.949219 706.316406 347.160156 705.359375 C 345.371094 704.402344 343.605469 703.402344 341.863281 702.359375 C 340.125 701.316406 338.410156 700.230469 336.722656 699.105469 C 335.035156 697.976562 333.378906 696.808594 331.75 695.597656 C 330.117188 694.390625 328.519531 693.144531 326.949219 691.855469 C 325.382812 690.570312 323.847656 689.242188 322.34375 687.878906 C 320.839844 686.519531 319.371094 685.121094 317.9375 683.683594 C 316.5 682.25 315.101562 680.78125 313.738281 679.277344 C 312.375 677.773438 311.050781 676.238281 309.765625 674.667969 C 308.476562 673.101562 307.230469 671.5 306.019531 669.871094 C 304.8125 668.242188 303.644531 666.582031 302.515625 664.898438 C 301.390625 663.210938 300.304688 661.496094 299.261719 659.753906 C 298.21875 658.015625 297.21875 656.25 296.261719 654.460938 C 295.304688 652.671875 294.394531 650.859375 293.527344 649.023438 C 292.65625 647.191406 291.835938 645.335938 291.058594 643.460938 C 290.28125 641.585938 289.554688 639.695312 288.871094 637.785156 C 288.1875 635.875 287.550781 633.945312 286.960938 632.003906 C 286.371094 630.0625 285.832031 628.109375 285.335938 626.140625 C 284.84375 624.171875 284.398438 622.191406 284.003906 620.203125 C 283.609375 618.210938 283.261719 616.214844 282.964844 614.207031 C 282.664062 612.199219 282.417969 610.1875 282.21875 608.167969 C 282.019531 606.148438 281.871094 604.125 281.769531 602.097656 C 281.671875 600.070312 281.621094 598.042969 281.621094 596.015625 C 281.621094 593.984375 281.671875 591.957031 281.769531 589.929688 C 281.871094 587.90625 282.019531 585.882812 282.21875 583.863281 C 282.417969 581.84375 282.664062 579.828125 282.964844 577.824219 C 283.261719 575.816406 283.609375 573.816406 284.003906 571.828125 C 284.398438 569.835938 284.84375 567.859375 285.335938 565.890625 C 285.832031 563.921875 286.371094 561.964844 286.960938 560.023438 C 287.550781 558.082031 288.1875 556.15625 288.871094 554.246094 C 289.554688 552.335938 290.28125 550.441406 291.058594 548.566406 C 291.835938 546.695312 292.65625 544.839844 293.527344 543.003906 C 294.394531 541.171875 295.304688 539.359375 296.261719 537.570312 C 297.21875 535.78125 298.21875 534.015625 299.261719 532.273438 C 300.304688 530.535156 301.390625 528.820312 302.515625 527.132812 C 303.644531 525.445312 304.8125 523.789062 306.019531 522.15625 C 307.230469 520.527344 308.476562 518.929688 309.765625 517.359375 C 311.050781 515.792969 312.378906 514.257812 313.738281 512.753906 C 315.101562 511.25 316.5 509.78125 317.9375 508.34375 C 319.371094 506.910156 320.839844 505.511719 322.34375 504.148438 C 323.847656 502.785156 325.382812 501.460938 326.949219 500.175781 C 328.519531 498.886719 330.117188 497.640625 331.75 496.429688 C 333.378906 495.222656 335.035156 494.054688 336.722656 492.925781 C 338.410156 491.796875 340.125 490.714844 341.863281 489.671875 C 343.605469 488.628906 345.371094 487.628906 347.160156 486.671875 C 348.949219 485.714844 350.761719 484.800781 352.59375 483.933594 C 354.429688 483.066406 356.285156 482.246094 358.160156 481.46875 C 360.035156 480.691406 361.925781 479.960938 363.835938 479.277344 C 365.746094 478.59375 367.671875 477.957031 369.613281 477.371094 C 371.558594 476.78125 373.511719 476.238281 375.480469 475.746094 C 377.449219 475.253906 379.425781 474.808594 381.417969 474.414062 C 383.40625 474.015625 385.40625 473.671875 387.414062 473.371094 C 389.421875 473.074219 391.433594 472.828125 393.453125 472.628906 C 395.472656 472.429688 397.496094 472.28125 399.523438 472.179688 C 401.546875 472.082031 403.578125 472.03125 405.605469 472.03125 C 407.632812 472.03125 409.664062 472.082031 411.6875 472.179688 C 413.714844 472.28125 415.738281 472.429688 417.757812 472.628906 C 419.777344 472.828125 421.789062 473.074219 423.796875 473.371094 C 425.804688 473.671875 427.804688 474.015625 429.792969 474.414062 C 431.785156 474.808594 433.761719 475.253906 435.730469 475.746094 C 437.699219 476.238281 439.65625 476.78125 441.597656 477.371094 C 443.539062 477.957031 445.464844 478.59375 447.375 479.277344 C 449.285156 479.960938 451.175781 480.691406 453.050781 481.46875 C 454.925781 482.246094 456.78125 483.066406 458.617188 483.933594 C 460.449219 484.800781 462.261719 485.714844 464.050781 486.671875 C 465.839844 487.628906 467.605469 488.628906 469.347656 489.671875 C 471.085938 490.714844 472.800781 491.796875 474.488281 492.925781 C 476.175781 494.054688 477.832031 495.222656 479.460938 496.429688 C 481.09375 497.640625 482.691406 498.886719 484.261719 500.175781 C 485.828125 501.460938 487.363281 502.785156 488.867188 504.148438 C 490.371094 505.511719 491.839844 506.910156 493.277344 508.34375 C 494.710938 509.78125 496.109375 511.25 497.472656 512.753906 C 498.835938 514.257812 500.160156 515.792969 501.445312 517.359375 C 502.734375 518.929688 503.980469 520.527344 505.191406 522.15625 C 506.398438 523.789062 507.566406 525.445312 508.695312 527.132812 C 509.820312 528.820312 510.90625 530.535156 511.949219 532.273438 C 512.992188 534.015625 513.992188 535.78125 514.949219 537.570312 C 515.90625 539.359375 516.816406 541.171875 517.683594 543.003906 C 518.554688 544.839844 519.375 546.695312 520.152344 548.566406 C 520.929688 550.441406 521.65625 552.335938 522.339844 554.246094 C 523.023438 556.15625 523.660156 558.082031 524.25 560.023438 C 524.839844 561.964844 525.378906 563.921875 525.875 565.890625 C 526.367188 567.859375 526.8125 569.835938 527.207031 571.828125 C 527.601562 573.816406 527.949219 575.816406 528.246094 577.824219 C 528.546875 579.828125 528.792969 581.84375 528.992188 583.863281 C 529.191406 585.882812 529.339844 587.90625 529.441406 589.929688 C 529.539062 591.957031 529.589844 593.984375 529.589844 596.015625 Z M 529.589844 596.015625 " fill-opacity="1" fill-rule="nonzero"/><path fill="#ff9800" d="M 1213.765625 536.003906 L 781.332031 536.003906 C 766.328125 536.003906 754.15625 548.175781 754.15625 563.179688 C 754.15625 578.183594 766.328125 590.355469 781.332031 590.355469 L 1213.765625 590.355469 C 1228.769531 590.355469 1240.941406 578.179688 1240.941406 563.179688 C 1240.941406 548.175781 1228.769531 536.003906 1213.765625 536.003906 Z M 1213.765625 536.003906 " fill-opacity="1" fill-rule="nonzero"/><path fill="#ff9800" d="M 1213.765625 688.105469 L 781.332031 688.105469 C 766.328125 688.105469 754.15625 700.277344 754.15625 715.28125 C 754.15625 730.285156 766.328125 742.457031 781.332031 742.457031 L 1213.765625 742.457031 C 1228.769531 742.457031 1240.941406 730.285156 1240.941406 715.28125 C 1240.941406 700.277344 1228.769531 688.105469 1213.765625 688.105469 Z M 1213.765625 688.105469 " fill-opacity="1" fill-rule="nonzero"/><path fill="#ff9800" d="M 1213.765625 840.304688 L 781.332031 840.304688 C 766.328125 840.304688 754.15625 852.476562 754.15625 867.476562 C 754.15625 882.480469 766.328125 894.652344 781.332031 894.652344 L 1213.765625 894.652344 C 1228.769531 894.652344 1240.941406 882.480469 1240.941406 867.476562 C 1240.941406 852.476562 1228.769531 840.304688 1213.765625 840.304688 Z M 1213.765625 840.304688 " fill-opacity="1" fill-rule="nonzero"/></svg>