<svg xmlns="http://www.w3.org/2000/svg" xmlns:xlink="http://www.w3.org/1999/xlink" width="1920" zoomAndPan="magnify" viewBox="0 0 1440 1439.999935" height="1920" preserveAspectRatio="xMidYMid meet" version="1.0"><path fill="#ff9800" d="M 1158.367188 556.480469 L 1158.367188 438.339844 C 1158.367188 196.6875 961.691406 0 720.039062 0 C 478.390625 0 281.621094 196.636719 281.621094 438.339844 L 281.621094 556.480469 C 215.445312 558.273438 162.273438 612.1875 162.273438 678.800781 L 162.273438 1317.332031 C 162.273438 1319.339844 162.320312 1321.347656 162.417969 1323.351562 C 162.519531 1325.355469 162.664062 1327.355469 162.863281 1329.355469 C 163.058594 1331.351562 163.304688 1333.34375 163.597656 1335.328125 C 163.894531 1337.316406 164.234375 1339.292969 164.628906 1341.261719 C 165.019531 1343.230469 165.457031 1345.1875 165.945312 1347.136719 C 166.433594 1349.082031 166.96875 1351.015625 167.550781 1352.9375 C 168.132812 1354.859375 168.761719 1356.765625 169.4375 1358.65625 C 170.113281 1360.542969 170.835938 1362.417969 171.605469 1364.273438 C 172.375 1366.125 173.1875 1367.960938 174.042969 1369.777344 C 174.902344 1371.589844 175.804688 1373.382812 176.75 1375.152344 C 177.695312 1376.925781 178.6875 1378.671875 179.71875 1380.390625 C 180.75 1382.113281 181.824219 1383.808594 182.9375 1385.480469 C 184.054688 1387.148438 185.207031 1388.789062 186.40625 1390.402344 C 187.601562 1392.011719 188.835938 1393.597656 190.109375 1395.148438 C 191.382812 1396.699219 192.691406 1398.21875 194.039062 1399.707031 C 195.386719 1401.195312 196.773438 1402.648438 198.191406 1404.066406 C 199.609375 1405.488281 201.0625 1406.871094 202.550781 1408.21875 C 204.039062 1409.566406 205.558594 1410.878906 207.109375 1412.152344 C 208.660156 1413.425781 210.242188 1414.660156 211.855469 1415.855469 C 213.46875 1417.050781 215.109375 1418.207031 216.777344 1419.324219 C 218.445312 1420.4375 220.140625 1421.511719 221.863281 1422.542969 C 223.585938 1423.574219 225.332031 1424.566406 227.101562 1425.511719 C 228.871094 1426.457031 230.664062 1427.359375 232.476562 1428.21875 C 234.292969 1429.078125 236.128906 1429.890625 237.980469 1430.660156 C 239.835938 1431.425781 241.707031 1432.148438 243.597656 1432.828125 C 245.488281 1433.503906 247.394531 1434.132812 249.316406 1434.714844 C 251.234375 1435.296875 253.167969 1435.832031 255.117188 1436.320312 C 257.0625 1436.808594 259.023438 1437.25 260.992188 1437.640625 C 262.960938 1438.03125 264.9375 1438.375 266.921875 1438.671875 C 268.90625 1438.964844 270.898438 1439.210938 272.898438 1439.410156 C 274.894531 1439.605469 276.894531 1439.753906 278.902344 1439.851562 C 280.90625 1439.949219 282.914062 1440 284.917969 1440 L 1155.089844 1440 C 1157.097656 1440 1159.105469 1439.949219 1161.109375 1439.851562 C 1163.113281 1439.753906 1165.113281 1439.605469 1167.113281 1439.410156 C 1169.109375 1439.210938 1171.101562 1438.96875 1173.089844 1438.671875 C 1175.074219 1438.378906 1177.050781 1438.035156 1179.019531 1437.644531 C 1180.988281 1437.25 1182.945312 1436.8125 1184.894531 1436.324219 C 1186.839844 1435.835938 1188.777344 1435.300781 1190.695312 1434.71875 C 1192.617188 1434.136719 1194.523438 1433.507812 1196.414062 1432.828125 C 1198.304688 1432.152344 1200.175781 1431.429688 1202.03125 1430.664062 C 1203.886719 1429.894531 1205.71875 1429.082031 1207.535156 1428.222656 C 1209.347656 1427.367188 1211.140625 1426.464844 1212.910156 1425.515625 C 1214.683594 1424.570312 1216.429688 1423.582031 1218.152344 1422.550781 C 1219.871094 1421.519531 1221.566406 1420.445312 1223.238281 1419.328125 C 1224.90625 1418.214844 1226.546875 1417.058594 1228.160156 1415.863281 C 1229.773438 1414.667969 1231.355469 1413.433594 1232.90625 1412.160156 C 1234.457031 1410.886719 1235.976562 1409.574219 1237.464844 1408.226562 C 1238.953125 1406.878906 1240.40625 1405.496094 1241.824219 1404.074219 C 1243.246094 1402.65625 1244.628906 1401.203125 1245.976562 1399.714844 C 1247.324219 1398.226562 1248.636719 1396.707031 1249.910156 1395.15625 C 1251.183594 1393.605469 1252.417969 1392.023438 1253.613281 1390.410156 C 1254.808594 1388.796875 1255.964844 1387.15625 1257.082031 1385.488281 C 1258.195312 1383.820312 1259.269531 1382.125 1260.300781 1380.402344 C 1261.335938 1378.679688 1262.324219 1376.933594 1263.269531 1375.164062 C 1264.214844 1373.394531 1265.117188 1371.601562 1265.976562 1369.785156 C 1266.835938 1367.972656 1267.648438 1366.136719 1268.417969 1364.28125 C 1269.183594 1362.425781 1269.90625 1360.554688 1270.585938 1358.664062 C 1271.261719 1356.773438 1271.890625 1354.871094 1272.472656 1352.949219 C 1273.054688 1351.027344 1273.589844 1349.09375 1274.078125 1347.144531 C 1274.566406 1345.199219 1275.007812 1343.242188 1275.398438 1341.273438 C 1275.789062 1339.304688 1276.132812 1337.324219 1276.429688 1335.339844 C 1276.722656 1333.355469 1276.96875 1331.363281 1277.164062 1329.363281 C 1277.363281 1327.367188 1277.511719 1325.367188 1277.609375 1323.359375 C 1277.707031 1321.355469 1277.757812 1319.351562 1277.757812 1317.34375 L 1277.757812 678.800781 C 1277.757812 612.179688 1224.554688 558.253906 1158.367188 556.480469 Z M 820.34375 909.824219 C 819.800781 913.628906 817.671875 922.304688 817.472656 922.964844 C 809.984375 948.914062 792.089844 970.21875 768.84375 983.179688 L 808.222656 1151.050781 C 808.507812 1151.914062 808.738281 1152.789062 808.921875 1153.679688 C 809.105469 1154.570312 809.234375 1155.46875 809.308594 1156.371094 C 809.386719 1157.277344 809.410156 1158.183594 809.382812 1159.09375 C 809.355469 1160 809.273438 1160.90625 809.136719 1161.804688 C 809.003906 1162.703125 808.816406 1163.589844 808.582031 1164.464844 C 808.34375 1165.34375 808.054688 1166.203125 807.714844 1167.046875 C 807.378906 1167.890625 806.992188 1168.710938 806.558594 1169.507812 C 806.121094 1170.308594 805.644531 1171.078125 805.117188 1171.820312 C 804.59375 1172.5625 804.03125 1173.269531 803.421875 1173.945312 C 802.816406 1174.625 802.171875 1175.261719 801.488281 1175.863281 C 800.808594 1176.464844 800.09375 1177.023438 799.347656 1177.539062 C 798.601562 1178.058594 797.824219 1178.53125 797.023438 1178.957031 C 796.222656 1179.382812 795.398438 1179.761719 794.550781 1180.09375 C 793.703125 1180.425781 792.84375 1180.707031 791.964844 1180.9375 C 791.085938 1181.167969 790.195312 1181.34375 789.292969 1181.472656 C 788.394531 1181.597656 787.492188 1181.671875 786.582031 1181.691406 L 656.109375 1181.691406 C 655.203125 1181.671875 654.296875 1181.597656 653.398438 1181.472656 C 652.5 1181.34375 651.609375 1181.167969 650.730469 1180.9375 C 649.851562 1180.707031 648.988281 1180.425781 648.140625 1180.09375 C 647.296875 1179.765625 646.472656 1179.386719 645.671875 1178.957031 C 644.867188 1178.53125 644.09375 1178.058594 643.347656 1177.542969 C 642.601562 1177.023438 641.886719 1176.464844 641.203125 1175.863281 C 640.523438 1175.261719 639.878906 1174.625 639.273438 1173.949219 C 638.664062 1173.269531 638.101562 1172.5625 637.574219 1171.820312 C 637.050781 1171.078125 636.574219 1170.308594 636.140625 1169.507812 C 635.703125 1168.710938 635.320312 1167.890625 634.980469 1167.046875 C 634.640625 1166.203125 634.355469 1165.34375 634.117188 1164.464844 C 633.878906 1163.589844 633.695312 1162.699219 633.558594 1161.800781 C 633.425781 1160.902344 633.34375 1160 633.316406 1159.089844 C 633.289062 1158.183594 633.3125 1157.277344 633.390625 1156.371094 C 633.46875 1155.464844 633.597656 1154.570312 633.78125 1153.679688 C 633.960938 1152.789062 634.195312 1151.910156 634.480469 1151.050781 L 671.183594 983.179688 C 647.929688 970.21875 630.035156 948.914062 622.558594 922.964844 C 622.359375 922.304688 620.21875 913.628906 619.675781 909.824219 C 618.984375 905.140625 618.640625 900.429688 618.636719 895.691406 C 618.636719 894.03125 618.675781 892.375 618.753906 890.714844 C 618.835938 889.058594 618.957031 887.402344 619.121094 885.753906 C 619.28125 884.101562 619.484375 882.453125 619.726562 880.8125 C 619.96875 879.171875 620.253906 877.535156 620.578125 875.910156 C 620.898438 874.28125 621.261719 872.664062 621.664062 871.050781 C 622.066406 869.441406 622.511719 867.84375 622.992188 866.253906 C 623.472656 864.667969 623.992188 863.09375 624.550781 861.527344 C 625.109375 859.964844 625.707031 858.417969 626.339844 856.886719 C 626.976562 855.351562 627.648438 853.835938 628.355469 852.335938 C 629.066406 850.835938 629.8125 849.351562 630.59375 847.886719 C 631.375 846.425781 632.191406 844.980469 633.042969 843.558594 C 633.898438 842.132812 634.785156 840.730469 635.707031 839.351562 C 636.628906 837.972656 637.582031 836.617188 638.570312 835.28125 C 639.558594 833.949219 640.578125 832.640625 641.632812 831.359375 C 642.683594 830.074219 643.769531 828.820312 644.882812 827.589844 C 645.996094 826.359375 647.140625 825.15625 648.3125 823.984375 C 649.488281 822.808594 650.6875 821.664062 651.917969 820.550781 C 653.148438 819.4375 654.402344 818.351562 655.683594 817.300781 C 656.96875 816.246094 658.277344 815.226562 659.609375 814.238281 C 660.941406 813.25 662.296875 812.292969 663.675781 811.371094 C 665.054688 810.449219 666.457031 809.5625 667.882812 808.707031 C 669.304688 807.855469 670.746094 807.035156 672.210938 806.253906 C 673.675781 805.472656 675.15625 804.726562 676.65625 804.015625 C 678.15625 803.304688 679.671875 802.632812 681.207031 802 C 682.738281 801.363281 684.289062 800.765625 685.851562 800.207031 C 687.410156 799.648438 688.988281 799.125 690.574219 798.644531 C 692.164062 798.164062 693.761719 797.71875 695.371094 797.316406 C 696.980469 796.914062 698.601562 796.550781 700.226562 796.226562 C 701.855469 795.902344 703.488281 795.617188 705.132812 795.375 C 706.773438 795.132812 708.417969 794.929688 710.070312 794.765625 C 711.722656 794.601562 713.378906 794.480469 715.035156 794.398438 C 716.691406 794.320312 718.351562 794.277344 720.011719 794.277344 C 721.667969 794.277344 723.328125 794.320312 724.984375 794.398438 C 726.644531 794.480469 728.296875 794.601562 729.949219 794.765625 C 731.601562 794.929688 733.246094 795.132812 734.886719 795.375 C 736.53125 795.617188 738.164062 795.902344 739.792969 796.226562 C 741.417969 796.550781 743.039062 796.914062 744.648438 797.316406 C 746.257812 797.71875 747.855469 798.164062 749.445312 798.644531 C 751.03125 799.128906 752.609375 799.648438 754.171875 800.207031 C 755.734375 800.765625 757.28125 801.363281 758.8125 802 C 760.347656 802.632812 761.863281 803.304688 763.363281 804.015625 C 764.863281 804.726562 766.34375 805.472656 767.808594 806.253906 C 769.273438 807.035156 770.714844 807.855469 772.136719 808.707031 C 773.5625 809.5625 774.964844 810.449219 776.34375 811.371094 C 777.722656 812.292969 779.078125 813.25 780.410156 814.238281 C 781.746094 815.226562 783.050781 816.246094 784.335938 817.300781 C 785.617188 818.351562 786.875 819.4375 788.101562 820.550781 C 789.332031 821.664062 790.535156 822.808594 791.707031 823.984375 C 792.878906 825.15625 794.023438 826.359375 795.136719 827.589844 C 796.25 828.820312 797.335938 830.074219 798.386719 831.359375 C 799.441406 832.640625 800.460938 833.949219 801.449219 835.28125 C 802.4375 836.617188 803.390625 837.972656 804.3125 839.351562 C 805.234375 840.730469 806.121094 842.132812 806.976562 843.558594 C 807.828125 844.980469 808.644531 846.425781 809.425781 847.890625 C 810.207031 849.351562 810.953125 850.835938 811.664062 852.335938 C 812.371094 853.835938 813.042969 855.351562 813.679688 856.886719 C 814.3125 858.417969 814.910156 859.964844 815.46875 861.53125 C 816.027344 863.09375 816.546875 864.667969 817.027344 866.253906 C 817.511719 867.84375 817.953125 869.441406 818.355469 871.050781 C 818.757812 872.664062 819.121094 874.28125 819.441406 875.910156 C 819.765625 877.535156 820.050781 879.171875 820.292969 880.8125 C 820.535156 882.453125 820.738281 884.101562 820.898438 885.753906 C 821.0625 887.40625 821.183594 889.058594 821.265625 890.714844 C 821.34375 892.375 821.386719 894.03125 821.382812 895.691406 C 821.378906 900.429688 821.035156 905.140625 820.34375 909.824219 Z M 1008.691406 556.144531 L 431.308594 556.144531 L 431.308594 438.339844 C 431.308594 279.117188 560.777344 149.605469 720.039062 149.605469 C 879.300781 149.605469 1008.691406 279.117188 1008.691406 438.339844 Z M 1008.691406 556.144531 " fill-opacity="1" fill-rule="nonzero"/></svg>