<svg xmlns="http://www.w3.org/2000/svg" xmlns:xlink="http://www.w3.org/1999/xlink" width="1920" zoomAndPan="magnify" viewBox="0 0 1440 809.999993" height="1080" preserveAspectRatio="xMidYMid meet" version="1.0"><defs><clipPath id="879b564e1b"><path d="M 421.3125 12 L 1019 12 L 1019 810 L 421.3125 810 Z M 421.3125 12 " clip-rule="nonzero"/></clipPath></defs><rect x="-144" width="1728" fill="#ffffff" y="-80.999999" height="971.999992" fill-opacity="1"/><rect x="-144" width="1728" fill="#ffffff" y="-80.999999" height="971.999992" fill-opacity="1"/><g clip-path="url(#879b564e1b)"><path fill="#ffbd59" d="M 570.65625 336.367188 L 944.082031 336.367188 C 945.300781 336.371094 946.519531 336.40625 947.738281 336.46875 C 948.957031 336.535156 950.171875 336.628906 951.386719 336.75 C 952.601562 336.875 953.808594 337.027344 955.015625 337.210938 C 956.222656 337.394531 957.421875 337.605469 958.617188 337.84375 C 959.8125 338.085938 961.003906 338.355469 962.1875 338.65625 C 963.367188 338.957031 964.542969 339.285156 965.710938 339.640625 C 966.875 339.996094 968.03125 340.382812 969.179688 340.792969 C 970.328125 341.207031 971.464844 341.648438 972.589844 342.117188 C 973.71875 342.585938 974.832031 343.082031 975.933594 343.605469 C 977.035156 344.128906 978.125 344.679688 979.199219 345.253906 C 980.273438 345.832031 981.332031 346.433594 982.378906 347.0625 C 983.425781 347.691406 984.453125 348.34375 985.46875 349.023438 C 986.480469 349.703125 987.476562 350.40625 988.457031 351.132812 C 989.4375 351.859375 990.398438 352.609375 991.339844 353.382812 C 992.28125 354.15625 993.207031 354.953125 994.109375 355.773438 C 995.011719 356.59375 995.894531 357.433594 996.757812 358.296875 C 997.621094 359.160156 998.460938 360.042969 999.28125 360.945312 C 1000.101562 361.851562 1000.898438 362.773438 1001.671875 363.714844 C 1002.445312 364.660156 1003.195312 365.621094 1003.925781 366.597656 C 1004.652344 367.578125 1005.355469 368.574219 1006.03125 369.585938 C 1006.710938 370.601562 1007.363281 371.632812 1007.992188 372.675781 C 1008.621094 373.722656 1009.222656 374.78125 1009.800781 375.855469 C 1010.375 376.933594 1010.925781 378.019531 1011.449219 379.121094 C 1011.972656 380.222656 1012.46875 381.339844 1012.9375 382.464844 C 1013.40625 383.589844 1013.847656 384.726562 1014.261719 385.875 C 1014.675781 387.023438 1015.058594 388.179688 1015.414062 389.347656 C 1015.773438 390.511719 1016.101562 391.6875 1016.398438 392.871094 C 1016.699219 394.050781 1016.96875 395.242188 1017.210938 396.4375 C 1017.453125 397.632812 1017.664062 398.835938 1017.84375 400.039062 C 1018.027344 401.246094 1018.179688 402.457031 1018.304688 403.667969 C 1018.429688 404.882812 1018.519531 406.097656 1018.585938 407.316406 C 1018.648438 408.535156 1018.683594 409.753906 1018.6875 410.972656 L 1018.6875 734.617188 C 1018.683594 735.839844 1018.648438 737.058594 1018.585938 738.28125 C 1018.519531 739.5 1018.425781 740.714844 1018.304688 741.929688 C 1018.179688 743.144531 1018.027344 744.355469 1017.84375 745.5625 C 1017.660156 746.773438 1017.449219 747.972656 1017.207031 749.171875 C 1016.964844 750.367188 1016.695312 751.558594 1016.394531 752.742188 C 1016.09375 753.925781 1015.765625 755.101562 1015.410156 756.269531 C 1015.050781 757.4375 1014.664062 758.59375 1014.25 759.746094 C 1013.835938 760.894531 1013.394531 762.03125 1012.925781 763.15625 C 1012.457031 764.285156 1011.957031 765.398438 1011.433594 766.503906 C 1010.910156 767.605469 1010.359375 768.695312 1009.78125 769.769531 C 1009.203125 770.847656 1008.597656 771.910156 1007.96875 772.953125 C 1007.339844 774 1006.683594 775.03125 1006.003906 776.046875 C 1005.324219 777.058594 1004.621094 778.058594 1003.890625 779.035156 C 1003.164062 780.015625 1002.410156 780.976562 1001.636719 781.921875 C 1000.859375 782.863281 1000.0625 783.789062 999.238281 784.691406 C 998.417969 785.59375 997.574219 786.480469 996.710938 787.34375 C 995.847656 788.203125 994.960938 789.046875 994.058594 789.863281 C 993.152344 790.683594 992.226562 791.480469 991.28125 792.253906 C 990.339844 793.03125 989.375 793.78125 988.394531 794.507812 C 987.414062 795.234375 986.414062 795.9375 985.398438 796.617188 C 984.382812 797.292969 983.351562 797.945312 982.304688 798.574219 C 981.257812 799.203125 980.195312 799.804688 979.117188 800.378906 C 978.042969 800.957031 976.949219 801.503906 975.847656 802.027344 C 974.742188 802.550781 973.628906 803.042969 972.5 803.511719 C 971.371094 803.980469 970.234375 804.421875 969.082031 804.832031 C 967.933594 805.246094 966.773438 805.628906 965.605469 805.984375 C 964.4375 806.339844 963.261719 806.664062 962.078125 806.964844 C 960.894531 807.261719 959.703125 807.53125 958.503906 807.769531 C 957.308594 808.007812 956.105469 808.21875 954.898438 808.398438 C 953.6875 808.582031 952.476562 808.730469 951.261719 808.851562 C 950.046875 808.972656 948.832031 809.066406 947.609375 809.128906 C 946.390625 809.191406 945.171875 809.222656 943.949219 809.222656 L 496.050781 809.222656 C 494.828125 809.222656 493.609375 809.191406 492.390625 809.128906 C 491.171875 809.066406 489.953125 808.972656 488.738281 808.851562 C 487.523438 808.730469 486.3125 808.582031 485.101562 808.398438 C 483.894531 808.21875 482.691406 808.007812 481.496094 807.769531 C 480.296875 807.53125 479.105469 807.261719 477.921875 806.964844 C 476.738281 806.664062 475.5625 806.339844 474.394531 805.984375 C 473.226562 805.628906 472.066406 805.246094 470.917969 804.832031 C 469.765625 804.421875 468.628906 803.980469 467.5 803.511719 C 466.371094 803.042969 465.257812 802.550781 464.152344 802.027344 C 463.050781 801.503906 461.957031 800.957031 460.882812 800.378906 C 459.804688 799.804688 458.742188 799.203125 457.695312 798.574219 C 456.648438 797.945312 455.617188 797.292969 454.601562 796.617188 C 453.585938 795.9375 452.585938 795.234375 451.605469 794.507812 C 450.625 793.78125 449.660156 793.03125 448.71875 792.253906 C 447.773438 791.480469 446.847656 790.683594 445.941406 789.863281 C 445.039062 789.046875 444.152344 788.203125 443.289062 787.34375 C 442.425781 786.480469 441.582031 785.59375 440.761719 784.691406 C 439.9375 783.789062 439.140625 782.863281 438.363281 781.921875 C 437.589844 780.976562 436.835938 780.015625 436.109375 779.035156 C 435.378906 778.058594 434.675781 777.058594 433.996094 776.046875 C 433.316406 775.03125 432.660156 774 432.03125 772.953125 C 431.402344 771.910156 430.796875 770.847656 430.21875 769.769531 C 429.640625 768.695312 429.089844 767.605469 428.566406 766.503906 C 428.042969 765.398438 427.542969 764.285156 427.074219 763.15625 C 426.605469 762.03125 426.164062 760.894531 425.75 759.746094 C 425.335938 758.59375 424.949219 757.4375 424.589844 756.269531 C 424.234375 755.101562 423.90625 753.925781 423.605469 752.742188 C 423.304688 751.558594 423.035156 750.367188 422.792969 749.171875 C 422.550781 747.972656 422.339844 746.773438 422.15625 745.5625 C 421.972656 744.355469 421.820312 743.144531 421.695312 741.929688 C 421.574219 740.714844 421.480469 739.5 421.414062 738.277344 C 421.351562 737.058594 421.316406 735.839844 421.3125 734.617188 L 421.3125 410.972656 C 421.316406 409.753906 421.351562 408.53125 421.414062 407.3125 C 421.480469 406.09375 421.574219 404.875 421.695312 403.660156 C 421.820312 402.445312 421.972656 401.234375 422.15625 400.027344 C 422.339844 398.820312 422.550781 397.617188 422.792969 396.421875 C 423.035156 395.222656 423.304688 394.035156 423.605469 392.851562 C 423.90625 391.667969 424.234375 390.492188 424.589844 389.324219 C 424.949219 388.15625 425.335938 386.996094 425.75 385.847656 C 426.164062 384.699219 426.605469 383.5625 427.074219 382.433594 C 427.542969 381.308594 428.042969 380.191406 428.566406 379.089844 C 429.089844 377.984375 429.640625 376.898438 430.21875 375.820312 C 430.796875 374.746094 431.402344 373.683594 432.03125 372.636719 C 432.660156 371.589844 433.316406 370.5625 433.996094 369.546875 C 434.675781 368.53125 435.378906 367.535156 436.109375 366.554688 C 436.835938 365.574219 437.589844 364.613281 438.363281 363.671875 C 439.140625 362.726562 439.9375 361.804688 440.761719 360.902344 C 441.582031 359.996094 442.425781 359.113281 443.289062 358.25 C 444.152344 357.386719 445.039062 356.546875 445.941406 355.726562 C 446.847656 354.90625 447.773438 354.109375 448.71875 353.335938 C 449.660156 352.5625 450.625 351.8125 451.605469 351.085938 C 452.585938 350.359375 453.585938 349.65625 454.601562 348.976562 C 455.617188 348.296875 456.648438 347.644531 457.695312 347.019531 C 458.742188 346.390625 459.804688 345.789062 460.882812 345.210938 C 461.957031 344.636719 463.050781 344.085938 464.152344 343.566406 C 465.257812 343.042969 466.371094 342.546875 467.5 342.078125 C 468.628906 341.613281 469.769531 341.171875 470.917969 340.761719 C 472.066406 340.347656 473.226562 339.964844 474.394531 339.609375 C 475.5625 339.253906 476.738281 338.925781 477.921875 338.628906 C 479.105469 338.332031 480.296875 338.0625 481.496094 337.824219 C 482.691406 337.582031 483.894531 337.375 485.101562 337.191406 C 486.3125 337.011719 487.523438 336.859375 488.738281 336.738281 C 489.953125 336.617188 491.171875 336.527344 492.390625 336.464844 C 493.609375 336.402344 494.828125 336.371094 496.050781 336.367188 L 496.050781 236.804688 C 496.050781 233.140625 496.140625 229.476562 496.320312 225.816406 C 496.5 222.15625 496.769531 218.503906 497.128906 214.855469 C 497.488281 211.207031 497.9375 207.570312 498.476562 203.945312 C 499.011719 200.320312 499.640625 196.710938 500.355469 193.117188 C 501.070312 189.519531 501.871094 185.945312 502.761719 182.390625 C 503.652344 178.835938 504.628906 175.304688 505.695312 171.796875 C 506.757812 168.289062 507.90625 164.808594 509.140625 161.359375 C 510.375 157.910156 511.695312 154.488281 513.097656 151.105469 C 514.5 147.71875 515.984375 144.367188 517.550781 141.054688 C 519.121094 137.742188 520.765625 134.46875 522.496094 131.238281 C 524.222656 128.003906 526.027344 124.816406 527.914062 121.671875 C 529.796875 118.527344 531.757812 115.433594 533.792969 112.386719 C 535.828125 109.339844 537.9375 106.34375 540.121094 103.398438 C 542.304688 100.457031 544.558594 97.566406 546.886719 94.734375 C 549.210938 91.902344 551.601562 89.125 554.066406 86.410156 C 556.527344 83.695312 559.050781 81.042969 561.644531 78.449219 C 564.234375 75.859375 566.890625 73.332031 569.605469 70.871094 C 572.320312 68.410156 575.09375 66.015625 577.929688 63.691406 C 580.761719 61.367188 583.648438 59.109375 586.59375 56.929688 C 589.539062 54.746094 592.53125 52.636719 595.582031 50.597656 C 598.628906 48.5625 601.722656 46.601562 604.867188 44.71875 C 608.011719 42.832031 611.199219 41.027344 614.429688 39.300781 C 617.664062 37.574219 620.9375 35.925781 624.25 34.359375 C 627.5625 32.789062 630.914062 31.304688 634.296875 29.902344 C 637.683594 28.5 641.101562 27.183594 644.554688 25.949219 C 648.003906 24.714844 651.484375 23.5625 654.992188 22.5 C 658.5 21.4375 662.03125 20.457031 665.585938 19.566406 C 669.140625 18.675781 672.714844 17.875 676.308594 17.160156 C 679.90625 16.445312 683.515625 15.816406 687.140625 15.28125 C 690.765625 14.742188 694.402344 14.292969 698.050781 13.933594 C 701.695312 13.574219 705.351562 13.304688 709.011719 13.125 C 712.671875 12.945312 716.335938 12.855469 720 12.855469 C 723.664062 12.855469 727.328125 12.945312 730.988281 13.125 C 734.648438 13.304688 738.304688 13.574219 741.949219 13.933594 C 745.597656 14.292969 749.234375 14.742188 752.859375 15.28125 C 756.484375 15.816406 760.09375 16.445312 763.691406 17.160156 C 767.285156 17.875 770.859375 18.675781 774.414062 19.566406 C 777.96875 20.457031 781.5 21.4375 785.007812 22.5 C 788.515625 23.5625 791.996094 24.714844 795.445312 25.949219 C 798.898438 27.183594 802.316406 28.5 805.703125 29.902344 C 809.085938 31.304688 812.4375 32.789062 815.75 34.359375 C 819.0625 35.925781 822.335938 37.574219 825.570312 39.300781 C 828.800781 41.027344 831.988281 42.832031 835.132812 44.71875 C 838.277344 46.601562 841.371094 48.5625 844.417969 50.597656 C 847.46875 52.636719 850.460938 54.746094 853.40625 56.929688 C 856.351562 59.109375 859.238281 61.367188 862.070312 63.691406 C 864.90625 66.015625 867.679688 68.410156 870.394531 70.871094 C 873.109375 73.332031 875.765625 75.859375 878.355469 78.449219 C 880.949219 81.042969 883.472656 83.695312 885.933594 86.410156 C 888.398438 89.125 890.789062 91.902344 893.113281 94.734375 C 895.441406 97.566406 897.695312 100.457031 899.878906 103.398438 C 902.0625 106.34375 904.171875 109.339844 906.207031 112.386719 C 908.242188 115.433594 910.203125 118.527344 912.085938 121.671875 C 913.972656 124.816406 915.777344 128.003906 917.503906 131.238281 C 919.234375 134.46875 920.878906 137.742188 922.449219 141.054688 C 924.015625 144.367188 925.5 147.71875 926.902344 151.105469 C 928.304688 154.488281 929.625 157.910156 930.859375 161.359375 C 932.09375 164.808594 933.242188 168.289062 934.304688 171.796875 C 935.371094 175.304688 936.347656 178.835938 937.238281 182.390625 C 938.128906 185.945312 938.929688 189.519531 939.644531 193.117188 C 940.359375 196.710938 940.988281 200.320312 941.523438 203.945312 C 942.0625 207.570312 942.511719 211.207031 942.871094 214.855469 C 943.230469 218.503906 943.5 222.15625 943.679688 225.816406 C 943.859375 229.476562 943.949219 233.140625 943.949219 236.804688 L 943.949219 249.285156 C 943.949219 250.507812 943.894531 251.726562 943.773438 252.945312 C 943.65625 254.160156 943.480469 255.371094 943.242188 256.570312 C 943.003906 257.769531 942.710938 258.953125 942.355469 260.125 C 942 261.292969 941.589844 262.445312 941.125 263.574219 C 940.65625 264.707031 940.136719 265.808594 939.5625 266.890625 C 938.984375 267.96875 938.359375 269.015625 937.679688 270.035156 C 937.003906 271.050781 936.277344 272.03125 935.5 272.976562 C 934.726562 273.925781 933.90625 274.828125 933.042969 275.695312 C 932.179688 276.558594 931.273438 277.378906 930.328125 278.15625 C 929.382812 278.933594 928.402344 279.660156 927.386719 280.339844 C 926.371094 281.019531 925.324219 281.648438 924.246094 282.226562 C 923.167969 282.804688 922.0625 283.324219 920.933594 283.792969 C 919.804688 284.261719 918.65625 284.675781 917.484375 285.03125 C 916.3125 285.382812 915.128906 285.683594 913.929688 285.921875 C 912.730469 286.160156 911.523438 286.339844 910.304688 286.457031 C 909.089844 286.578125 907.871094 286.636719 906.648438 286.636719 C 905.421875 286.636719 904.203125 286.578125 902.988281 286.457031 C 901.769531 286.339844 900.5625 286.160156 899.363281 285.921875 C 898.164062 285.683594 896.980469 285.386719 895.808594 285.03125 C 894.640625 284.675781 893.488281 284.261719 892.359375 283.792969 C 891.230469 283.324219 890.125 282.804688 889.046875 282.226562 C 887.96875 281.648438 886.921875 281.019531 885.90625 280.339844 C 884.890625 279.660156 883.910156 278.933594 882.964844 278.15625 C 882.019531 277.378906 881.117188 276.558594 880.25 275.695312 C 879.386719 274.828125 878.566406 273.925781 877.792969 272.976562 C 877.019531 272.03125 876.292969 271.050781 875.613281 270.035156 C 874.933594 269.015625 874.308594 267.96875 873.730469 266.890625 C 873.15625 265.808594 872.636719 264.707031 872.167969 263.574219 C 871.703125 262.445312 871.292969 261.292969 870.9375 260.125 C 870.585938 258.953125 870.289062 257.769531 870.050781 256.570312 C 869.816406 255.371094 869.636719 254.160156 869.519531 252.945312 C 869.402344 251.726562 869.34375 250.507812 869.34375 249.285156 L 869.34375 236.804688 C 869.34375 234.363281 869.285156 231.917969 869.164062 229.476562 C 869.042969 227.035156 868.863281 224.601562 868.625 222.167969 C 868.386719 219.734375 868.085938 217.308594 867.726562 214.890625 C 867.367188 212.476562 866.949219 210.066406 866.472656 207.671875 C 865.996094 205.273438 865.460938 202.890625 864.867188 200.519531 C 864.273438 198.148438 863.621094 195.792969 862.914062 193.453125 C 862.203125 191.113281 861.4375 188.792969 860.613281 186.492188 C 859.789062 184.191406 858.910156 181.914062 857.976562 179.65625 C 857.039062 177.394531 856.050781 175.164062 855.003906 172.953125 C 853.960938 170.742188 852.863281 168.5625 851.710938 166.40625 C 850.558594 164.25 849.351562 162.125 848.097656 160.027344 C 846.839844 157.929688 845.53125 155.867188 844.175781 153.835938 C 842.816406 151.800781 841.410156 149.804688 839.953125 147.839844 C 838.496094 145.878906 836.996094 143.953125 835.445312 142.0625 C 833.894531 140.171875 832.296875 138.324219 830.65625 136.511719 C 829.015625 134.703125 827.332031 132.933594 825.601562 131.203125 C 823.875 129.476562 822.105469 127.789062 820.292969 126.148438 C 818.480469 124.507812 816.632812 122.910156 814.742188 121.363281 C 812.851562 119.8125 810.925781 118.308594 808.964844 116.851562 C 807 115.394531 805.003906 113.988281 802.972656 112.632812 C 800.9375 111.273438 798.875 109.964844 796.777344 108.710938 C 794.679688 107.453125 792.554688 106.25 790.398438 105.097656 C 788.246094 103.945312 786.0625 102.84375 783.851562 101.800781 C 781.644531 100.753906 779.410156 99.765625 777.152344 98.832031 C 774.894531 97.894531 772.613281 97.015625 770.3125 96.191406 C 768.011719 95.367188 765.691406 94.601562 763.351562 93.894531 C 761.011719 93.183594 758.660156 92.53125 756.289062 91.9375 C 753.917969 91.34375 751.53125 90.808594 749.136719 90.332031 C 746.738281 89.855469 744.332031 89.4375 741.914062 89.078125 C 739.496094 88.71875 737.070312 88.421875 734.636719 88.179688 C 732.207031 87.941406 729.769531 87.761719 727.328125 87.640625 C 724.886719 87.523438 722.445312 87.460938 720 87.460938 C 717.554688 87.460938 715.113281 87.523438 712.671875 87.640625 C 710.230469 87.761719 707.792969 87.941406 705.363281 88.179688 C 702.929688 88.421875 700.503906 88.71875 698.085938 89.078125 C 695.667969 89.4375 693.261719 89.855469 690.863281 90.332031 C 688.46875 90.808594 686.082031 91.34375 683.710938 91.9375 C 681.339844 92.53125 678.988281 93.183594 676.648438 93.894531 C 674.308594 94.601562 671.988281 95.367188 669.6875 96.191406 C 667.386719 97.015625 665.105469 97.894531 662.847656 98.832031 C 660.589844 99.765625 658.355469 100.753906 656.148438 101.800781 C 653.9375 102.84375 651.753906 103.945312 649.601562 105.097656 C 647.445312 106.25 645.316406 107.453125 643.222656 108.710938 C 641.125 109.964844 639.0625 111.273438 637.027344 112.632812 C 634.996094 113.988281 633 115.394531 631.035156 116.851562 C 629.074219 118.308594 627.148438 119.8125 625.257812 121.363281 C 623.367188 122.910156 621.519531 124.507812 619.707031 126.148438 C 617.894531 127.789062 616.125 129.476562 614.398438 131.203125 C 612.667969 132.933594 610.984375 134.703125 609.34375 136.511719 C 607.703125 138.324219 606.105469 140.171875 604.554688 142.0625 C 603.003906 143.953125 601.5 145.878906 600.046875 147.839844 C 598.589844 149.804688 597.183594 151.800781 595.824219 153.835938 C 594.46875 155.867188 593.160156 157.929688 591.902344 160.027344 C 590.648438 162.125 589.441406 164.25 588.289062 166.40625 C 587.136719 168.5625 586.039062 170.742188 584.996094 172.953125 C 583.949219 175.164062 582.960938 177.394531 582.023438 179.65625 C 581.089844 181.914062 580.210938 184.191406 579.386719 186.492188 C 578.5625 188.792969 577.796875 191.113281 577.085938 193.453125 C 576.378906 195.792969 575.726562 198.148438 575.132812 200.519531 C 574.539062 202.890625 574.003906 205.273438 573.527344 207.671875 C 573.050781 210.066406 572.632812 212.476562 572.273438 214.890625 C 571.914062 217.308594 571.613281 219.734375 571.375 222.167969 C 571.136719 224.601562 570.957031 227.035156 570.835938 229.476562 C 570.714844 231.917969 570.65625 234.363281 570.65625 236.804688 Z M 720 485.710938 C 718.21875 485.699219 716.441406 485.765625 714.667969 485.90625 C 712.894531 486.046875 711.128906 486.261719 709.375 486.554688 C 707.617188 486.847656 705.878906 487.214844 704.152344 487.65625 C 702.429688 488.097656 700.726562 488.609375 699.046875 489.199219 C 697.367188 489.785156 695.714844 490.441406 694.089844 491.171875 C 692.464844 491.902344 690.875 492.699219 689.320312 493.5625 C 687.765625 494.429688 686.25 495.359375 684.773438 496.355469 C 683.296875 497.351562 681.867188 498.40625 680.484375 499.523438 C 679.097656 500.644531 677.761719 501.820312 676.480469 503.050781 C 675.195312 504.285156 673.964844 505.570312 672.792969 506.90625 C 671.617188 508.246094 670.503906 509.628906 669.449219 511.0625 C 668.394531 512.496094 667.402344 513.972656 666.472656 515.492188 C 665.542969 517.011719 664.683594 518.566406 663.886719 520.160156 C 663.09375 521.75 662.367188 523.375 661.710938 525.03125 C 661.054688 526.683594 660.472656 528.363281 659.960938 530.070312 C 659.449219 531.773438 659.007812 533.496094 658.644531 535.238281 C 658.28125 536.980469 657.992188 538.738281 657.78125 540.503906 C 657.566406 542.269531 657.429688 544.042969 657.367188 545.824219 C 657.304688 547.601562 657.320312 549.378906 657.410156 551.15625 C 657.503906 552.9375 657.667969 554.707031 657.914062 556.46875 C 658.15625 558.234375 658.472656 559.984375 658.867188 561.71875 C 659.261719 563.453125 659.726562 565.171875 660.265625 566.867188 C 660.808594 568.5625 661.417969 570.230469 662.101562 571.875 C 662.785156 573.519531 663.539062 575.128906 664.359375 576.710938 C 665.179688 578.289062 666.070312 579.828125 667.023438 581.332031 C 667.976562 582.835938 668.992188 584.292969 670.074219 585.710938 C 671.152344 587.125 672.289062 588.492188 673.484375 589.8125 C 674.679688 591.128906 675.933594 592.394531 677.238281 593.605469 C 678.542969 594.816406 679.894531 595.96875 681.296875 597.0625 C 682.703125 598.15625 684.148438 599.191406 685.640625 600.160156 C 687.132812 601.132812 688.664062 602.035156 690.234375 602.875 C 691.804688 603.714844 693.40625 604.484375 695.042969 605.1875 L 695.042969 647.800781 C 695.042969 648.617188 695.085938 649.429688 695.167969 650.242188 C 695.246094 651.054688 695.367188 651.863281 695.527344 652.664062 C 695.6875 653.464844 695.886719 654.253906 696.125 655.035156 C 696.363281 655.816406 696.640625 656.585938 696.953125 657.339844 C 697.265625 658.09375 697.617188 658.832031 698 659.550781 C 698.386719 660.269531 698.804688 660.96875 699.261719 661.648438 C 699.714844 662.328125 700.203125 662.980469 700.71875 663.613281 C 701.238281 664.242188 701.785156 664.847656 702.363281 665.425781 C 702.941406 666 703.546875 666.550781 704.179688 667.066406 C 704.8125 667.585938 705.464844 668.070312 706.144531 668.523438 C 706.824219 668.976562 707.523438 669.394531 708.246094 669.78125 C 708.964844 670.164062 709.703125 670.511719 710.457031 670.824219 C 711.210938 671.136719 711.980469 671.414062 712.761719 671.648438 C 713.542969 671.886719 714.335938 672.085938 715.136719 672.242188 C 715.9375 672.402344 716.742188 672.523438 717.554688 672.601562 C 718.367188 672.683594 719.183594 672.722656 720 672.722656 C 720.816406 672.722656 721.632812 672.683594 722.445312 672.601562 C 723.257812 672.523438 724.0625 672.402344 724.863281 672.242188 C 725.664062 672.085938 726.457031 671.886719 727.238281 671.648438 C 728.019531 671.414062 728.789062 671.136719 729.542969 670.824219 C 730.296875 670.511719 731.035156 670.164062 731.753906 669.78125 C 732.476562 669.394531 733.175781 668.976562 733.855469 668.523438 C 734.535156 668.070312 735.1875 667.585938 735.820312 667.066406 C 736.453125 666.550781 737.058594 666 737.636719 665.425781 C 738.214844 664.847656 738.761719 664.242188 739.28125 663.613281 C 739.796875 662.980469 740.285156 662.328125 740.738281 661.648438 C 741.191406 660.96875 741.613281 660.269531 742 659.550781 C 742.382812 658.832031 742.734375 658.09375 743.046875 657.339844 C 743.359375 656.585938 743.636719 655.816406 743.875 655.035156 C 744.113281 654.253906 744.3125 653.464844 744.472656 652.664062 C 744.632812 651.863281 744.753906 651.054688 744.832031 650.242188 C 744.914062 649.429688 744.957031 648.617188 744.957031 647.800781 L 744.957031 604.921875 C 746.59375 604.21875 748.195312 603.449219 749.765625 602.609375 C 751.335938 601.769531 752.867188 600.867188 754.359375 599.894531 C 755.851562 598.925781 757.296875 597.890625 758.703125 596.796875 C 760.105469 595.703125 761.460938 594.550781 762.765625 593.339844 C 764.070312 592.128906 765.320312 590.863281 766.515625 589.546875 C 767.710938 588.226562 768.847656 586.859375 769.929688 585.445312 C 771.007812 584.027344 772.023438 582.570312 772.976562 581.066406 C 773.929688 579.5625 774.820312 578.023438 775.640625 576.445312 C 776.460938 574.867188 777.214844 573.253906 777.898438 571.609375 C 778.582031 569.96875 779.191406 568.296875 779.734375 566.601562 C 780.273438 564.90625 780.738281 563.1875 781.132812 561.453125 C 781.527344 559.71875 781.84375 557.96875 782.085938 556.203125 C 782.332031 554.441406 782.496094 552.671875 782.589844 550.894531 C 782.679688 549.113281 782.695312 547.335938 782.632812 545.558594 C 782.570312 543.777344 782.433594 542.003906 782.222656 540.238281 C 782.007812 538.472656 781.71875 536.714844 781.355469 534.972656 C 780.992188 533.230469 780.554688 531.507812 780.042969 529.804688 C 779.527344 528.097656 778.945312 526.417969 778.289062 524.765625 C 777.632812 523.109375 776.910156 521.484375 776.113281 519.894531 C 775.316406 518.300781 774.457031 516.746094 773.527344 515.226562 C 772.597656 513.707031 771.605469 512.230469 770.550781 510.796875 C 769.496094 509.363281 768.382812 507.980469 767.207031 506.640625 C 766.035156 505.304688 764.804688 504.019531 763.519531 502.785156 C 762.238281 501.554688 760.902344 500.378906 759.515625 499.257812 C 758.132812 498.140625 756.703125 497.085938 755.226562 496.089844 C 753.75 495.09375 752.234375 494.164062 750.679688 493.296875 C 749.125 492.433594 747.535156 491.636719 745.910156 490.90625 C 744.285156 490.179688 742.632812 489.519531 740.953125 488.933594 C 739.273438 488.34375 737.570312 487.832031 735.847656 487.390625 C 734.121094 486.949219 732.382812 486.582031 730.625 486.289062 C 728.871094 485.996094 727.105469 485.78125 725.332031 485.640625 C 723.558594 485.5 721.78125 485.433594 720 485.445312 Z M 720 485.710938 " fill-opacity="1" fill-rule="evenodd"/></g></svg>