<svg xmlns="http://www.w3.org/2000/svg" xmlns:xlink="http://www.w3.org/1999/xlink" width="1920" zoomAndPan="magnify" viewBox="0 0 1440 1439.999935" height="1920" preserveAspectRatio="xMidYMid meet" version="1.0"><defs><clipPath id="1808566cc7"><path d="M 599 1192 L 844 1192 L 844 1295.632812 L 599 1295.632812 Z M 599 1192 " clip-rule="nonzero"/></clipPath><clipPath id="e0d4924c05"><path d="M 111 143 L 1328 143 L 1328 1298 L 111 1298 Z M 111 143 " clip-rule="nonzero"/></clipPath><clipPath id="127ee2c5d3"><path d="M 111.492188 1209.574219 L 1245.5625 142.742188 L 1328.296875 230.691406 L 194.226562 1297.523438 Z M 111.492188 1209.574219 " clip-rule="nonzero"/></clipPath><clipPath id="bebcd9fb71"><path d="M 111.492188 1209.574219 L 1245.5625 142.742188 L 1328.296875 230.691406 L 194.226562 1297.523438 Z M 111.492188 1209.574219 " clip-rule="nonzero"/></clipPath><clipPath id="92e45523b6"><path d="M 111.492188 1209.574219 L 1245.5625 142.742188 L 1328.296875 230.691406 L 194.226562 1297.523438 Z M 111.492188 1209.574219 " clip-rule="nonzero"/></clipPath></defs><g clip-path="url(#1808566cc7)"><path fill="#ff9800" d="M 799.65625 1192.554688 L 599.34375 1192.554688 C 609.222656 1250.980469 660.144531 1295.632812 721.332031 1295.632812 C 782.519531 1295.632812 833.453125 1250.980469 843.320312 1192.554688 L 799.65625 1192.554688 " fill-opacity="1" fill-rule="nonzero"/></g><path fill="#ff9800" d="M 649.53125 234.183594 C 672.792969 229.402344 696.789062 226.871094 721.332031 226.871094 C 745.886719 226.871094 769.882812 229.402344 793.132812 234.183594 C 800.613281 235.726562 808.019531 237.472656 815.339844 239.480469 C 822.664062 241.476562 829.902344 243.746094 837.058594 246.191406 C 835.734375 179.835938 784.347656 126.285156 721.332031 126.285156 C 658.316406 126.285156 606.929688 179.835938 605.605469 246.191406 C 612.761719 243.746094 620 241.476562 627.332031 239.480469 C 634.644531 237.472656 642.050781 235.726562 649.53125 234.183594 " fill-opacity="1" fill-rule="nonzero"/><path fill="#ff9800" d="M 1151.085938 1031.246094 C 1122.773438 1004.515625 1093.503906 976.894531 1069.96875 938.875 C 1031.808594 877.222656 1055.417969 650.15625 1056.089844 643.746094 L 1055.835938 642 L 1055.902344 640.109375 C 1056.039062 635.960938 1056.101562 632.105469 1056.101562 628.355469 C 1056.101562 473.230469 963.75 340.8125 834.882812 290.863281 C 827.925781 288.175781 820.867188 285.714844 813.710938 283.511719 C 806.707031 281.355469 799.601562 279.445312 792.417969 277.773438 C 769.503906 272.449219 745.71875 269.609375 721.332031 269.609375 C 696.949219 269.609375 673.171875 272.449219 650.246094 277.773438 C 643.0625 279.445312 635.960938 281.355469 628.953125 283.511719 C 621.796875 285.714844 614.738281 288.175781 607.792969 290.863281 C 478.914062 340.8125 386.5625 473.230469 386.5625 628.355469 C 386.5625 632.105469 386.625 635.960938 386.761719 640.109375 L 386.828125 642 L 386.574219 643.746094 C 387.289062 650.511719 410.824219 877.277344 372.695312 938.875 C 349.160156 976.894531 319.890625 1004.515625 291.578125 1031.246094 C 277.511719 1044.523438 261.351562 1070.863281 250.425781 1098.316406 C 239.65625 1125.402344 238.058594 1142.820312 239.035156 1149.816406 L 1205.84375 1149.816406 C 1207.074219 1143.628906 1205.644531 1126.230469 1193.804688 1098.285156 C 1182.34375 1071.230469 1165.574219 1044.921875 1151.085938 1031.246094 " fill-opacity="1" fill-rule="nonzero"/><path fill="#ff9800" d="M 260.992188 835.15625 C 276.847656 823.863281 280.546875 801.84375 269.253906 785.976562 C 240.519531 745.65625 225.324219 698.0625 225.324219 648.347656 C 225.324219 600.933594 239.246094 555.167969 265.5625 516.011719 C 276.425781 499.851562 272.140625 477.949219 255.984375 467.085938 C 239.824219 456.222656 217.910156 460.507812 207.046875 476.667969 C 172.867188 527.496094 154.808594 586.867188 154.808594 648.347656 C 154.808594 712.8125 174.519531 774.558594 211.816406 826.898438 C 218.695312 836.566406 229.550781 841.703125 240.558594 841.703125 C 247.640625 841.703125 254.785156 839.582031 260.992188 835.15625 " fill-opacity="1" fill-rule="nonzero"/><path fill="#ff9800" d="M 85.476562 648.347656 C 85.476562 575.234375 106.386719 504.339844 145.953125 443.320312 C 158.789062 423.515625 153.136719 397.050781 133.332031 384.210938 C 113.53125 371.363281 87.066406 377.015625 74.226562 396.820312 C 25.667969 471.71875 0 558.699219 0 648.347656 C 0 747 30.605469 841.175781 88.515625 920.679688 C 96.886719 932.160156 109.894531 938.253906 123.101562 938.253906 C 131.820312 938.253906 140.636719 935.585938 148.222656 930.058594 C 167.300781 916.160156 171.503906 889.421875 157.601562 870.351562 C 110.417969 805.5625 85.476562 728.792969 85.476562 648.347656 " fill-opacity="1" fill-rule="nonzero"/><path fill="#ff9800" d="M 1181.480469 463.859375 C 1165.480469 474.964844 1161.507812 496.933594 1172.601562 512.933594 C 1200.214844 552.71875 1214.804688 599.472656 1214.804688 648.125 C 1214.804688 695.382812 1200.980469 741.011719 1174.820312 780.085938 C 1163.976562 796.265625 1168.316406 818.160156 1184.496094 828.992188 C 1190.515625 833.023438 1197.335938 834.957031 1204.078125 834.957031 C 1215.449219 834.957031 1226.605469 829.472656 1233.414062 819.3125 C 1267.367188 768.601562 1285.324219 709.398438 1285.324219 648.125 C 1285.324219 585.039062 1266.382812 524.386719 1230.542969 472.738281 C 1219.449219 456.734375 1197.480469 452.765625 1181.480469 463.859375 " fill-opacity="1" fill-rule="nonzero"/><path fill="#ff9800" d="M 1369.949219 402.945312 C 1357.4375 382.941406 1331.066406 376.859375 1311.054688 389.371094 C 1291.039062 401.894531 1284.964844 428.265625 1297.480469 448.277344 C 1334.890625 508.078125 1354.652344 577.1875 1354.652344 648.125 C 1354.652344 715.578125 1336.667969 781.753906 1302.648438 839.496094 C 1290.660156 859.824219 1297.425781 886.027344 1317.765625 898.003906 C 1324.585938 902.03125 1332.054688 903.929688 1339.429688 903.929688 C 1354.066406 903.929688 1368.3125 896.410156 1376.285156 882.886719 C 1418.058594 812.011719 1440.132812 730.832031 1440.132812 648.125 C 1440.132812 561.136719 1415.863281 476.363281 1369.949219 402.945312 " fill-opacity="1" fill-rule="nonzero"/><g clip-path="url(#e0d4924c05)"><g clip-path="url(#127ee2c5d3)"><g clip-path="url(#bebcd9fb71)"><g clip-path="url(#92e45523b6)"><path fill="#000000" d="M 111.800781 1209.902344 L 1245.871094 143.066406 L 1327.992188 230.363281 L 193.921875 1297.199219 Z M 111.800781 1209.902344 " fill-opacity="1" fill-rule="nonzero"/></g></g></g></g></svg>