<svg xmlns="http://www.w3.org/2000/svg" xmlns:xlink="http://www.w3.org/1999/xlink" width="1920" zoomAndPan="magnify" viewBox="0 0 1440 1439.999935" height="1920" preserveAspectRatio="xMidYMid meet" version="1.0"><defs><clipPath id="1b46432555"><path d="M 599 1243 L 844 1243 L 844 1346.695312 L 599 1346.695312 Z M 599 1243 " clip-rule="nonzero"/></clipPath><clipPath id="3327df3688"><path d="M 605 177.0625 L 838 177.0625 L 838 298 L 605 298 Z M 605 177.0625 " clip-rule="nonzero"/></clipPath></defs><g clip-path="url(#1b46432555)"><path fill="#ff9800" d="M 799.65625 1243.621094 L 599.34375 1243.621094 C 609.222656 1302.042969 660.144531 1346.695312 721.332031 1346.695312 C 782.519531 1346.695312 833.453125 1302.042969 843.320312 1243.621094 L 799.65625 1243.621094 " fill-opacity="1" fill-rule="nonzero"/></g><g clip-path="url(#3327df3688)"><path fill="#ff9800" d="M 649.53125 285.246094 C 672.792969 280.46875 696.789062 277.933594 721.332031 277.933594 C 745.886719 277.933594 769.882812 280.46875 793.132812 285.246094 C 800.613281 286.792969 808.019531 288.535156 815.339844 290.542969 C 822.664062 292.539062 829.902344 294.808594 837.058594 297.257812 C 835.734375 230.898438 784.347656 177.347656 721.332031 177.347656 C 658.316406 177.347656 606.929688 230.898438 605.605469 297.257812 C 612.761719 294.808594 620 292.539062 627.332031 290.542969 C 634.644531 288.535156 642.050781 286.792969 649.53125 285.246094 " fill-opacity="1" fill-rule="nonzero"/></g><path fill="#ff9800" d="M 1151.085938 1082.308594 C 1122.773438 1055.582031 1093.503906 1027.960938 1069.96875 989.9375 C 1031.808594 928.289062 1055.417969 701.21875 1056.089844 694.808594 L 1055.835938 693.066406 L 1055.902344 691.175781 C 1056.039062 687.023438 1056.101562 683.167969 1056.101562 679.417969 C 1056.101562 524.292969 963.75 391.875 834.882812 341.929688 C 827.925781 339.238281 820.867188 336.78125 813.710938 334.574219 C 806.707031 332.421875 799.601562 330.507812 792.417969 328.835938 C 769.503906 323.511719 745.71875 320.675781 721.332031 320.675781 C 696.949219 320.675781 673.171875 323.511719 650.246094 328.835938 C 643.0625 330.507812 635.960938 332.421875 628.953125 334.574219 C 621.796875 336.78125 614.738281 339.238281 607.792969 341.929688 C 478.914062 391.875 386.5625 524.292969 386.5625 679.417969 C 386.5625 683.167969 386.625 687.023438 386.761719 691.175781 L 386.828125 693.066406 L 386.574219 694.808594 C 387.289062 701.574219 410.824219 928.339844 372.695312 989.9375 C 349.160156 1027.960938 319.890625 1055.582031 291.578125 1082.308594 C 277.511719 1095.585938 261.351562 1121.925781 250.425781 1149.378906 C 239.65625 1176.464844 238.058594 1193.882812 239.035156 1200.878906 L 1205.84375 1200.878906 C 1207.074219 1194.691406 1205.644531 1177.292969 1193.804688 1149.347656 C 1182.34375 1122.292969 1165.574219 1095.988281 1151.085938 1082.308594 " fill-opacity="1" fill-rule="nonzero"/><path fill="#ff9800" d="M 260.992188 886.222656 C 276.847656 874.925781 280.546875 852.90625 269.253906 837.042969 C 240.519531 796.71875 225.324219 749.125 225.324219 699.410156 C 225.324219 651.996094 239.246094 606.230469 265.5625 567.074219 C 276.425781 550.917969 272.140625 529.011719 255.984375 518.148438 C 239.824219 507.285156 217.910156 511.570312 207.046875 527.730469 C 172.867188 578.558594 154.808594 637.929688 154.808594 699.410156 C 154.808594 763.875 174.519531 825.621094 211.816406 877.964844 C 218.695312 887.628906 229.550781 892.765625 240.558594 892.765625 C 247.640625 892.765625 254.785156 890.644531 260.992188 886.222656 " fill-opacity="1" fill-rule="nonzero"/><path fill="#ff9800" d="M 85.476562 699.410156 C 85.476562 626.296875 106.386719 555.402344 145.953125 494.382812 C 158.789062 474.578125 153.136719 448.113281 133.332031 435.277344 C 113.53125 422.425781 87.066406 428.078125 74.226562 447.882812 C 25.667969 522.78125 0 609.761719 0 699.410156 C 0 798.0625 30.605469 892.242188 88.515625 971.742188 C 96.886719 983.222656 109.894531 989.316406 123.101562 989.316406 C 131.820312 989.316406 140.636719 986.648438 148.222656 981.125 C 167.300781 967.222656 171.503906 940.484375 157.601562 921.417969 C 110.417969 856.625 85.476562 779.855469 85.476562 699.410156 " fill-opacity="1" fill-rule="nonzero"/><path fill="#ff9800" d="M 1181.480469 514.921875 C 1165.480469 526.027344 1161.507812 547.996094 1172.601562 563.996094 C 1200.214844 603.785156 1214.804688 650.535156 1214.804688 699.191406 C 1214.804688 746.445312 1200.980469 792.074219 1174.820312 831.148438 C 1163.976562 847.328125 1168.316406 869.222656 1184.496094 880.054688 C 1190.515625 884.089844 1197.335938 886.019531 1204.078125 886.019531 C 1215.449219 886.019531 1226.605469 880.539062 1233.414062 870.378906 C 1267.367188 819.664062 1285.324219 760.460938 1285.324219 699.191406 C 1285.324219 636.101562 1266.382812 575.449219 1230.542969 523.800781 C 1219.449219 507.800781 1197.480469 503.828125 1181.480469 514.921875 " fill-opacity="1" fill-rule="nonzero"/><path fill="#ff9800" d="M 1369.949219 454.007812 C 1357.4375 434.003906 1331.066406 427.921875 1311.054688 440.433594 C 1291.039062 452.957031 1284.964844 479.328125 1297.480469 499.34375 C 1334.890625 559.144531 1354.652344 628.253906 1354.652344 699.191406 C 1354.652344 766.640625 1336.667969 832.816406 1302.648438 890.558594 C 1290.660156 910.890625 1297.425781 937.09375 1317.765625 949.070312 C 1324.585938 953.09375 1332.054688 954.996094 1339.429688 954.996094 C 1354.066406 954.996094 1368.3125 947.472656 1376.285156 933.949219 C 1418.058594 863.074219 1440.132812 781.894531 1440.132812 699.191406 C 1440.132812 612.199219 1415.863281 527.425781 1369.949219 454.007812 " fill-opacity="1" fill-rule="nonzero"/></svg>