<svg xmlns="http://www.w3.org/2000/svg" xmlns:xlink="http://www.w3.org/1999/xlink" width="1920" zoomAndPan="magnify" viewBox="0 0 1440 1439.999935" height="1920" preserveAspectRatio="xMidYMid meet" version="1.0"><path fill="#ff9800" d="M 884.378906 192 L 109.988281 966.34375 C 103.308594 973.023438 98.589844 981.410156 96.378906 990.601562 L 3.414062 1374.507812 C -0.804688 1391.9375 4.320312 1410.316406 17.027344 1422.972656 C 26.769531 1432.71875 39.925781 1438.039062 53.386719 1438.039062 C 57.40625 1438.039062 61.472656 1437.589844 65.492188 1436.585938 L 449.398438 1343.621094 C 458.585938 1341.410156 466.976562 1336.691406 473.65625 1330.011719 L 1248 555.621094 Z M 884.378906 192 " fill-opacity="1" fill-rule="nonzero"/><path fill="#ff9800" d="M 1408.558594 236.851562 L 1203.148438 31.441406 C 1180.445312 8.738281 1147.953125 -1.757812 1113.246094 3.0625 C 1083.464844 7.082031 1054.484375 21.898438 1031.585938 44.800781 L 957.101562 119.277344 L 1320.722656 482.898438 L 1395.199219 408.414062 C 1418.101562 385.511719 1432.917969 356.535156 1436.9375 326.75 C 1441.605469 292.300781 1431.261719 259.554688 1408.558594 236.851562 Z M 1408.558594 236.851562 " fill-opacity="1" fill-rule="nonzero"/></svg>