<svg xmlns="http://www.w3.org/2000/svg" xmlns:xlink="http://www.w3.org/1999/xlink" width="1920" zoomAndPan="magnify" viewBox="0 0 1440 1439.999935" height="1920" preserveAspectRatio="xMidYMid meet" version="1.0"><path fill="#ff9800" d="M 719.996094 746.945312 C 912.765625 746.945312 1069.566406 542.351562 1069.566406 349.601562 C 1069.566406 156.847656 912.765625 0 719.996094 0 C 527.230469 0 370.414062 156.847656 370.414062 349.601562 C 370.445312 542.335938 527.246094 746.945312 719.996094 746.945312 Z M 719.996094 746.945312 " fill-opacity="1" fill-rule="nonzero"/><path fill="#ff9800" d="M 982.429688 750.527344 C 914.621094 802.191406 830.03125 832.929688 738.398438 832.929688 L 701.597656 832.929688 C 609.949219 832.929688 525.339844 802.175781 457.550781 750.527344 C 236.140625 786.320312 67.070312 978.222656 67.070312 1209.710938 C 67.070312 1336.878906 359.390625 1440 719.996094 1440 C 1080.589844 1440 1372.925781 1336.878906 1372.925781 1209.710938 C 1372.925781 978.222656 1203.835938 786.320312 982.429688 750.527344 Z M 982.429688 750.527344 " fill-opacity="1" fill-rule="nonzero"/></svg>