<svg xmlns="http://www.w3.org/2000/svg" xmlns:xlink="http://www.w3.org/1999/xlink" width="1920" zoomAndPan="magnify" viewBox="0 0 1440 809.999993" height="1080" preserveAspectRatio="xMidYMid meet" version="1.0"><defs><clipPath id="74775e96e4"><path d="M 406.039062 0 L 1033.789062 0 L 1033.789062 810 L 406.039062 810 Z M 406.039062 0 " clip-rule="nonzero"/></clipPath></defs><rect x="-144" width="1728" fill="#ffffff" y="-80.999999" height="971.999992" fill-opacity="1"/><rect x="-144" width="1728" fill="#ffffff" y="-80.999999" height="971.999992" fill-opacity="1"/><g clip-path="url(#74775e96e4)"><path fill="#ffbd59" d="M 1033.953125 748.8125 C 1033.953125 532.671875 893.277344 357.558594 719.996094 357.558594 C 546.714844 357.558594 406.039062 532.671875 406.039062 748.8125 C 406.039062 782.519531 546.714844 809.992188 719.996094 809.992188 C 893.277344 809.992188 1033.953125 782.519531 1033.953125 748.8125 Z M 719.996094 0.0078125 C 814.511719 0.0078125 891.078125 76.574219 891.078125 171.089844 C 891.078125 265.605469 814.511719 342.171875 719.996094 342.171875 C 625.476562 342.171875 548.914062 265.605469 548.914062 171.089844 C 548.914062 76.574219 625.476562 0.0078125 719.996094 0.0078125 Z M 719.996094 0.0078125 " fill-opacity="1" fill-rule="evenodd"/></g></svg>