<svg xmlns="http://www.w3.org/2000/svg" xmlns:xlink="http://www.w3.org/1999/xlink" width="1920" zoomAndPan="magnify" viewBox="0 0 1440 1439.999935" height="1920" preserveAspectRatio="xMidYMid meet" version="1.0"><defs><clipPath id="e5e6b6c06e"><path d="M 742 11.699219 L 1438 11.699219 L 1438 707 L 742 707 Z M 742 11.699219 " clip-rule="nonzero"/></clipPath></defs><path fill="#ff9800" d="M 742.183594 251.804688 C 742.183594 251.09375 742.21875 250.382812 742.289062 249.675781 C 742.359375 248.96875 742.464844 248.265625 742.601562 247.566406 C 742.742188 246.871094 742.914062 246.179688 743.121094 245.5 C 743.328125 244.820312 743.566406 244.148438 743.839844 243.492188 C 744.109375 242.835938 744.414062 242.191406 744.75 241.566406 C 745.085938 240.9375 745.449219 240.328125 745.847656 239.738281 C 746.242188 239.144531 746.664062 238.574219 747.117188 238.023438 C 747.566406 237.472656 748.042969 236.949219 748.546875 236.445312 C 749.050781 235.941406 749.578125 235.464844 750.125 235.011719 C 750.675781 234.5625 751.246094 234.140625 751.839844 233.742188 C 752.429688 233.347656 753.039062 232.984375 753.667969 232.648438 C 754.296875 232.3125 754.9375 232.007812 755.59375 231.734375 C 756.253906 231.464844 756.921875 231.222656 757.601562 231.019531 C 758.28125 230.8125 758.972656 230.640625 759.667969 230.5 C 760.367188 230.359375 761.070312 230.257812 761.777344 230.1875 C 762.488281 230.117188 763.195312 230.082031 763.90625 230.082031 C 771.34375 230.089844 778.777344 230.28125 786.203125 230.652344 C 793.632812 231.023438 801.046875 231.578125 808.449219 232.3125 C 815.847656 233.046875 823.226562 233.964844 830.582031 235.0625 C 837.9375 236.160156 845.261719 237.4375 852.554688 238.894531 C 859.847656 240.347656 867.101562 241.984375 874.316406 243.796875 C 881.527344 245.609375 888.691406 247.597656 895.808594 249.757812 C 902.921875 251.921875 909.980469 254.257812 916.980469 256.769531 C 923.984375 259.277344 930.917969 261.957031 937.789062 264.808594 C 944.65625 267.65625 951.453125 270.671875 958.175781 273.855469 C 964.898438 277.039062 971.535156 280.382812 978.09375 283.890625 C 984.652344 287.402344 991.121094 291.066406 997.496094 294.894531 C 1003.875 298.71875 1010.15625 302.699219 1016.339844 306.832031 C 1022.519531 310.964844 1028.597656 315.246094 1034.570312 319.679688 C 1040.542969 324.109375 1046.402344 328.683594 1052.152344 333.402344 C 1057.902344 338.121094 1063.53125 342.980469 1069.039062 347.972656 C 1074.550781 352.96875 1079.933594 358.097656 1085.195312 363.355469 C 1090.453125 368.613281 1095.578125 374 1100.574219 379.507812 C 1105.570312 385.019531 1110.425781 390.648438 1115.144531 396.398438 C 1119.863281 402.144531 1124.4375 408.003906 1128.871094 413.976562 C 1133.300781 419.949219 1137.585938 426.027344 1141.71875 432.210938 C 1145.851562 438.394531 1149.832031 444.675781 1153.65625 451.050781 C 1157.480469 457.429688 1161.148438 463.898438 1164.65625 470.457031 C 1168.164062 477.011719 1171.511719 483.652344 1174.695312 490.375 C 1177.875 497.097656 1180.894531 503.890625 1183.742188 510.761719 C 1186.589844 517.628906 1189.269531 524.566406 1191.78125 531.566406 C 1194.289062 538.566406 1196.625 545.625 1198.789062 552.742188 C 1200.953125 559.855469 1202.941406 567.019531 1204.753906 574.234375 C 1206.566406 581.449219 1208.199219 588.699219 1209.65625 595.992188 C 1211.113281 603.285156 1212.390625 610.609375 1213.488281 617.96875 C 1214.585938 625.324219 1215.5 632.699219 1216.234375 640.101562 C 1216.972656 647.503906 1217.523438 654.917969 1217.898438 662.34375 C 1218.269531 669.773438 1218.460938 677.203125 1218.464844 684.640625 C 1218.46875 685.351562 1218.433594 686.0625 1218.363281 686.769531 C 1218.292969 687.480469 1218.1875 688.183594 1218.050781 688.878906 C 1217.910156 689.578125 1217.738281 690.265625 1217.53125 690.949219 C 1217.324219 691.628906 1217.085938 692.296875 1216.8125 692.953125 C 1216.539062 693.613281 1216.238281 694.253906 1215.902344 694.882812 C 1215.566406 695.507812 1215.199219 696.117188 1214.804688 696.710938 C 1214.410156 697.300781 1213.988281 697.871094 1213.535156 698.421875 C 1213.085938 698.972656 1212.605469 699.5 1212.105469 700 C 1211.601562 700.503906 1211.074219 700.980469 1210.523438 701.433594 C 1209.976562 701.882812 1209.402344 702.308594 1208.8125 702.703125 C 1208.222656 703.097656 1207.609375 703.464844 1206.984375 703.800781 C 1206.355469 704.132812 1205.714844 704.4375 1205.058594 704.710938 C 1204.398438 704.984375 1203.730469 705.222656 1203.050781 705.429688 C 1202.367188 705.636719 1201.679688 705.808594 1200.980469 705.945312 C 1200.285156 706.085938 1199.582031 706.191406 1198.875 706.257812 C 1198.164062 706.328125 1197.457031 706.363281 1196.742188 706.363281 C 1196.03125 706.363281 1195.324219 706.328125 1194.613281 706.257812 C 1193.90625 706.191406 1193.203125 706.085938 1192.507812 705.945312 C 1191.808594 705.808594 1191.117188 705.636719 1190.4375 705.429688 C 1189.757812 705.222656 1189.089844 704.984375 1188.429688 704.710938 C 1187.773438 704.4375 1187.132812 704.132812 1186.503906 703.800781 C 1185.875 703.464844 1185.265625 703.097656 1184.675781 702.703125 C 1184.082031 702.308594 1183.511719 701.886719 1182.964844 701.433594 C 1182.414062 700.980469 1181.886719 700.503906 1181.382812 700 C 1180.878906 699.5 1180.402344 698.972656 1179.953125 698.421875 C 1179.5 697.871094 1179.078125 697.300781 1178.683594 696.710938 C 1178.285156 696.117188 1177.921875 695.507812 1177.585938 694.882812 C 1177.25 694.253906 1176.945312 693.613281 1176.675781 692.953125 C 1176.402344 692.296875 1176.164062 691.628906 1175.957031 690.949219 C 1175.75 690.265625 1175.578125 689.578125 1175.4375 688.878906 C 1175.300781 688.183594 1175.195312 687.480469 1175.125 686.769531 C 1175.054688 686.0625 1175.019531 685.351562 1175.019531 684.640625 C 1175.015625 677.914062 1174.839844 671.195312 1174.503906 664.476562 C 1174.167969 657.757812 1173.664062 651.054688 1173 644.359375 C 1172.335938 637.667969 1171.503906 630.992188 1170.511719 624.339844 C 1169.519531 617.6875 1168.363281 611.066406 1167.046875 604.46875 C 1165.726562 597.875 1164.25 591.3125 1162.609375 584.789062 C 1160.96875 578.265625 1159.171875 571.789062 1157.214844 565.351562 C 1155.257812 558.917969 1153.144531 552.535156 1150.875 546.203125 C 1148.605469 539.871094 1146.179688 533.597656 1143.605469 527.386719 C 1141.027344 521.175781 1138.296875 515.027344 1135.417969 508.949219 C 1132.539062 502.871094 1129.515625 496.867188 1126.339844 490.933594 C 1123.167969 485.003906 1119.851562 479.15625 1116.390625 473.386719 C 1112.933594 467.621094 1109.332031 461.941406 1105.59375 456.347656 C 1101.855469 450.757812 1097.984375 445.261719 1093.976562 439.859375 C 1089.96875 434.457031 1085.828125 429.15625 1081.5625 423.957031 C 1077.292969 418.757812 1072.902344 413.667969 1068.382812 408.683594 C 1063.867188 403.699219 1059.230469 398.832031 1054.472656 394.074219 C 1049.71875 389.320312 1044.847656 384.683594 1039.863281 380.164062 C 1034.882812 375.648438 1029.789062 371.253906 1024.589844 366.988281 C 1019.390625 362.71875 1014.09375 358.582031 1008.691406 354.574219 C 1003.289062 350.566406 997.792969 346.691406 992.199219 342.953125 C 986.609375 339.214844 980.929688 335.617188 975.160156 332.15625 C 969.394531 328.699219 963.542969 325.378906 957.613281 322.207031 C 951.683594 319.035156 945.679688 316.007812 939.597656 313.128906 C 933.519531 310.25 927.375 307.523438 921.164062 304.945312 C 914.949219 302.367188 908.675781 299.945312 902.347656 297.675781 C 896.015625 295.402344 889.632812 293.289062 883.195312 291.332031 C 876.761719 289.375 870.28125 287.578125 863.757812 285.9375 C 857.234375 284.300781 850.675781 282.820312 844.078125 281.503906 C 837.484375 280.1875 830.859375 279.03125 824.207031 278.039062 C 817.554688 277.042969 810.882812 276.214844 804.1875 275.550781 C 797.496094 274.882812 790.789062 274.382812 784.074219 274.042969 C 777.355469 273.707031 770.632812 273.535156 763.90625 273.527344 C 763.195312 273.527344 762.488281 273.492188 761.777344 273.421875 C 761.070312 273.355469 760.367188 273.25 759.667969 273.109375 C 758.972656 272.972656 758.28125 272.800781 757.601562 272.59375 C 756.921875 272.386719 756.25 272.148438 755.59375 271.875 C 754.9375 271.601562 754.296875 271.296875 753.667969 270.960938 C 753.039062 270.628906 752.429688 270.261719 751.839844 269.867188 C 751.246094 269.472656 750.675781 269.046875 750.125 268.597656 C 749.578125 268.144531 749.050781 267.667969 748.546875 267.164062 C 748.042969 266.664062 747.566406 266.136719 747.117188 265.585938 C 746.664062 265.035156 746.242188 264.464844 745.847656 263.875 C 745.449219 263.28125 745.085938 262.671875 744.75 262.046875 C 744.414062 261.417969 744.109375 260.777344 743.839844 260.117188 C 743.566406 259.460938 743.328125 258.792969 743.121094 258.109375 C 742.914062 257.429688 742.742188 256.742188 742.601562 256.042969 C 742.464844 255.34375 742.359375 254.640625 742.289062 253.933594 C 742.21875 253.226562 742.183594 252.515625 742.183594 251.804688 Z M 742.183594 251.804688 " fill-opacity="1" fill-rule="nonzero"/><g clip-path="url(#e5e6b6c06e)"><path fill="#ff9800" d="M 1437.542969 684.640625 C 1437.542969 685.351562 1437.507812 686.0625 1437.4375 686.769531 C 1437.367188 687.480469 1437.265625 688.183594 1437.125 688.878906 C 1436.984375 689.578125 1436.8125 690.265625 1436.605469 690.949219 C 1436.402344 691.628906 1436.160156 692.296875 1435.890625 692.953125 C 1435.617188 693.613281 1435.3125 694.253906 1434.976562 694.882812 C 1434.640625 695.507812 1434.277344 696.117188 1433.882812 696.710938 C 1433.484375 697.300781 1433.0625 697.871094 1432.613281 698.421875 C 1432.160156 698.972656 1431.683594 699.5 1431.179688 700 C 1430.675781 700.503906 1430.152344 700.980469 1429.601562 701.433594 C 1429.050781 701.882812 1428.480469 702.308594 1427.886719 702.703125 C 1427.296875 703.097656 1426.6875 703.464844 1426.058594 703.800781 C 1425.433594 704.132812 1424.789062 704.4375 1424.132812 704.710938 C 1423.476562 704.984375 1422.804688 705.222656 1422.125 705.429688 C 1421.445312 705.636719 1420.753906 705.808594 1420.058594 705.945312 C 1419.359375 706.085938 1418.65625 706.191406 1417.949219 706.257812 C 1417.242188 706.328125 1416.53125 706.363281 1415.820312 706.363281 C 1415.109375 706.363281 1414.398438 706.328125 1413.691406 706.257812 C 1412.984375 706.191406 1412.28125 706.085938 1411.582031 705.945312 C 1410.882812 705.808594 1410.195312 705.636719 1409.515625 705.429688 C 1408.832031 705.222656 1408.164062 704.984375 1407.507812 704.710938 C 1406.847656 704.4375 1406.207031 704.132812 1405.578125 703.800781 C 1404.953125 703.464844 1404.34375 703.097656 1403.75 702.703125 C 1403.160156 702.308594 1402.589844 701.886719 1402.039062 701.433594 C 1401.488281 700.980469 1400.960938 700.503906 1400.460938 700 C 1399.957031 699.5 1399.480469 698.972656 1399.027344 698.421875 C 1398.578125 697.871094 1398.152344 697.300781 1397.757812 696.710938 C 1397.363281 696.117188 1396.996094 695.507812 1396.660156 694.882812 C 1396.328125 694.253906 1396.023438 693.613281 1395.75 692.953125 C 1395.476562 692.296875 1395.238281 691.628906 1395.03125 690.949219 C 1394.824219 690.265625 1394.652344 689.578125 1394.515625 688.878906 C 1394.375 688.183594 1394.269531 687.480469 1394.203125 686.769531 C 1394.132812 686.0625 1394.097656 685.351562 1394.097656 684.640625 C 1394.089844 674.328125 1393.828125 664.023438 1393.316406 653.722656 C 1392.804688 643.421875 1392.039062 633.140625 1391.019531 622.878906 C 1390.003906 612.617188 1388.734375 602.382812 1387.21875 592.183594 C 1385.699219 581.984375 1383.929688 571.828125 1381.914062 561.714844 C 1379.894531 551.597656 1377.632812 541.542969 1375.121094 531.539062 C 1372.613281 521.535156 1369.859375 511.601562 1366.859375 501.734375 C 1363.863281 491.867188 1360.625 482.078125 1357.148438 472.367188 C 1353.671875 462.660156 1349.957031 453.042969 1346.007812 443.515625 C 1342.058594 433.988281 1337.878906 424.5625 1333.46875 415.242188 C 1329.054688 405.921875 1324.417969 396.710938 1319.554688 387.617188 C 1314.691406 378.523438 1309.609375 369.554688 1304.308594 360.710938 C 1299.003906 351.863281 1293.488281 343.15625 1287.757812 334.578125 C 1282.027344 326.003906 1276.09375 317.578125 1269.949219 309.292969 C 1263.804688 301.007812 1257.464844 292.882812 1250.921875 284.910156 C 1244.378906 276.9375 1237.644531 269.128906 1230.722656 261.488281 C 1223.796875 253.84375 1216.6875 246.378906 1209.398438 239.082031 C 1202.105469 231.789062 1194.640625 224.679688 1187.003906 217.753906 C 1179.363281 210.824219 1171.558594 204.089844 1163.585938 197.542969 C 1155.617188 191 1147.492188 184.652344 1139.210938 178.507812 C 1130.929688 172.359375 1122.503906 166.421875 1113.929688 160.6875 C 1105.359375 154.953125 1096.648438 149.433594 1087.808594 144.128906 C 1078.964844 138.824219 1069.996094 133.738281 1060.902344 128.871094 C 1051.8125 124.003906 1042.605469 119.363281 1033.285156 114.949219 C 1023.964844 110.535156 1014.542969 106.351562 1005.015625 102.398438 C 995.492188 98.445312 985.875 94.730469 976.167969 91.246094 C 966.460938 87.765625 956.671875 84.527344 946.804688 81.523438 C 936.941406 78.523438 927.003906 75.765625 917.003906 73.253906 C 907.003906 70.738281 896.945312 68.472656 886.832031 66.449219 C 876.71875 64.429688 866.5625 62.65625 856.363281 61.136719 C 846.164062 59.613281 835.933594 58.339844 825.667969 57.320312 C 815.40625 56.296875 805.125 55.53125 794.828125 55.011719 C 784.527344 54.496094 774.21875 54.230469 763.90625 54.222656 C 763.195312 54.222656 762.488281 54.1875 761.777344 54.117188 C 761.070312 54.046875 760.367188 53.941406 759.667969 53.804688 C 758.972656 53.664062 758.28125 53.492188 757.601562 53.285156 C 756.921875 53.078125 756.25 52.839844 755.59375 52.566406 C 754.9375 52.296875 754.296875 51.992188 753.667969 51.65625 C 753.039062 51.320312 752.429688 50.957031 751.839844 50.558594 C 751.246094 50.164062 750.675781 49.742188 750.125 49.289062 C 749.578125 48.839844 749.050781 48.363281 748.546875 47.859375 C 748.042969 47.355469 747.566406 46.828125 747.117188 46.277344 C 746.664062 45.730469 746.242188 45.160156 745.847656 44.566406 C 745.449219 43.976562 745.085938 43.367188 744.75 42.738281 C 744.414062 42.109375 744.109375 41.46875 743.839844 40.8125 C 743.566406 40.152344 743.328125 39.484375 743.121094 38.804688 C 742.914062 38.125 742.742188 37.433594 742.601562 36.734375 C 742.464844 36.039062 742.359375 35.335938 742.289062 34.628906 C 742.21875 33.917969 742.183594 33.210938 742.183594 32.5 C 742.183594 31.785156 742.21875 31.078125 742.289062 30.367188 C 742.359375 29.660156 742.464844 28.957031 742.601562 28.261719 C 742.742188 27.5625 742.914062 26.875 743.121094 26.191406 C 743.328125 25.511719 743.566406 24.84375 743.839844 24.183594 C 744.109375 23.527344 744.414062 22.886719 744.75 22.257812 C 745.085938 21.632812 745.449219 21.019531 745.847656 20.429688 C 746.242188 19.839844 746.664062 19.265625 747.117188 18.71875 C 747.566406 18.167969 748.042969 17.640625 748.546875 17.136719 C 749.050781 16.636719 749.578125 16.15625 750.125 15.707031 C 750.675781 15.253906 751.246094 14.832031 751.839844 14.4375 C 752.429688 14.042969 753.039062 13.675781 753.667969 13.339844 C 754.296875 13.003906 754.9375 12.703125 755.59375 12.429688 C 756.25 12.15625 756.921875 11.917969 757.601562 11.710938 C 758.28125 11.503906 758.972656 11.332031 759.667969 11.191406 C 760.367188 11.054688 761.070312 10.949219 761.777344 10.878906 C 762.488281 10.808594 763.195312 10.777344 763.90625 10.777344 C 774.929688 10.789062 785.945312 11.074219 796.953125 11.632812 C 807.964844 12.1875 818.953125 13.011719 829.921875 14.105469 C 840.890625 15.199219 851.824219 16.558594 862.726562 18.191406 C 873.628906 19.820312 884.484375 21.714844 895.292969 23.878906 C 906.101562 26.039062 916.847656 28.464844 927.539062 31.152344 C 938.230469 33.84375 948.847656 36.792969 959.390625 40 C 969.9375 43.210938 980.398438 46.675781 990.773438 50.398438 C 1001.148438 54.121094 1011.425781 58.097656 1021.605469 62.320312 C 1031.785156 66.546875 1041.859375 71.019531 1051.820312 75.742188 C 1061.78125 80.460938 1071.621094 85.421875 1081.335938 90.625 C 1091.054688 95.824219 1100.640625 101.261719 1110.09375 106.933594 C 1119.542969 112.605469 1128.851562 118.507812 1138.011719 124.636719 C 1147.175781 130.761719 1156.179688 137.113281 1165.03125 143.683594 C 1173.882812 150.253906 1182.566406 157.035156 1191.085938 164.03125 C 1199.605469 171.027344 1207.949219 178.226562 1216.113281 185.628906 C 1224.277344 193.035156 1232.257812 200.636719 1240.050781 208.429688 C 1247.84375 216.226562 1255.441406 224.207031 1262.84375 232.375 C 1270.246094 240.542969 1277.441406 248.890625 1284.433594 257.410156 C 1291.425781 265.929688 1298.207031 274.617188 1304.773438 283.472656 C 1311.339844 292.324219 1317.6875 301.332031 1323.8125 310.496094 C 1329.9375 319.660156 1335.832031 328.96875 1341.5 338.425781 C 1347.171875 347.878906 1352.605469 357.464844 1357.804688 367.183594 C 1363.003906 376.902344 1367.960938 386.746094 1372.675781 396.707031 C 1377.390625 406.671875 1381.863281 416.742188 1386.085938 426.925781 C 1390.308594 437.105469 1394.277344 447.386719 1397.996094 457.761719 C 1401.714844 468.140625 1405.175781 478.601562 1408.382812 489.148438 C 1411.589844 499.695312 1414.535156 510.3125 1417.21875 521.003906 C 1419.90625 531.695312 1422.328125 542.445312 1424.484375 553.253906 C 1426.644531 564.0625 1428.535156 574.917969 1430.160156 585.820312 C 1431.789062 596.722656 1433.144531 607.660156 1434.238281 618.628906 C 1435.328125 629.597656 1436.148438 640.585938 1436.699219 651.59375 C 1437.25 662.601562 1437.53125 673.617188 1437.542969 684.640625 Z M 1437.542969 684.640625 " fill-opacity="1" fill-rule="nonzero"/></g><path fill="#ff9800" d="M 742.183594 470.882812 C 742.183594 470.167969 742.21875 469.460938 742.289062 468.75 C 742.359375 468.042969 742.464844 467.339844 742.601562 466.644531 C 742.742188 465.945312 742.914062 465.257812 743.121094 464.574219 C 743.328125 463.894531 743.566406 463.226562 743.839844 462.566406 C 744.109375 461.910156 744.414062 461.269531 744.75 460.640625 C 745.085938 460.011719 745.449219 459.402344 745.847656 458.8125 C 746.242188 458.222656 746.664062 457.648438 747.117188 457.101562 C 747.566406 456.550781 748.042969 456.023438 748.546875 455.519531 C 749.050781 455.019531 749.578125 454.539062 750.125 454.089844 C 750.675781 453.636719 751.246094 453.214844 751.839844 452.820312 C 752.429688 452.425781 753.039062 452.058594 753.667969 451.722656 C 754.292969 451.386719 754.9375 451.085938 755.59375 450.8125 C 756.25 450.539062 756.921875 450.300781 757.601562 450.09375 C 758.28125 449.886719 758.972656 449.714844 759.667969 449.574219 C 760.367188 449.4375 761.070312 449.332031 761.777344 449.261719 C 762.488281 449.191406 763.195312 449.160156 763.90625 449.160156 C 767.75 449.171875 771.59375 449.28125 775.433594 449.484375 C 779.269531 449.6875 783.101562 449.984375 786.925781 450.375 C 790.75 450.765625 794.5625 451.25 798.363281 451.828125 C 802.164062 452.40625 805.949219 453.078125 809.714844 453.839844 C 813.484375 454.601562 817.230469 455.457031 820.957031 456.402344 C 824.683594 457.351562 828.382812 458.386719 832.058594 459.515625 C 835.734375 460.644531 839.378906 461.859375 842.996094 463.164062 C 846.609375 464.472656 850.191406 465.867188 853.738281 467.347656 C 857.285156 468.828125 860.792969 470.394531 864.265625 472.050781 C 867.734375 473.703125 871.164062 475.441406 874.550781 477.261719 C 877.933594 479.082031 881.273438 480.984375 884.566406 482.972656 C 887.859375 484.957031 891.097656 487.019531 894.289062 489.164062 C 897.480469 491.308594 900.617188 493.527344 903.699219 495.824219 C 906.78125 498.121094 909.808594 500.492188 912.773438 502.9375 C 915.738281 505.382812 918.644531 507.898438 921.488281 510.488281 C 924.332031 513.074219 927.109375 515.730469 929.820312 518.453125 C 932.535156 521.179688 935.179688 523.96875 937.753906 526.820312 C 940.332031 529.671875 942.835938 532.585938 945.269531 535.5625 C 947.703125 538.539062 950.0625 541.574219 952.347656 544.664062 C 954.632812 547.753906 956.84375 550.902344 958.972656 554.101562 C 961.105469 557.300781 963.15625 560.550781 965.128906 563.851562 C 967.097656 567.148438 968.988281 570.496094 970.796875 573.890625 C 972.605469 577.28125 974.328125 580.714844 975.96875 584.191406 C 977.609375 587.671875 979.160156 591.183594 980.628906 594.738281 C 982.097656 598.292969 983.476562 601.878906 984.769531 605.5 C 986.0625 609.121094 987.265625 612.769531 988.375 616.449219 C 989.488281 620.128906 990.511719 623.832031 991.445312 627.5625 C 992.375 631.292969 993.214844 635.042969 993.964844 638.8125 C 994.710938 642.585938 995.367188 646.371094 995.929688 650.175781 C 996.492188 653.976562 996.960938 657.792969 997.339844 661.617188 C 997.714844 665.441406 997.996094 669.277344 998.183594 673.117188 C 998.371094 676.957031 998.464844 680.796875 998.464844 684.640625 C 998.472656 685.355469 998.445312 686.066406 998.382812 686.777344 C 998.320312 687.488281 998.222656 688.195312 998.089844 688.894531 C 997.953125 689.597656 997.785156 690.289062 997.585938 690.972656 C 997.382812 691.65625 997.144531 692.332031 996.875 692.992188 C 996.605469 693.652344 996.304688 694.296875 995.972656 694.929688 C 995.636719 695.558594 995.273438 696.171875 994.878906 696.765625 C 994.484375 697.359375 994.058594 697.933594 993.609375 698.484375 C 993.15625 699.039062 992.675781 699.566406 992.171875 700.070312 C 991.667969 700.574219 991.140625 701.054688 990.589844 701.503906 C 990.035156 701.957031 989.460938 702.382812 988.867188 702.777344 C 988.273438 703.171875 987.660156 703.535156 987.03125 703.867188 C 986.398438 704.203125 985.753906 704.503906 985.09375 704.773438 C 984.433594 705.042969 983.761719 705.28125 983.074219 705.480469 C 982.390625 705.683594 981.699219 705.851562 980.996094 705.984375 C 980.296875 706.121094 979.589844 706.21875 978.878906 706.28125 C 978.167969 706.34375 977.457031 706.371094 976.742188 706.363281 C 976.042969 706.324219 975.347656 706.25 974.65625 706.148438 C 973.960938 706.042969 973.277344 705.90625 972.59375 705.742188 C 971.914062 705.574219 971.242188 705.378906 970.582031 705.148438 C 969.917969 704.921875 969.269531 704.664062 968.628906 704.378906 C 967.988281 704.089844 967.363281 703.777344 966.753906 703.433594 C 966.144531 703.089844 965.550781 702.71875 964.972656 702.320312 C 964.398438 701.921875 963.839844 701.5 963.300781 701.050781 C 962.761719 700.601562 962.246094 700.128906 961.75 699.636719 C 961.253906 699.140625 960.785156 698.621094 960.335938 698.085938 C 959.886719 697.546875 959.464844 696.988281 959.066406 696.410156 C 958.667969 695.835938 958.296875 695.242188 957.953125 694.632812 C 957.609375 694.019531 957.292969 693.394531 957.007812 692.757812 C 956.722656 692.117188 956.464844 691.464844 956.234375 690.804688 C 956.007812 690.140625 955.8125 689.46875 955.644531 688.789062 C 955.476562 688.109375 955.34375 687.421875 955.238281 686.730469 C 955.132812 686.035156 955.0625 685.339844 955.019531 684.640625 C 955.019531 681.5 954.945312 678.363281 954.789062 675.226562 C 954.636719 672.089844 954.40625 668.957031 954.097656 665.832031 C 953.789062 662.707031 953.40625 659.59375 952.945312 656.484375 C 952.484375 653.378906 951.949219 650.285156 951.335938 647.207031 C 950.726562 644.125 950.039062 641.0625 949.273438 638.015625 C 948.511719 634.96875 947.675781 631.941406 946.765625 628.9375 C 945.855469 625.933594 944.871094 622.949219 943.8125 619.992188 C 942.753906 617.035156 941.625 614.105469 940.425781 611.207031 C 939.226562 608.304688 937.953125 605.433594 936.613281 602.59375 C 935.269531 599.753906 933.859375 596.949219 932.378906 594.179688 C 930.902344 591.410156 929.355469 588.675781 927.742188 585.984375 C 926.128906 583.289062 924.449219 580.636719 922.707031 578.023438 C 920.960938 575.410156 919.15625 572.84375 917.285156 570.320312 C 915.417969 567.796875 913.484375 565.320312 911.496094 562.890625 C 909.503906 560.464844 907.453125 558.085938 905.347656 555.757812 C 903.238281 553.429688 901.074219 551.152344 898.855469 548.933594 C 896.636719 546.710938 894.363281 544.542969 892.039062 542.433594 C 889.714844 540.324219 887.335938 538.269531 884.910156 536.277344 C 882.484375 534.28125 880.011719 532.347656 877.492188 530.476562 C 874.96875 528.605469 872.402344 526.792969 869.792969 525.046875 C 867.183594 523.300781 864.53125 521.621094 861.839844 520.003906 C 859.148438 518.386719 856.417969 516.835938 853.648438 515.355469 C 850.882812 513.871094 848.078125 512.457031 845.242188 511.113281 C 842.402344 509.765625 839.535156 508.492188 836.632812 507.289062 C 833.734375 506.082031 830.804688 504.949219 827.847656 503.890625 C 824.894531 502.828125 821.914062 501.839844 818.910156 500.925781 C 815.90625 500.011719 812.878906 499.171875 809.832031 498.40625 C 806.789062 497.640625 803.726562 496.949219 800.644531 496.332031 C 797.566406 495.71875 794.472656 495.175781 791.367188 494.710938 C 788.261719 494.25 785.148438 493.859375 782.023438 493.550781 C 778.898438 493.238281 775.765625 493.003906 772.628906 492.847656 C 769.492188 492.6875 766.355469 492.609375 763.214844 492.605469 C 762.515625 492.582031 761.824219 492.527344 761.132812 492.4375 C 760.441406 492.347656 759.753906 492.226562 759.074219 492.070312 C 758.394531 491.914062 757.722656 491.726562 757.0625 491.507812 C 756.402344 491.289062 755.75 491.039062 755.113281 490.753906 C 754.476562 490.472656 753.855469 490.160156 753.246094 489.820312 C 752.640625 489.476562 752.050781 489.105469 751.476562 488.707031 C 750.90625 488.308594 750.355469 487.882812 749.824219 487.429688 C 749.292969 486.980469 748.785156 486.503906 748.300781 486 C 747.816406 485.5 747.355469 484.976562 746.921875 484.433594 C 746.488281 483.886719 746.078125 483.320312 745.699219 482.738281 C 745.320312 482.152344 744.96875 481.550781 744.644531 480.933594 C 744.324219 480.316406 744.03125 479.683594 743.769531 479.035156 C 743.507812 478.390625 743.277344 477.734375 743.082031 477.066406 C 742.882812 476.394531 742.714844 475.71875 742.582031 475.035156 C 742.449219 474.351562 742.351562 473.660156 742.285156 472.96875 C 742.21875 472.273438 742.183594 471.578125 742.183594 470.882812 Z M 742.183594 470.882812 " fill-opacity="1" fill-rule="nonzero"/><path fill="#ff9800" d="M 1363.128906 1148.675781 L 1363.128906 1190.734375 C 1363.113281 1194.792969 1362.898438 1198.84375 1362.484375 1202.882812 C 1362.074219 1206.917969 1361.464844 1210.929688 1360.660156 1214.90625 C 1359.855469 1218.886719 1358.855469 1222.816406 1357.667969 1226.699219 C 1356.480469 1230.578125 1355.101562 1234.394531 1353.542969 1238.140625 C 1351.980469 1241.886719 1350.238281 1245.546875 1348.316406 1249.125 C 1346.398438 1252.703125 1344.308594 1256.175781 1342.046875 1259.546875 C 1339.789062 1262.921875 1337.371094 1266.175781 1334.792969 1269.3125 C 1332.214844 1272.445312 1329.488281 1275.449219 1326.617188 1278.320312 L 1212.921875 1391.089844 C 1210.089844 1393.90625 1207.128906 1396.578125 1204.039062 1399.105469 C 1200.945312 1401.628906 1197.742188 1404 1194.417969 1406.214844 C 1191.097656 1408.429688 1187.675781 1410.480469 1184.15625 1412.363281 C 1180.636719 1414.242188 1177.03125 1415.949219 1173.347656 1417.484375 C 1169.660156 1419.015625 1165.90625 1420.363281 1162.089844 1421.53125 C 1158.273438 1422.699219 1154.40625 1423.679688 1150.492188 1424.46875 C 1146.582031 1425.261719 1142.640625 1425.859375 1138.667969 1426.269531 C 1134.695312 1426.675781 1130.714844 1426.890625 1126.722656 1426.910156 L 1121.640625 1426.910156 C 1103.582031 1426.132812 1085.554688 1424.9375 1067.554688 1423.324219 C 1049.550781 1421.710938 1031.597656 1419.679688 1013.691406 1417.234375 C 995.785156 1414.785156 977.945312 1411.925781 960.171875 1408.648438 C 942.398438 1405.375 924.707031 1401.6875 907.105469 1397.589844 C 889.503906 1393.496094 872.003906 1388.992188 854.609375 1384.085938 C 837.21875 1379.175781 819.945312 1373.867188 802.800781 1368.15625 C 785.652344 1362.445312 768.644531 1356.34375 751.78125 1349.84375 C 734.917969 1343.34375 718.214844 1336.457031 701.667969 1329.183594 C 685.125 1321.90625 668.757812 1314.253906 652.570312 1306.21875 C 636.378906 1298.183594 620.386719 1289.777344 604.585938 1281.003906 C 588.789062 1272.226562 573.199219 1263.085938 557.824219 1253.585938 C 542.449219 1244.085938 527.304688 1234.234375 512.386719 1224.03125 C 497.46875 1213.828125 482.796875 1203.285156 468.367188 1192.402344 C 453.941406 1181.519531 439.773438 1170.304688 425.863281 1158.761719 C 411.957031 1147.222656 398.324219 1135.363281 384.964844 1123.1875 C 371.609375 1111.015625 358.542969 1098.535156 345.761719 1085.757812 C 332.984375 1072.976562 320.507812 1059.90625 308.335938 1046.542969 C 296.167969 1033.183594 284.3125 1019.550781 272.773438 1005.640625 C 261.234375 991.730469 250.023438 977.558594 239.140625 963.128906 C 228.261719 948.699219 217.71875 934.023438 207.519531 919.101562 C 197.320312 904.183594 187.472656 889.035156 177.976562 873.660156 C 168.480469 858.28125 159.34375 842.691406 150.570312 826.890625 C 141.796875 811.089844 133.394531 795.09375 125.363281 778.90625 C 117.332031 762.714844 109.683594 746.34375 102.410156 729.800781 C 95.140625 713.253906 88.257812 696.546875 81.761719 679.683594 C 75.265625 662.816406 69.164062 645.808594 63.457031 628.660156 C 57.75 611.511719 52.445312 594.242188 47.539062 576.847656 C 42.636719 559.453125 38.136719 541.953125 34.042969 524.347656 C 29.949219 506.746094 26.269531 489.054688 22.996094 471.28125 C 19.726562 453.507812 16.867188 435.664062 14.425781 417.757812 C 11.980469 399.851562 9.953125 381.898438 8.34375 363.894531 C 6.734375 345.894531 5.542969 327.867188 4.769531 309.808594 C 4.546875 305.558594 4.546875 301.3125 4.773438 297.0625 C 4.996094 292.8125 5.441406 288.589844 6.113281 284.386719 C 6.78125 280.183594 7.664062 276.03125 8.769531 271.921875 C 9.875 267.8125 11.191406 263.773438 12.71875 259.800781 C 14.25 255.832031 15.980469 251.953125 17.917969 248.164062 C 19.851562 244.375 21.980469 240.695312 24.304688 237.132812 C 26.625 233.566406 29.128906 230.132812 31.8125 226.832031 C 34.496094 223.527344 37.34375 220.375 40.355469 217.371094 L 153.128906 104.832031 C 156 101.960938 159.003906 99.238281 162.140625 96.664062 C 165.28125 94.085938 168.535156 91.671875 171.90625 89.410156 C 175.28125 87.152344 178.753906 85.066406 182.332031 83.144531 C 185.90625 81.226562 189.570312 79.484375 193.316406 77.925781 C 197.0625 76.363281 200.875 74.988281 204.757812 73.796875 C 208.636719 72.605469 212.566406 71.609375 216.546875 70.804688 C 220.523438 69.996094 224.53125 69.386719 228.570312 68.96875 C 232.605469 68.554688 236.65625 68.335938 240.714844 68.316406 L 282.078125 68.316406 C 285.191406 68.324219 288.296875 68.445312 291.398438 68.683594 C 294.5 68.921875 297.589844 69.277344 300.664062 69.75 C 303.738281 70.21875 306.789062 70.804688 309.820312 71.507812 C 312.851562 72.210938 315.851562 73.023438 318.820312 73.949219 C 321.789062 74.878906 324.722656 75.917969 327.613281 77.066406 C 330.503906 78.210938 333.347656 79.46875 336.144531 80.832031 C 338.941406 82.191406 341.683594 83.660156 344.367188 85.226562 C 347.054688 86.796875 349.675781 88.464844 352.238281 90.230469 C 354.796875 92 357.289062 93.859375 359.707031 95.8125 C 362.128906 97.769531 364.472656 99.808594 366.738281 101.941406 C 369.003906 104.070312 371.1875 106.285156 373.289062 108.582031 C 375.386719 110.875 377.398438 113.246094 379.320312 115.695312 C 381.238281 118.140625 383.066406 120.65625 384.796875 123.242188 C 386.527344 125.824219 388.160156 128.472656 389.691406 131.179688 C 391.226562 133.886719 392.652344 136.648438 393.976562 139.460938 C 395.300781 142.277344 396.515625 145.136719 397.625 148.042969 L 497.457031 413.339844 C 498.453125 416.027344 499.355469 418.746094 500.164062 421.496094 C 500.96875 424.25 501.679688 427.023438 502.296875 429.824219 C 502.910156 432.625 503.425781 435.441406 503.847656 438.277344 C 504.265625 441.113281 504.585938 443.960938 504.808594 446.820312 C 505.03125 449.675781 505.15625 452.539062 505.179688 455.40625 C 505.203125 458.273438 505.128906 461.136719 504.953125 463.996094 C 504.777344 466.859375 504.503906 469.710938 504.132812 472.554688 C 503.761719 475.394531 503.289062 478.222656 502.722656 481.03125 C 502.15625 483.84375 501.492188 486.628906 500.730469 489.394531 C 499.96875 492.15625 499.113281 494.890625 498.160156 497.59375 C 497.210938 500.300781 496.167969 502.96875 495.03125 505.601562 C 493.894531 508.234375 492.671875 510.824219 491.355469 513.371094 C 490.039062 515.917969 488.640625 518.414062 487.152344 520.867188 C 485.664062 523.316406 484.089844 525.710938 482.4375 528.054688 C 480.78125 530.394531 479.050781 532.675781 477.238281 534.898438 C 475.425781 537.117188 473.539062 539.273438 471.574219 541.363281 L 430.210938 585.039062 C 428.652344 586.683594 427.167969 588.390625 425.753906 590.15625 C 424.339844 591.925781 423.007812 593.753906 421.75 595.636719 C 420.492188 597.519531 419.320312 599.453125 418.226562 601.4375 C 417.136719 603.421875 416.132812 605.445312 415.214844 607.515625 C 414.296875 609.585938 413.46875 611.691406 412.730469 613.832031 C 411.992188 615.972656 411.34375 618.140625 410.792969 620.335938 C 410.238281 622.53125 409.78125 624.746094 409.417969 626.980469 C 409.050781 629.214844 408.785156 631.460938 408.613281 633.71875 C 408.441406 635.972656 408.363281 638.234375 408.386719 640.5 C 408.40625 642.761719 408.523438 645.023438 408.738281 647.273438 C 408.953125 649.527344 409.261719 651.769531 409.667969 653.996094 C 410.074219 656.222656 410.574219 658.429688 411.167969 660.613281 C 411.761719 662.800781 412.449219 664.953125 413.226562 667.082031 C 414.003906 669.207031 414.871094 671.296875 415.828125 673.347656 C 416.785156 675.398438 417.828125 677.40625 418.953125 679.371094 C 420.082031 681.332031 421.292969 683.246094 422.582031 685.105469 C 444.390625 716.796875 467.578125 747.445312 492.140625 777.050781 C 516.707031 806.660156 542.550781 835.101562 569.675781 862.382812 C 596.800781 889.660156 625.097656 915.667969 654.5625 940.402344 C 684.027344 965.136719 714.546875 988.496094 746.113281 1010.480469 C 747.976562 1011.695312 749.886719 1012.828125 751.84375 1013.882812 C 753.800781 1014.9375 755.796875 1015.90625 757.835938 1016.792969 C 759.875 1017.679688 761.945312 1018.480469 764.050781 1019.191406 C 766.15625 1019.90625 768.289062 1020.527344 770.445312 1021.0625 C 772.601562 1021.597656 774.777344 1022.042969 776.972656 1022.394531 C 779.167969 1022.75 781.371094 1023.007812 783.589844 1023.179688 C 785.804688 1023.347656 788.023438 1023.421875 790.246094 1023.40625 C 792.46875 1023.386719 794.6875 1023.277344 796.902344 1023.074219 C 799.113281 1022.871094 801.316406 1022.578125 803.503906 1022.191406 C 805.695312 1021.804688 807.863281 1021.328125 810.011719 1020.757812 C 812.160156 1020.191406 814.28125 1019.535156 816.375 1018.789062 C 818.46875 1018.042969 820.527344 1017.210938 822.554688 1016.292969 C 824.578125 1015.375 826.558594 1014.375 828.5 1013.292969 C 830.441406 1012.207031 832.332031 1011.046875 834.175781 1009.804688 C 836.019531 1008.5625 837.808594 1007.246094 839.542969 1005.855469 C 841.277344 1004.460938 842.949219 1003 844.558594 1001.46875 L 888.929688 959.410156 C 891.019531 957.449219 893.175781 955.5625 895.394531 953.75 C 897.617188 951.9375 899.898438 950.203125 902.238281 948.550781 C 904.582031 946.894531 906.976562 945.324219 909.425781 943.835938 C 911.875 942.347656 914.375 940.945312 916.921875 939.628906 C 919.46875 938.316406 922.058594 937.089844 924.691406 935.953125 C 927.324219 934.820312 929.992188 933.777344 932.699219 932.824219 C 935.402344 931.875 938.136719 931.019531 940.898438 930.257812 C 943.664062 929.496094 946.449219 928.832031 949.261719 928.261719 C 952.070312 927.695312 954.898438 927.226562 957.738281 926.851562 C 960.582031 926.480469 963.433594 926.207031 966.296875 926.03125 C 969.15625 925.859375 972.019531 925.78125 974.886719 925.804688 C 977.753906 925.832031 980.617188 925.953125 983.472656 926.175781 C 986.332031 926.398438 989.179688 926.71875 992.015625 927.140625 C 994.851562 927.558594 997.667969 928.074219 1000.46875 928.691406 C 1003.269531 929.304688 1006.042969 930.015625 1008.796875 930.824219 C 1011.546875 931.632812 1014.265625 932.53125 1016.953125 933.527344 L 1282.25 1033.359375 C 1285.175781 1034.445312 1288.0625 1035.636719 1290.898438 1036.9375 C 1293.738281 1038.238281 1296.523438 1039.648438 1299.253906 1041.160156 C 1301.988281 1042.671875 1304.660156 1044.285156 1307.269531 1046 C 1309.878906 1047.714844 1312.421875 1049.523438 1314.894531 1051.429688 C 1317.367188 1053.335938 1319.765625 1055.335938 1322.085938 1057.421875 C 1324.410156 1059.511719 1326.648438 1061.683594 1328.804688 1063.941406 C 1330.964844 1066.199219 1333.03125 1068.53125 1335.015625 1070.945312 C 1336.996094 1073.359375 1338.882812 1075.847656 1340.675781 1078.402344 C 1342.46875 1080.957031 1344.164062 1083.578125 1345.757812 1086.265625 C 1347.351562 1088.949219 1348.84375 1091.691406 1350.230469 1094.488281 C 1351.621094 1097.285156 1352.898438 1100.132812 1354.070312 1103.023438 C 1355.246094 1105.917969 1356.304688 1108.855469 1357.257812 1111.828125 C 1358.207031 1114.804688 1359.042969 1117.808594 1359.765625 1120.847656 C 1360.488281 1123.886719 1361.097656 1126.945312 1361.589844 1130.03125 C 1362.082031 1133.113281 1362.453125 1136.210938 1362.710938 1139.324219 C 1362.96875 1142.433594 1363.109375 1145.554688 1363.128906 1148.675781 Z M 1363.128906 1148.675781 " fill-opacity="1" fill-rule="nonzero"/></svg>