<svg xmlns="http://www.w3.org/2000/svg" xmlns:xlink="http://www.w3.org/1999/xlink" width="1920" zoomAndPan="magnify" viewBox="0 0 1440 1439.999935" height="1920" preserveAspectRatio="xMidYMid meet" version="1.0"><path fill="#ff9800" d="M 720 0 C 322.34375 0 0 322.34375 0 720 C 0 1117.65625 322.34375 1440 720 1440 C 1117.65625 1440 1440 1117.65625 1440 720 C 1440 322.34375 1117.65625 0 720 0 Z M 1008 792 L 605.808594 792 L 720 906.191406 C 748.078125 934.273438 748.078125 979.921875 720 1008 C 691.921875 1036.078125 646.273438 1036.078125 618.191406 1008 L 381.097656 770.902344 C 352.945312 742.75 352.945312 697.175781 381.097656 669.097656 L 618.191406 432 C 646.273438 403.921875 691.921875 403.921875 720 432 C 748.078125 460.078125 748.078125 505.726562 720 533.808594 L 605.808594 648 L 1008 648 C 1047.742188 648 1080 680.257812 1080 720 C 1080 759.742188 1047.742188 792 1008 792 Z M 1008 792 " fill-opacity="1" fill-rule="nonzero"/></svg>