<svg xmlns="http://www.w3.org/2000/svg" xmlns:xlink="http://www.w3.org/1999/xlink" width="1920" zoomAndPan="magnify" viewBox="0 0 1440 1439.999935" height="1920" preserveAspectRatio="xMidYMid meet" version="1.0"><defs><clipPath id="ad4d52e06f"><path d="M 54.898438 0 L 1169 0 L 1169 1440 L 54.898438 1440 Z M 54.898438 0 " clip-rule="nonzero"/></clipPath><clipPath id="d9b5b34f05"><path d="M 692.308594 31.847656 L 720 31.847656 L 720 59.597656 L 692.308594 59.597656 Z M 692.308594 31.847656 " clip-rule="nonzero"/></clipPath></defs><g clip-path="url(#ad4d52e06f)"><path fill="#ff9800" d="M 215.339844 26.269531 L 327.332031 26.269531 C 328.714844 11.0625 341.851562 0 357.058594 0 L 865.863281 0 C 881.074219 0 894.207031 11.753906 894.898438 26.269531 L 1007.582031 26.269531 C 1051.828125 26.269531 1091.230469 44.933594 1120.957031 73.277344 C 1149.992188 102.3125 1167.96875 142.410156 1167.96875 186.652344 L 1167.96875 320.078125 L 1114.734375 351.1875 L 1114.734375 187.34375 C 1114.734375 158.308594 1102.984375 130.65625 1082.9375 111.992188 C 1064.269531 92.636719 1036.617188 80.191406 1007.582031 80.191406 L 894.898438 80.191406 C 893.515625 95.402344 880.382812 107.152344 865.863281 107.152344 L 357.058594 107.152344 C 341.851562 107.152344 328.714844 95.402344 327.332031 80.191406 L 215.339844 80.191406 C 186.304688 80.191406 158.652344 91.945312 139.296875 111.992188 C 120.632812 130.65625 108.1875 158.308594 108.1875 187.34375 L 108.1875 1280.308594 C 108.1875 1309.34375 119.941406 1336.996094 139.296875 1355.660156 C 158.652344 1375.015625 185.613281 1387.460938 215.339844 1387.460938 L 1008.273438 1387.460938 C 1037.308594 1387.460938 1064.960938 1375.707031 1083.628906 1355.660156 C 1102.984375 1336.996094 1115.425781 1309.34375 1115.425781 1280.308594 L 1115.425781 605.589844 L 1168.660156 574.480469 L 1168.660156 1279.617188 C 1168.660156 1323.859375 1149.992188 1363.957031 1121.648438 1392.992188 C 1092.613281 1422.027344 1052.519531 1440 1008.273438 1440 L 215.339844 1440 C 171.097656 1440 131 1421.335938 101.964844 1392.992188 C 72.929688 1363.957031 54.957031 1323.859375 54.957031 1279.617188 L 54.957031 186.652344 C 54.957031 142.410156 72.929688 103.003906 101.964844 73.277344 C 131 44.242188 171.097656 26.269531 215.339844 26.269531 Z M 215.339844 26.269531 " fill-opacity="1" fill-rule="nonzero"/></g><path fill="#ff9800" d="M 281.707031 774.269531 C 273.410156 766.664062 273.410156 754.21875 281.707031 746.617188 C 289.3125 738.320312 301.753906 738.320312 309.359375 746.617188 L 345.308594 782.5625 L 415.128906 662.277344 C 419.96875 653.289062 432.414062 649.832031 442.089844 655.363281 C 451.078125 660.203125 454.535156 672.644531 449.003906 682.324219 L 368.121094 823.351562 C 366.738281 824.734375 366.046875 826.808594 363.972656 828.191406 C 356.367188 835.792969 343.925781 835.792969 336.320312 828.191406 L 281.707031 773.578125 Z M 281.707031 774.269531 " fill-opacity="1" fill-rule="nonzero"/><path fill="#ff9800" d="M 521.589844 772.886719 C 510.53125 772.886719 502.234375 764.589844 502.234375 753.527344 C 502.234375 742.46875 510.53125 734.171875 521.589844 734.171875 L 928.773438 734.171875 C 939.835938 734.171875 948.128906 742.46875 948.128906 753.527344 C 948.128906 764.589844 939.835938 772.886719 928.773438 772.886719 Z M 521.589844 772.886719 " fill-opacity="1" fill-rule="nonzero"/><path fill="#ff9800" d="M 281.707031 979.585938 C 273.410156 971.984375 273.410156 959.539062 281.707031 951.933594 C 289.3125 943.640625 301.753906 943.640625 309.359375 951.933594 L 345.308594 987.882812 L 415.128906 867.59375 C 419.96875 858.609375 432.414062 855.152344 442.089844 860.683594 C 451.078125 865.519531 454.535156 877.964844 449.003906 887.644531 L 368.121094 1028.671875 C 366.738281 1030.054688 366.046875 1032.125 363.972656 1033.507812 C 356.367188 1041.113281 343.925781 1041.113281 336.320312 1033.507812 L 281.707031 978.894531 Z M 281.707031 979.585938 " fill-opacity="1" fill-rule="nonzero"/><path fill="#ff9800" d="M 521.589844 978.203125 C 510.53125 978.203125 502.234375 969.910156 502.234375 958.847656 C 502.234375 947.785156 510.53125 939.492188 521.589844 939.492188 L 928.773438 939.492188 C 939.835938 939.492188 948.128906 947.785156 948.128906 958.847656 C 948.128906 969.910156 939.835938 978.203125 928.773438 978.203125 Z M 521.589844 978.203125 " fill-opacity="1" fill-rule="nonzero"/><path fill="#ff9800" d="M 281.707031 1184.90625 C 273.410156 1177.300781 273.410156 1164.859375 281.707031 1157.253906 C 289.3125 1148.957031 301.753906 1148.957031 309.359375 1157.253906 L 345.308594 1193.203125 L 415.128906 1072.914062 C 419.96875 1063.925781 432.414062 1060.46875 442.089844 1066 C 451.078125 1070.839844 454.535156 1083.285156 449.003906 1092.269531 L 368.121094 1233.988281 C 366.738281 1235.371094 366.046875 1237.445312 363.972656 1238.828125 C 356.367188 1246.433594 343.925781 1246.433594 336.320312 1238.828125 L 281.707031 1184.214844 Z M 281.707031 1184.90625 " fill-opacity="1" fill-rule="nonzero"/><path fill="#ff9800" d="M 521.589844 1183.523438 C 510.53125 1183.523438 502.234375 1175.226562 502.234375 1164.167969 C 502.234375 1153.105469 510.53125 1144.117188 521.589844 1144.117188 L 928.773438 1144.117188 C 939.835938 1144.117188 948.128906 1153.105469 948.128906 1164.167969 C 948.128906 1175.226562 939.835938 1183.523438 928.773438 1183.523438 Z M 521.589844 1183.523438 " fill-opacity="1" fill-rule="nonzero"/><path fill="#ff9800" d="M 612.152344 201.171875 C 713.085938 201.171875 794.660156 282.746094 794.660156 383.675781 C 794.660156 484.609375 713.085938 566.183594 612.152344 566.183594 C 511.222656 566.183594 429.648438 484.609375 429.648438 383.675781 C 429.648438 282.746094 511.222656 201.171875 612.152344 201.171875 Z M 612.152344 288.96875 C 641.1875 288.96875 665.382812 312.472656 665.382812 342.199219 C 665.382812 371.234375 641.878906 395.429688 612.152344 395.429688 C 583.117188 395.429688 558.921875 371.925781 558.921875 342.199219 C 558.921875 313.164062 582.425781 288.96875 612.152344 288.96875 Z M 575.515625 410.636719 L 648.792969 410.636719 C 683.359375 410.636719 711.011719 438.289062 711.011719 472.855469 L 711.011719 477.695312 L 513.296875 477.695312 L 513.296875 472.855469 C 513.296875 438.289062 540.949219 410.636719 575.515625 410.636719 Z M 575.515625 410.636719 " fill-opacity="1" fill-rule="evenodd"/><path fill="#ff9800" d="M 1319.363281 290.351562 L 1380.199219 395.429688 C 1385.039062 403.726562 1382.273438 414.09375 1373.976562 418.933594 L 1018.644531 624.253906 C 1015.1875 626.328125 1011.730469 627.019531 1007.582031 626.328125 L 911.492188 611.808594 C 905.960938 611.117188 901.8125 608.351562 899.046875 603.515625 C 896.28125 598.675781 896.28125 593.835938 897.664062 588.996094 L 932.921875 498.433594 C 934.304688 494.976562 937.070312 491.523438 940.527344 490.140625 L 1295.859375 284.820312 C 1304.15625 279.980469 1314.523438 282.746094 1319.363281 291.042969 Z M 1298.625 320.078125 C 1300.699219 324.226562 1299.316406 329.0625 1295.859375 331.136719 L 978.546875 514.335938 C 974.398438 516.410156 969.5625 515.027344 967.488281 511.570312 C 965.414062 507.421875 966.796875 502.582031 970.253906 500.507812 L 1287.5625 317.3125 C 1291.710938 315.238281 1296.550781 316.621094 1298.625 320.078125 Z M 1298.625 320.078125 " fill-opacity="1" fill-rule="evenodd"/><g clip-path="url(#d9b5b34f05)"><path fill="#ff9800" d="M 720 45.695312 C 720 46.601562 719.910156 47.503906 719.734375 48.394531 C 719.558594 49.285156 719.292969 50.152344 718.945312 50.992188 C 718.597656 51.832031 718.171875 52.628906 717.667969 53.386719 C 717.160156 54.144531 716.585938 54.84375 715.945312 55.484375 C 715.300781 56.128906 714.601562 56.703125 713.847656 57.207031 C 713.089844 57.710938 712.292969 58.140625 711.453125 58.488281 C 710.613281 58.835938 709.746094 59.097656 708.855469 59.273438 C 707.964844 59.453125 707.0625 59.542969 706.152344 59.542969 C 705.242188 59.542969 704.34375 59.453125 703.453125 59.273438 C 702.558594 59.097656 701.695312 58.835938 700.855469 58.488281 C 700.015625 58.140625 699.214844 57.710938 698.460938 57.207031 C 697.703125 56.703125 697.003906 56.128906 696.363281 55.484375 C 695.71875 54.84375 695.144531 54.144531 694.640625 53.386719 C 694.132812 52.628906 693.707031 51.832031 693.359375 50.992188 C 693.011719 50.152344 692.75 49.285156 692.570312 48.394531 C 692.394531 47.503906 692.304688 46.601562 692.304688 45.695312 C 692.304688 44.785156 692.394531 43.882812 692.570312 42.992188 C 692.75 42.101562 693.011719 41.234375 693.359375 40.394531 C 693.707031 39.554688 694.132812 38.757812 694.640625 38 C 695.144531 37.246094 695.71875 36.542969 696.363281 35.902344 C 697.003906 35.257812 697.703125 34.683594 698.460938 34.179688 C 699.214844 33.675781 700.015625 33.25 700.855469 32.898438 C 701.695312 32.550781 702.558594 32.289062 703.453125 32.113281 C 704.34375 31.933594 705.242188 31.847656 706.152344 31.847656 C 707.0625 31.847656 707.964844 31.933594 708.855469 32.113281 C 709.746094 32.289062 710.613281 32.550781 711.453125 32.898438 C 712.292969 33.25 713.089844 33.675781 713.847656 34.179688 C 714.601562 34.683594 715.300781 35.257812 715.945312 35.902344 C 716.585938 36.542969 717.160156 37.246094 717.667969 38 C 718.171875 38.757812 718.597656 39.554688 718.945312 40.394531 C 719.292969 41.234375 719.558594 42.101562 719.734375 42.992188 C 719.910156 43.882812 720 44.785156 720 45.695312 Z M 720 45.695312 " fill-opacity="1" fill-rule="nonzero"/></g></svg>