<svg xmlns="http://www.w3.org/2000/svg" xmlns:xlink="http://www.w3.org/1999/xlink" width="1920" zoomAndPan="magnify" viewBox="0 0 1440 1439.999935" height="1920" preserveAspectRatio="xMidYMid meet" version="1.0"><path fill="#ff9800" d="M 1131.703125 904.808594 L 715.429688 1321.078125 L 277.179688 1321.078125 C 153.058594 1321.078125 64.890625 1196.570312 107.859375 1078.722656 C 186.261719 864.039062 414.011719 719.808594 674.605469 719.808594 C 856.058594 719.808594 1021.417969 789.875 1131.703125 904.808594 Z M 873.085938 1435.820312 C 863.871094 1439.425781 853.472656 1429.027344 857.460938 1419.808594 L 874.078125 1321.078125 L 1201.082031 993.691406 L 1301.65625 1093.851562 L 974.625 1420.828125 Z M 1330.429688 1064.609375 L 1230.488281 964.28125 L 1261.519531 933.636719 C 1276.347656 918.808594 1299.152344 916.828125 1312.769531 930.445312 L 1362.09375 980.15625 C 1377.304688 995.367188 1376.09375 1017.402344 1360.882812 1033.414062 Z M 674.605469 688.363281 C 492.578125 688.363281 344.496094 534.121094 344.496094 344.496094 C 344.496094 154.875 492.578125 0.632812 674.605469 0.632812 C 856.636719 0.632812 1004.71875 154.875 1004.71875 344.496094 C 1004.71875 534.121094 856.636719 688.363281 674.605469 688.363281 Z M 674.605469 688.363281 " fill-opacity="1" fill-rule="nonzero"/></svg>