<svg xmlns="http://www.w3.org/2000/svg" xmlns:xlink="http://www.w3.org/1999/xlink" width="1920" zoomAndPan="magnify" viewBox="0 0 1440 1439.999935" height="1920" preserveAspectRatio="xMidYMid meet" version="1.0"><path fill="#ff9000" d="M 583.558594 2.585938 C 259.851562 6.128906 0.292969 271.484375 3.859375 595.203125 C 7.390625 918.871094 272.722656 1178.441406 596.453125 1174.886719 C 716 1173.585938 832.28125 1135.726562 929.753906 1066.414062 L 1264.550781 1401.144531 C 1302.882812 1438.980469 1364.6875 1438.585938 1402.523438 1400.203125 C 1439.972656 1362.238281 1439.972656 1301.171875 1402.523438 1263.160156 L 1067.726562 928.429688 C 1255.359375 664.644531 1193.570312 298.652344 929.753906 111.007812 C 828.6875 39.199219 707.511719 1.222656 583.558594 2.585938 Z M 576.507812 104.035156 C 843.839844 96.570312 1066.632812 307.191406 1074.101562 574.574219 C 1074.214844 579.273438 1074.316406 583.976562 1074.316406 588.667969 C 1074.417969 856.097656 857.679688 1073.003906 590.273438 1073.15625 C 322.828125 1073.257812 105.910156 856.570312 105.78125 589.113281 C 105.78125 588.972656 105.78125 588.84375 105.78125 588.691406 C 105.488281 326.304688 314.199219 111.375 576.507812 104.035156 Z M 576.507812 104.035156 " fill-opacity="1" fill-rule="nonzero"/><path fill="#ff9000" d="M 459.308594 229.558594 C 485.816406 220.078125 514.984375 233.839844 524.492188 260.347656 C 533.921875 286.660156 520.414062 315.679688 494.175781 325.390625 C 383.460938 365.683594 309.765625 470.917969 309.765625 588.71875 C 309.765625 616.894531 286.941406 639.714844 258.792969 639.714844 C 230.640625 639.714844 207.820312 616.894531 207.820312 588.71875 C 207.832031 428.050781 308.3125 284.507812 459.308594 229.558594 Z M 459.308594 229.558594 " fill-opacity="1" fill-rule="nonzero"/></svg>