<svg xmlns="http://www.w3.org/2000/svg" xmlns:xlink="http://www.w3.org/1999/xlink" width="1920" zoomAndPan="magnify" viewBox="0 0 1440 1439.999935" height="1920" preserveAspectRatio="xMidYMid meet" version="1.0"><path fill="#ff9800" d="M 720 1440 C 527.679688 1440 346.878906 1365.101562 210.878906 1229.121094 C 74.898438 1093.121094 0 912.320312 0 720 C 0 527.679688 74.898438 346.878906 210.878906 210.878906 C 346.878906 74.898438 527.679688 0 720 0 C 912.320312 0 1093.121094 74.898438 1229.121094 210.878906 C 1365.101562 346.878906 1440 527.679688 1440 720 C 1440 912.320312 1365.101562 1093.121094 1229.121094 1229.121094 C 1093.140625 1365.125 912.320312 1440 720 1440 Z M 720 109.890625 C 383.574219 109.890625 109.890625 383.59375 109.890625 720 C 109.890625 1056.425781 383.59375 1330.109375 720 1330.109375 C 1056.425781 1330.109375 1330.109375 1056.40625 1330.109375 720 C 1330.109375 383.574219 1056.425781 109.890625 720 109.890625 Z M 720 109.890625 " fill-opacity="1" fill-rule="nonzero"/><path fill="#ff9800" d="M 958.984375 998.007812 C 948.28125 998.007812 937.46875 994.878906 927.960938 988.375 L 660.300781 804.824219 C 645.332031 794.5625 636.414062 777.578125 636.433594 759.421875 L 637.125 310.273438 C 637.167969 279.960938 661.769531 255.421875 692.058594 255.421875 C 692.082031 255.421875 692.125 255.421875 692.144531 255.421875 C 722.476562 255.464844 747.035156 280.105469 746.996094 310.441406 L 746.34375 730.601562 L 990.09375 897.753906 C 1015.117188 914.925781 1021.496094 949.121094 1004.328125 974.140625 C 993.683594 989.652344 976.472656 998.007812 958.984375 998.007812 Z M 958.984375 998.007812 " fill-opacity="1" fill-rule="nonzero"/></svg>