<svg xmlns="http://www.w3.org/2000/svg" xmlns:xlink="http://www.w3.org/1999/xlink" width="1920" zoomAndPan="magnify" viewBox="0 0 1440 1439.999935" height="1920" preserveAspectRatio="xMidYMid meet" version="1.0"><defs><clipPath id="e00eb26853"><path d="M 43.199219 0 L 1396.949219 0 L 1396.949219 1440 L 43.199219 1440 Z M 43.199219 0 " clip-rule="nonzero"/></clipPath></defs><g clip-path="url(#e00eb26853)"><path fill="#ff9000" d="M 1394.550781 276.914062 C 1393.089844 273.402344 1391.019531 270.300781 1388.332031 267.609375 L 1129.128906 8.410156 C 1126.441406 5.722656 1123.339844 3.648438 1119.828125 2.191406 C 1116.296875 0.71875 1112.621094 -0.0117188 1108.796875 0 L 434.21875 0 C 432.058594 0.00390625 429.90625 0.0585938 427.75 0.167969 C 425.597656 0.277344 423.449219 0.4375 421.300781 0.652344 C 419.15625 0.867188 417.015625 1.132812 414.882812 1.449219 C 412.75 1.769531 410.628906 2.140625 408.511719 2.5625 C 406.398438 2.984375 404.292969 3.460938 402.203125 3.984375 C 400.113281 4.511719 398.035156 5.089844 395.972656 5.714844 C 393.910156 6.34375 391.863281 7.019531 389.832031 7.75 C 387.800781 8.476562 385.792969 9.253906 383.800781 10.082031 C 381.808594 10.90625 379.835938 11.78125 377.886719 12.707031 C 375.9375 13.628906 374.015625 14.597656 372.113281 15.617188 C 370.210938 16.632812 368.335938 17.699219 366.488281 18.808594 C 364.636719 19.917969 362.816406 21.070312 361.023438 22.269531 C 359.230469 23.46875 357.46875 24.710938 355.738281 25.996094 C 354.003906 27.28125 352.304688 28.605469 350.640625 29.976562 C 348.972656 31.34375 347.339844 32.75 345.742188 34.199219 C 344.144531 35.648438 342.582031 37.136719 341.058594 38.660156 C 339.535156 40.183594 338.046875 41.746094 336.597656 43.34375 C 335.148438 44.941406 333.742188 46.574219 332.375 48.242188 C 331.003906 49.90625 329.679688 51.605469 328.394531 53.339844 C 327.109375 55.070312 325.867188 56.832031 324.667969 58.625 C 323.46875 60.417969 322.316406 62.238281 321.207031 64.089844 C 320.097656 65.9375 319.03125 67.8125 318.015625 69.714844 C 316.996094 71.617188 316.027344 73.539062 315.105469 75.488281 C 314.179688 77.4375 313.304688 79.410156 312.480469 81.402344 C 311.652344 83.394531 310.875 85.402344 310.148438 87.433594 C 309.417969 89.464844 308.742188 91.511719 308.113281 93.574219 C 307.488281 95.636719 306.910156 97.714844 306.382812 99.804688 C 305.859375 101.898438 305.382812 104 304.960938 106.113281 C 304.539062 108.230469 304.167969 110.351562 303.847656 112.484375 C 303.53125 114.617188 303.265625 116.757812 303.050781 118.902344 C 302.835938 121.050781 302.675781 123.199219 302.566406 125.351562 C 302.457031 127.507812 302.402344 129.660156 302.398438 131.820312 L 302.398438 777.601562 L 119.492188 777.601562 C 118.242188 777.601562 116.996094 777.632812 115.746094 777.695312 C 114.5 777.757812 113.257812 777.851562 112.015625 777.976562 C 110.773438 778.097656 109.535156 778.253906 108.296875 778.4375 C 107.0625 778.621094 105.835938 778.835938 104.609375 779.082031 C 103.386719 779.324219 102.167969 779.601562 100.957031 779.902344 C 99.746094 780.207031 98.542969 780.542969 97.347656 780.90625 C 96.15625 781.269531 94.96875 781.660156 93.792969 782.082031 C 92.621094 782.503906 91.457031 782.953125 90.300781 783.433594 C 89.148438 783.910156 88.007812 784.417969 86.878906 784.953125 C 85.753906 785.488281 84.636719 786.046875 83.535156 786.636719 C 82.4375 787.226562 81.351562 787.84375 80.28125 788.484375 C 79.210938 789.128906 78.15625 789.796875 77.117188 790.488281 C 76.078125 791.183594 75.058594 791.902344 74.058594 792.648438 C 73.054688 793.390625 72.070312 794.160156 71.105469 794.953125 C 70.140625 795.742188 69.195312 796.558594 68.269531 797.398438 C 67.347656 798.238281 66.441406 799.097656 65.558594 799.980469 C 64.675781 800.863281 63.816406 801.765625 62.980469 802.691406 C 62.140625 803.617188 61.324219 804.5625 60.535156 805.527344 C 59.742188 806.492188 58.972656 807.476562 58.230469 808.480469 C 57.484375 809.484375 56.765625 810.503906 56.074219 811.542969 C 55.378906 812.578125 54.710938 813.632812 54.070312 814.703125 C 53.429688 815.773438 52.8125 816.859375 52.222656 817.960938 C 51.636719 819.0625 51.074219 820.175781 50.539062 821.304688 C 50.007812 822.433594 49.5 823.574219 49.023438 824.730469 C 48.542969 825.882812 48.09375 827.046875 47.671875 828.222656 C 47.253906 829.398438 46.859375 830.582031 46.496094 831.777344 C 46.132812 832.972656 45.800781 834.175781 45.496094 835.386719 C 45.195312 836.597656 44.917969 837.8125 44.675781 839.039062 C 44.429688 840.261719 44.21875 841.492188 44.03125 842.726562 C 43.847656 843.960938 43.695312 845.199219 43.574219 846.441406 C 43.449219 847.683594 43.355469 848.929688 43.292969 850.175781 C 43.234375 851.421875 43.199219 852.671875 43.199219 853.917969 L 43.199219 1162.078125 C 43.199219 1163.328125 43.234375 1164.574219 43.292969 1165.820312 C 43.355469 1167.070312 43.449219 1168.3125 43.574219 1169.554688 C 43.695312 1170.796875 43.847656 1172.035156 44.03125 1173.273438 C 44.21875 1174.507812 44.429688 1175.738281 44.675781 1176.960938 C 44.917969 1178.183594 45.195312 1179.402344 45.496094 1180.613281 C 45.800781 1181.824219 46.136719 1183.027344 46.496094 1184.222656 C 46.859375 1185.417969 47.253906 1186.601562 47.671875 1187.777344 C 48.09375 1188.953125 48.542969 1190.117188 49.023438 1191.269531 C 49.5 1192.421875 50.007812 1193.5625 50.539062 1194.691406 C 51.074219 1195.820312 51.636719 1196.9375 52.222656 1198.035156 C 52.8125 1199.136719 53.429688 1200.222656 54.070312 1201.292969 C 54.710938 1202.363281 55.378906 1203.417969 56.074219 1204.457031 C 56.765625 1205.496094 57.484375 1206.515625 58.230469 1207.519531 C 58.972656 1208.523438 59.742188 1209.503906 60.535156 1210.472656 C 61.324219 1211.4375 62.140625 1212.382812 62.980469 1213.304688 C 63.816406 1214.230469 64.675781 1215.136719 65.558594 1216.019531 C 66.441406 1216.902344 67.347656 1217.761719 68.273438 1218.601562 C 69.195312 1219.441406 70.140625 1220.253906 71.105469 1221.046875 C 72.070312 1221.839844 73.054688 1222.609375 74.058594 1223.351562 C 75.058594 1224.097656 76.078125 1224.816406 77.117188 1225.507812 C 78.15625 1226.203125 79.210938 1226.871094 80.28125 1227.511719 C 81.351562 1228.15625 82.4375 1228.773438 83.535156 1229.359375 C 84.636719 1229.949219 85.753906 1230.511719 86.878906 1231.046875 C 88.007812 1231.582031 89.148438 1232.085938 90.300781 1232.566406 C 91.457031 1233.042969 92.621094 1233.496094 93.796875 1233.914062 C 94.96875 1234.335938 96.15625 1234.730469 97.347656 1235.09375 C 98.542969 1235.457031 99.746094 1235.789062 100.957031 1236.09375 C 102.167969 1236.398438 103.386719 1236.671875 104.609375 1236.917969 C 105.835938 1237.164062 107.0625 1237.378906 108.296875 1237.5625 C 109.535156 1237.746094 110.773438 1237.898438 112.015625 1238.023438 C 113.257812 1238.148438 114.5 1238.242188 115.746094 1238.304688 C 116.996094 1238.367188 118.242188 1238.398438 119.492188 1238.398438 L 302.398438 1238.398438 L 302.398438 1308.179688 C 302.402344 1310.335938 302.457031 1312.492188 302.566406 1314.648438 C 302.675781 1316.800781 302.835938 1318.949219 303.050781 1321.097656 C 303.265625 1323.242188 303.53125 1325.382812 303.847656 1327.515625 C 304.167969 1329.648438 304.539062 1331.769531 304.960938 1333.886719 C 305.382812 1336 305.859375 1338.101562 306.382812 1340.195312 C 306.910156 1342.285156 307.488281 1344.363281 308.113281 1346.425781 C 308.742188 1348.488281 309.417969 1350.535156 310.148438 1352.566406 C 310.875 1354.597656 311.652344 1356.605469 312.480469 1358.597656 C 313.304688 1360.589844 314.179688 1362.5625 315.105469 1364.511719 C 316.027344 1366.457031 316.996094 1368.382812 318.015625 1370.285156 C 319.03125 1372.1875 320.097656 1374.0625 321.207031 1375.910156 C 322.316406 1377.761719 323.46875 1379.582031 324.667969 1381.375 C 325.867188 1383.167969 327.109375 1384.929688 328.394531 1386.660156 C 329.679688 1388.394531 331.003906 1390.09375 332.375 1391.757812 C 333.742188 1393.425781 335.148438 1395.058594 336.597656 1396.65625 C 338.046875 1398.253906 339.535156 1399.816406 341.058594 1401.339844 C 342.582031 1402.863281 344.144531 1404.351562 345.742188 1405.800781 C 347.339844 1407.246094 348.972656 1408.65625 350.640625 1410.023438 C 352.304688 1411.394531 354.003906 1412.71875 355.738281 1414.003906 C 357.46875 1415.289062 359.230469 1416.53125 361.023438 1417.730469 C 362.816406 1418.929688 364.636719 1420.082031 366.488281 1421.191406 C 368.335938 1422.300781 370.210938 1423.367188 372.113281 1424.382812 C 374.015625 1425.398438 375.9375 1426.371094 377.886719 1427.292969 C 379.835938 1428.21875 381.808594 1429.09375 383.800781 1429.917969 C 385.792969 1430.746094 387.800781 1431.523438 389.832031 1432.25 C 391.863281 1432.976562 393.910156 1433.65625 395.972656 1434.285156 C 398.035156 1434.910156 400.113281 1435.488281 402.203125 1436.015625 C 404.292969 1436.539062 406.398438 1437.015625 408.511719 1437.4375 C 410.628906 1437.859375 412.75 1438.230469 414.882812 1438.550781 C 417.015625 1438.867188 419.15625 1439.132812 421.300781 1439.347656 C 423.449219 1439.5625 425.597656 1439.722656 427.75 1439.832031 C 429.90625 1439.941406 432.058594 1439.996094 434.21875 1440 L 1264.980469 1440 C 1267.136719 1439.996094 1269.292969 1439.941406 1271.445312 1439.832031 C 1273.597656 1439.722656 1275.75 1439.5625 1277.894531 1439.347656 C 1280.042969 1439.132812 1282.179688 1438.867188 1284.3125 1438.550781 C 1286.445312 1438.230469 1288.570312 1437.859375 1290.683594 1437.4375 C 1292.800781 1437.015625 1294.902344 1436.539062 1296.992188 1436.015625 C 1299.085938 1435.488281 1301.164062 1434.910156 1303.226562 1434.285156 C 1305.289062 1433.65625 1307.335938 1432.980469 1309.367188 1432.25 C 1311.394531 1431.523438 1313.40625 1430.746094 1315.398438 1429.917969 C 1317.390625 1429.09375 1319.359375 1428.21875 1321.308594 1427.292969 C 1323.257812 1426.371094 1325.183594 1425.402344 1327.085938 1424.382812 C 1328.984375 1423.367188 1330.859375 1422.300781 1332.710938 1421.191406 C 1334.558594 1420.082031 1336.378906 1418.929688 1338.171875 1417.730469 C 1339.964844 1416.53125 1341.726562 1415.289062 1343.460938 1414.003906 C 1345.191406 1412.71875 1346.890625 1411.394531 1348.558594 1410.023438 C 1350.222656 1408.65625 1351.855469 1407.246094 1353.453125 1405.800781 C 1355.050781 1404.351562 1356.613281 1402.863281 1358.136719 1401.339844 C 1359.664062 1399.816406 1361.148438 1398.253906 1362.597656 1396.65625 C 1364.046875 1395.058594 1365.457031 1393.425781 1366.824219 1391.757812 C 1368.191406 1390.09375 1369.519531 1388.394531 1370.804688 1386.660156 C 1372.089844 1384.929688 1373.332031 1383.167969 1374.53125 1381.375 C 1375.726562 1379.582031 1376.882812 1377.761719 1377.992188 1375.910156 C 1379.101562 1374.0625 1380.164062 1372.1875 1381.183594 1370.285156 C 1382.199219 1368.382812 1383.167969 1366.460938 1384.09375 1364.511719 C 1385.015625 1362.5625 1385.890625 1360.589844 1386.71875 1358.597656 C 1387.542969 1356.605469 1388.320312 1354.597656 1389.050781 1352.566406 C 1389.777344 1350.535156 1390.457031 1348.488281 1391.082031 1346.425781 C 1391.710938 1344.363281 1392.289062 1342.285156 1392.8125 1340.195312 C 1393.339844 1338.101562 1393.8125 1336 1394.234375 1333.886719 C 1394.660156 1331.769531 1395.03125 1329.648438 1395.347656 1327.515625 C 1395.667969 1325.382812 1395.933594 1323.242188 1396.148438 1321.097656 C 1396.359375 1318.949219 1396.523438 1316.800781 1396.628906 1314.648438 C 1396.738281 1312.492188 1396.792969 1310.335938 1396.796875 1308.179688 L 1396.796875 288 C 1396.796875 284.152344 1396.046875 280.457031 1394.550781 276.914062 Z M 1137.597656 98.351562 L 1298.472656 259.199219 L 1137.597656 259.199219 Z M 100.800781 1162.078125 L 100.800781 853.917969 C 100.800781 853.308594 100.828125 852.695312 100.890625 852.085938 C 100.949219 851.476562 101.039062 850.871094 101.160156 850.269531 C 101.277344 849.671875 101.425781 849.078125 101.605469 848.492188 C 101.78125 847.90625 101.988281 847.328125 102.222656 846.761719 C 102.457031 846.195312 102.71875 845.644531 103.007812 845.101562 C 103.292969 844.5625 103.609375 844.039062 103.949219 843.527344 C 104.289062 843.019531 104.652344 842.527344 105.042969 842.054688 C 105.429688 841.578125 105.839844 841.125 106.273438 840.691406 C 106.707031 840.257812 107.160156 839.847656 107.632812 839.460938 C 108.105469 839.070312 108.597656 838.707031 109.105469 838.363281 C 109.613281 838.023438 110.136719 837.707031 110.679688 837.417969 C 111.21875 837.128906 111.769531 836.867188 112.335938 836.632812 C 112.902344 836.398438 113.476562 836.191406 114.0625 836.011719 C 114.648438 835.835938 115.242188 835.683594 115.84375 835.5625 C 116.445312 835.445312 117.046875 835.351562 117.65625 835.292969 C 118.269531 835.230469 118.878906 835.199219 119.492188 835.199219 L 888.449219 835.199219 C 889.0625 835.199219 889.671875 835.230469 890.28125 835.292969 C 890.890625 835.351562 891.496094 835.445312 892.097656 835.5625 C 892.699219 835.683594 893.292969 835.835938 893.878906 836.011719 C 894.464844 836.191406 895.039062 836.398438 895.605469 836.632812 C 896.171875 836.867188 896.722656 837.128906 897.261719 837.417969 C 897.804688 837.707031 898.328125 838.023438 898.835938 838.363281 C 899.34375 838.707031 899.835938 839.070312 900.308594 839.460938 C 900.78125 839.847656 901.234375 840.257812 901.667969 840.691406 C 902.101562 841.125 902.511719 841.578125 902.898438 842.054688 C 903.289062 842.527344 903.652344 843.019531 903.992188 843.527344 C 904.332031 844.039062 904.644531 844.5625 904.933594 845.101562 C 905.222656 845.644531 905.484375 846.195312 905.71875 846.761719 C 905.953125 847.328125 906.160156 847.90625 906.335938 848.492188 C 906.515625 849.078125 906.664062 849.671875 906.78125 850.269531 C 906.902344 850.871094 906.992188 851.476562 907.050781 852.085938 C 907.109375 852.695312 907.140625 853.308594 907.140625 853.917969 L 907.140625 1162.078125 C 907.140625 1162.691406 907.109375 1163.304688 907.050781 1163.914062 C 906.992188 1164.523438 906.902344 1165.128906 906.78125 1165.726562 C 906.664062 1166.328125 906.515625 1166.921875 906.335938 1167.507812 C 906.160156 1168.09375 905.953125 1168.671875 905.71875 1169.234375 C 905.484375 1169.800781 905.222656 1170.355469 904.933594 1170.894531 C 904.644531 1171.4375 904.332031 1171.960938 903.992188 1172.46875 C 903.652344 1172.980469 903.289062 1173.472656 902.898438 1173.945312 C 902.511719 1174.417969 902.101562 1174.871094 901.667969 1175.304688 C 901.234375 1175.738281 900.78125 1176.152344 900.308594 1176.539062 C 899.835938 1176.929688 899.34375 1177.292969 898.835938 1177.632812 C 898.328125 1177.976562 897.800781 1178.289062 897.261719 1178.578125 C 896.722656 1178.867188 896.171875 1179.128906 895.605469 1179.367188 C 895.039062 1179.601562 894.464844 1179.808594 893.878906 1179.988281 C 893.292969 1180.164062 892.699219 1180.3125 892.097656 1180.433594 C 891.496094 1180.554688 890.890625 1180.644531 890.28125 1180.707031 C 889.671875 1180.765625 889.0625 1180.796875 888.449219 1180.800781 L 119.492188 1180.800781 C 118.878906 1180.796875 118.265625 1180.765625 117.65625 1180.707031 C 117.046875 1180.644531 116.445312 1180.554688 115.84375 1180.433594 C 115.242188 1180.3125 114.648438 1180.164062 114.0625 1179.984375 C 113.476562 1179.808594 112.902344 1179.601562 112.335938 1179.367188 C 111.769531 1179.128906 111.21875 1178.867188 110.679688 1178.578125 C 110.136719 1178.289062 109.613281 1177.976562 109.105469 1177.632812 C 108.59375 1177.292969 108.105469 1176.929688 107.632812 1176.539062 C 107.160156 1176.152344 106.707031 1175.738281 106.273438 1175.304688 C 105.839844 1174.871094 105.429688 1174.417969 105.042969 1173.945312 C 104.652344 1173.472656 104.289062 1172.980469 103.949219 1172.46875 C 103.609375 1171.960938 103.292969 1171.4375 103.007812 1170.894531 C 102.71875 1170.355469 102.457031 1169.800781 102.222656 1169.234375 C 101.988281 1168.671875 101.78125 1168.09375 101.605469 1167.507812 C 101.425781 1166.921875 101.277344 1166.328125 101.160156 1165.726562 C 101.039062 1165.125 100.949219 1164.523438 100.890625 1163.910156 C 100.828125 1163.300781 100.800781 1162.691406 100.800781 1162.078125 Z M 1264.980469 1382.398438 L 434.21875 1382.398438 C 433.003906 1382.398438 431.789062 1382.367188 430.578125 1382.304688 C 429.363281 1382.242188 428.152344 1382.152344 426.945312 1382.035156 C 425.738281 1381.914062 424.53125 1381.761719 423.332031 1381.582031 C 422.128906 1381.40625 420.933594 1381.195312 419.742188 1380.957031 C 418.554688 1380.71875 417.367188 1380.453125 416.191406 1380.15625 C 415.011719 1379.863281 413.84375 1379.535156 412.683594 1379.183594 C 411.519531 1378.832031 410.367188 1378.449219 409.226562 1378.039062 C 408.082031 1377.628906 406.949219 1377.191406 405.828125 1376.726562 C 404.707031 1376.261719 403.597656 1375.769531 402.5 1375.25 C 401.402344 1374.730469 400.320312 1374.183594 399.25 1373.609375 C 398.175781 1373.035156 397.121094 1372.4375 396.082031 1371.8125 C 395.039062 1371.1875 394.011719 1370.539062 393.003906 1369.863281 C 391.996094 1369.191406 391.003906 1368.488281 390.027344 1367.765625 C 389.050781 1367.042969 388.09375 1366.296875 387.15625 1365.527344 C 386.21875 1364.753906 385.300781 1363.960938 384.398438 1363.148438 C 383.5 1362.332031 382.621094 1361.492188 381.761719 1360.636719 C 380.902344 1359.777344 380.066406 1358.898438 379.25 1358 C 378.4375 1357.097656 377.644531 1356.179688 376.871094 1355.242188 C 376.101562 1354.300781 375.355469 1353.34375 374.632812 1352.371094 C 373.90625 1351.394531 373.207031 1350.402344 372.535156 1349.394531 C 371.859375 1348.382812 371.210938 1347.359375 370.585938 1346.316406 C 369.960938 1345.277344 369.359375 1344.21875 368.789062 1343.148438 C 368.214844 1342.078125 367.667969 1340.996094 367.148438 1339.898438 C 366.628906 1338.800781 366.136719 1337.691406 365.671875 1336.570312 C 365.207031 1335.449219 364.769531 1334.316406 364.359375 1333.171875 C 363.949219 1332.03125 363.566406 1330.878906 363.214844 1329.714844 C 362.859375 1328.554688 362.535156 1327.382812 362.242188 1326.207031 C 361.945312 1325.027344 361.675781 1323.84375 361.441406 1322.65625 C 361.203125 1321.464844 360.992188 1320.269531 360.8125 1319.066406 C 360.632812 1317.867188 360.484375 1316.660156 360.363281 1315.453125 C 360.246094 1314.246094 360.152344 1313.035156 360.09375 1311.820312 C 360.03125 1310.609375 360 1309.394531 360 1308.179688 L 360 1238.398438 L 888.507812 1238.398438 C 889.753906 1238.398438 891.003906 1238.367188 892.25 1238.304688 C 893.496094 1238.238281 894.742188 1238.148438 895.984375 1238.023438 C 897.226562 1237.898438 898.464844 1237.746094 899.699219 1237.5625 C 900.933594 1237.378906 902.164062 1237.164062 903.386719 1236.917969 C 904.613281 1236.671875 905.832031 1236.398438 907.042969 1236.09375 C 908.25 1235.789062 909.453125 1235.457031 910.648438 1235.09375 C 911.84375 1234.730469 913.027344 1234.335938 914.203125 1233.914062 C 915.378906 1233.496094 916.542969 1233.042969 917.695312 1232.566406 C 918.847656 1232.085938 919.988281 1231.582031 921.117188 1231.046875 C 922.246094 1230.511719 923.359375 1229.949219 924.460938 1229.359375 C 925.5625 1228.773438 926.648438 1228.15625 927.71875 1227.511719 C 928.789062 1226.871094 929.84375 1226.203125 930.882812 1225.507812 C 931.917969 1224.816406 932.9375 1224.097656 933.941406 1223.351562 C 934.945312 1222.609375 935.925781 1221.839844 936.890625 1221.046875 C 937.855469 1220.253906 938.800781 1219.441406 939.726562 1218.601562 C 940.652344 1217.761719 941.554688 1216.902344 942.4375 1216.019531 C 943.320312 1215.136719 944.179688 1214.230469 945.019531 1213.304688 C 945.859375 1212.382812 946.671875 1211.4375 947.464844 1210.46875 C 948.257812 1209.503906 949.023438 1208.519531 949.769531 1207.519531 C 950.511719 1206.515625 951.230469 1205.496094 951.925781 1204.457031 C 952.617188 1203.417969 953.285156 1202.363281 953.929688 1201.292969 C 954.570312 1200.222656 955.183594 1199.136719 955.773438 1198.035156 C 956.363281 1196.9375 956.925781 1195.820312 957.457031 1194.691406 C 957.992188 1193.5625 958.5 1192.421875 958.976562 1191.269531 C 959.453125 1190.117188 959.902344 1188.953125 960.324219 1187.777344 C 960.746094 1186.601562 961.136719 1185.417969 961.5 1184.222656 C 961.863281 1183.027344 962.195312 1181.824219 962.5 1180.613281 C 962.804688 1179.402344 963.078125 1178.183594 963.324219 1176.960938 C 963.566406 1175.734375 963.78125 1174.507812 963.964844 1173.273438 C 964.148438 1172.035156 964.300781 1170.796875 964.425781 1169.554688 C 964.546875 1168.3125 964.640625 1167.070312 964.703125 1165.820312 C 964.765625 1164.574219 964.796875 1163.328125 964.796875 1162.078125 L 964.796875 853.917969 C 964.796875 852.671875 964.765625 851.421875 964.703125 850.175781 C 964.640625 848.929688 964.550781 847.683594 964.425781 846.441406 C 964.300781 845.199219 964.148438 843.960938 963.964844 842.726562 C 963.78125 841.492188 963.566406 840.261719 963.324219 839.039062 C 963.078125 837.8125 962.804688 836.597656 962.5 835.386719 C 962.195312 834.175781 961.863281 832.972656 961.5 831.777344 C 961.136719 830.582031 960.746094 829.398438 960.324219 828.222656 C 959.902344 827.046875 959.453125 825.882812 958.976562 824.730469 C 958.496094 823.574219 957.992188 822.433594 957.457031 821.304688 C 956.925781 820.175781 956.363281 819.0625 955.773438 817.960938 C 955.183594 816.859375 954.570312 815.773438 953.929688 814.703125 C 953.285156 813.632812 952.617188 812.578125 951.925781 811.542969 C 951.230469 810.503906 950.511719 809.484375 949.769531 808.480469 C 949.023438 807.476562 948.257812 806.492188 947.464844 805.527344 C 946.671875 804.5625 945.859375 803.617188 945.019531 802.691406 C 944.179688 801.765625 943.320312 800.863281 942.4375 799.980469 C 941.554688 799.097656 940.652344 798.238281 939.726562 797.398438 C 938.800781 796.558594 937.855469 795.742188 936.890625 794.953125 C 935.925781 794.160156 934.945312 793.390625 933.941406 792.648438 C 932.9375 791.902344 931.917969 791.183594 930.878906 790.488281 C 929.84375 789.796875 928.789062 789.128906 927.71875 788.484375 C 926.648438 787.84375 925.5625 787.226562 924.460938 786.636719 C 923.359375 786.046875 922.246094 785.488281 921.117188 784.953125 C 919.988281 784.417969 918.847656 783.910156 917.695312 783.433594 C 916.542969 782.953125 915.378906 782.503906 914.203125 782.082031 C 913.027344 781.660156 911.84375 781.269531 910.648438 780.90625 C 909.453125 780.542969 908.25 780.207031 907.039062 779.902344 C 905.832031 779.601562 904.613281 779.324219 903.386719 779.082031 C 902.164062 778.835938 900.933594 778.621094 899.699219 778.4375 C 898.464844 778.253906 897.226562 778.097656 895.984375 777.976562 C 894.742188 777.851562 893.496094 777.757812 892.25 777.695312 C 891.003906 777.632812 889.753906 777.601562 888.507812 777.601562 L 360 777.601562 L 360 131.820312 C 360 130.605469 360.03125 129.390625 360.09375 128.179688 C 360.152344 126.964844 360.246094 125.753906 360.363281 124.546875 C 360.484375 123.339844 360.632812 122.132812 360.8125 120.933594 C 360.992188 119.730469 361.203125 118.535156 361.441406 117.34375 C 361.675781 116.15625 361.945312 114.96875 362.242188 113.792969 C 362.535156 112.617188 362.859375 111.445312 363.214844 110.285156 C 363.566406 109.121094 363.949219 107.96875 364.359375 106.828125 C 364.769531 105.683594 365.207031 104.550781 365.671875 103.429688 C 366.136719 102.308594 366.628906 101.199219 367.148438 100.101562 C 367.667969 99.003906 368.214844 97.921875 368.789062 96.851562 C 369.359375 95.777344 369.960938 94.722656 370.585938 93.683594 C 371.210938 92.640625 371.859375 91.617188 372.535156 90.605469 C 373.207031 89.597656 373.90625 88.605469 374.632812 87.628906 C 375.355469 86.652344 376.101562 85.695312 376.871094 84.757812 C 377.644531 83.820312 378.4375 82.902344 379.25 82 C 380.066406 81.101562 380.902344 80.222656 381.761719 79.363281 C 382.621094 78.503906 383.5 77.667969 384.398438 76.851562 C 385.300781 76.039062 386.21875 75.246094 387.15625 74.472656 C 388.09375 73.703125 389.050781 72.957031 390.027344 72.234375 C 391.003906 71.507812 391.996094 70.808594 393.003906 70.136719 C 394.011719 69.460938 395.039062 68.8125 396.082031 68.1875 C 397.121094 67.5625 398.175781 66.960938 399.246094 66.390625 C 400.320312 65.816406 401.402344 65.269531 402.5 64.75 C 403.597656 64.230469 404.707031 63.738281 405.828125 63.273438 C 406.949219 62.808594 408.082031 62.371094 409.226562 61.960938 C 410.367188 61.550781 411.519531 61.167969 412.683594 60.816406 C 413.84375 60.460938 415.011719 60.136719 416.191406 59.84375 C 417.367188 59.546875 418.554688 59.28125 419.742188 59.042969 C 420.933594 58.804688 422.128906 58.59375 423.332031 58.414062 C 424.53125 58.234375 425.738281 58.085938 426.945312 57.964844 C 428.152344 57.847656 429.363281 57.753906 430.578125 57.695312 C 431.789062 57.632812 433.003906 57.601562 434.21875 57.601562 L 1080 57.601562 L 1080 288 C 1080 288.945312 1080.042969 289.886719 1080.136719 290.824219 C 1080.230469 291.761719 1080.367188 292.695312 1080.550781 293.621094 C 1080.734375 294.542969 1080.964844 295.457031 1081.238281 296.359375 C 1081.511719 297.261719 1081.828125 298.152344 1082.191406 299.023438 C 1082.550781 299.894531 1082.953125 300.746094 1083.398438 301.578125 C 1083.84375 302.410156 1084.328125 303.214844 1084.851562 304 C 1085.375 304.785156 1085.9375 305.542969 1086.535156 306.269531 C 1087.132812 307 1087.765625 307.699219 1088.433594 308.367188 C 1089.101562 309.03125 1089.796875 309.664062 1090.527344 310.261719 C 1091.257812 310.863281 1092.011719 311.421875 1092.796875 311.945312 C 1093.582031 312.472656 1094.390625 312.957031 1095.222656 313.398438 C 1096.054688 313.84375 1096.90625 314.246094 1097.777344 314.609375 C 1098.648438 314.96875 1099.535156 315.285156 1100.4375 315.558594 C 1101.339844 315.835938 1102.253906 316.0625 1103.179688 316.246094 C 1104.105469 316.429688 1105.035156 316.570312 1105.976562 316.660156 C 1106.914062 316.753906 1107.855469 316.800781 1108.796875 316.800781 L 1339.199219 316.800781 L 1339.199219 1308.179688 C 1339.195312 1309.394531 1339.164062 1310.609375 1339.105469 1311.820312 C 1339.042969 1313.035156 1338.953125 1314.246094 1338.832031 1315.453125 C 1338.710938 1316.660156 1338.5625 1317.867188 1338.382812 1319.066406 C 1338.203125 1320.269531 1337.996094 1321.464844 1337.757812 1322.65625 C 1337.519531 1323.84375 1337.253906 1325.027344 1336.957031 1326.207031 C 1336.660156 1327.382812 1336.335938 1328.554688 1335.984375 1329.714844 C 1335.628906 1330.878906 1335.246094 1332.03125 1334.835938 1333.171875 C 1334.429688 1334.316406 1333.992188 1335.449219 1333.523438 1336.570312 C 1333.058594 1337.691406 1332.566406 1338.800781 1332.046875 1339.898438 C 1331.527344 1340.996094 1330.980469 1342.078125 1330.410156 1343.148438 C 1329.835938 1344.21875 1329.238281 1345.277344 1328.613281 1346.316406 C 1327.988281 1347.359375 1327.339844 1348.382812 1326.664062 1349.394531 C 1325.988281 1350.402344 1325.289062 1351.394531 1324.566406 1352.371094 C 1323.839844 1353.34375 1323.09375 1354.300781 1322.324219 1355.242188 C 1321.554688 1356.179688 1320.761719 1357.097656 1319.945312 1358 C 1319.128906 1358.898438 1318.292969 1359.777344 1317.433594 1360.636719 C 1316.574219 1361.492188 1315.695312 1362.332031 1314.796875 1363.144531 C 1313.898438 1363.960938 1312.976562 1364.753906 1312.039062 1365.527344 C 1311.101562 1366.296875 1310.144531 1367.042969 1309.167969 1367.765625 C 1308.195312 1368.488281 1307.203125 1369.1875 1306.191406 1369.863281 C 1305.183594 1370.539062 1304.15625 1371.1875 1303.117188 1371.8125 C 1302.074219 1372.4375 1301.019531 1373.035156 1299.949219 1373.609375 C 1298.878906 1374.183594 1297.792969 1374.730469 1296.695312 1375.25 C 1295.597656 1375.769531 1294.488281 1376.261719 1293.367188 1376.726562 C 1292.246094 1377.191406 1291.113281 1377.628906 1289.972656 1378.039062 C 1288.828125 1378.449219 1287.675781 1378.828125 1286.515625 1379.183594 C 1285.351562 1379.535156 1284.183594 1379.863281 1283.003906 1380.15625 C 1281.828125 1380.453125 1280.644531 1380.71875 1279.453125 1380.957031 C 1278.261719 1381.195312 1277.066406 1381.40625 1275.867188 1381.585938 C 1274.664062 1381.761719 1273.460938 1381.914062 1272.253906 1382.035156 C 1271.042969 1382.152344 1269.832031 1382.246094 1268.621094 1382.304688 C 1267.40625 1382.367188 1266.195312 1382.398438 1264.980469 1382.398438 Z M 1264.980469 1382.398438 " fill-opacity="1" fill-rule="nonzero"/></g><path fill="#ff9000" d="M 504 374.402344 L 907.199219 374.402344 C 908.140625 374.402344 909.082031 374.355469 910.019531 374.261719 C 910.960938 374.167969 911.890625 374.03125 912.816406 373.847656 C 913.742188 373.664062 914.65625 373.433594 915.558594 373.160156 C 916.460938 372.886719 917.347656 372.570312 918.21875 372.207031 C 919.089844 371.847656 919.941406 371.445312 920.773438 371 C 921.605469 370.554688 922.414062 370.070312 923.199219 369.546875 C 923.984375 369.023438 924.738281 368.460938 925.46875 367.863281 C 926.199219 367.265625 926.894531 366.632812 927.5625 365.964844 C 928.230469 365.296875 928.863281 364.601562 929.460938 363.871094 C 930.058594 363.140625 930.621094 362.386719 931.144531 361.601562 C 931.667969 360.816406 932.152344 360.007812 932.597656 359.175781 C 933.042969 358.34375 933.445312 357.492188 933.804688 356.621094 C 934.167969 355.75 934.484375 354.863281 934.757812 353.960938 C 935.03125 353.058594 935.261719 352.144531 935.445312 351.21875 C 935.628906 350.292969 935.765625 349.363281 935.859375 348.421875 C 935.953125 347.484375 936 346.542969 936 345.601562 C 936 344.65625 935.953125 343.714844 935.859375 342.777344 C 935.765625 341.839844 935.628906 340.90625 935.445312 339.980469 C 935.261719 339.058594 935.03125 338.144531 934.757812 337.242188 C 934.484375 336.335938 934.167969 335.449219 933.804688 334.578125 C 933.445312 333.707031 933.042969 332.855469 932.597656 332.023438 C 932.152344 331.191406 931.667969 330.382812 931.144531 329.601562 C 930.621094 328.816406 930.058594 328.058594 929.460938 327.328125 C 928.863281 326.601562 928.230469 325.902344 927.5625 325.234375 C 926.894531 324.570312 926.199219 323.9375 925.46875 323.335938 C 924.738281 322.738281 923.984375 322.179688 923.199219 321.652344 C 922.414062 321.128906 921.605469 320.644531 920.773438 320.203125 C 919.941406 319.757812 919.089844 319.355469 918.21875 318.992188 C 917.347656 318.632812 916.460938 318.316406 915.558594 318.039062 C 914.65625 317.765625 913.742188 317.539062 912.816406 317.355469 C 911.890625 317.171875 910.960938 317.03125 910.019531 316.9375 C 909.082031 316.847656 908.140625 316.800781 907.199219 316.800781 L 504 316.800781 C 503.054688 316.800781 502.113281 316.847656 501.175781 316.9375 C 500.238281 317.03125 499.304688 317.171875 498.378906 317.355469 C 497.457031 317.539062 496.542969 317.765625 495.640625 318.039062 C 494.734375 318.316406 493.847656 318.632812 492.976562 318.992188 C 492.105469 319.355469 491.253906 319.757812 490.421875 320.203125 C 489.589844 320.644531 488.78125 321.128906 488 321.652344 C 487.214844 322.179688 486.457031 322.738281 485.730469 323.335938 C 485 323.9375 484.300781 324.570312 483.632812 325.234375 C 482.96875 325.902344 482.335938 326.601562 481.738281 327.328125 C 481.136719 328.058594 480.578125 328.816406 480.054688 329.601562 C 479.527344 330.382812 479.042969 331.191406 478.601562 332.023438 C 478.15625 332.855469 477.753906 333.707031 477.390625 334.578125 C 477.03125 335.449219 476.714844 336.335938 476.4375 337.242188 C 476.164062 338.144531 475.9375 339.058594 475.753906 339.980469 C 475.570312 340.90625 475.429688 341.839844 475.339844 342.777344 C 475.246094 343.714844 475.199219 344.65625 475.199219 345.601562 C 475.199219 346.542969 475.246094 347.484375 475.339844 348.421875 C 475.429688 349.363281 475.570312 350.292969 475.753906 351.21875 C 475.9375 352.144531 476.164062 353.058594 476.4375 353.960938 C 476.714844 354.863281 477.03125 355.75 477.390625 356.621094 C 477.753906 357.492188 478.15625 358.34375 478.601562 359.175781 C 479.042969 360.007812 479.527344 360.816406 480.054688 361.601562 C 480.578125 362.386719 481.136719 363.140625 481.738281 363.871094 C 482.335938 364.601562 482.96875 365.296875 483.632812 365.964844 C 484.300781 366.632812 485 367.265625 485.730469 367.863281 C 486.457031 368.460938 487.214844 369.023438 488 369.546875 C 488.78125 370.070312 489.589844 370.554688 490.421875 371 C 491.253906 371.445312 492.105469 371.847656 492.976562 372.207031 C 493.847656 372.570312 494.734375 372.886719 495.640625 373.160156 C 496.542969 373.433594 497.457031 373.664062 498.378906 373.847656 C 499.304688 374.03125 500.238281 374.167969 501.175781 374.261719 C 502.113281 374.355469 503.054688 374.402344 504 374.402344 Z M 504 374.402344 " fill-opacity="1" fill-rule="nonzero"/><path fill="#ff9000" d="M 504 230.402344 L 907.199219 230.402344 C 908.140625 230.402344 909.082031 230.355469 910.019531 230.261719 C 910.960938 230.167969 911.890625 230.03125 912.816406 229.847656 C 913.742188 229.664062 914.65625 229.433594 915.558594 229.160156 C 916.460938 228.886719 917.347656 228.570312 918.21875 228.207031 C 919.089844 227.847656 919.941406 227.445312 920.773438 227 C 921.605469 226.554688 922.414062 226.070312 923.199219 225.546875 C 923.984375 225.023438 924.738281 224.460938 925.46875 223.863281 C 926.199219 223.265625 926.894531 222.632812 927.5625 221.964844 C 928.230469 221.296875 928.863281 220.601562 929.460938 219.871094 C 930.058594 219.140625 930.621094 218.386719 931.144531 217.601562 C 931.667969 216.816406 932.152344 216.007812 932.597656 215.175781 C 933.042969 214.34375 933.445312 213.492188 933.804688 212.621094 C 934.167969 211.75 934.484375 210.863281 934.757812 209.960938 C 935.03125 209.058594 935.261719 208.144531 935.445312 207.21875 C 935.628906 206.292969 935.765625 205.363281 935.859375 204.421875 C 935.953125 203.484375 936 202.542969 936 201.601562 C 936 200.65625 935.953125 199.714844 935.859375 198.777344 C 935.765625 197.839844 935.628906 196.90625 935.445312 195.980469 C 935.261719 195.058594 935.03125 194.144531 934.757812 193.242188 C 934.484375 192.339844 934.167969 191.449219 933.804688 190.578125 C 933.445312 189.707031 933.042969 188.855469 932.597656 188.023438 C 932.152344 187.191406 931.667969 186.382812 931.144531 185.601562 C 930.621094 184.816406 930.058594 184.058594 929.460938 183.332031 C 928.863281 182.601562 928.230469 181.902344 927.5625 181.234375 C 926.894531 180.570312 926.199219 179.9375 925.46875 179.339844 C 924.738281 178.738281 923.984375 178.179688 923.199219 177.65625 C 922.414062 177.128906 921.605469 176.644531 920.773438 176.203125 C 919.941406 175.757812 919.089844 175.355469 918.21875 174.992188 C 917.347656 174.632812 916.460938 174.316406 915.558594 174.039062 C 914.65625 173.765625 913.742188 173.539062 912.816406 173.355469 C 911.890625 173.171875 910.960938 173.03125 910.019531 172.941406 C 909.082031 172.847656 908.140625 172.800781 907.199219 172.800781 L 504 172.800781 C 503.054688 172.800781 502.113281 172.847656 501.175781 172.941406 C 500.238281 173.03125 499.304688 173.171875 498.378906 173.355469 C 497.457031 173.539062 496.542969 173.765625 495.640625 174.039062 C 494.734375 174.316406 493.847656 174.632812 492.976562 174.992188 C 492.105469 175.355469 491.253906 175.757812 490.421875 176.203125 C 489.589844 176.644531 488.78125 177.128906 488 177.65625 C 487.214844 178.179688 486.457031 178.738281 485.730469 179.339844 C 485 179.9375 484.300781 180.570312 483.632812 181.234375 C 482.96875 181.902344 482.335938 182.601562 481.738281 183.332031 C 481.136719 184.058594 480.578125 184.816406 480.054688 185.601562 C 479.527344 186.382812 479.042969 187.191406 478.601562 188.023438 C 478.15625 188.855469 477.753906 189.707031 477.390625 190.578125 C 477.03125 191.449219 476.714844 192.339844 476.4375 193.242188 C 476.164062 194.144531 475.9375 195.058594 475.753906 195.980469 C 475.570312 196.90625 475.429688 197.839844 475.339844 198.777344 C 475.246094 199.714844 475.199219 200.65625 475.199219 201.601562 C 475.199219 202.542969 475.246094 203.484375 475.339844 204.421875 C 475.429688 205.363281 475.570312 206.292969 475.753906 207.21875 C 475.9375 208.144531 476.164062 209.058594 476.4375 209.960938 C 476.714844 210.863281 477.03125 211.75 477.390625 212.621094 C 477.753906 213.492188 478.15625 214.34375 478.601562 215.175781 C 479.042969 216.007812 479.527344 216.816406 480.054688 217.601562 C 480.578125 218.386719 481.136719 219.140625 481.738281 219.871094 C 482.335938 220.601562 482.96875 221.296875 483.632812 221.964844 C 484.300781 222.632812 485 223.265625 485.730469 223.863281 C 486.457031 224.460938 487.214844 225.023438 488 225.546875 C 488.78125 226.070312 489.589844 226.554688 490.421875 227 C 491.253906 227.445312 492.105469 227.847656 492.976562 228.207031 C 493.847656 228.570312 494.734375 228.886719 495.640625 229.160156 C 496.542969 229.433594 497.457031 229.664062 498.378906 229.847656 C 499.304688 230.03125 500.238281 230.167969 501.175781 230.261719 C 502.113281 230.355469 503.054688 230.402344 504 230.402344 Z M 504 230.402344 " fill-opacity="1" fill-rule="nonzero"/><path fill="#ff9000" d="M 1195.199219 460.800781 L 504 460.800781 C 503.054688 460.800781 502.113281 460.847656 501.175781 460.9375 C 500.238281 461.03125 499.304688 461.167969 498.378906 461.355469 C 497.457031 461.539062 496.542969 461.765625 495.640625 462.039062 C 494.734375 462.3125 493.847656 462.632812 492.976562 462.992188 C 492.105469 463.351562 491.253906 463.757812 490.421875 464.199219 C 489.589844 464.644531 488.78125 465.128906 488 465.652344 C 487.214844 466.179688 486.457031 466.738281 485.730469 467.335938 C 485 467.9375 484.300781 468.570312 483.632812 469.234375 C 482.96875 469.902344 482.335938 470.601562 481.738281 471.328125 C 481.136719 472.058594 480.578125 472.816406 480.054688 473.601562 C 479.527344 474.382812 479.042969 475.191406 478.601562 476.023438 C 478.15625 476.855469 477.753906 477.707031 477.390625 478.578125 C 477.03125 479.449219 476.714844 480.335938 476.4375 481.238281 C 476.164062 482.144531 475.9375 483.054688 475.753906 483.980469 C 475.570312 484.90625 475.429688 485.839844 475.339844 486.777344 C 475.246094 487.714844 475.199219 488.65625 475.199219 489.601562 C 475.199219 490.542969 475.246094 491.484375 475.339844 492.421875 C 475.429688 493.363281 475.570312 494.292969 475.753906 495.21875 C 475.9375 496.144531 476.164062 497.058594 476.4375 497.960938 C 476.714844 498.863281 477.03125 499.75 477.390625 500.621094 C 477.753906 501.492188 478.15625 502.34375 478.601562 503.175781 C 479.042969 504.007812 479.527344 504.816406 480.054688 505.601562 C 480.578125 506.386719 481.136719 507.140625 481.738281 507.871094 C 482.335938 508.601562 482.96875 509.296875 483.632812 509.964844 C 484.300781 510.632812 485 511.265625 485.730469 511.863281 C 486.457031 512.460938 487.214844 513.023438 488 513.546875 C 488.78125 514.070312 489.589844 514.554688 490.421875 515 C 491.253906 515.445312 492.105469 515.847656 492.976562 516.207031 C 493.847656 516.570312 494.734375 516.886719 495.640625 517.160156 C 496.542969 517.433594 497.457031 517.664062 498.378906 517.847656 C 499.304688 518.03125 500.238281 518.167969 501.175781 518.261719 C 502.113281 518.355469 503.054688 518.398438 504 518.398438 L 1195.199219 518.398438 C 1196.140625 518.398438 1197.082031 518.355469 1198.019531 518.261719 C 1198.960938 518.167969 1199.890625 518.03125 1200.816406 517.847656 C 1201.742188 517.664062 1202.65625 517.433594 1203.558594 517.160156 C 1204.460938 516.886719 1205.347656 516.570312 1206.21875 516.207031 C 1207.089844 515.847656 1207.941406 515.445312 1208.773438 515 C 1209.605469 514.554688 1210.414062 514.070312 1211.199219 513.546875 C 1211.984375 513.023438 1212.738281 512.460938 1213.46875 511.863281 C 1214.199219 511.265625 1214.894531 510.632812 1215.5625 509.964844 C 1216.230469 509.296875 1216.863281 508.601562 1217.460938 507.871094 C 1218.058594 507.140625 1218.621094 506.386719 1219.144531 505.601562 C 1219.667969 504.816406 1220.152344 504.007812 1220.597656 503.175781 C 1221.042969 502.34375 1221.445312 501.492188 1221.804688 500.621094 C 1222.167969 499.75 1222.484375 498.863281 1222.757812 497.960938 C 1223.03125 497.058594 1223.261719 496.144531 1223.445312 495.21875 C 1223.628906 494.292969 1223.765625 493.363281 1223.859375 492.421875 C 1223.953125 491.484375 1223.996094 490.542969 1223.996094 489.601562 C 1223.996094 488.65625 1223.953125 487.714844 1223.859375 486.777344 C 1223.765625 485.839844 1223.628906 484.90625 1223.445312 483.980469 C 1223.261719 483.054688 1223.03125 482.144531 1222.757812 481.238281 C 1222.484375 480.335938 1222.167969 479.449219 1221.804688 478.578125 C 1221.445312 477.707031 1221.042969 476.855469 1220.597656 476.023438 C 1220.152344 475.191406 1219.667969 474.382812 1219.144531 473.601562 C 1218.621094 472.816406 1218.058594 472.058594 1217.460938 471.328125 C 1216.863281 470.601562 1216.230469 469.902344 1215.5625 469.234375 C 1214.894531 468.570312 1214.199219 467.9375 1213.46875 467.335938 C 1212.738281 466.738281 1211.984375 466.179688 1211.199219 465.652344 C 1210.414062 465.128906 1209.605469 464.644531 1208.773438 464.199219 C 1207.941406 463.757812 1207.089844 463.351562 1206.21875 462.992188 C 1205.347656 462.632812 1204.460938 462.3125 1203.558594 462.039062 C 1202.65625 461.765625 1201.742188 461.539062 1200.816406 461.355469 C 1199.890625 461.167969 1198.960938 461.03125 1198.019531 460.9375 C 1197.082031 460.847656 1196.140625 460.800781 1195.199219 460.800781 Z M 1195.199219 460.800781 " fill-opacity="1" fill-rule="nonzero"/><path fill="#ff9000" d="M 1195.199219 604.800781 L 504 604.800781 C 503.054688 604.800781 502.113281 604.847656 501.175781 604.9375 C 500.238281 605.03125 499.304688 605.167969 498.378906 605.351562 C 497.457031 605.539062 496.542969 605.765625 495.640625 606.039062 C 494.734375 606.3125 493.847656 606.632812 492.976562 606.992188 C 492.105469 607.351562 491.253906 607.757812 490.421875 608.199219 C 489.589844 608.644531 488.78125 609.128906 488 609.652344 C 487.214844 610.175781 486.457031 610.738281 485.730469 611.335938 C 485 611.9375 484.300781 612.570312 483.632812 613.234375 C 482.96875 613.902344 482.335938 614.601562 481.738281 615.328125 C 481.136719 616.058594 480.578125 616.816406 480.054688 617.597656 C 479.527344 618.382812 479.042969 619.191406 478.601562 620.023438 C 478.15625 620.855469 477.753906 621.707031 477.390625 622.578125 C 477.03125 623.449219 476.714844 624.335938 476.4375 625.238281 C 476.164062 626.140625 475.9375 627.054688 475.753906 627.980469 C 475.570312 628.90625 475.429688 629.839844 475.339844 630.777344 C 475.246094 631.714844 475.199219 632.65625 475.199219 633.601562 C 475.199219 634.542969 475.246094 635.484375 475.339844 636.421875 C 475.429688 637.363281 475.570312 638.292969 475.753906 639.21875 C 475.9375 640.144531 476.164062 641.058594 476.4375 641.960938 C 476.714844 642.863281 477.03125 643.75 477.390625 644.621094 C 477.753906 645.492188 478.15625 646.34375 478.601562 647.175781 C 479.042969 648.007812 479.527344 648.816406 480.054688 649.601562 C 480.578125 650.382812 481.136719 651.140625 481.738281 651.871094 C 482.335938 652.597656 482.96875 653.296875 483.632812 653.964844 C 484.300781 654.632812 485 655.265625 485.730469 655.863281 C 486.457031 656.460938 487.214844 657.023438 488 657.546875 C 488.78125 658.070312 489.589844 658.554688 490.421875 659 C 491.253906 659.445312 492.105469 659.847656 492.976562 660.207031 C 493.847656 660.570312 494.734375 660.886719 495.640625 661.160156 C 496.542969 661.433594 497.457031 661.664062 498.378906 661.847656 C 499.304688 662.03125 500.238281 662.167969 501.175781 662.261719 C 502.113281 662.355469 503.054688 662.398438 504 662.398438 L 1195.199219 662.398438 C 1196.140625 662.398438 1197.082031 662.355469 1198.019531 662.261719 C 1198.960938 662.167969 1199.890625 662.03125 1200.816406 661.847656 C 1201.742188 661.664062 1202.65625 661.433594 1203.558594 661.160156 C 1204.460938 660.886719 1205.347656 660.570312 1206.21875 660.207031 C 1207.089844 659.847656 1207.941406 659.445312 1208.773438 659 C 1209.605469 658.554688 1210.414062 658.070312 1211.199219 657.546875 C 1211.984375 657.023438 1212.738281 656.460938 1213.46875 655.863281 C 1214.199219 655.265625 1214.894531 654.632812 1215.5625 653.964844 C 1216.230469 653.296875 1216.863281 652.597656 1217.460938 651.871094 C 1218.058594 651.140625 1218.621094 650.382812 1219.144531 649.601562 C 1219.667969 648.816406 1220.152344 648.007812 1220.597656 647.175781 C 1221.042969 646.34375 1221.445312 645.492188 1221.804688 644.621094 C 1222.167969 643.75 1222.484375 642.863281 1222.757812 641.960938 C 1223.03125 641.058594 1223.261719 640.144531 1223.445312 639.21875 C 1223.628906 638.292969 1223.765625 637.363281 1223.859375 636.421875 C 1223.953125 635.484375 1223.996094 634.542969 1223.996094 633.601562 C 1223.996094 632.65625 1223.953125 631.714844 1223.859375 630.777344 C 1223.765625 629.839844 1223.628906 628.90625 1223.445312 627.980469 C 1223.261719 627.054688 1223.03125 626.140625 1222.757812 625.238281 C 1222.484375 624.335938 1222.167969 623.449219 1221.804688 622.578125 C 1221.445312 621.707031 1221.042969 620.855469 1220.597656 620.023438 C 1220.152344 619.191406 1219.667969 618.382812 1219.144531 617.597656 C 1218.621094 616.816406 1218.058594 616.058594 1217.460938 615.328125 C 1216.863281 614.601562 1216.230469 613.902344 1215.5625 613.234375 C 1214.894531 612.570312 1214.199219 611.9375 1213.46875 611.335938 C 1212.738281 610.738281 1211.984375 610.175781 1211.199219 609.652344 C 1210.414062 609.128906 1209.605469 608.644531 1208.773438 608.199219 C 1207.941406 607.757812 1207.089844 607.351562 1206.21875 606.992188 C 1205.347656 606.632812 1204.460938 606.3125 1203.558594 606.039062 C 1202.65625 605.765625 1201.742188 605.539062 1200.816406 605.351562 C 1199.890625 605.167969 1198.960938 605.03125 1198.019531 604.9375 C 1197.082031 604.847656 1196.140625 604.800781 1195.199219 604.800781 Z M 1195.199219 604.800781 " fill-opacity="1" fill-rule="nonzero"/><path fill="#ff9000" d="M 360 921.597656 C 360 920.65625 359.953125 919.714844 359.859375 918.777344 C 359.769531 917.835938 359.628906 916.90625 359.445312 915.980469 C 359.261719 915.054688 359.03125 914.140625 358.757812 913.238281 C 358.484375 912.335938 358.167969 911.449219 357.808594 910.578125 C 357.445312 909.707031 357.042969 908.855469 356.597656 908.023438 C 356.152344 907.191406 355.667969 906.382812 355.144531 905.597656 C 354.621094 904.816406 354.058594 904.058594 353.460938 903.328125 C 352.863281 902.601562 352.230469 901.902344 351.5625 901.234375 C 350.898438 900.566406 350.199219 899.933594 349.46875 899.335938 C 348.742188 898.738281 347.984375 898.175781 347.199219 897.652344 C 346.414062 897.128906 345.609375 896.644531 344.777344 896.199219 C 343.945312 895.753906 343.09375 895.351562 342.21875 894.992188 C 341.347656 894.628906 340.460938 894.3125 339.558594 894.039062 C 338.65625 893.765625 337.742188 893.535156 336.816406 893.351562 C 335.894531 893.167969 334.960938 893.03125 334.023438 892.9375 C 333.082031 892.847656 332.144531 892.800781 331.199219 892.800781 L 216 892.800781 C 215.054688 892.800781 214.117188 892.847656 213.175781 892.9375 C 212.238281 893.03125 211.304688 893.167969 210.382812 893.351562 C 209.457031 893.535156 208.542969 893.765625 207.640625 894.039062 C 206.738281 894.3125 205.851562 894.628906 204.976562 894.992188 C 204.105469 895.351562 203.253906 895.753906 202.421875 896.199219 C 201.589844 896.644531 200.785156 897.128906 200 897.652344 C 199.214844 898.175781 198.457031 898.738281 197.730469 899.335938 C 197 899.933594 196.300781 900.566406 195.636719 901.234375 C 194.96875 901.902344 194.335938 902.601562 193.738281 903.328125 C 193.136719 904.058594 192.578125 904.816406 192.054688 905.597656 C 191.53125 906.382812 191.046875 907.191406 190.601562 908.023438 C 190.15625 908.855469 189.753906 909.707031 189.390625 910.578125 C 189.03125 911.449219 188.714844 912.335938 188.441406 913.238281 C 188.167969 914.140625 187.9375 915.054688 187.753906 915.980469 C 187.570312 916.90625 187.429688 917.835938 187.339844 918.777344 C 187.246094 919.714844 187.199219 920.65625 187.199219 921.597656 C 187.199219 922.542969 187.246094 923.484375 187.339844 924.421875 C 187.429688 925.359375 187.570312 926.292969 187.753906 927.21875 C 187.9375 928.144531 188.167969 929.058594 188.441406 929.960938 C 188.714844 930.863281 189.03125 931.75 189.390625 932.621094 C 189.753906 933.492188 190.15625 934.34375 190.601562 935.175781 C 191.046875 936.007812 191.53125 936.816406 192.054688 937.601562 C 192.578125 938.382812 193.136719 939.140625 193.738281 939.871094 C 194.335938 940.597656 194.96875 941.296875 195.636719 941.964844 C 196.300781 942.632812 197 943.265625 197.730469 943.863281 C 198.457031 944.460938 199.214844 945.023438 200 945.546875 C 200.785156 946.070312 201.589844 946.554688 202.421875 947 C 203.253906 947.441406 204.105469 947.847656 204.976562 948.207031 C 205.851562 948.566406 206.738281 948.886719 207.640625 949.160156 C 208.542969 949.433594 209.457031 949.660156 210.382812 949.847656 C 211.304688 950.03125 212.238281 950.167969 213.175781 950.261719 C 214.117188 950.351562 215.054688 950.398438 216 950.398438 L 244.800781 950.398438 L 244.800781 1094.398438 C 244.800781 1095.34375 244.847656 1096.285156 244.9375 1097.222656 C 245.03125 1098.160156 245.167969 1099.09375 245.351562 1100.015625 C 245.535156 1100.941406 245.765625 1101.855469 246.039062 1102.757812 C 246.3125 1103.660156 246.632812 1104.550781 246.992188 1105.421875 C 247.351562 1106.292969 247.753906 1107.144531 248.199219 1107.976562 C 248.644531 1108.808594 249.128906 1109.613281 249.652344 1110.398438 C 250.175781 1111.183594 250.738281 1111.941406 251.335938 1112.667969 C 251.933594 1113.398438 252.566406 1114.097656 253.234375 1114.765625 C 253.902344 1115.429688 254.601562 1116.0625 255.328125 1116.660156 C 256.058594 1117.261719 256.816406 1117.820312 257.597656 1118.34375 C 258.382812 1118.871094 259.191406 1119.355469 260.023438 1119.796875 C 260.855469 1120.242188 261.707031 1120.644531 262.578125 1121.007812 C 263.449219 1121.367188 264.335938 1121.683594 265.238281 1121.957031 C 266.140625 1122.234375 267.054688 1122.460938 267.980469 1122.644531 C 268.90625 1122.828125 269.839844 1122.96875 270.777344 1123.058594 C 271.714844 1123.152344 272.65625 1123.199219 273.597656 1123.199219 C 274.542969 1123.199219 275.484375 1123.152344 276.421875 1123.058594 C 277.359375 1122.96875 278.292969 1122.828125 279.21875 1122.644531 C 280.144531 1122.460938 281.058594 1122.234375 281.960938 1121.957031 C 282.863281 1121.683594 283.75 1121.367188 284.621094 1121.007812 C 285.492188 1120.644531 286.34375 1120.242188 287.175781 1119.796875 C 288.007812 1119.355469 288.816406 1118.871094 289.601562 1118.34375 C 290.382812 1117.820312 291.140625 1117.261719 291.871094 1116.660156 C 292.597656 1116.0625 293.296875 1115.429688 293.964844 1114.765625 C 294.632812 1114.097656 295.265625 1113.398438 295.863281 1112.667969 C 296.460938 1111.941406 297.023438 1111.183594 297.546875 1110.398438 C 298.070312 1109.613281 298.554688 1108.808594 299 1107.976562 C 299.445312 1107.144531 299.847656 1106.292969 300.207031 1105.421875 C 300.566406 1104.550781 300.886719 1103.660156 301.160156 1102.757812 C 301.433594 1101.855469 301.660156 1100.941406 301.847656 1100.015625 C 302.03125 1099.09375 302.167969 1098.160156 302.261719 1097.222656 C 302.351562 1096.285156 302.398438 1095.34375 302.398438 1094.398438 L 302.398438 950.398438 L 331.199219 950.398438 C 332.144531 950.398438 333.082031 950.351562 334.023438 950.261719 C 334.960938 950.167969 335.894531 950.03125 336.816406 949.847656 C 337.742188 949.660156 338.65625 949.433594 339.558594 949.160156 C 340.460938 948.886719 341.347656 948.566406 342.21875 948.207031 C 343.09375 947.847656 343.945312 947.441406 344.777344 947 C 345.609375 946.554688 346.414062 946.070312 347.199219 945.546875 C 347.984375 945.023438 348.742188 944.460938 349.46875 943.863281 C 350.199219 943.265625 350.898438 942.632812 351.5625 941.964844 C 352.230469 941.296875 352.863281 940.597656 353.460938 939.871094 C 354.058594 939.140625 354.621094 938.382812 355.144531 937.601562 C 355.667969 936.816406 356.152344 936.007812 356.597656 935.175781 C 357.042969 934.34375 357.445312 933.492188 357.808594 932.621094 C 358.167969 931.75 358.484375 930.863281 358.757812 929.960938 C 359.03125 929.058594 359.261719 928.144531 359.445312 927.21875 C 359.628906 926.292969 359.769531 925.359375 359.859375 924.421875 C 359.953125 923.484375 360 922.542969 360 921.597656 Z M 360 921.597656 " fill-opacity="1" fill-rule="nonzero"/><path fill="#ff9000" d="M 676.796875 950.398438 L 705.597656 950.398438 L 705.597656 1094.398438 C 705.597656 1095.34375 705.644531 1096.285156 705.738281 1097.222656 C 705.828125 1098.160156 705.96875 1099.09375 706.152344 1100.015625 C 706.335938 1100.941406 706.566406 1101.855469 706.839844 1102.757812 C 707.113281 1103.660156 707.429688 1104.550781 707.789062 1105.421875 C 708.152344 1106.292969 708.554688 1107.144531 709 1107.976562 C 709.445312 1108.808594 709.929688 1109.613281 710.453125 1110.398438 C 710.976562 1111.183594 711.539062 1111.941406 712.136719 1112.667969 C 712.734375 1113.398438 713.367188 1114.097656 714.035156 1114.765625 C 714.699219 1115.429688 715.398438 1116.0625 716.128906 1116.660156 C 716.855469 1117.261719 717.613281 1117.820312 718.398438 1118.34375 C 719.183594 1118.871094 719.992188 1119.355469 720.824219 1119.796875 C 721.65625 1120.242188 722.507812 1120.644531 723.378906 1121.007812 C 724.25 1121.367188 725.136719 1121.683594 726.039062 1121.957031 C 726.941406 1122.234375 727.855469 1122.460938 728.78125 1122.644531 C 729.707031 1122.828125 730.636719 1122.96875 731.574219 1123.058594 C 732.515625 1123.152344 733.457031 1123.199219 734.398438 1123.199219 C 735.34375 1123.199219 736.28125 1123.152344 737.222656 1123.058594 C 738.160156 1122.96875 739.09375 1122.828125 740.015625 1122.644531 C 740.941406 1122.460938 741.855469 1122.234375 742.757812 1121.957031 C 743.660156 1121.683594 744.546875 1121.367188 745.417969 1121.007812 C 746.292969 1120.644531 747.144531 1120.242188 747.976562 1119.796875 C 748.808594 1119.355469 749.613281 1118.871094 750.398438 1118.34375 C 751.183594 1117.820312 751.941406 1117.261719 752.667969 1116.660156 C 753.398438 1116.0625 754.097656 1115.429688 754.761719 1114.765625 C 755.429688 1114.097656 756.0625 1113.398438 756.660156 1112.667969 C 757.261719 1111.941406 757.820312 1111.183594 758.34375 1110.398438 C 758.867188 1109.613281 759.351562 1108.808594 759.796875 1107.976562 C 760.242188 1107.144531 760.644531 1106.292969 761.007812 1105.421875 C 761.367188 1104.550781 761.683594 1103.660156 761.957031 1102.757812 C 762.230469 1101.855469 762.460938 1100.941406 762.644531 1100.015625 C 762.828125 1099.09375 762.96875 1098.160156 763.058594 1097.222656 C 763.152344 1096.285156 763.199219 1095.34375 763.199219 1094.398438 L 763.199219 950.398438 L 792 950.398438 C 792.941406 950.398438 793.882812 950.351562 794.820312 950.261719 C 795.761719 950.167969 796.691406 950.03125 797.617188 949.847656 C 798.542969 949.660156 799.457031 949.433594 800.359375 949.160156 C 801.261719 948.886719 802.148438 948.566406 803.019531 948.207031 C 803.890625 947.847656 804.742188 947.441406 805.574219 947 C 806.40625 946.554688 807.214844 946.070312 808 945.546875 C 808.785156 945.023438 809.539062 944.460938 810.269531 943.863281 C 811 943.265625 811.695312 942.632812 812.363281 941.964844 C 813.03125 941.296875 813.664062 940.597656 814.261719 939.871094 C 814.859375 939.140625 815.421875 938.382812 815.945312 937.601562 C 816.46875 936.816406 816.953125 936.007812 817.398438 935.175781 C 817.84375 934.34375 818.246094 933.492188 818.605469 932.621094 C 818.96875 931.75 819.285156 930.863281 819.558594 929.960938 C 819.832031 929.058594 820.0625 928.144531 820.246094 927.21875 C 820.429688 926.292969 820.566406 925.359375 820.660156 924.421875 C 820.753906 923.484375 820.796875 922.542969 820.796875 921.597656 C 820.796875 920.65625 820.753906 919.714844 820.660156 918.777344 C 820.566406 917.835938 820.429688 916.90625 820.246094 915.980469 C 820.0625 915.054688 819.832031 914.140625 819.558594 913.238281 C 819.285156 912.335938 818.96875 911.449219 818.605469 910.578125 C 818.246094 909.707031 817.84375 908.855469 817.398438 908.023438 C 816.953125 907.191406 816.46875 906.382812 815.945312 905.597656 C 815.421875 904.816406 814.859375 904.058594 814.261719 903.328125 C 813.664062 902.601562 813.03125 901.902344 812.363281 901.234375 C 811.695312 900.566406 811 899.933594 810.269531 899.335938 C 809.539062 898.738281 808.78125 898.175781 808 897.652344 C 807.214844 897.128906 806.40625 896.644531 805.574219 896.199219 C 804.742188 895.753906 803.890625 895.351562 803.019531 894.992188 C 802.148438 894.628906 801.261719 894.3125 800.359375 894.039062 C 799.457031 893.765625 798.542969 893.535156 797.617188 893.351562 C 796.691406 893.167969 795.761719 893.03125 794.820312 892.9375 C 793.882812 892.847656 792.941406 892.800781 792 892.800781 L 676.796875 892.800781 C 675.855469 892.800781 674.914062 892.847656 673.976562 892.9375 C 673.039062 893.03125 672.105469 893.167969 671.179688 893.351562 C 670.253906 893.535156 669.339844 893.765625 668.4375 894.039062 C 667.535156 894.3125 666.648438 894.628906 665.777344 894.992188 C 664.90625 895.351562 664.054688 895.753906 663.222656 896.199219 C 662.390625 896.644531 661.582031 897.128906 660.796875 897.652344 C 660.015625 898.175781 659.257812 898.738281 658.527344 899.335938 C 657.800781 899.933594 657.101562 900.566406 656.433594 901.234375 C 655.765625 901.902344 655.132812 902.601562 654.535156 903.328125 C 653.9375 904.058594 653.375 904.816406 652.851562 905.597656 C 652.328125 906.382812 651.84375 907.191406 651.398438 908.023438 C 650.953125 908.855469 650.550781 909.707031 650.191406 910.578125 C 649.828125 911.449219 649.511719 912.335938 649.238281 913.238281 C 648.964844 914.140625 648.734375 915.054688 648.550781 915.980469 C 648.367188 916.90625 648.230469 917.835938 648.136719 918.777344 C 648.046875 919.714844 648 920.65625 648 921.597656 C 648 922.542969 648.046875 923.484375 648.136719 924.421875 C 648.230469 925.359375 648.367188 926.292969 648.550781 927.21875 C 648.734375 928.144531 648.964844 929.058594 649.238281 929.960938 C 649.511719 930.863281 649.832031 931.75 650.191406 932.621094 C 650.550781 933.492188 650.953125 934.34375 651.398438 935.175781 C 651.84375 936.007812 652.328125 936.816406 652.851562 937.601562 C 653.375 938.382812 653.9375 939.140625 654.535156 939.871094 C 655.132812 940.597656 655.765625 941.296875 656.433594 941.964844 C 657.101562 942.632812 657.800781 943.265625 658.527344 943.863281 C 659.257812 944.460938 660.015625 945.023438 660.796875 945.546875 C 661.582031 946.070312 662.390625 946.554688 663.222656 947 C 664.054688 947.441406 664.90625 947.847656 665.777344 948.207031 C 666.648438 948.566406 667.535156 948.886719 668.4375 949.160156 C 669.339844 949.433594 670.253906 949.660156 671.179688 949.847656 C 672.105469 950.03125 673.039062 950.167969 673.976562 950.261719 C 674.914062 950.351562 675.855469 950.398438 676.796875 950.398438 Z M 676.796875 950.398438 " fill-opacity="1" fill-rule="nonzero"/><path fill="#ff9000" d="M 413.539062 1116.515625 C 414.261719 1117.125 415.015625 1117.691406 415.796875 1118.222656 C 416.578125 1118.753906 417.382812 1119.246094 418.210938 1119.699219 C 419.042969 1120.152344 419.890625 1120.5625 420.761719 1120.929688 C 421.628906 1121.300781 422.515625 1121.625 423.417969 1121.90625 C 424.320312 1122.1875 425.230469 1122.425781 426.15625 1122.617188 C 427.082031 1122.808594 428.015625 1122.953125 428.953125 1123.054688 C 429.894531 1123.152344 430.835938 1123.207031 431.777344 1123.214844 C 432.722656 1123.222656 433.667969 1123.183594 434.605469 1123.097656 C 435.546875 1123.011719 436.480469 1122.882812 437.410156 1122.703125 C 438.335938 1122.527344 439.253906 1122.304688 440.160156 1122.035156 C 441.066406 1121.769531 441.957031 1121.457031 442.832031 1121.101562 C 443.707031 1120.746094 444.5625 1120.351562 445.398438 1119.910156 C 446.234375 1119.472656 447.046875 1118.992188 447.835938 1118.472656 C 448.625 1117.953125 449.386719 1117.398438 450.121094 1116.800781 C 450.855469 1116.207031 451.558594 1115.578125 452.230469 1114.914062 C 452.902344 1114.253906 453.542969 1113.558594 454.144531 1112.832031 L 504 1052.984375 L 553.851562 1112.832031 C 554.457031 1113.554688 555.09375 1114.25 555.765625 1114.914062 C 556.4375 1115.574219 557.140625 1116.203125 557.875 1116.796875 C 558.605469 1117.390625 559.367188 1117.945312 560.15625 1118.464844 C 560.945312 1118.980469 561.757812 1119.460938 562.589844 1119.898438 C 563.425781 1120.339844 564.28125 1120.734375 565.15625 1121.089844 C 566.03125 1121.445312 566.917969 1121.753906 567.824219 1122.023438 C 568.730469 1122.289062 569.644531 1122.511719 570.570312 1122.691406 C 571.496094 1122.867188 572.429688 1123 573.371094 1123.085938 C 574.308594 1123.171875 575.25 1123.210938 576.195312 1123.203125 C 577.136719 1123.199219 578.078125 1123.144531 579.019531 1123.046875 C 579.957031 1122.945312 580.886719 1122.800781 581.8125 1122.613281 C 582.734375 1122.421875 583.648438 1122.1875 584.546875 1121.90625 C 585.449219 1121.625 586.335938 1121.300781 587.203125 1120.933594 C 588.074219 1120.566406 588.921875 1120.160156 589.75 1119.707031 C 590.578125 1119.257812 591.386719 1118.769531 592.164062 1118.238281 C 592.945312 1117.707031 593.699219 1117.140625 594.425781 1116.539062 C 595.148438 1115.933594 595.84375 1115.296875 596.507812 1114.625 C 597.167969 1113.953125 597.796875 1113.25 598.390625 1112.519531 C 598.984375 1111.785156 599.539062 1111.023438 600.058594 1110.234375 C 600.578125 1109.449219 601.054688 1108.636719 601.496094 1107.800781 C 601.933594 1106.964844 602.332031 1106.113281 602.6875 1105.238281 C 603.042969 1104.363281 603.355469 1103.472656 603.621094 1102.570312 C 603.890625 1101.664062 604.113281 1100.75 604.289062 1099.824219 C 604.46875 1098.894531 604.601562 1097.964844 604.6875 1097.023438 C 604.773438 1096.085938 604.8125 1095.140625 604.804688 1094.199219 C 604.800781 1093.253906 604.746094 1092.316406 604.648438 1091.375 C 604.550781 1090.4375 604.40625 1089.507812 604.214844 1088.582031 C 604.023438 1087.660156 603.789062 1086.746094 603.507812 1085.84375 C 603.230469 1084.945312 602.90625 1084.058594 602.539062 1083.191406 C 602.171875 1082.320312 601.765625 1081.472656 601.3125 1080.640625 C 600.863281 1079.8125 600.375 1079.007812 599.84375 1078.226562 C 599.316406 1077.445312 598.75 1076.691406 598.144531 1075.96875 L 541.4375 1008 L 598.089844 940.03125 C 598.691406 939.304688 599.257812 938.554688 599.789062 937.773438 C 600.316406 936.992188 600.804688 936.1875 601.257812 935.355469 C 601.707031 934.527344 602.117188 933.679688 602.480469 932.808594 C 602.847656 931.941406 603.171875 931.054688 603.453125 930.152344 C 603.730469 929.253906 603.96875 928.339844 604.15625 927.414062 C 604.347656 926.492188 604.492188 925.5625 604.589844 924.621094 C 604.6875 923.683594 604.742188 922.742188 604.75 921.800781 C 604.753906 920.855469 604.714844 919.914062 604.628906 918.976562 C 604.542969 918.035156 604.410156 917.101562 604.230469 916.175781 C 604.054688 915.25 603.832031 914.332031 603.5625 913.429688 C 603.296875 912.523438 602.984375 911.636719 602.628906 910.761719 C 602.273438 909.886719 601.878906 909.03125 601.4375 908.195312 C 601 907.363281 600.519531 906.550781 600 905.761719 C 599.484375 904.976562 598.925781 904.214844 598.332031 903.480469 C 597.738281 902.746094 597.109375 902.042969 596.449219 901.371094 C 595.785156 900.699219 595.09375 900.0625 594.367188 899.460938 C 593.640625 898.855469 592.890625 898.289062 592.109375 897.761719 C 591.328125 897.230469 590.523438 896.742188 589.691406 896.289062 C 588.863281 895.839844 588.015625 895.429688 587.144531 895.0625 C 586.277344 894.695312 585.390625 894.375 584.492188 894.09375 C 583.589844 893.8125 582.675781 893.578125 581.753906 893.386719 C 580.828125 893.195312 579.898438 893.050781 578.960938 892.953125 C 578.023438 892.855469 577.082031 892.800781 576.136719 892.792969 C 575.195312 892.789062 574.253906 892.828125 573.3125 892.914062 C 572.375 893 571.441406 893.128906 570.511719 893.308594 C 569.585938 893.484375 568.671875 893.707031 567.765625 893.976562 C 566.863281 894.242188 565.972656 894.554688 565.097656 894.910156 C 564.222656 895.265625 563.367188 895.660156 562.535156 896.097656 C 561.699219 896.539062 560.886719 897.015625 560.097656 897.535156 C 559.3125 898.054688 558.550781 898.609375 557.816406 899.203125 C 557.082031 899.796875 556.378906 900.425781 555.707031 901.085938 C 555.035156 901.75 554.398438 902.441406 553.792969 903.167969 L 504 963.015625 L 454.144531 903.167969 C 453.542969 902.441406 452.90625 901.75 452.234375 901.085938 C 451.5625 900.425781 450.859375 899.796875 450.125 899.203125 C 449.390625 898.609375 448.628906 898.054688 447.84375 897.535156 C 447.054688 897.015625 446.242188 896.539062 445.40625 896.097656 C 444.570312 895.660156 443.71875 895.265625 442.84375 894.910156 C 441.96875 894.554688 441.078125 894.242188 440.175781 893.976562 C 439.269531 893.707031 438.355469 893.484375 437.425781 893.308594 C 436.5 893.128906 435.566406 893 434.628906 892.914062 C 433.6875 892.828125 432.746094 892.789062 431.804688 892.792969 C 430.859375 892.800781 429.917969 892.855469 428.980469 892.953125 C 428.042969 893.050781 427.109375 893.195312 426.1875 893.386719 C 425.261719 893.578125 424.351562 893.8125 423.449219 894.09375 C 422.546875 894.375 421.664062 894.695312 420.792969 895.0625 C 419.925781 895.429688 419.078125 895.839844 418.246094 896.289062 C 417.417969 896.742188 416.613281 897.230469 415.832031 897.761719 C 415.050781 898.289062 414.300781 898.855469 413.574219 899.460938 C 412.847656 900.0625 412.15625 900.699219 411.492188 901.371094 C 410.828125 902.042969 410.203125 902.746094 409.609375 903.480469 C 409.015625 904.214844 408.457031 904.976562 407.9375 905.761719 C 407.421875 906.550781 406.941406 907.363281 406.503906 908.195312 C 406.0625 909.03125 405.667969 909.886719 405.3125 910.761719 C 404.957031 911.636719 404.644531 912.523438 404.375 913.429688 C 404.109375 914.332031 403.886719 915.25 403.707031 916.175781 C 403.53125 917.101562 403.398438 918.035156 403.3125 918.976562 C 403.226562 919.914062 403.1875 920.855469 403.191406 921.800781 C 403.199219 922.742188 403.25 923.683594 403.351562 924.621094 C 403.449219 925.5625 403.59375 926.492188 403.785156 927.414062 C 403.972656 928.339844 404.207031 929.253906 404.488281 930.152344 C 404.769531 931.054688 405.089844 931.941406 405.457031 932.808594 C 405.824219 933.679688 406.234375 934.527344 406.683594 935.355469 C 407.132812 936.1875 407.625 936.992188 408.152344 937.773438 C 408.683594 938.554688 409.25 939.304688 409.851562 940.03125 L 466.558594 1008 L 409.910156 1075.96875 C 409.304688 1076.691406 408.738281 1077.441406 408.207031 1078.222656 C 407.675781 1079 407.1875 1079.804688 406.734375 1080.632812 C 406.28125 1081.460938 405.875 1082.308594 405.503906 1083.175781 C 405.136719 1084.042969 404.8125 1084.925781 404.53125 1085.828125 C 404.25 1086.726562 404.011719 1087.636719 403.820312 1088.558594 C 403.628906 1089.484375 403.480469 1090.414062 403.382812 1091.351562 C 403.28125 1092.289062 403.226562 1093.226562 403.21875 1094.171875 C 403.207031 1095.113281 403.246094 1096.054688 403.332031 1096.992188 C 403.414062 1097.933594 403.542969 1098.863281 403.71875 1099.792969 C 403.894531 1100.71875 404.117188 1101.632812 404.382812 1102.539062 C 404.648438 1103.441406 404.957031 1104.332031 405.308594 1105.207031 C 405.664062 1106.078125 406.058594 1106.933594 406.492188 1107.769531 C 406.929688 1108.605469 407.40625 1109.417969 407.925781 1110.207031 C 408.441406 1110.996094 408.996094 1111.757812 409.585938 1112.492188 C 410.175781 1113.226562 410.804688 1113.929688 411.464844 1114.601562 C 412.125 1115.273438 412.816406 1115.914062 413.539062 1116.515625 Z M 413.539062 1116.515625 " fill-opacity="1" fill-rule="nonzero"/></svg>