<svg xmlns="http://www.w3.org/2000/svg" xmlns:xlink="http://www.w3.org/1999/xlink" width="1920" zoomAndPan="magnify" viewBox="0 0 1440 1439.999935" height="1920" preserveAspectRatio="xMidYMid meet" version="1.0"><defs><clipPath id="be24dafed8"><path d="M 799.617188 765.691406 L 827.367188 765.691406 L 827.367188 793.441406 L 799.617188 793.441406 Z M 799.617188 765.691406 " clip-rule="nonzero"/></clipPath><clipPath id="0d8ade6748"><path d="M 0 146.101562 L 1440 146.101562 L 1440 1293.601562 L 0 1293.601562 Z M 0 146.101562 " clip-rule="nonzero"/></clipPath></defs><g clip-path="url(#be24dafed8)"><path fill="#ff9800" d="M 827.308594 779.539062 C 827.308594 780.449219 827.21875 781.347656 827.042969 782.242188 C 826.863281 783.132812 826.601562 784 826.253906 784.839844 C 825.90625 785.679688 825.480469 786.476562 824.976562 787.234375 C 824.46875 787.988281 823.894531 788.6875 823.253906 789.332031 C 822.609375 789.972656 821.910156 790.546875 821.152344 791.054688 C 820.398438 791.558594 819.601562 791.984375 818.761719 792.332031 C 817.921875 792.679688 817.054688 792.945312 816.164062 793.121094 C 815.269531 793.296875 814.371094 793.386719 813.460938 793.386719 C 812.550781 793.386719 811.652344 793.296875 810.757812 793.121094 C 809.867188 792.945312 809 792.679688 808.160156 792.332031 C 807.320312 791.984375 806.523438 791.558594 805.769531 791.054688 C 805.011719 790.546875 804.3125 789.972656 803.667969 789.332031 C 803.027344 788.6875 802.453125 787.988281 801.949219 787.234375 C 801.441406 786.476562 801.015625 785.679688 800.667969 784.839844 C 800.320312 784 800.058594 783.132812 799.878906 782.242188 C 799.703125 781.347656 799.613281 780.449219 799.613281 779.539062 C 799.613281 778.628906 799.703125 777.730469 799.878906 776.839844 C 800.058594 775.945312 800.320312 775.082031 800.667969 774.242188 C 801.015625 773.402344 801.441406 772.601562 801.949219 771.847656 C 802.453125 771.089844 803.027344 770.390625 803.667969 769.75 C 804.3125 769.105469 805.011719 768.53125 805.769531 768.027344 C 806.523438 767.519531 807.320312 767.09375 808.160156 766.746094 C 809 766.398438 809.867188 766.136719 810.757812 765.957031 C 811.652344 765.78125 812.550781 765.691406 813.460938 765.691406 C 814.371094 765.691406 815.269531 765.78125 816.164062 765.957031 C 817.054688 766.136719 817.921875 766.398438 818.761719 766.746094 C 819.601562 767.09375 820.398438 767.519531 821.152344 768.027344 C 821.910156 768.53125 822.609375 769.105469 823.253906 769.75 C 823.894531 770.390625 824.46875 771.089844 824.976562 771.847656 C 825.480469 772.601562 825.90625 773.402344 826.253906 774.242188 C 826.601562 775.082031 826.863281 775.945312 827.042969 776.839844 C 827.21875 777.730469 827.308594 778.628906 827.308594 779.539062 Z M 827.308594 779.539062 " fill-opacity="1" fill-rule="nonzero"/></g><g clip-path="url(#0d8ade6748)"><path fill="#ff9800" d="M 1346.257812 146.070312 L 93.742188 146.070312 C 42.144531 146.070312 0.164062 188.050781 0.164062 239.648438 L 0.164062 1200.351562 C 0.164062 1251.949219 42.144531 1293.929688 93.742188 1293.929688 L 1346.257812 1293.929688 C 1397.855469 1293.929688 1439.835938 1251.949219 1439.835938 1200.351562 L 1439.835938 239.648438 C 1439.835938 188.050781 1397.855469 146.070312 1346.257812 146.070312 Z M 362.667969 236.945312 C 380.382812 236.945312 394.808594 251.3125 394.808594 268.972656 C 394.808594 286.6875 380.382812 301.113281 362.667969 301.113281 C 345.007812 301.113281 330.640625 286.6875 330.640625 268.972656 C 330.640625 251.316406 345.011719 236.945312 362.667969 236.945312 Z M 249.492188 236.945312 C 267.207031 236.945312 281.605469 251.3125 281.605469 268.972656 C 281.605469 286.6875 267.207031 301.113281 249.492188 301.113281 C 231.832031 301.113281 217.464844 286.6875 217.464844 268.972656 C 217.464844 251.316406 231.832031 236.945312 249.492188 236.945312 Z M 136.3125 236.945312 C 154.027344 236.945312 168.425781 251.3125 168.425781 268.972656 C 168.425781 286.6875 154.027344 301.113281 136.3125 301.113281 C 118.652344 301.113281 104.257812 286.6875 104.257812 268.972656 C 104.261719 251.316406 118.65625 236.945312 136.3125 236.945312 Z M 1400.441406 1200.34375 C 1400.441406 1230.234375 1376.144531 1254.558594 1346.257812 1254.558594 L 93.742188 1254.558594 C 63.851562 1254.558594 39.558594 1230.234375 39.558594 1200.34375 L 39.558594 386.3125 L 1400.445312 386.3125 L 1400.445312 1200.34375 Z M 123.96875 913.875 L 830.222656 913.875 C 841.105469 913.875 849.933594 905.070312 849.933594 894.191406 L 849.933594 470.640625 C 849.933594 459.757812 841.105469 450.957031 830.222656 450.957031 L 123.96875 450.957031 C 113.085938 450.957031 104.261719 459.757812 104.261719 470.640625 L 104.261719 894.191406 C 104.261719 905.074219 113.085938 913.875 123.96875 913.875 Z M 477.054688 511.835938 C 571.140625 511.835938 647.707031 588.375 647.707031 682.402344 C 647.707031 776.460938 571.140625 853 477.054688 853 C 383 853 306.488281 776.460938 306.488281 682.402344 C 306.488281 588.371094 383 511.835938 477.054688 511.835938 Z M 940.46875 470.636719 C 940.46875 459.761719 949.28125 450.949219 960.15625 450.949219 L 1316.039062 450.949219 C 1326.914062 450.949219 1335.730469 459.765625 1335.730469 470.636719 C 1335.730469 481.507812 1326.914062 490.324219 1316.039062 490.324219 L 960.15625 490.324219 C 949.28125 490.324219 940.46875 481.507812 940.46875 470.636719 Z M 940.46875 576.566406 C 940.46875 565.691406 949.28125 556.875 960.15625 556.875 L 1127.296875 556.875 C 1138.171875 556.875 1146.984375 565.691406 1146.984375 576.566406 C 1146.984375 587.4375 1138.167969 596.253906 1127.296875 596.253906 L 960.15625 596.253906 C 949.28125 596.253906 940.46875 587.4375 940.46875 576.566406 Z M 940.46875 682.414062 C 940.46875 671.539062 949.28125 662.726562 960.15625 662.726562 L 1316.039062 662.726562 C 1326.914062 662.726562 1335.730469 671.542969 1335.730469 682.414062 C 1335.730469 693.289062 1326.914062 702.101562 1316.039062 702.101562 L 960.15625 702.101562 C 949.28125 702.101562 940.46875 693.289062 940.46875 682.414062 Z M 965.257812 1028.101562 L 965.257812 1143.433594 C 965.257812 1154.308594 956.441406 1163.121094 945.570312 1163.121094 L 830.234375 1163.121094 C 819.359375 1163.121094 810.546875 1154.308594 810.546875 1143.433594 L 810.546875 1028.101562 C 810.546875 1017.226562 819.363281 1008.414062 830.234375 1008.414062 L 945.570312 1008.414062 C 956.445312 1008.414062 965.257812 1017.226562 965.257812 1028.101562 Z M 1335.730469 1042.449219 C 1335.730469 1053.324219 1326.914062 1062.136719 1316.042969 1062.136719 L 1051.339844 1062.136719 C 1040.464844 1062.136719 1031.652344 1053.320312 1031.652344 1042.449219 C 1031.652344 1031.574219 1040.464844 1022.761719 1051.339844 1022.761719 L 1316.042969 1022.761719 C 1326.914062 1022.761719 1335.730469 1031.574219 1335.730469 1042.449219 Z M 1335.730469 1129.089844 C 1335.730469 1139.964844 1326.914062 1148.777344 1316.042969 1148.777344 L 1051.339844 1148.777344 C 1040.464844 1148.777344 1031.652344 1139.960938 1031.652344 1129.089844 C 1031.652344 1118.214844 1040.464844 1109.402344 1051.339844 1109.402344 L 1316.042969 1109.402344 C 1326.914062 1109.402344 1335.730469 1118.214844 1335.730469 1129.089844 Z M 258.980469 1028.101562 L 258.980469 1143.433594 C 258.980469 1154.308594 250.164062 1163.121094 239.292969 1163.121094 L 123.957031 1163.121094 C 113.082031 1163.121094 104.269531 1154.308594 104.269531 1143.433594 L 104.269531 1028.101562 C 104.269531 1017.226562 113.085938 1008.414062 123.957031 1008.414062 L 239.289062 1008.414062 C 250.167969 1008.414062 258.980469 1017.226562 258.980469 1028.101562 Z M 629.535156 1042.449219 C 629.535156 1053.324219 620.71875 1062.136719 609.847656 1062.136719 L 345.0625 1062.136719 C 334.1875 1062.136719 325.375 1053.320312 325.375 1042.449219 C 325.375 1031.574219 334.191406 1022.761719 345.0625 1022.761719 L 609.847656 1022.761719 C 620.71875 1022.761719 629.535156 1031.574219 629.535156 1042.449219 Z M 629.535156 1129.089844 C 629.535156 1139.964844 620.71875 1148.777344 609.847656 1148.777344 L 345.0625 1148.777344 C 334.1875 1148.777344 325.375 1139.960938 325.375 1129.089844 C 325.375 1118.214844 334.191406 1109.402344 345.0625 1109.402344 L 609.847656 1109.402344 C 620.71875 1109.402344 629.535156 1118.214844 629.535156 1129.089844 Z M 414.804688 753.59375 L 414.804688 611.238281 C 414.804688 604.203125 418.558594 597.699219 424.652344 594.183594 C 430.753906 590.664062 438.257812 590.667969 444.347656 594.191406 L 567.554688 665.363281 C 573.648438 668.878906 577.40625 675.378906 577.40625 682.414062 C 577.40625 689.449219 573.648438 695.953125 567.554688 699.46875 L 444.347656 770.636719 C 441.296875 772.402344 437.894531 773.285156 434.492188 773.285156 C 431.09375 773.285156 427.699219 772.40625 424.652344 770.648438 C 418.558594 767.132812 414.804688 760.628906 414.804688 753.59375 Z M 414.804688 753.59375 " fill-opacity="1" fill-rule="nonzero"/></g></svg>