<svg xmlns="http://www.w3.org/2000/svg" xmlns:xlink="http://www.w3.org/1999/xlink" width="1920" zoomAndPan="magnify" viewBox="0 0 1440 1439.999935" height="1920" preserveAspectRatio="xMidYMid meet" version="1.0"><path fill="#ff9800" d="M 1075.945312 0 L 969.484375 0 L 1117.867188 259.671875 L 1424.574219 259.671875 C 1379.585938 109.675781 1240.40625 0 1075.945312 0 Z M 991.472656 898.386719 C 991.472656 873.074219 977.96875 849.695312 956.0625 837.066406 L 601.96875 632.605469 C 580.089844 619.949219 553.074219 619.902344 531.144531 632.605469 C 509.25 645.238281 495.738281 668.617188 495.738281 693.929688 L 495.738281 1102.824219 C 495.738281 1128.136719 509.25 1151.511719 531.144531 1164.148438 C 542.097656 1170.484375 554.339844 1173.644531 566.554688 1173.644531 C 578.777344 1173.644531 591.019531 1170.484375 601.96875 1164.148438 L 956.0625 959.710938 C 977.96875 947.074219 991.472656 923.699219 991.472656 898.386719 Z M 1440 1075.945312 C 1440 1276.695312 1276.695312 1440 1075.945312 1440 L 364.054688 1440 C 163.3125 1440 0 1276.695312 0 1075.945312 L 0 401.308594 L 1440 401.308594 Z M 807.824219 0 L 471.761719 0 L 620.144531 259.671875 L 954.753906 259.671875 L 812.953125 11.527344 C 810.816406 7.789062 809.210938 3.914062 807.824219 0 Z M 311.957031 4.167969 C 313.015625 6.632812 313.871094 9.140625 315.230469 11.527344 L 457.03125 259.671875 L 15.421875 259.671875 C 55.5625 125.855469 170.78125 24.542969 311.957031 4.167969 " fill-opacity="1" fill-rule="nonzero"/></svg>